<?xml version="1.0" encoding="UTF-8" standalone="no"?>
<!DOCTYPE svg PUBLIC "-//W3C//DTD SVG 1.1//EN" "http://www.w3.org/Graphics/SVG/1.1/DTD/svg11.dtd">
<svg width="100%" height="100%" viewBox="0 0 1000 1000" version="1.1" xmlns="http://www.w3.org/2000/svg" xmlns:xlink="http://www.w3.org/1999/xlink" xml:space="preserve" xmlns:serif="http://www.serif.com/" style="fill-rule:evenodd;clip-rule:evenodd;stroke-linecap:round;stroke-miterlimit:1.5;">
    <g transform="matrix(1.35383,0,0,1.35383,1020.04,1643.87)">
        <g>
            <g>
                <g transform="matrix(1.2027,0,0,1.11626,-813.226,-1229.72)">
                    <path d="M203.77,430.869C241.285,430.869 271.742,463.685 271.742,504.105C271.742,544.525 241.285,577.341 203.77,577.341C166.256,577.341 135.798,544.525 135.798,504.105C135.798,463.685 166.256,430.869 203.77,430.869ZM203.77,467.487C222.528,467.487 237.756,483.895 237.756,504.105C237.756,524.315 222.528,540.723 203.77,540.723C185.013,540.723 169.784,524.315 169.784,504.105C169.784,483.895 185.013,467.487 203.77,467.487Z" style="stroke:black;stroke-width:1.62px;"/>
                </g>
                <g transform="matrix(1,0,0,1,-775,-1150)">
                    <path d="M282.375,420.56C294.477,434.985 301.02,450.526 303.68,466.847L394.045,452.725L468.982,555.578C495.284,571.661 514.047,566.74 524.771,539.419L549.098,419.768L652.147,147.428L757.071,95.573C765.246,71.611 757.548,58.932 732.248,57.36L621.888,107.933C616.365,111.066 613.748,114.531 612.66,118.17L510.724,386.363L282.375,420.56Z" style="stroke:black;stroke-width:1.87px;"/>
                </g>
                <g transform="matrix(1,0,0,1,-775,-1150)">
                    <path d="M543.583,245.407L497.555,369.517L265.646,404.84C233.014,379.072 197.396,376.226 158.907,395.429L63.776,255.037L543.583,245.407Z" style="fill:rgb(179,25,25);stroke:rgb(179,25,24);stroke-width:1.87px;"/>
                </g>
                <g transform="matrix(1,0,0,1,-775,-1150)">
                    <path d="M566.753,185.209L549.402,230.889L36.335,240.794C16.621,227.247 16.255,208.528 37.491,196.431L566.753,185.209Z" style="fill:rgb(179,25,25);stroke:rgb(179,25,25);stroke-width:1.87px;"/>
                </g>
                <g transform="matrix(1,0,0,1,-775,-1150)">
                    <path d="M80.15,175.881C96.067,155.585 116.131,145.137 140.913,145.894C159.702,70.136 232.886,32.707 302.422,71.174C370.879,26.253 440.208,37.683 477.108,124.912C512.745,119.18 540.408,131.191 557.737,166.196L80.15,175.881Z" style="fill:rgb(49,35,18);stroke:rgb(50,37,17);stroke-width:1.87px;"/>
                </g>
                <g transform="matrix(-0.931088,0.364796,-0.364796,-0.931088,322.83,-381.643)">
                    <path d="M476.156,449.881L499.813,540.898L427.702,523.71L476.156,449.881Z" style="fill:rgb(217,203,174);stroke:rgb(217,203,174);stroke-width:1.87px;"/>
                </g>
            </g>
        </g>
    </g>
</svg>
