<?xml version="1.0" encoding="UTF-8" standalone="no"?>
<!DOCTYPE svg PUBLIC "-//W3C//DTD SVG 1.1//EN" "http://www.w3.org/Graphics/SVG/1.1/DTD/svg11.dtd">
<svg width="100%" height="100%" viewBox="0 0 24 24" version="1.1" xmlns="http://www.w3.org/2000/svg" xmlns:xlink="http://www.w3.org/1999/xlink" xml:space="preserve" xmlns:serif="http://www.serif.com/" style="fill-rule:evenodd;clip-rule:evenodd;stroke-linejoin:round;stroke-miterlimit:2;">
    <clipPath id="_clip1">
        <path d="M11,5L11,1L13,1L13,5L11,5ZM17.65,7.75L16.275,6.375L19.075,3.5L20.475,4.925L17.65,7.75ZM19,13L19,11L23,11L23,13L19,13ZM11,23L11,19L13,19L13,23L11,23ZM6.35,7.7L3.5,4.925L4.925,3.525L7.75,6.35L6.35,7.7ZM19.05,20.5L16.275,17.625L17.625,16.275L20.475,19.025L19.05,20.5ZM1,13L1,11L5,11L5,13L1,13ZM4.925,20.5L3.525,19.075L6.325,16.275L7.05,16.95L7.775,17.65L4.925,20.5ZM12,18C10.333,18 8.917,17.417 7.75,16.25C6.583,15.083 6,13.667 6,12C6,10.333 6.583,8.917 7.75,7.75C8.917,6.583 10.333,6 12,6C13.667,6 15.083,6.583 16.25,7.75C17.417,8.917 18,10.333 18,12C18,13.667 17.417,15.083 16.25,16.25C15.083,17.417 13.667,18 12,18ZM12,16C13.1,16 14.042,15.608 14.825,14.825C15.608,14.042 16,13.1 16,12C16,10.9 15.608,9.958 14.825,9.175C14.042,8.392 13.1,8 12,8C10.9,8 9.958,8.392 9.175,9.175C8.392,9.958 8,10.9 8,12C8,13.1 8.392,14.042 9.175,14.825C9.958,15.608 10.9,16 12,16Z" clip-rule="nonzero"/>
    </clipPath>
    <g clip-path="url(#_clip1)">
        <path d="M11,5L11,1L13,1L13,5L11,5ZM17.65,7.75L16.275,6.375L19.075,3.5L20.475,4.925L17.65,7.75ZM19,13L19,11L23,11L23,13L19,13ZM11,23L11,19L13,19L13,23L11,23ZM6.35,7.7L3.5,4.925L4.925,3.525L7.75,6.35L6.35,7.7ZM19.05,20.5L16.275,17.625L17.625,16.275L20.475,19.025L19.05,20.5ZM1,13L1,11L5,11L5,13L1,13ZM4.925,20.5L3.525,19.075L6.325,16.275L7.05,16.95L7.775,17.65L4.925,20.5ZM12,18C10.333,18 8.917,17.417 7.75,16.25C6.583,15.083 6,13.667 6,12C6,10.333 6.583,8.917 7.75,7.75C8.917,6.583 10.333,6 12,6C13.667,6 15.083,6.583 16.25,7.75C17.417,8.917 18,10.333 18,12C18,13.667 17.417,15.083 16.25,16.25C15.083,17.417 13.667,18 12,18ZM12,16C13.1,16 14.042,15.608 14.825,14.825C15.608,14.042 16,13.1 16,12C16,10.9 15.608,9.958 14.825,9.175C14.042,8.392 13.1,8 12,8C10.9,8 9.958,8.392 9.175,9.175C8.392,9.958 8,10.9 8,12C8,13.1 8.392,14.042 9.175,14.825C9.958,15.608 10.9,16 12,16Z" style="fill:rgb(255,255,85);fill-rule:nonzero;"/>
        <clipPath id="_clip2">
            <path d="M11,5L11,1L13,1L13,5L11,5ZM17.65,7.75L16.275,6.375L19.075,3.5L20.475,4.925L17.65,7.75ZM19,13L19,11L23,11L23,13L19,13ZM11,23L11,19L13,19L13,23L11,23ZM6.35,7.7L3.5,4.925L4.925,3.525L7.75,6.35L6.35,7.7ZM19.05,20.5L16.275,17.625L17.625,16.275L20.475,19.025L19.05,20.5ZM1,13L1,11L5,11L5,13L1,13ZM4.925,20.5L3.525,19.075L6.325,16.275L7.05,16.95L7.775,17.65L4.925,20.5ZM12,18C10.333,18 8.917,17.417 7.75,16.25C6.583,15.083 6,13.667 6,12C6,10.333 6.583,8.917 7.75,7.75C8.917,6.583 10.333,6 12,6C13.667,6 15.083,6.583 16.25,7.75C17.417,8.917 18,10.333 18,12C18,13.667 17.417,15.083 16.25,16.25C15.083,17.417 13.667,18 12,18ZM12,16C13.1,16 14.042,15.608 14.825,14.825C15.608,14.042 16,13.1 16,12C16,10.9 15.608,9.958 14.825,9.175C14.042,8.392 13.1,8 12,8C10.9,8 9.958,8.392 9.175,9.175C8.392,9.958 8,10.9 8,12C8,13.1 8.392,14.042 9.175,14.825C9.958,15.608 10.9,16 12,16Z" clip-rule="nonzero"/>
        </clipPath>
        <g clip-path="url(#_clip2)">
            <g transform="matrix(1.20085,0,0,1,-3.61948,-2.14794)">
                <rect x="3.014" y="2.463" width="19.986" height="11.685" style="fill:rgb(183,183,183);"/>
            </g>
        </g>
    </g>
</svg>
