<?xml version="1.0" encoding="UTF-8" standalone="no"?>
<!DOCTYPE svg PUBLIC "-//W3C//DTD SVG 1.1//EN" "http://www.w3.org/Graphics/SVG/1.1/DTD/svg11.dtd">
<svg width="100%" height="100%" viewBox="0 0 24 24" version="1.1" xmlns="http://www.w3.org/2000/svg" xmlns:xlink="http://www.w3.org/1999/xlink" xml:space="preserve" xmlns:serif="http://www.serif.com/" style="fill-rule:evenodd;clip-rule:evenodd;stroke-linejoin:round;stroke-miterlimit:2;">
    <clipPath id="_clip1">
        <path d="M4,9C3.717,9 3.479,8.904 3.288,8.712C3.096,8.521 3,8.283 3,8C3,7.717 3.096,7.479 3.288,7.287C3.479,7.096 3.717,7 4,7L7,7C7.55,7 8.021,7.196 8.413,7.587C8.804,7.979 9,8.45 9,9L4,9ZM6,18C6.833,18 7.542,17.708 8.125,17.125C8.708,16.542 9,15.833 9,15C9,14.167 8.708,13.458 8.125,12.875C7.542,12.292 6.833,12 6,12C5.167,12 4.458,12.292 3.875,12.875C3.292,13.458 3,14.167 3,15C3,15.833 3.292,16.542 3.875,17.125C4.458,17.708 5.167,18 6,18ZM19.5,18C19.917,18 20.271,17.854 20.563,17.563C20.854,17.271 21,16.917 21,16.5C21,16.083 20.854,15.729 20.563,15.438C20.271,15.146 19.917,15 19.5,15C19.083,15 18.729,15.146 18.438,15.438C18.146,15.729 18,16.083 18,16.5C18,16.917 18.146,17.271 18.438,17.563C18.729,17.854 19.083,18 19.5,18ZM6,16.5C5.583,16.5 5.229,16.354 4.938,16.063C4.646,15.771 4.5,15.417 4.5,15C4.5,14.583 4.646,14.229 4.938,13.938C5.229,13.646 5.583,13.5 6,13.5C6.417,13.5 6.771,13.646 7.063,13.938C7.354,14.229 7.5,14.583 7.5,15C7.5,15.417 7.354,15.771 7.063,16.063C6.771,16.354 6.417,16.5 6,16.5ZM20,13.025C20.433,13.108 20.792,13.221 21.075,13.362C21.358,13.504 21.667,13.733 22,14.05L22,8C22,7.45 21.804,6.979 21.413,6.587C21.021,6.196 20.55,6 20,6L13.7,6L12.65,4.9L14.05,3.5L13.35,2.8L9.8,6.35L10.55,7.05L11.95,5.65L13,6.7L13,9C13,9.55 12.804,10.021 12.413,10.413C12.021,10.804 11.55,11 11,11L8.975,11C9.358,11.283 9.667,11.575 9.9,11.875C10.133,12.175 10.367,12.55 10.6,13L11,13C12.1,13 13.042,12.608 13.825,11.825C14.608,11.042 15,10.1 15,9L15,8L20,8L20,13.025ZM16.025,16C16.125,15.55 16.246,15.188 16.388,14.913C16.529,14.637 16.75,14.333 17.05,14L10.9,14C10.967,14.383 11,14.717 11,15C11,15.283 10.967,15.617 10.9,16L16.025,16ZM19.5,20C18.533,20 17.708,19.658 17.025,18.975C16.342,18.292 16,17.467 16,16.5C16,15.533 16.342,14.708 17.025,14.025C17.708,13.342 18.533,13 19.5,13C20.467,13 21.292,13.342 21.975,14.025C22.658,14.708 23,15.533 23,16.5C23,17.467 22.658,18.292 21.975,18.975C21.292,19.658 20.467,20 19.5,20ZM6,20C4.617,20 3.438,19.513 2.463,18.538C1.488,17.563 1,16.383 1,15C1,13.617 1.488,12.438 2.463,11.462C3.438,10.487 4.617,10 6,10C7.383,10 8.563,10.487 9.538,11.462C10.513,12.438 11,13.617 11,15C11,16.383 10.513,17.563 9.538,18.538C8.563,19.513 7.383,20 6,20Z" clip-rule="nonzero"/>
    </clipPath>
    <g clip-path="url(#_clip1)">
        <path d="M4,9C3.717,9 3.479,8.904 3.288,8.712C3.096,8.521 3,8.283 3,8C3,7.717 3.096,7.479 3.288,7.287C3.479,7.096 3.717,7 4,7L7,7C7.55,7 8.021,7.196 8.413,7.587C8.804,7.979 9,8.45 9,9L4,9ZM6,18C6.833,18 7.542,17.708 8.125,17.125C8.708,16.542 9,15.833 9,15C9,14.167 8.708,13.458 8.125,12.875C7.542,12.292 6.833,12 6,12C5.167,12 4.458,12.292 3.875,12.875C3.292,13.458 3,14.167 3,15C3,15.833 3.292,16.542 3.875,17.125C4.458,17.708 5.167,18 6,18ZM19.5,18C19.917,18 20.271,17.854 20.563,17.563C20.854,17.271 21,16.917 21,16.5C21,16.083 20.854,15.729 20.563,15.438C20.271,15.146 19.917,15 19.5,15C19.083,15 18.729,15.146 18.438,15.438C18.146,15.729 18,16.083 18,16.5C18,16.917 18.146,17.271 18.438,17.563C18.729,17.854 19.083,18 19.5,18ZM6,16.5C5.583,16.5 5.229,16.354 4.938,16.063C4.646,15.771 4.5,15.417 4.5,15C4.5,14.583 4.646,14.229 4.938,13.938C5.229,13.646 5.583,13.5 6,13.5C6.417,13.5 6.771,13.646 7.063,13.938C7.354,14.229 7.5,14.583 7.5,15C7.5,15.417 7.354,15.771 7.063,16.063C6.771,16.354 6.417,16.5 6,16.5ZM20,13.025C20.433,13.108 20.792,13.221 21.075,13.362C21.358,13.504 21.667,13.733 22,14.05L22,8C22,7.45 21.804,6.979 21.413,6.587C21.021,6.196 20.55,6 20,6L13.7,6L12.65,4.9L14.05,3.5L13.35,2.8L9.8,6.35L10.55,7.05L11.95,5.65L13,6.7L13,9C13,9.55 12.804,10.021 12.413,10.413C12.021,10.804 11.55,11 11,11L8.975,11C9.358,11.283 9.667,11.575 9.9,11.875C10.133,12.175 10.367,12.55 10.6,13L11,13C12.1,13 13.042,12.608 13.825,11.825C14.608,11.042 15,10.1 15,9L15,8L20,8L20,13.025ZM16.025,16C16.125,15.55 16.246,15.188 16.388,14.913C16.529,14.637 16.75,14.333 17.05,14L10.9,14C10.967,14.383 11,14.717 11,15C11,15.283 10.967,15.617 10.9,16L16.025,16ZM19.5,20C18.533,20 17.708,19.658 17.025,18.975C16.342,18.292 16,17.467 16,16.5C16,15.533 16.342,14.708 17.025,14.025C17.708,13.342 18.533,13 19.5,13C20.467,13 21.292,13.342 21.975,14.025C22.658,14.708 23,15.533 23,16.5C23,17.467 22.658,18.292 21.975,18.975C21.292,19.658 20.467,20 19.5,20ZM6,20C4.617,20 3.438,19.513 2.463,18.538C1.488,17.563 1,16.383 1,15C1,13.617 1.488,12.438 2.463,11.462C3.438,10.487 4.617,10 6,10C7.383,10 8.563,10.487 9.538,11.462C10.513,12.438 11,13.617 11,15C11,16.383 10.513,17.563 9.538,18.538C8.563,19.513 7.383,20 6,20Z" style="fill:rgb(93,14,7);fill-rule:nonzero;"/>
        <clipPath id="_clip2">
            <path d="M4,9C3.717,9 3.479,8.904 3.288,8.712C3.096,8.521 3,8.283 3,8C3,7.717 3.096,7.479 3.288,7.287C3.479,7.096 3.717,7 4,7L7,7C7.55,7 8.021,7.196 8.413,7.587C8.804,7.979 9,8.45 9,9L4,9ZM6,18C6.833,18 7.542,17.708 8.125,17.125C8.708,16.542 9,15.833 9,15C9,14.167 8.708,13.458 8.125,12.875C7.542,12.292 6.833,12 6,12C5.167,12 4.458,12.292 3.875,12.875C3.292,13.458 3,14.167 3,15C3,15.833 3.292,16.542 3.875,17.125C4.458,17.708 5.167,18 6,18ZM19.5,18C19.917,18 20.271,17.854 20.563,17.563C20.854,17.271 21,16.917 21,16.5C21,16.083 20.854,15.729 20.563,15.438C20.271,15.146 19.917,15 19.5,15C19.083,15 18.729,15.146 18.438,15.438C18.146,15.729 18,16.083 18,16.5C18,16.917 18.146,17.271 18.438,17.563C18.729,17.854 19.083,18 19.5,18ZM6,16.5C5.583,16.5 5.229,16.354 4.938,16.063C4.646,15.771 4.5,15.417 4.5,15C4.5,14.583 4.646,14.229 4.938,13.938C5.229,13.646 5.583,13.5 6,13.5C6.417,13.5 6.771,13.646 7.063,13.938C7.354,14.229 7.5,14.583 7.5,15C7.5,15.417 7.354,15.771 7.063,16.063C6.771,16.354 6.417,16.5 6,16.5ZM20,13.025C20.433,13.108 20.792,13.221 21.075,13.362C21.358,13.504 21.667,13.733 22,14.05L22,8C22,7.45 21.804,6.979 21.413,6.587C21.021,6.196 20.55,6 20,6L13.7,6L12.65,4.9L14.05,3.5L13.35,2.8L9.8,6.35L10.55,7.05L11.95,5.65L13,6.7L13,9C13,9.55 12.804,10.021 12.413,10.413C12.021,10.804 11.55,11 11,11L8.975,11C9.358,11.283 9.667,11.575 9.9,11.875C10.133,12.175 10.367,12.55 10.6,13L11,13C12.1,13 13.042,12.608 13.825,11.825C14.608,11.042 15,10.1 15,9L15,8L20,8L20,13.025ZM16.025,16C16.125,15.55 16.246,15.188 16.388,14.913C16.529,14.637 16.75,14.333 17.05,14L10.9,14C10.967,14.383 11,14.717 11,15C11,15.283 10.967,15.617 10.9,16L16.025,16ZM19.5,20C18.533,20 17.708,19.658 17.025,18.975C16.342,18.292 16,17.467 16,16.5C16,15.533 16.342,14.708 17.025,14.025C17.708,13.342 18.533,13 19.5,13C20.467,13 21.292,13.342 21.975,14.025C22.658,14.708 23,15.533 23,16.5C23,17.467 22.658,18.292 21.975,18.975C21.292,19.658 20.467,20 19.5,20ZM6,20C4.617,20 3.438,19.513 2.463,18.538C1.488,17.563 1,16.383 1,15C1,13.617 1.488,12.438 2.463,11.462C3.438,10.487 4.617,10 6,10C7.383,10 8.563,10.487 9.538,11.462C10.513,12.438 11,13.617 11,15C11,16.383 10.513,17.563 9.538,18.538C8.563,19.513 7.383,20 6,20Z" clip-rule="nonzero"/>
        </clipPath>
        <g clip-path="url(#_clip2)">
            <g transform="matrix(1.022,0,0,1.31777,-0.527948,-0.720517)">
                <rect x="0.517" y="0.547" width="23.483" height="9.832" style="fill:rgb(183,183,183);"/>
            </g>
        </g>
    </g>
</svg>
