<?xml version="1.0" encoding="UTF-8" standalone="no"?>
<!DOCTYPE svg PUBLIC "-//W3C//DTD SVG 1.1//EN" "http://www.w3.org/Graphics/SVG/1.1/DTD/svg11.dtd">
<svg width="100%" height="100%" viewBox="0 0 24 24" version="1.1" xmlns="http://www.w3.org/2000/svg" xmlns:xlink="http://www.w3.org/1999/xlink" xml:space="preserve" xmlns:serif="http://www.serif.com/" style="fill-rule:evenodd;clip-rule:evenodd;stroke-linejoin:round;stroke-miterlimit:2;">
    <clipPath id="_clip1">
        <path d="M12.275,19C12.475,18.983 12.646,18.904 12.788,18.763C12.929,18.621 13,18.45 13,18.25C13,18.017 12.925,17.829 12.775,17.688C12.625,17.546 12.433,17.483 12.2,17.5C11.517,17.55 10.792,17.363 10.025,16.938C9.258,16.513 8.775,15.742 8.575,14.625C8.542,14.442 8.454,14.292 8.313,14.175C8.171,14.058 8.008,14 7.825,14C7.592,14 7.4,14.087 7.25,14.262C7.1,14.438 7.05,14.642 7.1,14.875C7.383,16.392 8.05,17.475 9.1,18.125C10.15,18.775 11.208,19.067 12.275,19ZM12,22C9.717,22 7.813,21.217 6.288,19.65C4.763,18.083 4,16.133 4,13.8C4,12.133 4.663,10.321 5.988,8.362C7.313,6.404 9.317,4.283 12,2C14.683,4.283 16.688,6.404 18.013,8.362C19.338,10.321 20,12.133 20,13.8C20,16.133 19.238,18.083 17.713,19.65C16.188,21.217 14.283,22 12,22ZM12,20C13.733,20 15.167,19.413 16.3,18.238C17.433,17.063 18,15.583 18,13.8C18,12.583 17.496,11.208 16.488,9.675C15.479,8.142 13.983,6.467 12,4.65C10.017,6.467 8.521,8.142 7.513,9.675C6.504,11.208 6,12.583 6,13.8C6,15.583 6.567,17.063 7.7,18.238C8.833,19.413 10.267,20 12,20Z" clip-rule="nonzero"/>
    </clipPath>
    <g clip-path="url(#_clip1)">
        <path d="M12.275,19C12.475,18.983 12.646,18.904 12.788,18.763C12.929,18.621 13,18.45 13,18.25C13,18.017 12.925,17.829 12.775,17.688C12.625,17.546 12.433,17.483 12.2,17.5C11.517,17.55 10.792,17.363 10.025,16.938C9.258,16.513 8.775,15.742 8.575,14.625C8.542,14.442 8.454,14.292 8.313,14.175C8.171,14.058 8.008,14 7.825,14C7.592,14 7.4,14.087 7.25,14.262C7.1,14.438 7.05,14.642 7.1,14.875C7.383,16.392 8.05,17.475 9.1,18.125C10.15,18.775 11.208,19.067 12.275,19ZM12,22C9.717,22 7.813,21.217 6.288,19.65C4.763,18.083 4,16.133 4,13.8C4,12.133 4.663,10.321 5.988,8.362C7.313,6.404 9.317,4.283 12,2C14.683,4.283 16.688,6.404 18.013,8.362C19.338,10.321 20,12.133 20,13.8C20,16.133 19.238,18.083 17.713,19.65C16.188,21.217 14.283,22 12,22ZM12,20C13.733,20 15.167,19.413 16.3,18.238C17.433,17.063 18,15.583 18,13.8C18,12.583 17.496,11.208 16.488,9.675C15.479,8.142 13.983,6.467 12,4.65C10.017,6.467 8.521,8.142 7.513,9.675C6.504,11.208 6,12.583 6,13.8C6,15.583 6.567,17.063 7.7,18.238C8.833,19.413 10.267,20 12,20Z" style="fill:rgb(89,133,225);fill-rule:nonzero;"/>
        <clipPath id="_clip2">
            <path d="M12.275,19C12.475,18.983 12.646,18.904 12.788,18.763C12.929,18.621 13,18.45 13,18.25C13,18.017 12.925,17.829 12.775,17.688C12.625,17.546 12.433,17.483 12.2,17.5C11.517,17.55 10.792,17.363 10.025,16.938C9.258,16.513 8.775,15.742 8.575,14.625C8.542,14.442 8.454,14.292 8.313,14.175C8.171,14.058 8.008,14 7.825,14C7.592,14 7.4,14.087 7.25,14.262C7.1,14.438 7.05,14.642 7.1,14.875C7.383,16.392 8.05,17.475 9.1,18.125C10.15,18.775 11.208,19.067 12.275,19ZM12,22C9.717,22 7.813,21.217 6.288,19.65C4.763,18.083 4,16.133 4,13.8C4,12.133 4.663,10.321 5.988,8.362C7.313,6.404 9.317,4.283 12,2C14.683,4.283 16.688,6.404 18.013,8.362C19.338,10.321 20,12.133 20,13.8C20,16.133 19.238,18.083 17.713,19.65C16.188,21.217 14.283,22 12,22ZM12,20C13.733,20 15.167,19.413 16.3,18.238C17.433,17.063 18,15.583 18,13.8C18,12.583 17.496,11.208 16.488,9.675C15.479,8.142 13.983,6.467 12,4.65C10.017,6.467 8.521,8.142 7.513,9.675C6.504,11.208 6,12.583 6,13.8C6,15.583 6.567,17.063 7.7,18.238C8.833,19.413 10.267,20 12,20Z" clip-rule="nonzero"/>
        </clipPath>
        <g clip-path="url(#_clip2)">
            <g transform="matrix(1.08567,0,0,1.55644,-2.05604,-5.62466)">
                <rect x="1.894" y="3.614" width="22.106" height="7.71" style="fill:rgb(183,183,183);"/>
            </g>
        </g>
    </g>
</svg>
