<svg version="1.2" xmlns="http://www.w3.org/2000/svg" viewBox="0 0 111 294" width="111" height="294">
	<title>34295180_sunflower_growth</title>
	<style>
		.s0 { fill: #8bbc4a } 
		.s1 { fill: #9cd83d } 
		.s2 { fill: #98c939 } 
		.s3 { fill: #5e3430 } 
		.s4 { fill: #492523 } 
		.s5 { fill: #f7df2f } 
		.s6 { fill: #e2bd20 } 
		.s7 { fill: #efca30 } 
		.s8 { fill: #ffee42 } 
		.s9 { fill: #502318 } 
	</style>
	<g id="background">
	</g>
	<g id="objects">
		<g>
			<g>
				<g>
					<path class="s0" d="m269.1 257.9h-2c0-22.7-2.2-38-4-50.3-3-20.6-5-34.2 4.8-62.3 5.3-15.4 8.5-33.1 9.3-52.4h2c-0.9 19.6-4 37.5-9.5 53.1-9.6 27.6-7.6 41-4.7 61.3 1.8 12.4 4.1 27.8 4.1 50.6z"/>
					<g>
						<path class="s0" d="m268.1 257.9c-0.4 0-0.7-0.3-0.7-0.7v-17.4c0-9.1 5-17.3 13-21.4 0.4-0.2 0.8-0.1 1 0.3 0.2 0.3 0 0.7-0.3 0.9-7.6 3.9-12.3 11.7-12.3 20.2v17.4c0 0.4-0.3 0.7-0.7 0.7z"/>
						<g>
							<path class="s1" d="m305.7 207c-7.4 6-6.2 13-14.3 19.7-4.9 4.1-10.9 3-14.7-2.1q-0.8-1.1-1.4-2.3-0.3-0.7-0.5-1.3c-1.7-4.6-1-9.8 3-12.8 10.6-7.7 27.9-1.2 27.9-1.2z"/>
							<path class="s2" d="m277.5 221.1c0 0-1.1-6.1 1-8.9 0 0-1.1 5.1 0.7 7.4z"/>
							<path class="s2" d="m280.6 218.2c0 0-0.5-6.1 1.9-8.7 0 0-1.6 5 0 7.4z"/>
							<path class="s2" d="m284.3 216.3c0 0 0.7-6.1 3.5-8.2 0 0-2.5 4.6-1.4 7.3z"/>
							<path class="s2" d="m277.5 221.1c0 0 4.9 3.7 8.3 3.2 0 0-5-1.4-6.2-4.1z"/>
							<path class="s2" d="m280.8 218.8c0 0 5.2 3.4 8.5 2.6 0 0-5.1-1-6.5-3.6z"/>
							<path class="s2" d="m284.6 216.7c0 0 5.8 2.3 8.9 0.8 0 0-5.2 0-7.1-2.2z"/>
							<path class="s2" d="m289.1 213.2c0 0 0.5-4.8 2.7-6.4 0 0-2 3.6-1.1 5.7z"/>
							<path class="s2" d="m289.3 213.5c0 0 4.5 1.7 6.9 0.6 0 0-4.1 0-5.5-1.7z"/>
							<path class="s2" d="m294 211.3c0 0 0.4-3.5 1.9-4.7 0 0-1.4 2.6-0.8 4.1z"/>
							<path class="s2" d="m294.1 211.5c0 0 3.3 1.2 5 0.4 0 0-2.9 0-4-1.2z"/>
							<path class="s0" d="m298.3 209.8c-7.1 2.9-18.4 10-22.4 13.5q-0.3-0.5-0.6-1 0-0.2-0.1-0.3c1.8-1.7 13.9-9.8 22.9-12.8 0.3-0.1 0.5 0.4 0.2 0.6z"/>
						</g>
						<path class="s0" d="m268.1 249.2c-0.4 0-0.7-0.3-0.7-0.7 0-8.6-4.7-16.3-12.3-20.2-0.4-0.2-0.5-0.6-0.3-1 0.2-0.3 0.6-0.5 0.9-0.3 8.1 4.2 13.1 12.4 13.1 21.5 0 0.4-0.3 0.7-0.7 0.7z"/>
						<g>
							<path class="s1" d="m230.4 215.6c7.5 6 6.3 13 14.4 19.8 4.8 4.1 10.9 2.9 14.7-2.2q0.8-1.1 1.3-2.3 0.3-0.6 0.6-1.3c1.7-4.5 0.9-9.8-3.1-12.7-10.5-7.7-27.9-1.3-27.9-1.3z"/>
							<path class="s2" d="m258.7 229.7c0 0 1.1-6.1-1.1-8.8 0 0 1.2 5.1-0.6 7.4z"/>
							<path class="s2" d="m255.5 226.9c0 0 0.5-6.2-1.8-8.8 0 0 1.6 5.1 0 7.5z"/>
							<path class="s2" d="m251.9 225c0 0-0.7-6.2-3.5-8.3 0 0 2.5 4.7 1.4 7.4z"/>
							<path class="s2" d="m258.7 229.7c0 0-4.9 3.8-8.4 3.3 0 0 5.1-1.5 6.3-4.1z"/>
							<path class="s2" d="m255.4 227.5c0 0-5.2 3.4-8.6 2.5 0 0 5.2-1 6.6-3.5z"/>
							<path class="s2" d="m251.6 225.3c0 0-5.8 2.3-8.9 0.9 0 0 5.2 0 7.1-2.3z"/>
							<path class="s2" d="m247.1 221.8c0 0-0.5-4.7-2.7-6.4 0 0 2 3.6 1.1 5.7z"/>
							<path class="s2" d="m246.9 222.1c0 0-4.5 1.8-6.9 0.7 0 0 4 0 5.5-1.8z"/>
							<path class="s2" d="m242.2 219.9c0 0-0.4-3.4-1.9-4.6 0 0 1.4 2.6 0.7 4.1z"/>
							<path class="s2" d="m242 220.1c0 0-3.2 1.3-5 0.5 0 0 3 0 4-1.3z"/>
							<path class="s0" d="m237.9 218.4c7 2.9 18.4 10 22.4 13.6q0.3-0.5 0.5-1.1 0.1-0.1 0.2-0.2c-1.8-1.8-13.9-9.8-22.9-12.8-0.3-0.1-0.6 0.4-0.2 0.5z"/>
						</g>
					</g>
					<g>
						<path class="s0" d="m263.8 206.4c1-7.8 5.7-14.6 12.8-18.3 0.4-0.2 0.8-0.1 1 0.3 0.2 0.3 0 0.8-0.3 1-7.6 3.9-12.3 11.6-12.3 20.1v2.9z"/>
						<g>
							<path class="s1" d="m301.9 176.7c-7.4 6-6.2 13-14.3 19.8-4.9 4-10.9 2.9-14.7-2.2q-0.8-1.1-1.3-2.3-0.4-0.6-0.6-1.3c-1.7-4.6-0.9-9.8 3.1-12.7 10.5-7.7 27.8-1.3 27.8-1.3z"/>
							<path class="s2" d="m273.7 190.8c0 0-1.1-6.1 1-8.9 0 0-1.1 5.2 0.7 7.5z"/>
							<path class="s2" d="m276.8 188c0 0-0.5-6.2 1.9-8.8 0 0-1.6 5 0 7.5z"/>
							<path class="s2" d="m280.5 186c0 0 0.7-6.1 3.5-8.2 0 0-2.5 4.6-1.4 7.3z"/>
							<path class="s2" d="m273.7 190.8c0 0 4.9 3.8 8.3 3.2 0 0-5-1.4-6.2-4.1z"/>
							<path class="s2" d="m277 188.6c0 0 5.2 3.3 8.6 2.5 0 0-5.2-1-6.6-3.6z"/>
							<path class="s2" d="m280.8 186.4c0 0 5.8 2.3 8.9 0.8 0 0-5.2 0.1-7.1-2.2z"/>
							<path class="s2" d="m285.3 182.9c0 0 0.5-4.8 2.7-6.4 0 0-2 3.6-1.1 5.7z"/>
							<path class="s2" d="m285.5 183.2c0 0 4.5 1.8 6.9 0.6 0 0-4.1 0-5.5-1.7z"/>
							<path class="s2" d="m290.2 181c0 0 0.4-3.5 1.9-4.6 0 0-1.4 2.6-0.8 4.1z"/>
							<path class="s2" d="m290.3 181.2c0 0 3.3 1.3 5 0.5 0 0-2.9 0-3.9-1.3z"/>
							<path class="s0" d="m294.5 179.5c-7 2.9-18.4 10-22.4 13.5q-0.3-0.5-0.5-1-0.1-0.1-0.2-0.3c1.8-1.7 13.9-9.8 22.9-12.7 0.3-0.2 0.6 0.4 0.2 0.5z"/>
						</g>
					</g>
					<g>
						<path class="s0" d="m263.5 162.4c3.7-4.4 9-7.3 14.9-8.1 0.4 0 0.8 0.2 0.8 0.6 0.1 0.4-0.2 0.8-0.6 0.8-6.1 0.9-11.4 4.1-15 8.8z"/>
						<g>
							<path class="s1" d="m306.1 152c-9 3.2-10.2 10.2-20.1 13.9-6 2.2-11.3-0.9-13.1-7q-0.4-1.3-0.6-2.6-0.1-0.7-0.1-1.4c0-4.9 2.4-9.5 7.2-11 12.5-3.7 26.7 8.1 26.7 8.1z"/>
							<path class="s2" d="m274.7 155.9c0 0 1.1-6.1 4-8 0 0-2.8 4.4-1.9 7.2z"/>
							<path class="s2" d="m278.7 154.3c0 0 1.6-6 4.6-7.6 0 0-3.1 4.1-2.4 7z"/>
							<path class="s2" d="m282.8 153.7c0 0 2.7-5.6 6-6.6 0 0-3.9 3.5-3.8 6.4z"/>
							<path class="s2" d="m274.8 155.9c0 0 3.3 5.2 6.7 5.8 0 0-4.3-3-4.5-5.9z"/>
							<path class="s2" d="m278.6 154.9c0 0 3.8 4.9 7.2 5.2 0 0-4.5-2.6-5-5.5z"/>
							<path class="s2" d="m282.9 154.1c0 0 4.7 4.1 8.1 3.8 0 0-4.9-1.7-5.9-4.5z"/>
							<path class="s2" d="m288.3 152.3c0 0 2.1-4.3 4.7-5.1 0 0-3 2.7-2.9 5z"/>
							<path class="s2" d="m288.4 152.7c0 0 3.6 3.1 6.3 2.9 0 0-3.8-1.4-4.6-3.5z"/>
							<path class="s2" d="m293.6 152.2c0 0 1.5-3.2 3.3-3.7 0 0-2.1 1.9-2.1 3.6z"/>
							<path class="s2" d="m293.7 152.4c0 0 2.6 2.3 4.5 2.1 0 0-2.8-1-3.3-2.5z"/>
							<path class="s0" d="m298.2 152.2c-7.7 0.4-20.8 3.3-25.7 5.3q-0.1-0.6-0.2-1.2 0-0.1 0-0.3c2.2-1 16.3-4.6 25.8-4.4 0.4 0 0.4 0.6 0.1 0.6z"/>
						</g>
					</g>
					<g>
						<path class="s0" d="m270.4 138.9c3.7-6.4 10.1-10.8 17.6-11.8 0.4-0.1 0.8 0.2 0.8 0.6 0.1 0.4-0.2 0.8-0.6 0.8-7.6 1-14 5.7-17.3 12.5z"/>
						<g>
							<path class="s1" d="m315.7 124.8c-9 3.2-10.3 10.2-20.2 13.9-5.9 2.2-11.3-0.9-13.1-7q-0.4-1.3-0.5-2.6-0.1-0.7-0.1-1.4c0-4.9 2.4-9.6 7.2-11 12.5-3.7 26.7 8.1 26.7 8.1z"/>
							<path class="s2" d="m284.3 128.7c0 0 1.1-6.1 4-8 0 0-2.8 4.4-1.9 7.2z"/>
							<path class="s2" d="m288.2 127.1c0 0 1.6-6 4.7-7.7 0 0-3.2 4.2-2.5 7.1z"/>
							<path class="s2" d="m292.3 126.5c0 0 2.7-5.6 6.1-6.6 0 0-3.9 3.5-3.8 6.4z"/>
							<path class="s2" d="m284.3 128.7c0 0 3.4 5.2 6.8 5.8 0 0-4.3-3-4.5-5.9z"/>
							<path class="s2" d="m288.2 127.7c0 0 3.7 4.9 7.2 5.2 0 0-4.5-2.6-5-5.5z"/>
							<path class="s2" d="m292.5 126.9c0 0 4.6 4.1 8.1 3.8 0 0-4.9-1.8-5.9-4.5z"/>
							<path class="s2" d="m297.9 125.1c0 0 2.1-4.3 4.7-5.1 0 0-3.1 2.7-3 5z"/>
							<path class="s2" d="m298 125.4c0 0 3.6 3.2 6.3 3 0 0-3.9-1.4-4.6-3.5z"/>
							<path class="s2" d="m303.1 124.9c0 0 1.6-3.1 3.4-3.7 0 0-2.2 2-2.1 3.6z"/>
							<path class="s2" d="m303.2 125.2c0 0 2.6 2.3 4.6 2.1 0 0-2.8-1-3.4-2.5z"/>
							<path class="s0" d="m307.7 125c-7.6 0.4-20.7 3.3-25.6 5.3q-0.1-0.6-0.2-1.2 0-0.2 0-0.3c2.2-1.1 16.3-4.6 25.8-4.4 0.3 0 0.4 0.6 0 0.6z"/>
						</g>
					</g>
					<g>
						<path class="s0" d="m263.3 203.3c-1.8-5.6-5.7-10.3-11.1-13.1-0.4-0.2-0.5-0.6-0.4-1 0.2-0.3 0.7-0.5 1-0.3 4.5 2.4 8.1 6 10.4 10.3z"/>
						<g>
							<path class="s1" d="m227.5 177.5c7.4 6 6.2 13 14.3 19.8 4.9 4.1 11 2.9 14.7-2.2q0.8-1.1 1.4-2.3 0.3-0.6 0.6-1.3c1.6-4.5 0.9-9.8-3.1-12.7-10.5-7.7-27.9-1.3-27.9-1.3z"/>
							<path class="s2" d="m255.8 191.6c0 0 1-6.1-1.1-8.8 0 0 1.2 5.1-0.7 7.4z"/>
							<path class="s2" d="m252.6 188.8c0 0 0.5-6.2-1.8-8.7 0 0 1.5 5-0.1 7.4z"/>
							<path class="s2" d="m248.9 186.9c0 0-0.6-6.2-3.4-8.3 0 0 2.5 4.7 1.4 7.4z"/>
							<path class="s2" d="m255.7 191.6c0 0-4.8 3.8-8.3 3.3 0 0 5.1-1.5 6.2-4.1z"/>
							<path class="s2" d="m252.5 189.4c0 0-5.2 3.4-8.6 2.5 0 0 5.2-1 6.6-3.5z"/>
							<path class="s2" d="m248.6 187.2c0 0-5.7 2.3-8.9 0.9 0 0 5.3 0 7.1-2.3z"/>
							<path class="s2" d="m244.2 183.7c0 0-0.6-4.7-2.7-6.4 0 0 1.9 3.6 1.1 5.7z"/>
							<path class="s2" d="m243.9 184c0 0-4.4 1.8-6.9 0.7 0 0 4.1 0 5.6-1.8z"/>
							<path class="s2" d="m239.3 181.8c0 0-0.4-3.4-2-4.6 0 0 1.4 2.6 0.8 4.1z"/>
							<path class="s2" d="m239.1 182c0 0-3.2 1.3-5 0.5 0 0 3 0 4-1.3z"/>
							<path class="s0" d="m234.9 180.3c7.1 2.9 18.5 10 22.4 13.6q0.3-0.5 0.6-1.1 0.1-0.1 0.1-0.2c-1.7-1.8-13.8-9.8-22.8-12.8-0.4-0.1-0.6 0.4-0.3 0.5z"/>
						</g>
					</g>
					<g>
						<path class="s0" d="m262.3 172.7c-1.7-5.9-5.7-10.9-11.4-13.8-0.3-0.2-0.5-0.6-0.3-1 0.2-0.3 0.6-0.5 1-0.3 5.1 2.7 9 7 11.2 12.1z"/>
						<g>
							<path class="s1" d="m226.3 146.2c7.4 6 6.2 13 14.3 19.8 4.9 4.1 11 2.9 14.7-2.2q0.8-1.1 1.4-2.3 0.3-0.6 0.5-1.3c1.7-4.5 1-9.8-3-12.7-10.6-7.7-27.9-1.3-27.9-1.3z"/>
							<path class="s2" d="m254.6 160.3c0 0 1-6.1-1.1-8.8 0 0 1.1 5.1-0.7 7.4z"/>
							<path class="s2" d="m251.4 157.5c0 0 0.5-6.2-1.9-8.8 0 0 1.6 5.1 0 7.5z"/>
							<path class="s2" d="m247.7 155.6c0 0-0.7-6.2-3.5-8.3 0 0 2.5 4.7 1.4 7.4z"/>
							<path class="s2" d="m254.5 160.3c0 0-4.9 3.8-8.3 3.3 0 0 5-1.5 6.2-4.1z"/>
							<path class="s2" d="m251.3 158.1c0 0-5.2 3.4-8.6 2.5 0 0 5.1-1 6.5-3.5z"/>
							<path class="s2" d="m247.4 155.9c0 0-5.7 2.3-8.9 0.9 0 0 5.3 0 7.1-2.3z"/>
							<path class="s2" d="m243 152.4c0 0-0.6-4.7-2.7-6.4 0 0 1.9 3.6 1 5.7z"/>
							<path class="s2" d="m242.7 152.7c0 0-4.4 1.8-6.9 0.7 0 0 4.1 0 5.5-1.8z"/>
							<path class="s2" d="m238 150.5c0 0-0.3-3.4-1.9-4.6 0 0 1.4 2.6 0.8 4.1z"/>
							<path class="s2" d="m237.9 150.7c0 0-3.2 1.3-5 0.5 0 0 2.9 0 4-1.3z"/>
							<path class="s0" d="m233.7 149c7.1 2.9 18.4 10 22.4 13.6q0.3-0.5 0.6-1.1 0-0.1 0.1-0.2c-1.7-1.8-13.8-9.8-22.9-12.8-0.3-0.1-0.5 0.4-0.2 0.5z"/>
						</g>
					</g>
					<g>
						<path class="s0" d="m271.8 135.7c-2.1-3-4.9-5.6-8.4-7.4-0.3-0.1-0.5-0.6-0.3-0.9 0.2-0.4 0.6-0.5 1-0.3 3.3 1.7 6.1 4.1 8.3 7z"/>
						<g>
							<path class="s1" d="m238.8 115.7c7.4 6 6.2 13 14.3 19.8 4.9 4 11 2.9 14.7-2.2q0.8-1.1 1.4-2.3 0.3-0.6 0.5-1.3c1.7-4.6 1-9.8-3-12.7-10.6-7.7-27.9-1.3-27.9-1.3z"/>
							<path class="s2" d="m267.1 129.8c0 0 1-6.1-1.1-8.9 0 0 1.1 5.1-0.7 7.4z"/>
							<path class="s2" d="m263.9 127c0 0 0.5-6.2-1.9-8.8 0 0 1.6 5 0 7.5z"/>
							<path class="s2" d="m260.2 125c0 0-0.7-6.1-3.5-8.2 0 0 2.6 4.6 1.4 7.3z"/>
							<path class="s2" d="m267 129.8c0 0-4.9 3.8-8.3 3.2 0 0 5-1.4 6.2-4.1z"/>
							<path class="s2" d="m263.8 127.6c0 0-5.2 3.3-8.6 2.5 0 0 5.1-1 6.5-3.6z"/>
							<path class="s2" d="m259.9 125.4c0 0-5.7 2.3-8.9 0.8 0 0 5.3 0.1 7.1-2.2z"/>
							<path class="s2" d="m255.5 121.9c0 0-0.6-4.8-2.7-6.4 0 0 1.9 3.6 1 5.7z"/>
							<path class="s2" d="m255.2 122.2c0 0-4.4 1.8-6.9 0.6 0 0 4.1 0 5.5-1.7z"/>
							<path class="s2" d="m250.6 120c0 0-0.4-3.5-2-4.6 0 0 1.4 2.5 0.8 4.1z"/>
							<path class="s2" d="m250.4 120.2c0 0-3.2 1.3-5 0.4 0 0 2.9 0.1 4-1.2z"/>
							<path class="s0" d="m246.2 118.5c7.1 2.9 18.4 10 22.4 13.5q0.3-0.5 0.6-1 0-0.1 0.1-0.3c-1.7-1.7-13.8-9.8-22.8-12.8-0.4-0.1-0.6 0.4-0.3 0.6z"/>
						</g>
					</g>
				</g>
				<g>
					<path class="s3" d="m233.3 278c-2.4 0-4.4-2-4.4-4.4 0-2.4 2-4.4 4.4-4.4q0 0 0.1 0c0.7-2.2 2.8-3.8 5.2-3.8q0.1 0 0.1 0c0.6-1.7 2.2-2.8 4.1-2.8 0.8 0 1.5 0.1 2.1 0.5 0.8-0.5 1.7-0.7 2.6-0.7q0.4 0 0.7 0c1-1.4 2.6-2.3 4.5-2.3 0.4-0.8 1.3-1.4 2.3-1.4 0.5 0 1 0.2 1.5 0.5 1.1-1.2 2.7-2 4.6-2q0.5 0 1.1 0.1c1.3-1.8 3.5-2.9 5.9-2.9 2.4 0 4.6 1.1 5.9 2.9q0.6-0.1 1.1-0.1c1.8 0 3.5 0.8 4.6 2 0.4-0.3 0.9-0.5 1.5-0.5 1 0 1.9 0.6 2.3 1.4 1.9 0 3.5 0.9 4.5 2.3q0.3 0 0.6 0c1 0 1.9 0.2 2.7 0.7 0.6-0.4 1.3-0.5 2.1-0.5 1.9 0 3.5 1.1 4.1 2.8q0 0 0.1 0c2.4 0 4.5 1.6 5.2 3.8q0 0 0.1 0c2.4 0 4.4 2 4.4 4.4 0 2.4-2 4.4-4.4 4.4z"/>
					<path class="s4" d="m241.5 268.3c0 0 3 0.2 3.7-3.1 0 0 0.2 1.4-0.2 2.5-0.5 1-1.7 1.7-3.5 0.6z"/>
					<path class="s4" d="m295 269.1c0 0-3.9 0.3-4.8-3.9 0 0-0.3 1.8 0.3 3.1 0.6 1.4 2.1 2.3 4.5 0.8z"/>
					<path class="s4" d="m266.5 274.1c0 0-3.9 0.2-4.7-3.9 0 0-0.3 1.8 0.3 3.1 0.6 1.4 2.1 2.3 4.4 0.8z"/>
					<path class="s4" d="m261.1 264.1c0 0 3.9 0.2 4.7-3.9 0 0 0.4 1.8-0.2 3.1-0.6 1.4-2.2 2.3-4.5 0.8z"/>
					<path class="s4" d="m285.9 267c-1.1 0.7-2.1 0.8-2.8 0.6-0.4 0.4-0.9 0.6-1.5 0.7-1.3 0.3-2.9-0.5-2.9-0.5 1.5 0.1 2.5-0.4 3.3-1q-0.3-0.3-0.4-0.6c-0.6-1.3-0.3-3-0.3-3 0.3 1.3 0.9 2.2 1.5 2.7q0.4 0.4 0.9 0.6c1.1 0.5 2.2 0.5 2.2 0.5z"/>
					<path class="s4" d="m250.3 265.7c1.2 0.7 2.1 0.8 2.8 0.6 0.4 0.4 0.9 0.6 1.5 0.7 1.4 0.2 2.9-0.5 2.9-0.5-1.5 0.1-2.5-0.4-3.2-1q0.2-0.3 0.4-0.6c0.5-1.3 0.2-3 0.2-3-0.2 1.3-0.8 2.1-1.5 2.7q-0.4 0.3-0.8 0.6c-1.2 0.5-2.3 0.5-2.3 0.5z"/>
					<path class="s4" d="m237.2 278c6.2 0 8.1-3.4 8.1-3.4 0 0 1.3 3.4 9 3.4z"/>
					<path class="s4" d="m286 278c6.2 0 8-3.4 8-3.4 0 0 0.8 3.4 8.5 3.4z"/>
				</g>
				<g>
					<path class="s5" d="m279.4 46.4c0.2-15.3-6.1-22.4-9.2-25-1-0.8-2.5-0.5-3 0.6-1.9 3.7-4.8 12.7 1.5 26.6z"/>
					<path class="s5" d="m266.1 50.4c-10.7-11-20.1-11.6-24.2-11.2-1.3 0.1-2.1 1.3-1.7 2.5 1.3 4 5.6 12.4 19.9 17.8z"/>
					<path class="s5" d="m259.5 62.6c-15.3-0.2-22.4 6-25 9.2-0.8 0.9-0.5 2.4 0.6 3 3.7 1.8 12.7 4.7 26.6-1.5z"/>
					<path class="s5" d="m263.5 75.8c-11 10.7-11.6 20.1-11.2 24.3 0.1 1.2 1.3 2 2.5 1.6 4-1.2 12.4-5.6 17.8-19.9z"/>
					<path class="s5" d="m275.6 82.4c-0.2 15.3 6.1 22.4 9.3 25.1 0.9 0.8 2.4 0.5 2.9-0.7 1.9-3.6 4.8-12.6-1.4-26.6z"/>
					<path class="s5" d="m288.9 78.5c10.7 10.9 20.1 11.6 24.2 11.2 1.3-0.2 2.1-1.4 1.7-2.6-1.3-3.9-5.6-12.3-19.9-17.8z"/>
					<path class="s5" d="m295.5 66.3c15.3 0.2 22.4-6 25-9.2 0.9-1 0.6-2.4-0.6-3-3.7-1.9-12.7-4.8-26.6 1.5z"/>
					<path class="s5" d="m291.5 53c11-10.7 11.6-20.1 11.2-24.2-0.1-1.3-1.3-2.1-2.5-1.7-3.9 1.3-12.4 5.6-17.8 19.9z"/>
					<path class="s6" d="m272.4 47.1c-5.6-14.3-14.1-18.5-18-19.7-1.2-0.4-2.5 0.4-2.6 1.7-0.3 4.1 0.4 13.6 11.5 24.1z"/>
					<path class="s6" d="m261.6 55.8c-14-6.1-23-3.1-26.6-1.2-1.2 0.6-1.4 2-0.6 3 2.6 3.2 9.8 9.3 25.1 8.9z"/>
					<path class="s6" d="m260.2 69.5c-14.3 5.6-18.5 14.1-19.7 18.1-0.4 1.2 0.4 2.4 1.7 2.5 4.1 0.3 13.5-0.4 24.1-11.5z"/>
					<path class="s6" d="m268.8 80.3c-6 14-3.1 23-1.1 26.7 0.6 1.1 2 1.4 3 0.6 3.1-2.7 9.3-9.9 8.9-25.2z"/>
					<path class="s6" d="m282.6 81.8c5.6 14.2 14.1 18.4 18 19.7 1.2 0.3 2.5-0.5 2.6-1.7 0.3-4.2-0.4-13.6-11.5-24.1z"/>
					<path class="s6" d="m293.4 73.1c14 6.1 23 3.1 26.6 1.2 1.2-0.6 1.4-2.1 0.6-3-2.6-3.2-9.8-9.3-25.1-9z"/>
					<path class="s6" d="m294.9 59.3c14.2-5.6 18.4-14.1 19.6-18 0.4-1.2-0.4-2.4-1.7-2.5-4.1-0.4-13.5 0.4-24.1 11.5z"/>
					<path class="s6" d="m286.2 48.5c6-14 3.1-23 1.1-26.6-0.6-1.1-2-1.4-3-0.6-3.1 2.7-9.3 9.9-8.9 25.2z"/>
					<path class="s6" d="m272.4 47.1c-5.6-14.3-14.1-18.5-18-19.7-1.2-0.4-2.5 0.4-2.6 1.7-0.3 4.1 0.4 13.6 11.5 24.1z"/>
					<path class="s6" d="m261.6 55.8c-14-6.1-23-3.1-26.6-1.2-1.2 0.6-1.4 2-0.6 3 2.6 3.2 9.8 9.3 25.1 8.9z"/>
					<path class="s6" d="m260.2 69.5c-14.3 5.6-18.5 14.1-19.7 18.1-0.4 1.2 0.4 2.4 1.7 2.5 4.1 0.3 13.5-0.4 24.1-11.5z"/>
					<path class="s6" d="m268.8 80.3c-6 14-3.1 23-1.1 26.7 0.6 1.1 2 1.4 3 0.6 3.1-2.7 9.3-9.9 8.9-25.2z"/>
					<path class="s6" d="m282.6 81.8c5.6 14.2 14.1 18.4 18 19.7 1.2 0.3 2.5-0.5 2.6-1.7 0.3-4.2-0.4-13.6-11.5-24.1z"/>
					<path class="s6" d="m293.4 73.1c14 6.1 23 3.1 26.6 1.2 1.2-0.6 1.4-2.1 0.6-3-2.6-3.2-9.8-9.3-25.1-9z"/>
					<path class="s6" d="m294.9 59.3c14.2-5.6 18.4-14.1 19.6-18 0.4-1.2-0.4-2.4-1.7-2.5-4.1-0.4-13.5 0.4-24.1 11.5z"/>
					<path class="s6" d="m286.2 48.5c6-14 3.1-23 1.1-26.6-0.6-1.1-2-1.4-3-0.6-3.1 2.7-9.3 9.9-8.9 25.2z"/>
					<path class="s7" d="m276 46.4c-2.7-15.1-10.1-20.9-13.7-22.9-1.1-0.6-2.5-0.1-2.8 1.2-1.2 3.9-2.4 13.3 6.4 25.9z"/>
					<path class="s7" d="m263.7 52.8c-12.5-8.8-21.9-7.7-25.9-6.6-1.2 0.4-1.8 1.8-1.2 2.9 2 3.6 7.8 11.1 22.9 13.7z"/>
					<path class="s7" d="m259.5 65.9c-15.1 2.7-20.9 10.1-22.9 13.7-0.6 1.1-0.1 2.5 1.1 2.9 4 1.1 13.4 2.3 25.9-6.5z"/>
					<path class="s7" d="m265.8 78.2c-8.8 12.6-7.6 22-6.5 25.9 0.4 1.2 1.7 1.8 2.8 1.2 3.7-2 11.1-7.8 13.8-22.9z"/>
					<path class="s7" d="m279 82.4c2.7 15.1 10.1 21 13.7 23 1.1 0.6 2.5 0 2.8-1.2 1.2-4 2.4-13.4-6.4-25.9z"/>
					<path class="s7" d="m291.3 76.1c12.5 8.8 21.9 7.7 25.9 6.5 1.2-0.3 1.8-1.7 1.2-2.8-2-3.6-7.8-11.1-22.9-13.8z"/>
					<path class="s7" d="m295.5 62.9c15.1-2.6 20.9-10.1 22.9-13.7 0.6-1.1 0.1-2.5-1.1-2.8-4-1.2-13.4-2.3-25.9 6.4z"/>
					<path class="s7" d="m289.2 50.6c8.8-12.5 7.6-21.9 6.5-25.9-0.4-1.2-1.7-1.8-2.8-1.2-3.7 2-11.1 7.8-13.8 22.9z"/>
					<path class="s7" d="m276 46.4c-2.7-15.1-10.1-20.9-13.7-22.9-1.1-0.6-2.5-0.1-2.8 1.2-1.2 3.9-2.4 13.3 6.4 25.9z"/>
					<path class="s7" d="m263.7 52.8c-12.5-8.8-21.9-7.7-25.9-6.6-1.2 0.4-1.8 1.8-1.2 2.9 2 3.6 7.8 11.1 22.9 13.7z"/>
					<path class="s7" d="m259.5 65.9c-15.1 2.7-20.9 10.1-22.9 13.7-0.6 1.1-0.1 2.5 1.1 2.9 4 1.1 13.4 2.3 25.9-6.5z"/>
					<path class="s7" d="m265.8 78.2c-8.8 12.6-7.6 22-6.5 25.9 0.4 1.2 1.7 1.8 2.8 1.2 3.7-2 11.1-7.8 13.8-22.9z"/>
					<path class="s7" d="m279 82.4c2.7 15.1 10.1 21 13.7 23 1.1 0.6 2.5 0 2.8-1.2 1.2-4 2.4-13.4-6.4-25.9z"/>
					<path class="s7" d="m291.3 76.1c12.5 8.8 21.9 7.7 25.9 6.5 1.2-0.3 1.8-1.7 1.2-2.8-2-3.6-7.8-11.1-22.9-13.8z"/>
					<path class="s7" d="m295.5 62.9c15.1-2.6 20.9-10.1 22.9-13.7 0.6-1.1 0.1-2.5-1.1-2.8-4-1.2-13.4-2.3-25.9 6.4z"/>
					<path class="s7" d="m289.2 50.6c8.8-12.5 7.6-21.9 6.5-25.9-0.4-1.2-1.7-1.8-2.8-1.2-3.7 2-11.1 7.8-13.8 22.9z"/>
					<path class="s8" d="m283 47.2c3.3-15-1.4-23.2-4-26.4-0.8-1-2.2-1-3 0-2.6 3.2-7.3 11.4-4 26.4z"/>
					<path class="s8" d="m269.2 48.4c-8.2-12.9-17.4-15.5-21.5-15.9-1.2-0.2-2.3 0.9-2.1 2.1 0.4 4.2 3 13.3 15.8 21.5z"/>
					<path class="s8" d="m260.3 59c-15-3.3-23.2 1.3-26.4 3.9-1 0.8-1 2.3 0 3.1 3.2 2.5 11.4 7.2 26.4 3.9z"/>
					<path class="s8" d="m261.4 72.8c-12.8 8.2-15.4 17.3-15.8 21.4-0.2 1.3 0.9 2.3 2.1 2.2 4.1-0.5 13.2-3 21.5-15.9z"/>
					<path class="s8" d="m272 81.7c-3.3 14.9 1.4 23.1 4 26.4 0.8 1 2.2 1 3 0 2.6-3.3 7.3-11.5 4-26.4z"/>
					<path class="s8" d="m285.8 80.5c8.3 12.9 17.4 15.4 21.5 15.9 1.2 0.1 2.3-0.9 2.1-2.2-0.4-4.1-2.9-13.2-15.8-21.4z"/>
					<path class="s8" d="m294.7 69.9c15 3.3 23.2-1.4 26.4-3.9 1-0.8 1-2.3 0-3.1-3.2-2.6-11.4-7.2-26.4-3.9z"/>
					<path class="s8" d="m293.6 56.1c12.9-8.2 15.4-17.3 15.8-21.5 0.2-1.2-0.9-2.3-2.1-2.1-4.1 0.4-13.2 3-21.5 15.9z"/>
					<path fill-rule="evenodd" class="s9" d="m277.5 85.4c-11.6 0-21-9.4-21-21 0-11.6 9.4-21 21-21 11.6 0 21 9.4 21 21 0 11.6-9.4 21-21 21z"/>
				</g>
			</g>
			<g>
				<g>
					<path class="s0" d="m52.7 257.9c-0.4 0-0.7-0.3-0.7-0.7v-17.4c0-9.1 5-17.3 13-21.4 0.4-0.2 0.8-0.1 1 0.3 0.2 0.3 0 0.7-0.3 0.9-7.6 3.9-12.3 11.7-12.3 20.2v17.4c0 0.4-0.3 0.7-0.7 0.7z"/>
					<g>
						<path class="s1" d="m90.3 207c-7.4 6-6.2 13-14.3 19.7-4.9 4.1-10.9 3-14.7-2.1q-0.8-1.1-1.3-2.3-0.4-0.7-0.6-1.3c-1.7-4.6-0.9-9.8 3.1-12.8 10.5-7.7 27.8-1.2 27.8-1.2z"/>
						<path class="s2" d="m62.1 221.1c0 0-1.1-6.1 1-8.9 0 0-1.1 5.1 0.7 7.4z"/>
						<path class="s2" d="m65.2 218.2c0 0-0.5-6.1 1.9-8.7 0 0-1.6 5 0 7.4z"/>
						<path class="s2" d="m68.9 216.3c0 0 0.7-6.1 3.5-8.2 0 0-2.5 4.6-1.4 7.3z"/>
						<path class="s2" d="m62.1 221.1c0 0 4.9 3.7 8.3 3.2 0 0-5-1.4-6.2-4.1z"/>
						<path class="s2" d="m65.4 218.8c0 0 5.2 3.4 8.6 2.6 0 0-5.2-1-6.6-3.6z"/>
						<path class="s2" d="m69.2 216.7c0 0 5.8 2.3 8.9 0.8 0 0-5.2 0-7.1-2.2z"/>
						<path class="s2" d="m73.7 213.2c0 0 0.5-4.8 2.7-6.4 0 0-2 3.6-1.1 5.7z"/>
						<path class="s2" d="m73.9 213.5c0 0 4.5 1.7 6.9 0.6 0 0-4.1 0-5.5-1.7z"/>
						<path class="s2" d="m78.6 211.3c0 0 0.4-3.5 1.9-4.7 0 0-1.4 2.6-0.8 4.1z"/>
						<path class="s2" d="m78.7 211.5c0 0 3.3 1.2 5 0.4 0 0-2.9 0-3.9-1.2z"/>
						<path class="s0" d="m82.9 209.8c-7 2.9-18.4 10-22.4 13.5q-0.3-0.5-0.5-1-0.1-0.2-0.2-0.3c1.8-1.7 13.9-9.8 22.9-12.8 0.3-0.1 0.5 0.4 0.2 0.6z"/>
					</g>
					<path class="s0" d="m52.7 249.2c-0.4 0-0.7-0.3-0.7-0.7 0-8.6-4.7-16.3-12.3-20.2-0.4-0.2-0.5-0.6-0.3-1 0.2-0.3 0.6-0.5 0.9-0.3 8.1 4.2 13.1 12.4 13.1 21.5 0 0.4-0.3 0.7-0.7 0.7z"/>
					<g>
						<path class="s1" d="m15 215.6c7.5 6 6.3 13 14.4 19.8 4.8 4.1 10.9 2.9 14.7-2.2q0.8-1.1 1.3-2.3 0.3-0.6 0.6-1.3c1.7-4.5 0.9-9.8-3.1-12.7-10.5-7.7-27.9-1.3-27.9-1.3z"/>
						<path class="s2" d="m43.3 229.7c0 0 1.1-6.1-1.1-8.8 0 0 1.2 5.1-0.6 7.4z"/>
						<path class="s2" d="m40.1 226.9c0 0 0.5-6.2-1.8-8.8 0 0 1.6 5.1 0 7.5z"/>
						<path class="s2" d="m36.5 225c0 0-0.7-6.2-3.5-8.3 0 0 2.5 4.7 1.4 7.4z"/>
						<path class="s2" d="m43.3 229.7c0 0-4.9 3.8-8.4 3.3 0 0 5.1-1.5 6.3-4.1z"/>
						<path class="s2" d="m40 227.5c0 0-5.2 3.4-8.6 2.5 0 0 5.2-1 6.6-3.5z"/>
						<path class="s2" d="m36.2 225.3c0 0-5.8 2.3-8.9 0.9 0 0 5.2 0 7.1-2.3z"/>
						<path class="s2" d="m31.7 221.8c0 0-0.5-4.7-2.7-6.4 0 0 2 3.6 1.1 5.7z"/>
						<path class="s2" d="m31.5 222.1c0 0-4.5 1.8-6.9 0.7 0 0 4 0 5.5-1.8z"/>
						<path class="s2" d="m26.8 219.9c0 0-0.4-3.4-1.9-4.6 0 0 1.4 2.6 0.7 4.1z"/>
						<path class="s2" d="m26.6 220.1c0 0-3.2 1.3-5 0.5 0 0 3 0 4-1.3z"/>
						<path class="s0" d="m22.5 218.4c7 2.9 18.4 10 22.4 13.6q0.3-0.5 0.5-1.1 0.1-0.1 0.2-0.2c-1.8-1.8-13.9-9.8-22.9-12.8-0.3-0.1-0.6 0.4-0.2 0.5z"/>
					</g>
				</g>
				<g>
					<path class="s0" d="m48.4 206.4c1-7.8 5.7-14.6 12.8-18.3 0.4-0.2 0.8-0.1 1 0.3 0.2 0.3 0.1 0.8-0.3 1-7.6 3.9-12.3 11.6-12.3 20.1v2.9z"/>
					<g>
						<path class="s1" d="m86.5 176.7c-7.4 6-6.2 13-14.3 19.8-4.8 4-10.9 2.9-14.7-2.2q-0.8-1.1-1.3-2.3-0.4-0.6-0.6-1.3c-1.7-4.6-0.9-9.8 3.1-12.7 10.5-7.7 27.8-1.3 27.8-1.3z"/>
						<path class="s2" d="m58.3 190.8c0 0-1.1-6.1 1-8.9 0 0-1.1 5.2 0.7 7.5z"/>
						<path class="s2" d="m61.4 188c0 0-0.5-6.2 1.9-8.8 0 0-1.6 5 0 7.5z"/>
						<path class="s2" d="m65.1 186c0 0 0.7-6.1 3.5-8.2 0 0-2.5 4.6-1.4 7.3z"/>
						<path class="s2" d="m58.3 190.8c0 0 4.9 3.8 8.3 3.2 0 0-5-1.4-6.2-4.1z"/>
						<path class="s2" d="m61.6 188.6c0 0 5.2 3.3 8.6 2.5 0 0-5.2-1-6.6-3.6z"/>
						<path class="s2" d="m65.4 186.4c0 0 5.8 2.3 8.9 0.8 0 0-5.2 0.1-7.1-2.2z"/>
						<path class="s2" d="m69.9 182.9c0 0 0.5-4.8 2.7-6.4 0 0-2 3.6-1.1 5.7z"/>
						<path class="s2" d="m70.1 183.2c0 0 4.5 1.8 6.9 0.6 0 0-4.1 0-5.5-1.7z"/>
						<path class="s2" d="m74.8 181c0 0 0.4-3.5 1.9-4.6 0 0-1.4 2.6-0.8 4.1z"/>
						<path class="s2" d="m75 181.2c0 0 3.2 1.3 4.9 0.5 0 0-2.9 0-3.9-1.3z"/>
						<path class="s0" d="m79.1 179.5c-7 2.9-18.4 10-22.4 13.5q-0.3-0.5-0.5-1-0.1-0.1-0.2-0.3c1.8-1.7 13.9-9.8 22.9-12.7 0.3-0.2 0.6 0.4 0.2 0.5z"/>
					</g>
				</g>
				<g>
					<path class="s0" d="m48.1 162.4c3.7-4.4 9-7.3 14.9-8.1 0.4 0 0.8 0.2 0.8 0.6 0.1 0.4-0.2 0.8-0.6 0.8-6.1 0.9-11.4 4.1-15 8.8z"/>
					<g>
						<path class="s1" d="m90.7 152c-9 3.2-10.2 10.2-20.1 13.9-6 2.2-11.3-0.9-13.1-7q-0.4-1.3-0.6-2.6 0-0.7-0.1-1.4c0-4.9 2.4-9.5 7.2-11 12.5-3.7 26.7 8.1 26.7 8.1z"/>
						<path class="s2" d="m59.3 155.9c0 0 1.1-6.1 4-8 0 0-2.8 4.4-1.8 7.2z"/>
						<path class="s2" d="m63.3 154.3c0 0 1.6-6 4.6-7.6 0 0-3.1 4.1-2.4 7z"/>
						<path class="s2" d="m67.4 153.7c0 0 2.7-5.6 6-6.6 0 0-3.9 3.5-3.8 6.4z"/>
						<path class="s2" d="m59.4 155.9c0 0 3.3 5.2 6.7 5.8 0 0-4.3-3-4.5-5.9z"/>
						<path class="s2" d="m63.2 154.9c0 0 3.8 4.9 7.2 5.2 0 0-4.5-2.6-5-5.5z"/>
						<path class="s2" d="m67.5 154.1c0 0 4.7 4.1 8.1 3.8 0 0-4.9-1.7-5.9-4.5z"/>
						<path class="s2" d="m72.9 152.3c0 0 2.1-4.3 4.7-5.1 0 0-3 2.7-2.9 5z"/>
						<path class="s2" d="m73 152.7c0 0 3.6 3.1 6.3 2.9 0 0-3.8-1.4-4.6-3.5z"/>
						<path class="s2" d="m78.2 152.2c0 0 1.5-3.2 3.4-3.7 0 0-2.2 1.9-2.2 3.6z"/>
						<path class="s2" d="m78.3 152.4c0 0 2.6 2.3 4.5 2.1 0 0-2.8-1-3.3-2.5z"/>
						<path class="s0" d="m82.8 152.2c-7.7 0.4-20.7 3.3-25.7 5.3q-0.1-0.6-0.2-1.2 0-0.1 0-0.3c2.2-1 16.3-4.6 25.8-4.4 0.4 0 0.4 0.6 0.1 0.6z"/>
					</g>
				</g>
				<g>
					<path class="s1" d="m100.3 124.8c-9 3.2-10.3 10.2-20.2 13.9-5.9 2.2-11.3-0.9-13.1-7q-0.4-1.3-0.5-2.6-0.1-0.7-0.1-1.4c0-4.9 2.4-9.6 7.2-11 12.5-3.7 26.7 8.1 26.7 8.1z"/>
					<path class="s2" d="m68.9 128.7c0 0 1.1-6.1 4-8 0 0-2.8 4.4-1.9 7.2z"/>
					<path class="s2" d="m72.8 127.1c0 0 1.6-6 4.7-7.7 0 0-3.2 4.2-2.5 7.1z"/>
					<path class="s2" d="m76.9 126.5c0 0 2.7-5.6 6.1-6.6 0 0-3.9 3.5-3.8 6.4z"/>
					<path class="s2" d="m68.9 128.7c0 0 3.4 5.2 6.8 5.8 0 0-4.3-3-4.5-5.9z"/>
					<path class="s2" d="m72.8 127.7c0 0 3.7 4.9 7.2 5.2 0 0-4.5-2.6-5-5.5z"/>
					<path class="s2" d="m77.1 126.9c0 0 4.6 4.1 8.1 3.8 0 0-4.9-1.8-5.9-4.5z"/>
					<path class="s2" d="m82.5 125.1c0 0 2.1-4.3 4.7-5.1 0 0-3.1 2.7-3 5z"/>
					<path class="s2" d="m82.6 125.4c0 0 3.6 3.2 6.3 3 0 0-3.8-1.4-4.6-3.5z"/>
					<path class="s2" d="m87.7 124.9c0 0 1.6-3.1 3.4-3.7 0 0-2.2 2-2.1 3.6z"/>
					<path class="s2" d="m87.8 125.2c0 0 2.6 2.3 4.6 2.1 0 0-2.8-1-3.4-2.5z"/>
					<path class="s0" d="m92.3 125c-7.6 0.4-20.7 3.3-25.6 5.3q-0.1-0.6-0.2-1.2 0-0.2 0-0.3c2.2-1.1 16.3-4.6 25.8-4.4 0.3 0 0.4 0.6 0 0.6z"/>
				</g>
				<g>
					<path class="s0" d="m47.9 203.3c-1.8-5.6-5.7-10.3-11.1-13.1-0.4-0.2-0.5-0.6-0.4-1 0.2-0.3 0.7-0.5 1-0.3 4.5 2.4 8.1 6 10.4 10.3z"/>
					<g>
						<path class="s1" d="m12.1 177.5c7.4 6 6.2 13 14.4 19.8 4.8 4.1 10.9 2.9 14.6-2.2q0.8-1.1 1.4-2.3 0.3-0.6 0.6-1.3c1.6-4.5 0.9-9.8-3.1-12.7-10.5-7.7-27.9-1.3-27.9-1.3z"/>
						<path class="s2" d="m40.4 191.6c0 0 1-6.1-1.1-8.8 0 0 1.2 5.1-0.7 7.4z"/>
						<path class="s2" d="m37.2 188.8c0 0 0.5-6.2-1.8-8.7 0 0 1.6 5-0.1 7.4z"/>
						<path class="s2" d="m33.5 186.9c0 0-0.6-6.2-3.4-8.3 0 0 2.5 4.7 1.4 7.4z"/>
						<path class="s2" d="m40.3 191.6c0 0-4.8 3.8-8.3 3.3 0 0 5.1-1.5 6.2-4.1z"/>
						<path class="s2" d="m37.1 189.4c0 0-5.2 3.4-8.6 2.5 0 0 5.2-1 6.6-3.5z"/>
						<path class="s2" d="m33.2 187.2c0 0-5.7 2.3-8.9 0.9 0 0 5.3 0 7.1-2.3z"/>
						<path class="s2" d="m28.8 183.7c0 0-0.5-4.7-2.7-6.4 0 0 1.9 3.6 1.1 5.7z"/>
						<path class="s2" d="m28.5 184c0 0-4.4 1.8-6.9 0.7 0 0 4.1 0 5.6-1.8z"/>
						<path class="s2" d="m23.9 181.8c0 0-0.4-3.4-2-4.6 0 0 1.4 2.6 0.8 4.1z"/>
						<path class="s2" d="m23.7 182c0 0-3.2 1.3-5 0.5 0 0 3 0 4-1.3z"/>
						<path class="s0" d="m19.5 180.3c7.1 2.9 18.5 10 22.5 13.6q0.2-0.5 0.5-1.1 0.1-0.1 0.1-0.2c-1.7-1.8-13.8-9.8-22.8-12.8-0.4-0.1-0.6 0.4-0.3 0.5z"/>
					</g>
				</g>
				<g>
					<path class="s0" d="m46.9 172.7c-1.7-5.9-5.7-10.9-11.4-13.8-0.3-0.2-0.5-0.6-0.3-1 0.2-0.3 0.6-0.5 1-0.3 5.1 2.7 9.1 7 11.2 12.1z"/>
					<g>
						<path class="s1" d="m10.9 146.2c7.4 6 6.2 13 14.3 19.8 4.9 4.1 11 2.9 14.7-2.2q0.8-1.1 1.4-2.3 0.3-0.6 0.5-1.3c1.7-4.5 1-9.8-3-12.7-10.6-7.7-27.9-1.3-27.9-1.3z"/>
						<path class="s2" d="m39.2 160.3c0 0 1-6.1-1.1-8.8 0 0 1.1 5.1-0.7 7.4z"/>
						<path class="s2" d="m36 157.5c0 0 0.5-6.2-1.9-8.8 0 0 1.6 5.1 0 7.5z"/>
						<path class="s2" d="m32.3 155.6c0 0-0.7-6.2-3.5-8.3 0 0 2.6 4.7 1.4 7.4z"/>
						<path class="s2" d="m39.1 160.3c0 0-4.9 3.8-8.3 3.3 0 0 5-1.5 6.2-4.1z"/>
						<path class="s2" d="m35.9 158.1c0 0-5.2 3.4-8.6 2.5 0 0 5.1-1 6.5-3.5z"/>
						<path class="s2" d="m32 155.9c0 0-5.7 2.3-8.9 0.9 0 0 5.3 0 7.1-2.3z"/>
						<path class="s2" d="m27.6 152.4c0 0-0.6-4.7-2.7-6.4 0 0 1.9 3.6 1 5.7z"/>
						<path class="s2" d="m27.3 152.7c0 0-4.4 1.8-6.9 0.7 0 0 4.1 0 5.5-1.8z"/>
						<path class="s2" d="m22.7 150.5c0 0-0.4-3.4-2-4.6 0 0 1.4 2.6 0.8 4.1z"/>
						<path class="s2" d="m22.5 150.7c0 0-3.2 1.3-5 0.5 0 0 2.9 0 4-1.3z"/>
						<path class="s0" d="m18.3 149c7.1 2.9 18.4 10 22.4 13.6q0.3-0.5 0.6-1.1 0-0.1 0.1-0.2c-1.7-1.8-13.8-9.8-22.9-12.8-0.3-0.1-0.5 0.4-0.2 0.5z"/>
					</g>
				</g>
				<path class="s0" d="m56.6 136c4.3-5 10.1-8.1 16-8.9 0.4-0.1 0.8 0.2 0.8 0.6 0.1 0.4 0 0.4-0.4 0.5-5.6 1.4-8.4 2.6-11.6 5.3-2.8 2.3-4.8 5.5-5.9 9q-0.5 1.7-1.2 3.5c-9.6 27.6-7.6 41-4.7 61.3 1.8 12.4 4.1 27.8 4.1 50.6h-2c0-22.7-2.2-38-4-50.3-3-20.6-5-34.2 4.8-62.3q1.3-3.9 2.5-8c0.5-1.7 0-3.5-1.2-4.8-1.7-1.6-3.6-3-5.8-4.2-0.3-0.1-0.4-0.6-0.3-0.9 0.2-0.4 0.6-0.5 1-0.3 2.1 1.1 4.4 2.7 6.3 4.5 1.2 1.1 1.8 2.7 1.6 4.4z"/>
				<g>
					<path class="s1" d="m23.4 115.7c7.4 6 6.2 13 14.3 19.8 4.9 4 11 2.9 14.7-2.2q0.8-1.1 1.4-2.3 0.3-0.6 0.5-1.3c1.7-4.6 1-9.8-3-12.7-10.5-7.7-27.9-1.3-27.9-1.3z"/>
					<path class="s2" d="m51.7 129.8c0 0 1-6.1-1.1-8.9 0 0 1.1 5.1-0.7 7.4z"/>
					<path class="s2" d="m48.5 127c0 0 0.5-6.2-1.9-8.8 0 0 1.6 5 0 7.5z"/>
					<path class="s2" d="m44.8 125c0 0-0.7-6.1-3.5-8.2 0 0 2.6 4.6 1.4 7.3z"/>
					<path class="s2" d="m51.6 129.8c0 0-4.9 3.8-8.3 3.2 0 0 5.1-1.4 6.2-4.1z"/>
					<path class="s2" d="m48.4 127.6c0 0-5.2 3.3-8.6 2.5 0 0 5.2-1 6.5-3.6z"/>
					<path class="s2" d="m44.5 125.4c0 0-5.7 2.3-8.9 0.8 0 0 5.3 0.1 7.1-2.2z"/>
					<path class="s2" d="m40.1 121.9c0 0-0.6-4.8-2.7-6.4 0 0 1.9 3.6 1 5.7z"/>
					<path class="s2" d="m39.8 122.2c0 0-4.4 1.8-6.9 0.6 0 0 4.1 0 5.5-1.7z"/>
					<path class="s2" d="m35.2 120c0 0-0.4-3.5-2-4.6 0 0 1.4 2.5 0.8 4.1z"/>
					<path class="s2" d="m35 120.2c0 0-3.2 1.3-5 0.4 0 0 2.9 0.1 4-1.2z"/>
					<path class="s0" d="m30.8 118.5c7.1 2.9 18.4 10 22.4 13.5q0.3-0.5 0.6-1 0-0.1 0.1-0.3c-1.7-1.7-13.8-9.8-22.8-12.8-0.4-0.1-0.6 0.4-0.3 0.6z"/>
				</g>
				<g>
					<path class="s3" d="m17.9 278c-2.4 0-4.4-2-4.4-4.4 0-2.4 2-4.4 4.4-4.4q0 0 0.1 0c0.7-2.2 2.8-3.8 5.2-3.8q0.1 0 0.1 0c0.6-1.7 2.2-2.8 4.1-2.8 0.8 0 1.5 0.1 2.1 0.5 0.8-0.5 1.7-0.7 2.7-0.7q0.3 0 0.6 0c1-1.4 2.6-2.3 4.5-2.3 0.4-0.8 1.3-1.4 2.3-1.4 0.5 0 1 0.2 1.5 0.5 1.1-1.2 2.7-2 4.6-2q0.5 0 1.1 0.1c1.3-1.8 3.5-2.9 5.9-2.9 2.4 0 4.6 1.1 5.9 2.9q0.6-0.1 1.1-0.1c1.8 0 3.5 0.8 4.6 2 0.4-0.3 1-0.5 1.5-0.5 1 0 1.9 0.6 2.3 1.4 1.9 0 3.5 0.9 4.5 2.3q0.3 0 0.6 0c1 0 1.9 0.2 2.7 0.7 0.6-0.4 1.3-0.5 2.1-0.5 1.9 0 3.5 1.1 4.1 2.8q0 0 0.1 0c2.4 0 4.5 1.6 5.2 3.8q0.1 0 0.1 0c2.4 0 4.4 2 4.4 4.4 0 2.4-2 4.4-4.4 4.4z"/>
					<path class="s4" d="m26.1 268.3c0 0 3 0.2 3.7-3.1 0 0 0.2 1.4-0.2 2.5-0.5 1-1.7 1.7-3.5 0.6z"/>
					<path class="s4" d="m79.6 269.1c0 0-3.9 0.3-4.8-3.9 0 0-0.3 1.8 0.3 3.1 0.6 1.4 2.1 2.3 4.5 0.8z"/>
					<path class="s4" d="m51.1 274.1c0 0-3.9 0.2-4.7-3.9 0 0-0.3 1.8 0.3 3.1 0.6 1.4 2.1 2.3 4.4 0.8z"/>
					<path class="s4" d="m45.7 264.1c0 0 3.9 0.2 4.7-3.9 0 0 0.4 1.8-0.2 3.1-0.6 1.4-2.2 2.3-4.5 0.8z"/>
					<path class="s4" d="m70.5 267c-1.1 0.7-2.1 0.8-2.8 0.6-0.4 0.4-0.9 0.6-1.5 0.7-1.3 0.3-2.9-0.5-2.9-0.5 1.5 0.1 2.5-0.4 3.3-1q-0.3-0.3-0.4-0.6c-0.6-1.3-0.3-3-0.3-3 0.3 1.3 0.9 2.2 1.5 2.7q0.4 0.4 0.9 0.6c1.1 0.5 2.2 0.5 2.2 0.5z"/>
					<path class="s4" d="m34.9 265.7c1.2 0.7 2.1 0.8 2.8 0.6 0.4 0.4 0.9 0.6 1.5 0.7 1.4 0.2 3-0.5 3-0.5-1.6 0.1-2.6-0.4-3.3-1q0.2-0.3 0.4-0.6c0.5-1.3 0.2-3 0.2-3-0.2 1.3-0.8 2.1-1.5 2.7q-0.4 0.3-0.8 0.6c-1.2 0.5-2.3 0.5-2.3 0.5z"/>
					<path class="s4" d="m21.8 278c6.2 0 8.1-3.4 8.1-3.4 0 0 1.3 3.4 9 3.4z"/>
					<path class="s4" d="m70.6 278c6.2 0 8-3.4 8-3.4 0 0 0.8 3.4 8.5 3.4z"/>
				</g>
			</g>
			<g>
				<g>
					<g>
						<path class="s0" d="m-55 257.9c-0.4 0-0.7-0.3-0.7-0.7v-17.4c0-9.1 5-17.3 13-21.4 0.4-0.2 0.8-0.1 1 0.3 0.2 0.3 0 0.7-0.3 0.9-7.6 3.9-12.3 11.7-12.3 20.2v17.4c0 0.4-0.3 0.7-0.7 0.7z"/>
						<g>
							<path class="s1" d="m-17.4 207c-7.4 6-6.2 13-14.3 19.7-4.9 4.1-10.9 3-14.7-2.1q-0.8-1.1-1.3-2.3-0.4-0.7-0.6-1.3c-1.7-4.6-0.9-9.8 3.1-12.8 10.5-7.7 27.8-1.2 27.8-1.2z"/>
							<path class="s2" d="m-45.6 221.1c0 0-1.1-6.1 1-8.9 0 0-1.1 5.1 0.7 7.4z"/>
							<path class="s2" d="m-42.5 218.2c0 0-0.5-6.1 1.9-8.7 0 0-1.6 5 0 7.4z"/>
							<path class="s2" d="m-38.8 216.3c0 0 0.7-6.1 3.5-8.2 0 0-2.5 4.6-1.4 7.3z"/>
							<path class="s2" d="m-45.6 221.1c0 0 4.9 3.7 8.3 3.2 0 0-5-1.4-6.2-4.1z"/>
							<path class="s2" d="m-42.3 218.8c0 0 5.2 3.4 8.6 2.6 0 0-5.2-1-6.6-3.6z"/>
							<path class="s2" d="m-38.5 216.7c0 0 5.8 2.3 8.9 0.8 0 0-5.2 0-7.1-2.2z"/>
							<path class="s2" d="m-34 213.2c0 0 0.5-4.8 2.7-6.4 0 0-2 3.6-1.1 5.7z"/>
							<path class="s2" d="m-33.8 213.5c0 0 4.5 1.7 6.9 0.6 0 0-4.1 0-5.5-1.7z"/>
							<path class="s2" d="m-29.1 211.3c0 0 0.4-3.5 1.9-4.7 0 0-1.4 2.6-0.8 4.1z"/>
							<path class="s2" d="m-29 211.5c0 0 3.3 1.2 5 0.4 0 0-2.9 0-3.9-1.2z"/>
							<path class="s0" d="m-24.8 209.8c-7 2.9-18.4 10-22.4 13.5q-0.3-0.5-0.5-1-0.1-0.2-0.2-0.3c1.8-1.7 13.9-9.8 22.9-12.8 0.3-0.1 0.6 0.4 0.2 0.6z"/>
						</g>
						<path class="s0" d="m-55 249.2c-0.4 0-0.7-0.3-0.7-0.7 0-8.6-4.7-16.3-12.3-20.2-0.4-0.2-0.5-0.6-0.3-1 0.2-0.3 0.6-0.5 0.9-0.3 8.1 4.2 13.1 12.4 13.1 21.5 0 0.4-0.3 0.7-0.7 0.7z"/>
						<g>
							<path class="s1" d="m-92.7 215.6c7.5 6 6.3 13 14.4 19.8 4.8 4.1 10.9 2.9 14.7-2.2q0.8-1.1 1.3-2.3 0.3-0.6 0.6-1.3c1.7-4.5 0.9-9.8-3.1-12.7-10.5-7.7-27.9-1.3-27.9-1.3z"/>
							<path class="s2" d="m-64.4 229.7c0 0 1.1-6.1-1.1-8.8 0 0 1.2 5.1-0.6 7.4z"/>
							<path class="s2" d="m-67.5 226.9c0 0 0.4-6.2-1.9-8.8 0 0 1.6 5.1 0 7.5z"/>
							<path class="s2" d="m-71.2 225c0 0-0.7-6.2-3.5-8.3 0 0 2.5 4.7 1.4 7.4z"/>
							<path class="s2" d="m-64.4 229.7c0 0-4.9 3.8-8.4 3.3 0 0 5.1-1.5 6.3-4.1z"/>
							<path class="s2" d="m-67.7 227.5c0 0-5.2 3.4-8.6 2.5 0 0 5.2-1 6.6-3.5z"/>
							<path class="s2" d="m-71.5 225.3c0 0-5.8 2.3-8.9 0.9 0 0 5.2 0 7.1-2.3z"/>
							<path class="s2" d="m-76 221.8c0 0-0.5-4.7-2.7-6.4 0 0 2 3.6 1.1 5.7z"/>
							<path class="s2" d="m-76.2 222.1c0 0-4.5 1.8-6.9 0.7 0 0 4 0 5.5-1.8z"/>
							<path class="s2" d="m-80.9 219.9c0 0-0.4-3.4-1.9-4.6 0 0 1.4 2.6 0.7 4.1z"/>
							<path class="s2" d="m-81.1 220.1c0 0-3.2 1.3-5 0.5 0 0 3 0 4-1.3z"/>
							<path class="s0" d="m-85.2 218.4c7 2.9 18.4 10 22.4 13.6q0.3-0.5 0.5-1.1 0.1-0.1 0.2-0.2c-1.8-1.8-13.9-9.8-22.9-12.8-0.3-0.1-0.6 0.4-0.2 0.5z"/>
						</g>
					</g>
				</g>
				<g>
					<path class="s3" d="m-89.8 278c-2.4 0-4.4-2-4.4-4.4 0-2.4 2-4.4 4.4-4.4q0 0 0.1 0c0.7-2.2 2.8-3.8 5.2-3.8q0.1 0 0.1 0c0.6-1.7 2.2-2.8 4.1-2.8 0.8 0 1.5 0.1 2.1 0.5 0.8-0.5 1.7-0.7 2.7-0.7q0.3 0 0.6 0c1-1.4 2.6-2.3 4.5-2.3 0.4-0.8 1.3-1.4 2.3-1.4 0.5 0 1 0.2 1.5 0.5 1.1-1.2 2.7-2 4.6-2q0.5 0 1.1 0.1c1.3-1.8 3.5-2.9 5.9-2.9 2.4 0 4.6 1.1 5.9 2.9q0.6-0.1 1.1-0.1c1.8 0 3.5 0.8 4.6 2 0.4-0.3 1-0.5 1.5-0.5 1 0 1.9 0.6 2.3 1.4 1.9 0 3.5 0.9 4.5 2.3q0.3 0 0.6 0c1 0 1.9 0.2 2.7 0.7 0.6-0.4 1.3-0.5 2.1-0.5 1.9 0 3.5 1.1 4.1 2.8q0 0 0.1 0c2.4 0 4.5 1.6 5.2 3.8q0.1 0 0.1 0c2.4 0 4.4 2 4.4 4.4 0 2.4-2 4.4-4.4 4.4z"/>
					<path class="s4" d="m-81.6 268.3c0 0 3 0.2 3.7-3.1 0 0 0.2 1.4-0.2 2.5-0.5 1-1.7 1.7-3.5 0.6z"/>
					<path class="s4" d="m-28.1 269.1c0 0-3.9 0.3-4.8-3.9 0 0-0.3 1.8 0.3 3.1 0.6 1.4 2.1 2.3 4.5 0.8z"/>
					<path class="s4" d="m-56.6 274.1c0 0-3.9 0.2-4.7-3.9 0 0-0.3 1.8 0.3 3.1 0.6 1.4 2.1 2.3 4.4 0.8z"/>
					<path class="s4" d="m-62 264.1c0 0 3.9 0.2 4.7-3.9 0 0 0.4 1.8-0.2 3.1-0.6 1.4-2.2 2.3-4.5 0.8z"/>
					<path class="s4" d="m-37.2 267c-1.1 0.7-2.1 0.8-2.8 0.6-0.4 0.4-0.9 0.6-1.5 0.7-1.3 0.3-2.9-0.5-2.9-0.5 1.5 0.1 2.5-0.4 3.3-1q-0.3-0.3-0.4-0.6c-0.6-1.3-0.3-3-0.3-3 0.3 1.3 0.9 2.2 1.5 2.7q0.4 0.4 0.9 0.6c1.1 0.5 2.2 0.5 2.2 0.5z"/>
					<path class="s4" d="m-72.8 265.7c1.2 0.7 2.1 0.8 2.8 0.6 0.4 0.4 1 0.6 1.5 0.7 1.4 0.2 3-0.5 3-0.5-1.5 0.1-2.6-0.4-3.3-1q0.2-0.3 0.4-0.6c0.5-1.3 0.2-3 0.2-3-0.2 1.3-0.8 2.1-1.5 2.7q-0.4 0.3-0.8 0.6c-1.2 0.5-2.3 0.5-2.3 0.5z"/>
					<path class="s4" d="m-85.9 278c6.3 0 8.1-3.4 8.1-3.4 0 0 1.3 3.4 9 3.4z"/>
					<path class="s4" d="m-37.1 278c6.2 0 8.1-3.4 8.1-3.4 0 0 0.7 3.4 8.4 3.4z"/>
				</g>
			</g>
			<g>
				<path class="s3" d="m-197.5 278c-2.4 0-4.4-2-4.4-4.4 0-2.4 2-4.4 4.4-4.4q0 0 0.1 0c0.7-2.2 2.8-3.8 5.2-3.8q0.1 0 0.1 0c0.6-1.7 2.2-2.8 4.1-2.8 0.8 0 1.5 0.1 2.1 0.5 0.8-0.5 1.7-0.7 2.7-0.7q0.3 0 0.6 0c1-1.4 2.6-2.3 4.5-2.3 0.4-0.8 1.3-1.4 2.3-1.4 0.5 0 1 0.2 1.5 0.5 1.1-1.2 2.7-2 4.6-2q0.5 0 1.1 0.1c1.3-1.8 3.5-2.9 5.9-2.9 2.4 0 4.6 1.1 5.9 2.9q0.6-0.1 1.1-0.1c1.8 0 3.5 0.8 4.6 2 0.4-0.3 1-0.5 1.5-0.5 1 0 1.9 0.6 2.3 1.4 1.9 0 3.5 0.9 4.5 2.3q0.3 0 0.6 0c1 0 1.9 0.2 2.7 0.7 0.6-0.4 1.3-0.5 2.1-0.5 1.9 0 3.5 1.1 4.1 2.8q0 0 0.1 0c2.4 0 4.5 1.6 5.2 3.8q0.1 0 0.1 0c2.4 0 4.4 2 4.4 4.4 0 2.4-2 4.4-4.4 4.4z"/>
				<path class="s4" d="m-189.3 268.3c0 0 3 0.2 3.7-3.1 0 0 0.2 1.4-0.2 2.5-0.5 1-1.7 1.7-3.5 0.6z"/>
				<path class="s4" d="m-135.8 269.1c0 0-3.9 0.3-4.8-3.9 0 0-0.3 1.8 0.3 3.1 0.6 1.4 2.1 2.3 4.5 0.8z"/>
				<path class="s4" d="m-164.3 274.1c0 0-3.9 0.2-4.7-3.9 0 0-0.3 1.8 0.3 3.1 0.6 1.4 2.1 2.3 4.4 0.8z"/>
				<path class="s4" d="m-169.7 264.1c0 0 3.9 0.2 4.7-3.9 0 0 0.4 1.8-0.2 3.1-0.6 1.4-2.2 2.3-4.5 0.8z"/>
				<path class="s4" d="m-144.9 267c-1.1 0.7-2.1 0.8-2.8 0.6-0.4 0.4-0.9 0.6-1.5 0.7-1.3 0.3-2.9-0.5-2.9-0.5 1.5 0.1 2.5-0.4 3.3-1q-0.3-0.3-0.4-0.6c-0.6-1.3-0.3-3-0.3-3 0.3 1.3 0.9 2.2 1.5 2.7q0.4 0.4 0.9 0.6c1.1 0.5 2.2 0.5 2.2 0.5z"/>
				<path class="s4" d="m-180.5 265.7c1.2 0.7 2.1 0.8 2.8 0.6 0.4 0.4 1 0.6 1.5 0.7 1.4 0.2 3-0.5 3-0.5-1.5 0.1-2.6-0.4-3.3-1q0.2-0.3 0.4-0.6c0.5-1.3 0.2-3 0.2-3-0.2 1.3-0.8 2.1-1.5 2.7q-0.4 0.3-0.8 0.6c-1.2 0.5-2.3 0.5-2.3 0.5z"/>
				<path class="s4" d="m-193.6 278c6.3 0 8.1-3.4 8.1-3.4 0 0 1.3 3.4 9 3.4z"/>
				<path class="s4" d="m-144.8 278c6.2 0 8.1-3.4 8.1-3.4 0 0 0.7 3.4 8.4 3.4z"/>
			</g>
			<g>
				<g>
					<path class="s0" d="m161.4 257.9h-2c0-22.7-2.2-38-4-50.3-3-20.6-5-34.2 4.8-62.3 5.3-15.4 8.5-33.1 9.3-52.4h2c-0.9 19.6-4 37.5-9.5 53.1-9.6 27.6-7.6 41-4.7 61.3 1.8 12.4 4.1 27.8 4.1 50.6z"/>
					<g>
						<path class="s0" d="m160.4 257.9c-0.4 0-0.7-0.3-0.7-0.7v-17.4c0-9.1 5-17.3 13-21.4 0.4-0.2 0.8-0.1 1 0.3 0.2 0.3 0 0.7-0.3 0.9-7.6 3.9-12.3 11.7-12.3 20.2v17.4c0 0.4-0.3 0.7-0.7 0.7z"/>
						<g>
							<path class="s1" d="m198 207c-7.4 6-6.2 13-14.3 19.7-4.9 4.1-10.9 3-14.7-2.1q-0.8-1.1-1.3-2.3-0.4-0.7-0.6-1.3c-1.7-4.6-0.9-9.8 3-12.8 10.6-7.7 27.9-1.2 27.9-1.2z"/>
							<path class="s2" d="m169.8 221.1c0 0-1.1-6.1 1-8.9 0 0-1.1 5.1 0.7 7.4z"/>
							<path class="s2" d="m172.9 218.2c0 0-0.5-6.1 1.9-8.7 0 0-1.6 5 0 7.4z"/>
							<path class="s2" d="m176.6 216.3c0 0 0.7-6.1 3.5-8.2 0 0-2.5 4.6-1.4 7.3z"/>
							<path class="s2" d="m169.8 221.1c0 0 4.9 3.7 8.3 3.2 0 0-5-1.4-6.2-4.1z"/>
							<path class="s2" d="m173.1 218.8c0 0 5.2 3.4 8.5 2.6 0 0-5.1-1-6.5-3.6z"/>
							<path class="s2" d="m176.9 216.7c0 0 5.8 2.3 8.9 0.8 0 0-5.2 0-7.1-2.2z"/>
							<path class="s2" d="m181.4 213.2c0 0 0.5-4.8 2.7-6.4 0 0-2 3.6-1.1 5.7z"/>
							<path class="s2" d="m181.6 213.5c0 0 4.5 1.7 6.9 0.6 0 0-4.1 0-5.5-1.7z"/>
							<path class="s2" d="m186.3 211.3c0 0 0.4-3.5 1.9-4.7 0 0-1.4 2.6-0.8 4.1z"/>
							<path class="s2" d="m186.4 211.5c0 0 3.3 1.2 5 0.4 0 0-2.9 0-4-1.2z"/>
							<path class="s0" d="m190.6 209.8c-7 2.9-18.4 10-22.4 13.5q-0.3-0.5-0.6-1 0-0.2-0.1-0.3c1.8-1.7 13.9-9.8 22.9-12.8 0.3-0.1 0.5 0.4 0.2 0.6z"/>
						</g>
						<path class="s0" d="m160.4 249.2c-0.4 0-0.7-0.3-0.7-0.7 0-8.6-4.7-16.3-12.3-20.2-0.4-0.2-0.5-0.6-0.3-1 0.2-0.3 0.6-0.5 0.9-0.3 8.1 4.2 13.1 12.4 13.1 21.5 0 0.4-0.3 0.7-0.7 0.7z"/>
						<g>
							<path class="s1" d="m122.7 215.6c7.5 6 6.3 13 14.4 19.8 4.8 4.1 10.9 2.9 14.7-2.2q0.8-1.1 1.3-2.3 0.3-0.6 0.6-1.3c1.7-4.5 0.9-9.8-3.1-12.7-10.5-7.7-27.9-1.3-27.9-1.3z"/>
							<path class="s2" d="m151 229.7c0 0 1.1-6.1-1.1-8.8 0 0 1.2 5.1-0.6 7.4z"/>
							<path class="s2" d="m147.8 226.9c0 0 0.5-6.2-1.8-8.8 0 0 1.6 5.1 0 7.5z"/>
							<path class="s2" d="m144.2 225c0 0-0.7-6.2-3.5-8.3 0 0 2.5 4.7 1.4 7.4z"/>
							<path class="s2" d="m151 229.7c0 0-4.9 3.8-8.4 3.3 0 0 5.1-1.5 6.3-4.1z"/>
							<path class="s2" d="m147.7 227.5c0 0-5.2 3.4-8.6 2.5 0 0 5.2-1 6.6-3.5z"/>
							<path class="s2" d="m143.9 225.3c0 0-5.8 2.3-8.9 0.9 0 0 5.2 0 7.1-2.3z"/>
							<path class="s2" d="m139.4 221.8c0 0-0.5-4.7-2.7-6.4 0 0 2 3.6 1.1 5.7z"/>
							<path class="s2" d="m139.2 222.1c0 0-4.5 1.8-6.9 0.7 0 0 4 0 5.5-1.8z"/>
							<path class="s2" d="m134.5 219.9c0 0-0.4-3.4-1.9-4.6 0 0 1.4 2.6 0.7 4.1z"/>
							<path class="s2" d="m134.3 220.1c0 0-3.2 1.3-5 0.5 0 0 3 0 4-1.3z"/>
							<path class="s0" d="m130.2 218.4c7 2.9 18.4 10 22.4 13.6q0.3-0.5 0.5-1.1 0.1-0.1 0.2-0.2c-1.8-1.8-13.9-9.8-22.9-12.8-0.3-0.1-0.6 0.4-0.2 0.5z"/>
						</g>
					</g>
					<g>
						<path class="s0" d="m156.1 206.4c1-7.8 5.7-14.6 12.8-18.3 0.4-0.2 0.8-0.1 1 0.3 0.2 0.3 0 0.8-0.3 1-7.6 3.9-12.3 11.6-12.3 20.1v2.9z"/>
						<g>
							<path class="s1" d="m194.2 176.7c-7.4 6-6.2 13-14.3 19.8-4.9 4-10.9 2.9-14.7-2.2q-0.8-1.1-1.3-2.3-0.4-0.6-0.6-1.3c-1.7-4.6-0.9-9.8 3.1-12.7 10.5-7.7 27.8-1.3 27.8-1.3z"/>
							<path class="s2" d="m166 190.8c0 0-1.1-6.1 1-8.9 0 0-1.1 5.2 0.7 7.5z"/>
							<path class="s2" d="m169.1 188c0 0-0.5-6.2 1.9-8.8 0 0-1.6 5 0 7.5z"/>
							<path class="s2" d="m172.8 186c0 0 0.7-6.1 3.5-8.2 0 0-2.5 4.6-1.4 7.3z"/>
							<path class="s2" d="m166 190.8c0 0 4.9 3.8 8.3 3.2 0 0-5-1.4-6.2-4.1z"/>
							<path class="s2" d="m169.3 188.6c0 0 5.2 3.3 8.6 2.5 0 0-5.2-1-6.6-3.6z"/>
							<path class="s2" d="m173.1 186.4c0 0 5.8 2.3 8.9 0.8 0 0-5.2 0.1-7.1-2.2z"/>
							<path class="s2" d="m177.6 182.9c0 0 0.5-4.8 2.7-6.4 0 0-2 3.6-1.1 5.7z"/>
							<path class="s2" d="m177.8 183.2c0 0 4.5 1.8 6.9 0.6 0 0-4.1 0-5.5-1.7z"/>
							<path class="s2" d="m182.5 181c0 0 0.4-3.5 1.9-4.6 0 0-1.4 2.6-0.8 4.1z"/>
							<path class="s2" d="m182.7 181.2c0 0 3.2 1.3 4.9 0.5 0 0-2.9 0-3.9-1.3z"/>
							<path class="s0" d="m186.8 179.5c-7 2.9-18.4 10-22.4 13.5q-0.3-0.5-0.5-1-0.1-0.1-0.2-0.3c1.8-1.7 13.9-9.8 22.9-12.7 0.3-0.2 0.6 0.4 0.2 0.5z"/>
						</g>
					</g>
					<g>
						<path class="s0" d="m155.8 162.4c3.7-4.4 9-7.3 14.9-8.1 0.4 0 0.8 0.2 0.8 0.6 0.1 0.4-0.2 0.8-0.6 0.8-6.1 0.9-11.4 4.1-15 8.8z"/>
						<g>
							<path class="s1" d="m198.4 152c-9 3.2-10.2 10.2-20.1 13.9-6 2.2-11.3-0.9-13.1-7q-0.4-1.3-0.6-2.6 0-0.7-0.1-1.4c0-4.9 2.4-9.5 7.2-11 12.5-3.7 26.7 8.1 26.7 8.1z"/>
							<path class="s2" d="m167 155.9c0 0 1.1-6.1 4-8 0 0-2.8 4.4-1.9 7.2z"/>
							<path class="s2" d="m171 154.3c0 0 1.6-6 4.6-7.6 0 0-3.1 4.1-2.4 7z"/>
							<path class="s2" d="m175.1 153.7c0 0 2.7-5.6 6-6.6 0 0-3.9 3.5-3.8 6.4z"/>
							<path class="s2" d="m167.1 155.9c0 0 3.3 5.2 6.7 5.8 0 0-4.3-3-4.5-5.9z"/>
							<path class="s2" d="m170.9 154.9c0 0 3.8 4.9 7.2 5.2 0 0-4.5-2.6-5-5.5z"/>
							<path class="s2" d="m175.2 154.1c0 0 4.7 4.1 8.1 3.8 0 0-4.9-1.7-5.9-4.5z"/>
							<path class="s2" d="m180.6 152.3c0 0 2.1-4.3 4.7-5.1 0 0-3 2.7-2.9 5z"/>
							<path class="s2" d="m180.7 152.7c0 0 3.6 3.1 6.3 2.9 0 0-3.8-1.4-4.6-3.5z"/>
							<path class="s2" d="m185.9 152.2c0 0 1.5-3.2 3.3-3.7 0 0-2.1 1.9-2.1 3.6z"/>
							<path class="s2" d="m186 152.4c0 0 2.6 2.3 4.5 2.1 0 0-2.8-1-3.3-2.5z"/>
							<path class="s0" d="m190.5 152.2c-7.7 0.4-20.8 3.3-25.7 5.3q-0.1-0.6-0.2-1.2 0-0.1 0-0.3c2.2-1 16.3-4.6 25.8-4.4 0.4 0 0.4 0.6 0.1 0.6z"/>
						</g>
					</g>
					<g>
						<path class="s0" d="m162.7 138.9c3.7-6.4 10.1-10.8 17.6-11.8 0.4-0.1 0.8 0.2 0.8 0.6 0.1 0.4-0.2 0.8-0.6 0.8-7.6 1-14 5.7-17.3 12.5z"/>
						<g>
							<path class="s1" d="m208 124.8c-9 3.2-10.3 10.2-20.2 13.9-5.9 2.2-11.3-0.9-13.1-7q-0.4-1.3-0.5-2.6-0.1-0.7-0.1-1.4c0-4.9 2.4-9.6 7.2-11 12.5-3.7 26.7 8.1 26.7 8.1z"/>
							<path class="s2" d="m176.6 128.7c0 0 1.1-6.1 4-8 0 0-2.8 4.4-1.9 7.2z"/>
							<path class="s2" d="m180.5 127.1c0 0 1.6-6 4.7-7.7 0 0-3.2 4.2-2.5 7.1z"/>
							<path class="s2" d="m184.6 126.5c0 0 2.7-5.6 6.1-6.6 0 0-3.9 3.5-3.8 6.4z"/>
							<path class="s2" d="m176.6 128.7c0 0 3.4 5.2 6.8 5.8 0 0-4.3-3-4.5-5.9z"/>
							<path class="s2" d="m180.5 127.7c0 0 3.7 4.9 7.2 5.2 0 0-4.5-2.6-5-5.5z"/>
							<path class="s2" d="m184.8 126.9c0 0 4.6 4.1 8.1 3.8 0 0-4.9-1.8-5.9-4.5z"/>
							<path class="s2" d="m190.2 125.1c0 0 2.1-4.3 4.7-5.1 0 0-3.1 2.7-3 5z"/>
							<path class="s2" d="m190.3 125.4c0 0 3.6 3.2 6.3 3 0 0-3.8-1.4-4.6-3.5z"/>
							<path class="s2" d="m195.4 124.9c0 0 1.6-3.1 3.4-3.7 0 0-2.2 2-2.1 3.6z"/>
							<path class="s2" d="m195.5 125.2c0 0 2.6 2.3 4.6 2.1 0 0-2.8-1-3.4-2.5z"/>
							<path class="s0" d="m200 125c-7.6 0.4-20.7 3.3-25.6 5.3q-0.1-0.6-0.2-1.2 0-0.2 0-0.3c2.2-1.1 16.3-4.6 25.8-4.4 0.3 0 0.4 0.6 0 0.6z"/>
						</g>
					</g>
					<g>
						<path class="s0" d="m155.6 203.3c-1.8-5.6-5.7-10.3-11.1-13.1-0.4-0.2-0.5-0.6-0.4-1 0.2-0.3 0.7-0.5 1-0.3 4.5 2.4 8.1 6 10.4 10.3z"/>
						<g>
							<path class="s1" d="m119.8 177.5c7.4 6 6.2 13 14.3 19.8 4.9 4.1 11 2.9 14.7-2.2q0.8-1.1 1.4-2.3 0.3-0.6 0.6-1.3c1.6-4.5 0.9-9.8-3.1-12.7-10.5-7.7-27.9-1.3-27.9-1.3z"/>
							<path class="s2" d="m148.1 191.6c0 0 1-6.1-1.1-8.8 0 0 1.2 5.1-0.7 7.4z"/>
							<path class="s2" d="m144.9 188.8c0 0 0.5-6.2-1.8-8.7 0 0 1.6 5-0.1 7.4z"/>
							<path class="s2" d="m141.2 186.9c0 0-0.6-6.2-3.4-8.3 0 0 2.5 4.7 1.4 7.4z"/>
							<path class="s2" d="m148 191.6c0 0-4.8 3.8-8.3 3.3 0 0 5.1-1.5 6.2-4.1z"/>
							<path class="s2" d="m144.8 189.4c0 0-5.2 3.4-8.6 2.5 0 0 5.2-1 6.6-3.5z"/>
							<path class="s2" d="m140.9 187.2c0 0-5.7 2.3-8.9 0.9 0 0 5.3 0 7.1-2.3z"/>
							<path class="s2" d="m136.5 183.7c0 0-0.6-4.7-2.7-6.4 0 0 1.9 3.6 1.1 5.7z"/>
							<path class="s2" d="m136.2 184c0 0-4.4 1.8-6.9 0.7 0 0 4.1 0 5.6-1.8z"/>
							<path class="s2" d="m131.6 181.8c0 0-0.4-3.4-2-4.6 0 0 1.4 2.6 0.8 4.1z"/>
							<path class="s2" d="m131.4 182c0 0-3.2 1.3-5 0.5 0 0 3 0 4-1.3z"/>
							<path class="s0" d="m127.2 180.3c7.1 2.9 18.5 10 22.5 13.6q0.2-0.5 0.5-1.1 0.1-0.1 0.1-0.2c-1.7-1.8-13.8-9.8-22.8-12.8-0.4-0.1-0.6 0.4-0.3 0.5z"/>
						</g>
					</g>
					<g>
						<path class="s0" d="m154.6 172.7c-1.7-5.9-5.7-10.9-11.4-13.8-0.3-0.2-0.5-0.6-0.3-1 0.2-0.3 0.6-0.5 1-0.3 5.1 2.7 9 7 11.2 12.1z"/>
						<g>
							<path class="s1" d="m118.6 146.2c7.4 6 6.2 13 14.3 19.8 4.9 4.1 11 2.9 14.7-2.2q0.8-1.1 1.4-2.3 0.3-0.6 0.5-1.3c1.7-4.5 1-9.8-3-12.7-10.6-7.7-27.9-1.3-27.9-1.3z"/>
							<path class="s2" d="m146.9 160.3c0 0 1-6.1-1.1-8.8 0 0 1.1 5.1-0.7 7.4z"/>
							<path class="s2" d="m143.7 157.5c0 0 0.5-6.2-1.9-8.8 0 0 1.6 5.1 0 7.5z"/>
							<path class="s2" d="m140 155.6c0 0-0.7-6.2-3.5-8.3 0 0 2.5 4.7 1.4 7.4z"/>
							<path class="s2" d="m146.8 160.3c0 0-4.9 3.8-8.3 3.3 0 0 5-1.5 6.2-4.1z"/>
							<path class="s2" d="m143.6 158.1c0 0-5.2 3.4-8.6 2.5 0 0 5.1-1 6.5-3.5z"/>
							<path class="s2" d="m139.7 155.9c0 0-5.7 2.3-8.9 0.9 0 0 5.3 0 7.1-2.3z"/>
							<path class="s2" d="m135.3 152.4c0 0-0.6-4.7-2.7-6.4 0 0 1.9 3.6 1 5.7z"/>
							<path class="s2" d="m135 152.7c0 0-4.4 1.8-6.9 0.7 0 0 4.1 0 5.5-1.8z"/>
							<path class="s2" d="m130.4 150.5c0 0-0.4-3.4-2-4.6 0 0 1.4 2.6 0.8 4.1z"/>
							<path class="s2" d="m130.2 150.7c0 0-3.2 1.3-5 0.5 0 0 2.9 0 4-1.3z"/>
							<path class="s0" d="m126 149c7.1 2.9 18.4 10 22.4 13.6q0.3-0.5 0.6-1.1 0-0.1 0.1-0.2c-1.7-1.8-13.8-9.8-22.9-12.8-0.3-0.1-0.5 0.4-0.2 0.5z"/>
						</g>
					</g>
					<g>
						<path class="s0" d="m164.1 135.7c-2.1-3-4.9-5.6-8.4-7.4-0.3-0.1-0.5-0.6-0.3-0.9 0.2-0.4 0.6-0.5 1-0.3 3.3 1.7 6.1 4.1 8.3 7z"/>
						<g>
							<path class="s1" d="m131.1 115.7c7.4 6 6.2 13 14.3 19.8 4.9 4 11 2.9 14.7-2.2q0.8-1.1 1.4-2.3 0.3-0.6 0.5-1.3c1.7-4.6 1-9.8-3-12.7-10.5-7.7-27.9-1.3-27.9-1.3z"/>
							<path class="s2" d="m159.4 129.8c0 0 1-6.1-1.1-8.9 0 0 1.1 5.1-0.7 7.4z"/>
							<path class="s2" d="m156.2 127c0 0 0.5-6.2-1.9-8.8 0 0 1.6 5 0 7.5z"/>
							<path class="s2" d="m152.5 125c0 0-0.7-6.1-3.5-8.2 0 0 2.6 4.6 1.4 7.3z"/>
							<path class="s2" d="m159.3 129.8c0 0-4.9 3.8-8.3 3.2 0 0 5.1-1.4 6.2-4.1z"/>
							<path class="s2" d="m156.1 127.6c0 0-5.2 3.3-8.6 2.5 0 0 5.1-1 6.5-3.6z"/>
							<path class="s2" d="m152.2 125.4c0 0-5.7 2.3-8.9 0.8 0 0 5.3 0.1 7.1-2.2z"/>
							<path class="s2" d="m147.8 121.9c0 0-0.6-4.8-2.7-6.4 0 0 1.9 3.6 1 5.7z"/>
							<path class="s2" d="m147.5 122.2c0 0-4.4 1.8-6.9 0.6 0 0 4.1 0 5.5-1.7z"/>
							<path class="s2" d="m142.9 120c0 0-0.4-3.5-2-4.6 0 0 1.4 2.5 0.8 4.1z"/>
							<path class="s2" d="m142.7 120.2c0 0-3.2 1.3-5 0.4 0 0 2.9 0.1 4-1.2z"/>
							<path class="s0" d="m138.5 118.5c7.1 2.9 18.4 10 22.4 13.5q0.3-0.5 0.6-1 0-0.1 0.1-0.3c-1.7-1.7-13.8-9.8-22.8-12.8-0.4-0.1-0.6 0.4-0.3 0.6z"/>
						</g>
					</g>
				</g>
				<g>
					<path class="s3" d="m125.6 278c-2.4 0-4.4-2-4.4-4.4 0-2.4 2-4.4 4.4-4.4q0 0 0.1 0c0.7-2.2 2.8-3.8 5.2-3.8q0.1 0 0.1 0c0.6-1.7 2.2-2.8 4.1-2.8 0.8 0 1.5 0.1 2.1 0.5 0.8-0.5 1.7-0.7 2.7-0.7q0.3 0 0.6 0c1-1.4 2.6-2.3 4.5-2.3 0.4-0.8 1.3-1.4 2.3-1.4 0.5 0 1 0.2 1.5 0.5 1.1-1.2 2.7-2 4.6-2q0.5 0 1.1 0.1c1.3-1.8 3.5-2.9 5.9-2.9 2.4 0 4.6 1.1 5.9 2.9q0.6-0.1 1.1-0.1c1.8 0 3.5 0.8 4.6 2 0.4-0.3 1-0.5 1.5-0.5 1 0 1.9 0.6 2.3 1.4 1.9 0 3.5 0.9 4.5 2.3q0.3 0 0.6 0c1 0 1.9 0.2 2.7 0.7 0.6-0.4 1.3-0.5 2.1-0.5 1.9 0 3.5 1.1 4.1 2.8q0 0 0.1 0c2.4 0 4.5 1.6 5.2 3.8q0.1 0 0.1 0c2.4 0 4.4 2 4.4 4.4 0 2.4-2 4.4-4.4 4.4z"/>
					<path class="s4" d="m133.8 268.3c0 0 3 0.2 3.7-3.1 0 0 0.2 1.4-0.2 2.5-0.5 1-1.7 1.7-3.5 0.6z"/>
					<path class="s4" d="m187.3 269.1c0 0-3.9 0.3-4.8-3.9 0 0-0.3 1.8 0.3 3.1 0.6 1.4 2.1 2.3 4.5 0.8z"/>
					<path class="s4" d="m158.8 274.1c0 0-3.9 0.2-4.7-3.9 0 0-0.3 1.8 0.3 3.1 0.6 1.4 2.1 2.3 4.4 0.8z"/>
					<path class="s4" d="m153.4 264.1c0 0 3.9 0.2 4.7-3.9 0 0 0.4 1.8-0.2 3.1-0.6 1.4-2.2 2.3-4.5 0.8z"/>
					<path class="s4" d="m178.2 267c-1.1 0.7-2.1 0.8-2.8 0.6-0.4 0.4-0.9 0.6-1.5 0.7-1.3 0.3-2.9-0.5-2.9-0.5 1.5 0.1 2.5-0.4 3.3-1q-0.3-0.3-0.4-0.6c-0.6-1.3-0.3-3-0.3-3 0.3 1.3 0.9 2.2 1.5 2.7q0.4 0.4 0.9 0.6c1.1 0.5 2.2 0.5 2.2 0.5z"/>
					<path class="s4" d="m142.6 265.7c1.2 0.7 2.1 0.8 2.8 0.6 0.4 0.4 0.9 0.6 1.5 0.7 1.4 0.2 2.9-0.5 2.9-0.5-1.5 0.1-2.5-0.4-3.2-1q0.2-0.3 0.4-0.6c0.5-1.3 0.2-3 0.2-3-0.2 1.3-0.8 2.1-1.5 2.7q-0.4 0.3-0.8 0.6c-1.2 0.5-2.3 0.5-2.3 0.5z"/>
					<path class="s4" d="m129.5 278c6.2 0 8.1-3.4 8.1-3.4 0 0 1.3 3.4 9 3.4z"/>
					<path class="s4" d="m178.3 278c6.2 0 8-3.4 8-3.4 0 0 0.8 3.4 8.5 3.4z"/>
				</g>
				<g>
					<path class="s8" d="m159.5 82.4c3.3-8.6 12.9-12.9 21.5-9.6 8.5 3.3 12.8 12.9 9.5 21.5z"/>
					<path class="s1" d="m200 86.6c0 0-4.1 1.7-7.2 9.7-3.7 9.8-14.7 14.7-24.5 10.9-9.7-3.7-14.6-14.7-10.8-24.5 2.8-7.3-2.9-12.6-2.9-12.6 0 0 9.2 2.2 12.7 10 1.4-1.3 3.2-2.3 5.5-2.5 0 0 0.6 2.5 3.2 5.6 1.4-2 2.2-4.2 2.2-4.2 0 0 1.1 2 1.4 4.3 1.2-0.5 2.6-1.3 3.6-2.3 0 0 2 3.4 1.3 9.3 3.3-2.7 9.1-6 15.5-3.7z"/>
				</g>
			</g>
		</g>
	</g>
</svg>