<svg version="1.2" xmlns="http://www.w3.org/2000/svg" viewBox="0 0 118 294" width="118" height="294">
	<title>34295180_sunflower_growth</title>
	<style>
		.s0 { fill: #8bbc4a } 
		.s1 { fill: #9cd83d } 
		.s2 { fill: #98c939 } 
		.s3 { fill: #5e3430 } 
		.s4 { fill: #492523 } 
		.s5 { fill: #f7df2f } 
		.s6 { fill: #e2bd20 } 
		.s7 { fill: #efca30 } 
		.s8 { fill: #ffee42 } 
		.s9 { fill: #502318 } 
	</style>
	<g id="objects">
		<g>
			<g>
				<g>
					<path class="s0" d="m54.1 255.9h-2c0-22.7-2.2-38-4-50.3-3-20.6-5-34.2 4.8-62.3 5.3-15.4 8.5-33.1 9.3-52.4h2c-0.9 19.6-4 37.5-9.5 53.1-9.6 27.6-7.6 41-4.7 61.3 1.8 12.4 4.1 27.8 4.1 50.6z"/>
					<g>
						<path class="s0" d="m53.1 255.9c-0.4 0-0.7-0.3-0.7-0.7v-17.4c0-9.1 5-17.3 13-21.4 0.4-0.2 0.8-0.1 1 0.3 0.2 0.3 0 0.7-0.3 0.9-7.6 3.9-12.3 11.7-12.3 20.2v17.4c0 0.4-0.3 0.7-0.7 0.7z"/>
						<g>
							<path class="s1" d="m90.7 205c-7.4 6-6.2 13-14.3 19.7-4.9 4.1-10.9 3-14.7-2.1q-0.8-1.1-1.4-2.3-0.3-0.7-0.5-1.3c-1.7-4.6-1-9.8 3-12.8 10.6-7.7 27.9-1.2 27.9-1.2z"/>
							<path class="s2" d="m62.5 219.1c0 0-1.1-6.1 1-8.9 0 0-1.1 5.1 0.7 7.4z"/>
							<path class="s2" d="m65.6 216.2c0 0-0.5-6.1 1.9-8.7 0 0-1.6 5 0 7.4z"/>
							<path class="s2" d="m69.3 214.3c0 0 0.7-6.1 3.5-8.2 0 0-2.5 4.6-1.4 7.3z"/>
							<path class="s2" d="m62.5 219.1c0 0 4.9 3.7 8.3 3.2 0 0-5-1.4-6.2-4.1z"/>
							<path class="s2" d="m65.8 216.8c0 0 5.2 3.4 8.5 2.6 0 0-5.1-1-6.5-3.6z"/>
							<path class="s2" d="m69.6 214.7c0 0 5.8 2.3 8.9 0.8 0 0-5.2 0-7.1-2.2z"/>
							<path class="s2" d="m74.1 211.2c0 0 0.5-4.8 2.7-6.4 0 0-2 3.6-1.1 5.7z"/>
							<path class="s2" d="m74.3 211.5c0 0 4.5 1.7 6.9 0.6 0 0-4.1 0-5.5-1.7z"/>
							<path class="s2" d="m79 209.3c0 0 0.4-3.5 1.9-4.7 0 0-1.4 2.6-0.8 4.1z"/>
							<path class="s2" d="m79.1 209.5c0 0 3.3 1.2 5 0.4 0 0-2.9 0-4-1.2z"/>
							<path class="s0" d="m83.3 207.8c-7 2.9-18.4 10-22.4 13.5q-0.3-0.5-0.6-1 0-0.2-0.1-0.3c1.8-1.7 13.9-9.8 22.9-12.8 0.3-0.1 0.5 0.4 0.2 0.6z"/>
						</g>
						<path class="s0" d="m53.1 247.2c-0.4 0-0.7-0.3-0.7-0.7 0-8.6-4.7-16.3-12.3-20.2-0.4-0.2-0.5-0.6-0.3-1 0.2-0.3 0.6-0.5 0.9-0.3 8.1 4.2 13.1 12.4 13.1 21.5 0 0.4-0.3 0.7-0.7 0.7z"/>
						<g>
							<path class="s1" d="m15.4 213.6c7.5 6 6.3 13 14.4 19.8 4.8 4.1 10.9 2.9 14.7-2.2q0.8-1.1 1.3-2.3 0.3-0.6 0.6-1.3c1.7-4.5 0.9-9.8-3.1-12.7-10.5-7.7-27.9-1.3-27.9-1.3z"/>
							<path class="s2" d="m43.7 227.7c0 0 1-6.1-1.1-8.8 0 0 1.2 5.1-0.6 7.4z"/>
							<path class="s2" d="m40.5 224.9c0 0 0.5-6.2-1.8-8.8 0 0 1.6 5.1 0 7.5z"/>
							<path class="s2" d="m36.9 223c0 0-0.7-6.2-3.5-8.3 0 0 2.5 4.7 1.4 7.4z"/>
							<path class="s2" d="m43.7 227.7c0 0-4.9 3.8-8.4 3.3 0 0 5.1-1.5 6.3-4.1z"/>
							<path class="s2" d="m40.4 225.5c0 0-5.2 3.4-8.6 2.5 0 0 5.2-1 6.6-3.5z"/>
							<path class="s2" d="m36.6 223.3c0 0-5.8 2.3-8.9 0.9 0 0 5.2 0 7.1-2.3z"/>
							<path class="s2" d="m32.1 219.8c0 0-0.5-4.7-2.7-6.4 0 0 2 3.6 1.1 5.7z"/>
							<path class="s2" d="m31.9 220.1c0 0-4.5 1.8-6.9 0.7 0 0 4 0 5.5-1.8z"/>
							<path class="s2" d="m27.2 217.9c0 0-0.4-3.4-1.9-4.6 0 0 1.4 2.6 0.7 4.1z"/>
							<path class="s2" d="m27 218.1c0 0-3.2 1.3-5 0.5 0 0 3 0 4-1.3z"/>
							<path class="s0" d="m22.9 216.4c7 2.9 18.4 10 22.4 13.6q0.3-0.5 0.5-1.1 0.1-0.1 0.2-0.2c-1.8-1.8-13.9-9.8-22.9-12.8-0.3-0.1-0.6 0.4-0.2 0.5z"/>
						</g>
					</g>
					<g>
						<path class="s0" d="m48.8 204.4c1-7.8 5.7-14.6 12.8-18.3 0.4-0.2 0.8-0.1 1 0.3 0.2 0.3 0 0.8-0.3 1-7.6 3.9-12.3 11.6-12.3 20.1v2.9z"/>
						<g>
							<path class="s1" d="m86.9 174.7c-7.4 6-6.2 13-14.3 19.8-4.9 4-10.9 2.9-14.7-2.2q-0.8-1.1-1.3-2.3-0.4-0.6-0.6-1.3c-1.7-4.6-0.9-9.8 3.1-12.7 10.5-7.7 27.8-1.3 27.8-1.3z"/>
							<path class="s2" d="m58.7 188.8c0 0-1.1-6.1 1-8.9 0 0-1.1 5.2 0.7 7.5z"/>
							<path class="s2" d="m61.8 186c0 0-0.5-6.2 1.9-8.8 0 0-1.6 5 0 7.5z"/>
							<path class="s2" d="m65.5 184c0 0 0.7-6.1 3.5-8.2 0 0-2.5 4.6-1.4 7.3z"/>
							<path class="s2" d="m58.7 188.8c0 0 4.9 3.8 8.3 3.2 0 0-5-1.4-6.2-4.1z"/>
							<path class="s2" d="m62 186.6c0 0 5.2 3.3 8.6 2.5 0 0-5.2-1-6.6-3.6z"/>
							<path class="s2" d="m65.8 184.4c0 0 5.8 2.3 8.9 0.8 0 0-5.2 0.1-7.1-2.2z"/>
							<path class="s2" d="m70.3 180.9c0 0 0.5-4.8 2.7-6.4 0 0-2 3.6-1.1 5.7z"/>
							<path class="s2" d="m70.5 181.2c0 0 4.5 1.8 6.9 0.6 0 0-4.1 0-5.5-1.7z"/>
							<path class="s2" d="m75.2 179c0 0 0.4-3.5 1.9-4.6 0 0-1.4 2.6-0.8 4.1z"/>
							<path class="s2" d="m75.3 179.2c0 0 3.3 1.3 5 0.5 0 0-2.9 0-3.9-1.3z"/>
							<path class="s0" d="m79.5 177.5c-7 2.9-18.4 10-22.4 13.5q-0.3-0.5-0.5-1-0.1-0.1-0.2-0.3c1.8-1.7 13.9-9.8 22.9-12.7 0.3-0.2 0.6 0.4 0.2 0.5z"/>
						</g>
					</g>
					<g>
						<path class="s0" d="m48.5 160.4c3.7-4.4 9-7.3 14.9-8.1 0.4 0 0.8 0.2 0.8 0.6 0.1 0.4-0.2 0.8-0.6 0.8-6.1 0.9-11.4 4.1-15 8.8z"/>
						<g>
							<path class="s1" d="m91.1 150c-9 3.2-10.2 10.2-20.1 13.9-6 2.2-11.3-0.9-13.1-7q-0.4-1.3-0.6-2.6-0.1-0.7-0.1-1.4c0-4.9 2.4-9.5 7.2-11 12.5-3.7 26.7 8.1 26.7 8.1z"/>
							<path class="s2" d="m59.7 153.9c0 0 1.1-6.1 4-8 0 0-2.8 4.4-1.9 7.2z"/>
							<path class="s2" d="m63.7 152.3c0 0 1.6-6 4.6-7.6 0 0-3.1 4.1-2.4 7z"/>
							<path class="s2" d="m67.8 151.7c0 0 2.7-5.6 6-6.6 0 0-3.9 3.5-3.8 6.4z"/>
							<path class="s2" d="m59.8 153.9c0 0 3.3 5.2 6.7 5.8 0 0-4.3-3-4.5-5.9z"/>
							<path class="s2" d="m63.6 152.9c0 0 3.8 4.9 7.2 5.2 0 0-4.5-2.6-5-5.5z"/>
							<path class="s2" d="m67.9 152.1c0 0 4.7 4.1 8.1 3.8 0 0-4.9-1.7-5.9-4.5z"/>
							<path class="s2" d="m73.3 150.3c0 0 2.1-4.3 4.7-5.1 0 0-3 2.7-2.9 5z"/>
							<path class="s2" d="m73.4 150.7c0 0 3.6 3.1 6.3 2.9 0 0-3.8-1.4-4.6-3.5z"/>
							<path class="s2" d="m78.6 150.2c0 0 1.5-3.2 3.3-3.7 0 0-2.1 1.9-2.1 3.6z"/>
							<path class="s2" d="m78.7 150.4c0 0 2.6 2.3 4.5 2.1 0 0-2.8-1-3.3-2.5z"/>
							<path class="s0" d="m83.2 150.2c-7.7 0.4-20.8 3.3-25.7 5.3q-0.1-0.6-0.2-1.2 0-0.1 0-0.3c2.2-1 16.3-4.6 25.8-4.4 0.4 0 0.4 0.6 0.1 0.6z"/>
						</g>
					</g>
					<g>
						<path class="s0" d="m55.4 136.9c3.7-6.4 10.1-10.8 17.6-11.8 0.4-0.1 0.8 0.2 0.8 0.6 0.1 0.4-0.2 0.8-0.6 0.8-7.6 1-14 5.7-17.3 12.5z"/>
						<g>
							<path class="s1" d="m100.7 122.8c-9 3.2-10.3 10.2-20.2 13.9-5.9 2.2-11.3-0.9-13.1-7q-0.4-1.3-0.5-2.6-0.1-0.7-0.1-1.4c0-4.9 2.4-9.6 7.2-11 12.5-3.7 26.7 8.1 26.7 8.1z"/>
							<path class="s2" d="m69.3 126.7c0 0 1.1-6.1 4-8 0 0-2.8 4.4-1.9 7.2z"/>
							<path class="s2" d="m73.2 125.1c0 0 1.6-6 4.7-7.7 0 0-3.2 4.2-2.5 7.1z"/>
							<path class="s2" d="m77.3 124.5c0 0 2.7-5.6 6.1-6.6 0 0-3.9 3.5-3.8 6.4z"/>
							<path class="s2" d="m69.3 126.7c0 0 3.4 5.2 6.8 5.8 0 0-4.3-3-4.5-5.9z"/>
							<path class="s2" d="m73.2 125.7c0 0 3.7 4.9 7.2 5.2 0 0-4.5-2.6-5-5.5z"/>
							<path class="s2" d="m77.5 124.9c0 0 4.6 4.1 8.1 3.8 0 0-4.9-1.8-5.9-4.5z"/>
							<path class="s2" d="m82.9 123.1c0 0 2.1-4.3 4.7-5.1 0 0-3.1 2.7-3 5z"/>
							<path class="s2" d="m83 123.4c0 0 3.6 3.2 6.3 3 0 0-3.9-1.4-4.6-3.5z"/>
							<path class="s2" d="m88.1 122.9c0 0 1.6-3.1 3.4-3.7 0 0-2.2 2-2.1 3.6z"/>
							<path class="s2" d="m88.2 123.2c0 0 2.6 2.3 4.6 2.1 0 0-2.8-1-3.4-2.5z"/>
							<path class="s0" d="m92.7 123c-7.6 0.4-20.7 3.3-25.6 5.3q-0.1-0.6-0.2-1.2 0-0.2 0-0.3c2.2-1.1 16.3-4.6 25.8-4.4 0.3 0 0.4 0.6 0 0.6z"/>
						</g>
					</g>
					<g>
						<path class="s0" d="m48.3 201.3c-1.8-5.6-5.7-10.3-11.1-13.1-0.4-0.2-0.5-0.6-0.4-1 0.2-0.3 0.7-0.5 1-0.3 4.5 2.4 8.1 6 10.4 10.3z"/>
						<g>
							<path class="s1" d="m12.5 175.5c7.4 6 6.2 13 14.3 19.8 4.9 4.1 11 2.9 14.7-2.2q0.8-1.1 1.4-2.3 0.3-0.6 0.6-1.3c1.6-4.5 0.9-9.8-3.1-12.7-10.5-7.7-27.9-1.3-27.9-1.3z"/>
							<path class="s2" d="m40.8 189.6c0 0 1-6.1-1.1-8.8 0 0 1.2 5.1-0.7 7.4z"/>
							<path class="s2" d="m37.6 186.8c0 0 0.5-6.2-1.8-8.7 0 0 1.5 5-0.1 7.4z"/>
							<path class="s2" d="m33.9 184.9c0 0-0.6-6.2-3.4-8.3 0 0 2.5 4.7 1.4 7.4z"/>
							<path class="s2" d="m40.7 189.6c0 0-4.8 3.8-8.3 3.3 0 0 5.1-1.5 6.2-4.1z"/>
							<path class="s2" d="m37.5 187.4c0 0-5.2 3.4-8.6 2.5 0 0 5.2-1 6.6-3.5z"/>
							<path class="s2" d="m33.6 185.2c0 0-5.7 2.3-8.9 0.9 0 0 5.3 0 7.1-2.3z"/>
							<path class="s2" d="m29.2 181.7c0 0-0.6-4.7-2.7-6.4 0 0 1.9 3.6 1.1 5.7z"/>
							<path class="s2" d="m28.9 182c0 0-4.4 1.8-6.9 0.7 0 0 4.1 0 5.6-1.8z"/>
							<path class="s2" d="m24.3 179.8c0 0-0.4-3.4-2-4.6 0 0 1.4 2.6 0.8 4.1z"/>
							<path class="s2" d="m24.1 180c0 0-3.2 1.3-5 0.5 0 0 3 0 4-1.3z"/>
							<path class="s0" d="m19.9 178.3c7.1 2.9 18.5 10 22.4 13.6q0.3-0.5 0.6-1.1 0.1-0.1 0.1-0.2c-1.7-1.8-13.8-9.8-22.8-12.8-0.4-0.1-0.6 0.4-0.3 0.5z"/>
						</g>
					</g>
					<g>
						<path class="s0" d="m47.3 170.7c-1.7-5.9-5.7-10.9-11.4-13.8-0.3-0.2-0.5-0.6-0.3-1 0.2-0.3 0.6-0.5 1-0.3 5.1 2.7 9 7 11.2 12.1z"/>
						<g>
							<path class="s1" d="m11.3 144.2c7.4 6 6.2 13 14.3 19.8 4.9 4.1 11 2.9 14.7-2.2q0.8-1.1 1.4-2.3 0.3-0.6 0.5-1.3c1.7-4.5 1-9.8-3-12.7-10.6-7.7-27.9-1.3-27.9-1.3z"/>
							<path class="s2" d="m39.6 158.3c0 0 1-6.1-1.1-8.8 0 0 1.1 5.1-0.7 7.4z"/>
							<path class="s2" d="m36.4 155.5c0 0 0.5-6.2-1.9-8.8 0 0 1.6 5.1 0 7.5z"/>
							<path class="s2" d="m32.7 153.6c0 0-0.7-6.2-3.5-8.3 0 0 2.5 4.7 1.4 7.4z"/>
							<path class="s2" d="m39.5 158.3c0 0-4.9 3.8-8.3 3.3 0 0 5-1.5 6.2-4.1z"/>
							<path class="s2" d="m36.3 156.1c0 0-5.2 3.4-8.6 2.5 0 0 5.1-1 6.5-3.5z"/>
							<path class="s2" d="m32.4 153.9c0 0-5.7 2.3-8.9 0.9 0 0 5.3 0 7.1-2.3z"/>
							<path class="s2" d="m28 150.4c0 0-0.6-4.7-2.7-6.4 0 0 1.9 3.6 1 5.7z"/>
							<path class="s2" d="m27.7 150.7c0 0-4.4 1.8-6.9 0.7 0 0 4.1 0 5.5-1.8z"/>
							<path class="s2" d="m23 148.5c0 0-0.3-3.4-1.9-4.6 0 0 1.4 2.6 0.8 4.1z"/>
							<path class="s2" d="m22.9 148.7c0 0-3.2 1.3-5 0.5 0 0 2.9 0 4-1.3z"/>
							<path class="s0" d="m18.7 147c7.1 2.9 18.4 10 22.4 13.6q0.3-0.5 0.6-1.1 0-0.1 0.1-0.2c-1.7-1.8-13.8-9.8-22.9-12.8-0.3-0.1-0.5 0.4-0.2 0.5z"/>
						</g>
					</g>
					<g>
						<path class="s0" d="m56.8 133.7c-2.1-3-4.9-5.6-8.4-7.4-0.3-0.1-0.5-0.6-0.3-0.9 0.2-0.4 0.6-0.5 1-0.3 3.3 1.7 6.1 4.1 8.3 7z"/>
						<g>
							<path class="s1" d="m23.8 113.7c7.4 6 6.2 13 14.3 19.8 4.9 4 11 2.9 14.7-2.2q0.8-1.1 1.4-2.3 0.3-0.6 0.5-1.3c1.7-4.6 1-9.8-3-12.7-10.6-7.7-27.9-1.3-27.9-1.3z"/>
							<path class="s2" d="m52.1 127.8c0 0 1-6.1-1.1-8.9 0 0 1.1 5.1-0.7 7.4z"/>
							<path class="s2" d="m48.9 125c0 0 0.5-6.2-1.9-8.8 0 0 1.6 5 0 7.5z"/>
							<path class="s2" d="m45.2 123c0 0-0.7-6.1-3.5-8.2 0 0 2.6 4.6 1.4 7.3z"/>
							<path class="s2" d="m52 127.8c0 0-4.9 3.8-8.3 3.2 0 0 5-1.4 6.2-4.1z"/>
							<path class="s2" d="m48.8 125.6c0 0-5.2 3.3-8.6 2.5 0 0 5.1-1 6.5-3.6z"/>
							<path class="s2" d="m44.9 123.4c0 0-5.7 2.3-8.9 0.8 0 0 5.3 0.1 7.1-2.2z"/>
							<path class="s2" d="m40.5 119.9c0 0-0.6-4.8-2.7-6.4 0 0 1.9 3.6 1 5.7z"/>
							<path class="s2" d="m40.2 120.2c0 0-4.4 1.8-6.9 0.6 0 0 4.1 0 5.5-1.7z"/>
							<path class="s2" d="m35.6 118c0 0-0.4-3.5-2-4.6 0 0 1.4 2.5 0.8 4.1z"/>
							<path class="s2" d="m35.4 118.2c0 0-3.2 1.3-5 0.4 0 0 2.9 0.1 4-1.2z"/>
							<path class="s0" d="m31.2 116.5c7.1 2.9 18.4 10 22.4 13.5q0.3-0.5 0.6-1 0-0.1 0.1-0.3c-1.7-1.7-13.8-9.8-22.8-12.8-0.4-0.1-0.6 0.4-0.3 0.6z"/>
						</g>
					</g>
				</g>
				<g>
					<path class="s3" d="m18.3 276c-2.4 0-4.4-2-4.4-4.4 0-2.4 2-4.4 4.4-4.4q0 0 0.1 0c0.7-2.2 2.8-3.8 5.2-3.8q0.1 0 0.1 0c0.6-1.7 2.2-2.8 4.1-2.8 0.8 0 1.5 0.1 2.1 0.5 0.8-0.5 1.7-0.7 2.6-0.7q0.4 0 0.7 0c1-1.4 2.6-2.3 4.5-2.3 0.4-0.8 1.3-1.4 2.3-1.4 0.5 0 1 0.2 1.5 0.5 1.1-1.2 2.7-2 4.6-2q0.5 0 1.1 0.1c1.3-1.8 3.5-2.9 5.9-2.9 2.4 0 4.6 1.1 5.9 2.9q0.6-0.1 1.1-0.1c1.8 0 3.5 0.8 4.6 2 0.4-0.3 0.9-0.5 1.5-0.5 1 0 1.9 0.6 2.3 1.4 1.9 0 3.5 0.9 4.5 2.3q0.3 0 0.6 0c1 0 1.9 0.2 2.7 0.7 0.6-0.4 1.3-0.5 2.1-0.5 1.9 0 3.5 1.1 4.1 2.8q0 0 0.1 0c2.4 0 4.5 1.6 5.2 3.8q0 0 0.1 0c2.4 0 4.4 2 4.4 4.4 0 2.4-2 4.4-4.4 4.4z"/>
					<path class="s4" d="m26.5 266.3c0 0 3 0.2 3.7-3.1 0 0 0.2 1.4-0.2 2.5-0.5 1-1.7 1.7-3.5 0.6z"/>
					<path class="s4" d="m80 267.1c0 0-3.9 0.3-4.8-3.9 0 0-0.3 1.8 0.3 3.1 0.6 1.4 2.1 2.3 4.5 0.8z"/>
					<path class="s4" d="m51.5 272.1c0 0-3.9 0.2-4.7-3.9 0 0-0.3 1.8 0.3 3.1 0.6 1.4 2.1 2.3 4.4 0.8z"/>
					<path class="s4" d="m46.1 262.1c0 0 3.9 0.2 4.7-3.9 0 0 0.4 1.8-0.2 3.1-0.6 1.4-2.2 2.3-4.5 0.8z"/>
					<path class="s4" d="m70.9 265c-1.1 0.7-2.1 0.8-2.8 0.6-0.4 0.4-0.9 0.6-1.5 0.7-1.3 0.3-2.9-0.5-2.9-0.5 1.5 0.1 2.5-0.4 3.3-1q-0.3-0.3-0.4-0.6c-0.6-1.3-0.3-3-0.3-3 0.3 1.3 0.9 2.2 1.5 2.7q0.4 0.4 0.9 0.6c1.1 0.5 2.2 0.5 2.2 0.5z"/>
					<path class="s4" d="m35.3 263.7c1.2 0.7 2.1 0.8 2.8 0.6 0.4 0.4 0.9 0.6 1.5 0.7 1.4 0.2 2.9-0.5 2.9-0.5-1.5 0.1-2.5-0.4-3.2-1q0.2-0.3 0.4-0.6c0.5-1.3 0.2-3 0.2-3-0.2 1.3-0.8 2.1-1.5 2.7q-0.4 0.3-0.8 0.6c-1.2 0.5-2.3 0.5-2.3 0.5z"/>
					<path class="s4" d="m22.2 276c6.2 0 8.1-3.4 8.1-3.4 0 0 1.3 3.4 9 3.4z"/>
					<path class="s4" d="m71 276c6.2 0 8-3.4 8-3.4 0 0 0.8 3.4 8.5 3.4z"/>
				</g>
				<g>
					<path class="s5" d="m64.4 44.4c0.2-15.3-6.1-22.4-9.2-25-1-0.8-2.5-0.5-3 0.6-1.9 3.7-4.8 12.7 1.5 26.6z"/>
					<path class="s5" d="m51.1 48.4c-10.7-11-20.1-11.6-24.2-11.2-1.3 0.1-2.1 1.3-1.7 2.5 1.3 4 5.6 12.4 19.9 17.8z"/>
					<path class="s5" d="m44.5 60.6c-15.3-0.2-22.4 6-25 9.2-0.8 0.9-0.5 2.4 0.6 3 3.7 1.8 12.7 4.7 26.6-1.5z"/>
					<path class="s5" d="m48.5 73.8c-11 10.7-11.6 20.1-11.2 24.3 0.1 1.2 1.3 2 2.5 1.6 4-1.2 12.4-5.6 17.8-19.9z"/>
					<path class="s5" d="m60.6 80.4c-0.2 15.3 6.1 22.4 9.3 25.1 0.9 0.8 2.4 0.5 2.9-0.7 1.9-3.6 4.8-12.6-1.4-26.6z"/>
					<path class="s5" d="m73.9 76.5c10.7 10.9 20.1 11.6 24.2 11.2 1.3-0.2 2.1-1.4 1.7-2.6-1.3-3.9-5.6-12.3-19.9-17.8z"/>
					<path class="s5" d="m80.5 64.3c15.3 0.2 22.4-6 25-9.2 0.9-1 0.6-2.4-0.6-3-3.7-1.9-12.7-4.8-26.6 1.5z"/>
					<path class="s5" d="m76.5 51c11-10.7 11.6-20.1 11.2-24.2-0.1-1.3-1.3-2.1-2.5-1.7-3.9 1.3-12.4 5.6-17.8 19.9z"/>
					<path class="s6" d="m57.4 45.1c-5.6-14.3-14.1-18.5-18-19.7-1.2-0.4-2.5 0.4-2.6 1.7-0.3 4.1 0.4 13.6 11.5 24.1z"/>
					<path class="s6" d="m46.6 53.8c-14-6.1-23-3.1-26.6-1.2-1.2 0.6-1.4 2-0.6 3 2.6 3.2 9.8 9.3 25.1 8.9z"/>
					<path class="s6" d="m45.2 67.5c-14.3 5.6-18.5 14.1-19.7 18.1-0.4 1.2 0.4 2.4 1.7 2.5 4.1 0.3 13.5-0.4 24.1-11.5z"/>
					<path class="s6" d="m53.8 78.3c-6 14-3 23-1.1 26.7 0.6 1.1 2 1.4 3 0.6 3.1-2.7 9.3-9.9 8.9-25.2z"/>
					<path class="s6" d="m67.6 79.8c5.6 14.2 14.1 18.4 18 19.7 1.2 0.3 2.5-0.5 2.6-1.7 0.3-4.2-0.4-13.6-11.5-24.1z"/>
					<path class="s6" d="m78.4 71.1c14 6.1 23 3.1 26.6 1.2 1.2-0.6 1.4-2.1 0.6-3-2.6-3.2-9.8-9.3-25.1-9z"/>
					<path class="s6" d="m79.9 57.3c14.2-5.6 18.4-14.1 19.6-18 0.4-1.2-0.4-2.4-1.7-2.5-4.1-0.4-13.5 0.4-24.1 11.5z"/>
					<path class="s6" d="m71.2 46.5c6-14 3.1-23 1.1-26.6-0.6-1.1-2-1.4-3-0.6-3.1 2.7-9.3 9.9-8.9 25.2z"/>
					<path class="s6" d="m57.4 45.1c-5.6-14.3-14.1-18.5-18-19.7-1.2-0.4-2.5 0.4-2.6 1.7-0.3 4.1 0.4 13.6 11.5 24.1z"/>
					<path class="s6" d="m46.6 53.8c-14-6.1-23-3.1-26.6-1.2-1.2 0.6-1.4 2-0.6 3 2.6 3.2 9.8 9.3 25.1 8.9z"/>
					<path class="s6" d="m45.2 67.5c-14.3 5.6-18.5 14.1-19.7 18.1-0.4 1.2 0.4 2.4 1.7 2.5 4.1 0.3 13.5-0.4 24.1-11.5z"/>
					<path class="s6" d="m53.8 78.3c-6 14-3 23-1.1 26.7 0.6 1.1 2 1.4 3 0.6 3.1-2.7 9.3-9.9 8.9-25.2z"/>
					<path class="s6" d="m67.6 79.8c5.6 14.2 14.1 18.4 18 19.7 1.2 0.3 2.5-0.5 2.6-1.7 0.3-4.2-0.4-13.6-11.5-24.1z"/>
					<path class="s6" d="m78.4 71.1c14 6.1 23 3.1 26.6 1.2 1.2-0.6 1.4-2.1 0.6-3-2.6-3.2-9.8-9.3-25.1-9z"/>
					<path class="s6" d="m79.9 57.3c14.2-5.6 18.4-14.1 19.6-18 0.4-1.2-0.4-2.4-1.7-2.5-4.1-0.4-13.5 0.4-24.1 11.5z"/>
					<path class="s6" d="m71.2 46.5c6-14 3.1-23 1.1-26.6-0.6-1.1-2-1.4-3-0.6-3.1 2.7-9.3 9.9-8.9 25.2z"/>
					<path class="s7" d="m61 44.4c-2.7-15.1-10.1-20.9-13.7-22.9-1.1-0.6-2.5-0.1-2.8 1.2-1.2 3.9-2.4 13.3 6.4 25.9z"/>
					<path class="s7" d="m48.7 50.8c-12.5-8.8-21.9-7.7-25.9-6.6-1.2 0.4-1.8 1.8-1.2 2.9 2 3.6 7.8 11.1 22.9 13.7z"/>
					<path class="s7" d="m44.5 63.9c-15.1 2.7-20.9 10.1-22.9 13.7-0.6 1.1-0.1 2.5 1.1 2.9 4 1.1 13.4 2.3 25.9-6.5z"/>
					<path class="s7" d="m50.8 76.2c-8.8 12.6-7.6 22-6.5 25.9 0.4 1.2 1.7 1.8 2.8 1.2 3.7-2 11.1-7.8 13.8-22.9z"/>
					<path class="s7" d="m64 80.4c2.7 15.1 10.1 21 13.7 23 1.1 0.6 2.5 0 2.8-1.2 1.2-4 2.4-13.4-6.4-25.9z"/>
					<path class="s7" d="m76.3 74.1c12.5 8.8 21.9 7.7 25.9 6.5 1.2-0.3 1.8-1.7 1.2-2.8-2-3.6-7.8-11.1-22.9-13.8z"/>
					<path class="s7" d="m80.5 60.9c15.1-2.6 20.9-10.1 22.9-13.7 0.6-1.1 0.1-2.5-1.1-2.8-4-1.2-13.4-2.3-25.9 6.4z"/>
					<path class="s7" d="m74.2 48.6c8.8-12.5 7.6-21.9 6.5-25.9-0.4-1.2-1.7-1.8-2.8-1.2-3.7 2-11.1 7.8-13.8 22.9z"/>
					<path class="s7" d="m61 44.4c-2.7-15.1-10.1-20.9-13.7-22.9-1.1-0.6-2.5-0.1-2.8 1.2-1.2 3.9-2.4 13.3 6.4 25.9z"/>
					<path class="s7" d="m48.7 50.8c-12.5-8.8-21.9-7.7-25.9-6.6-1.2 0.4-1.8 1.8-1.2 2.9 2 3.6 7.8 11.1 22.9 13.7z"/>
					<path class="s7" d="m44.5 63.9c-15.1 2.7-20.9 10.1-22.9 13.7-0.6 1.1-0.1 2.5 1.1 2.9 4 1.1 13.4 2.3 25.9-6.5z"/>
					<path class="s7" d="m50.8 76.2c-8.8 12.6-7.6 22-6.5 25.9 0.4 1.2 1.7 1.8 2.8 1.2 3.7-2 11.1-7.8 13.8-22.9z"/>
					<path class="s7" d="m64 80.4c2.7 15.1 10.1 21 13.7 23 1.1 0.6 2.5 0 2.8-1.2 1.2-4 2.4-13.4-6.4-25.9z"/>
					<path class="s7" d="m76.3 74.1c12.5 8.8 21.9 7.7 25.9 6.5 1.2-0.3 1.8-1.7 1.2-2.8-2-3.6-7.8-11.1-22.9-13.8z"/>
					<path class="s7" d="m80.5 60.9c15.1-2.6 20.9-10.1 22.9-13.7 0.6-1.1 0.1-2.5-1.1-2.8-4-1.2-13.4-2.3-25.9 6.4z"/>
					<path class="s7" d="m74.2 48.6c8.8-12.5 7.6-21.9 6.5-25.9-0.4-1.2-1.7-1.8-2.8-1.2-3.7 2-11.1 7.8-13.8 22.9z"/>
					<path class="s8" d="m68 45.2c3.3-15-1.4-23.2-4-26.4-0.8-1-2.2-1-3 0-2.6 3.2-7.3 11.4-4 26.4z"/>
					<path class="s8" d="m54.2 46.4c-8.2-12.9-17.4-15.5-21.5-15.9-1.2-0.2-2.3 0.9-2.1 2.1 0.4 4.2 3 13.3 15.8 21.5z"/>
					<path class="s8" d="m45.3 57c-15-3.3-23.2 1.3-26.4 3.9-1 0.8-1 2.3 0 3.1 3.2 2.5 11.4 7.2 26.4 3.9z"/>
					<path class="s8" d="m46.4 70.8c-12.8 8.2-15.4 17.3-15.8 21.4-0.2 1.3 0.9 2.3 2.1 2.2 4.1-0.5 13.2-3 21.5-15.9z"/>
					<path class="s8" d="m57 79.7c-3.3 14.9 1.4 23.1 4 26.4 0.8 1 2.2 1 3 0 2.6-3.3 7.3-11.5 4-26.4z"/>
					<path class="s8" d="m70.8 78.5c8.3 12.9 17.4 15.4 21.5 15.9 1.2 0.1 2.3-0.9 2.1-2.2-0.4-4.1-2.9-13.2-15.8-21.4z"/>
					<path class="s8" d="m79.7 67.9c15 3.3 23.2-1.4 26.4-3.9 1-0.8 1-2.3 0-3.1-3.2-2.6-11.4-7.2-26.4-3.9z"/>
					<path class="s8" d="m78.6 54.1c12.9-8.2 15.4-17.3 15.8-21.5 0.2-1.2-0.9-2.3-2.1-2.1-4.1 0.4-13.2 3-21.5 15.9z"/>
					<path fill-rule="evenodd" class="s9" d="m62.5 83.4c-11.6 0-21-9.4-21-21 0-11.6 9.4-21 21-21 11.6 0 21 9.4 21 21 0 11.6-9.4 21-21 21z"/>
				</g>
			</g>
			<g>
				<g>
					<path class="s0" d="m-162.3 255.9c-0.4 0-0.7-0.3-0.7-0.7v-17.4c0-9.1 5-17.3 13-21.4 0.4-0.2 0.8-0.1 1 0.3 0.2 0.3 0 0.7-0.3 0.9-7.6 3.9-12.3 11.7-12.3 20.2v17.4c0 0.4-0.3 0.7-0.7 0.7z"/>
					<g>
						<path class="s1" d="m-124.7 205c-7.4 6-6.2 13-14.3 19.7-4.9 4.1-10.9 3-14.7-2.1q-0.8-1.1-1.3-2.3-0.4-0.7-0.6-1.3c-1.7-4.6-0.9-9.8 3.1-12.8 10.5-7.7 27.8-1.2 27.8-1.2z"/>
						<path class="s2" d="m-152.9 219.1c0 0-1.1-6.1 1-8.9 0 0-1.1 5.1 0.7 7.4z"/>
						<path class="s2" d="m-149.8 216.2c0 0-0.5-6.1 1.9-8.7 0 0-1.6 5 0 7.4z"/>
						<path class="s2" d="m-146.1 214.3c0 0 0.7-6.1 3.5-8.2 0 0-2.5 4.6-1.4 7.3z"/>
						<path class="s2" d="m-152.9 219.1c0 0 4.9 3.7 8.3 3.2 0 0-5-1.4-6.2-4.1z"/>
						<path class="s2" d="m-149.6 216.8c0 0 5.2 3.4 8.6 2.6 0 0-5.2-1-6.6-3.6z"/>
						<path class="s2" d="m-145.8 214.7c0 0 5.8 2.3 8.9 0.8 0 0-5.2 0-7.1-2.2z"/>
						<path class="s2" d="m-141.3 211.2c0 0 0.5-4.8 2.7-6.4 0 0-2 3.6-1.1 5.7z"/>
						<path class="s2" d="m-141.1 211.5c0 0 4.5 1.7 6.9 0.6 0 0-4.1 0-5.5-1.7z"/>
						<path class="s2" d="m-136.4 209.3c0 0 0.4-3.5 1.9-4.7 0 0-1.4 2.6-0.8 4.1z"/>
						<path class="s2" d="m-136.3 209.5c0 0 3.3 1.2 5 0.4 0 0-2.9 0-3.9-1.2z"/>
						<path class="s0" d="m-132.1 207.8c-7 2.9-18.4 10-22.4 13.5q-0.3-0.5-0.5-1-0.1-0.2-0.2-0.3c1.8-1.7 13.9-9.8 22.9-12.8 0.3-0.1 0.5 0.4 0.2 0.6z"/>
					</g>
					<path class="s0" d="m-162.3 247.2c-0.4 0-0.7-0.3-0.7-0.7 0-8.6-4.7-16.3-12.3-20.2-0.4-0.2-0.5-0.6-0.3-1 0.2-0.3 0.6-0.5 0.9-0.3 8.1 4.2 13.1 12.4 13.1 21.5 0 0.4-0.3 0.7-0.7 0.7z"/>
					<g>
						<path class="s1" d="m-200 213.6c7.5 6 6.3 13 14.4 19.8 4.8 4.1 10.9 2.9 14.7-2.2q0.8-1.1 1.3-2.3 0.3-0.6 0.6-1.3c1.7-4.5 0.9-9.8-3.1-12.7-10.5-7.7-27.9-1.3-27.9-1.3z"/>
						<path class="s2" d="m-171.7 227.7c0 0 1.1-6.1-1.1-8.8 0 0 1.2 5.1-0.6 7.4z"/>
						<path class="s2" d="m-174.9 224.9c0 0 0.5-6.2-1.8-8.8 0 0 1.6 5.1 0 7.5z"/>
						<path class="s2" d="m-178.5 223c0 0-0.7-6.2-3.5-8.3 0 0 2.5 4.7 1.4 7.4z"/>
						<path class="s2" d="m-171.7 227.7c0 0-4.9 3.8-8.4 3.3 0 0 5.1-1.5 6.3-4.1z"/>
						<path class="s2" d="m-175 225.5c0 0-5.2 3.4-8.6 2.5 0 0 5.2-1 6.6-3.5z"/>
						<path class="s2" d="m-178.8 223.3c0 0-5.8 2.3-8.9 0.9 0 0 5.2 0 7.1-2.3z"/>
						<path class="s2" d="m-183.3 219.8c0 0-0.5-4.7-2.7-6.4 0 0 2 3.6 1.1 5.7z"/>
						<path class="s2" d="m-183.5 220.1c0 0-4.5 1.8-6.9 0.7 0 0 4 0 5.5-1.8z"/>
						<path class="s2" d="m-188.2 217.9c0 0-0.4-3.4-1.9-4.6 0 0 1.4 2.6 0.7 4.1z"/>
						<path class="s2" d="m-188.4 218.1c0 0-3.2 1.3-5 0.5 0 0 3 0 4-1.3z"/>
						<path class="s0" d="m-192.5 216.4c7 2.9 18.4 10 22.4 13.6q0.3-0.5 0.5-1.1 0.1-0.1 0.2-0.2c-1.8-1.8-13.9-9.8-22.9-12.8-0.3-0.1-0.6 0.4-0.2 0.5z"/>
					</g>
				</g>
				<g>
					<path class="s0" d="m-166.6 204.4c1-7.8 5.7-14.6 12.8-18.3 0.4-0.2 0.8-0.1 1 0.3 0.2 0.3 0.1 0.8-0.3 1-7.6 3.9-12.3 11.6-12.3 20.1v2.9z"/>
					<g>
						<path class="s1" d="m-128.5 174.7c-7.4 6-6.2 13-14.3 19.8-4.8 4-10.9 2.9-14.7-2.2q-0.8-1.1-1.3-2.3-0.4-0.6-0.6-1.3c-1.7-4.6-0.9-9.8 3.1-12.7 10.5-7.7 27.8-1.3 27.8-1.3z"/>
						<path class="s2" d="m-156.7 188.8c0 0-1.1-6.1 1-8.9 0 0-1.1 5.2 0.7 7.5z"/>
						<path class="s2" d="m-153.6 186c0 0-0.5-6.2 1.9-8.8 0 0-1.6 5 0 7.5z"/>
						<path class="s2" d="m-149.9 184c0 0 0.7-6.1 3.5-8.2 0 0-2.5 4.6-1.4 7.3z"/>
						<path class="s2" d="m-156.7 188.8c0 0 4.9 3.8 8.3 3.2 0 0-5-1.4-6.2-4.1z"/>
						<path class="s2" d="m-153.4 186.6c0 0 5.2 3.3 8.6 2.5 0 0-5.2-1-6.6-3.6z"/>
						<path class="s2" d="m-149.6 184.4c0 0 5.8 2.3 8.9 0.8 0 0-5.2 0.1-7.1-2.2z"/>
						<path class="s2" d="m-145.1 180.9c0 0 0.5-4.8 2.7-6.4 0 0-2 3.6-1.1 5.7z"/>
						<path class="s2" d="m-144.9 181.2c0 0 4.5 1.8 6.9 0.6 0 0-4.1 0-5.5-1.7z"/>
						<path class="s2" d="m-140.2 179c0 0 0.4-3.5 1.9-4.6 0 0-1.4 2.6-0.8 4.1z"/>
						<path class="s2" d="m-140 179.2c0 0 3.2 1.3 4.9 0.5 0 0-2.9 0-3.9-1.3z"/>
						<path class="s0" d="m-135.9 177.5c-7 2.9-18.4 10-22.4 13.5q-0.3-0.5-0.5-1-0.1-0.1-0.2-0.3c1.8-1.7 13.9-9.8 22.9-12.7 0.3-0.2 0.6 0.4 0.2 0.5z"/>
					</g>
				</g>
				<g>
					<path class="s0" d="m-166.9 160.4c3.7-4.4 9-7.3 14.9-8.1 0.4 0 0.8 0.2 0.8 0.6 0.1 0.4-0.2 0.8-0.6 0.8-6.1 0.9-11.4 4.1-15 8.8z"/>
					<g>
						<path class="s1" d="m-124.3 150c-9 3.2-10.2 10.2-20.1 13.9-6 2.2-11.3-0.9-13.1-7q-0.4-1.3-0.6-2.6 0-0.7-0.1-1.4c0-4.9 2.4-9.5 7.2-11 12.5-3.7 26.7 8.1 26.7 8.1z"/>
						<path class="s2" d="m-155.7 153.9c0 0 1.1-6.1 4-8 0 0-2.8 4.4-1.8 7.2z"/>
						<path class="s2" d="m-151.7 152.3c0 0 1.6-6 4.6-7.6 0 0-3.1 4.1-2.4 7z"/>
						<path class="s2" d="m-147.6 151.7c0 0 2.7-5.6 6-6.6 0 0-3.9 3.5-3.8 6.4z"/>
						<path class="s2" d="m-155.6 153.9c0 0 3.3 5.2 6.7 5.8 0 0-4.3-3-4.5-5.9z"/>
						<path class="s2" d="m-151.8 152.9c0 0 3.8 4.9 7.2 5.2 0 0-4.5-2.6-5-5.5z"/>
						<path class="s2" d="m-147.5 152.1c0 0 4.7 4.1 8.1 3.8 0 0-4.9-1.7-5.9-4.5z"/>
						<path class="s2" d="m-142.1 150.3c0 0 2.1-4.3 4.7-5.1 0 0-3 2.7-2.9 5z"/>
						<path class="s2" d="m-142 150.7c0 0 3.6 3.1 6.3 2.9 0 0-3.8-1.4-4.6-3.5z"/>
						<path class="s2" d="m-136.8 150.2c0 0 1.5-3.2 3.4-3.7 0 0-2.2 1.9-2.2 3.6z"/>
						<path class="s2" d="m-136.7 150.4c0 0 2.6 2.3 4.5 2.1 0 0-2.8-1-3.3-2.5z"/>
						<path class="s0" d="m-132.2 150.2c-7.7 0.4-20.8 3.3-25.7 5.3q-0.1-0.6-0.2-1.2 0-0.1 0-0.3c2.2-1 16.3-4.6 25.8-4.4 0.4 0 0.4 0.6 0.1 0.6z"/>
					</g>
				</g>
				<g>
					<path class="s1" d="m-114.7 122.8c-9 3.2-10.3 10.2-20.2 13.9-5.9 2.2-11.3-0.9-13.1-7q-0.4-1.3-0.5-2.6-0.1-0.7-0.1-1.4c0-4.9 2.4-9.6 7.2-11 12.5-3.7 26.7 8.1 26.7 8.1z"/>
					<path class="s2" d="m-146.1 126.7c0 0 1.1-6.1 4-8 0 0-2.8 4.4-1.9 7.2z"/>
					<path class="s2" d="m-142.2 125.1c0 0 1.6-6 4.7-7.7 0 0-3.2 4.2-2.5 7.1z"/>
					<path class="s2" d="m-138.1 124.5c0 0 2.7-5.6 6.1-6.6 0 0-3.9 3.5-3.8 6.4z"/>
					<path class="s2" d="m-146.1 126.7c0 0 3.4 5.2 6.8 5.8 0 0-4.3-3-4.5-5.9z"/>
					<path class="s2" d="m-142.2 125.7c0 0 3.7 4.9 7.2 5.2 0 0-4.5-2.6-5-5.5z"/>
					<path class="s2" d="m-137.9 124.9c0 0 4.6 4.1 8.1 3.8 0 0-4.9-1.8-5.9-4.5z"/>
					<path class="s2" d="m-132.5 123.1c0 0 2.1-4.3 4.7-5.1 0 0-3.1 2.7-3 5z"/>
					<path class="s2" d="m-132.4 123.4c0 0 3.6 3.2 6.3 3 0 0-3.8-1.4-4.6-3.5z"/>
					<path class="s2" d="m-127.3 122.9c0 0 1.6-3.1 3.4-3.7 0 0-2.2 2-2.1 3.6z"/>
					<path class="s2" d="m-127.2 123.2c0 0 2.6 2.3 4.6 2.1 0 0-2.8-1-3.4-2.5z"/>
					<path class="s0" d="m-122.7 123c-7.6 0.4-20.7 3.3-25.6 5.3q-0.1-0.6-0.2-1.2 0-0.2 0-0.3c2.2-1.1 16.3-4.6 25.8-4.4 0.3 0 0.4 0.6 0 0.6z"/>
				</g>
				<g>
					<path class="s0" d="m-167.1 201.3c-1.8-5.6-5.7-10.3-11.1-13.1-0.4-0.2-0.5-0.6-0.4-1 0.2-0.3 0.7-0.5 1-0.3 4.5 2.4 8.1 6 10.4 10.3z"/>
					<g>
						<path class="s1" d="m-202.9 175.5c7.4 6 6.2 13 14.4 19.8 4.8 4.1 10.9 2.9 14.6-2.2q0.8-1.1 1.4-2.3 0.3-0.6 0.6-1.3c1.6-4.5 0.9-9.8-3.1-12.7-10.5-7.7-27.9-1.3-27.9-1.3z"/>
						<path class="s2" d="m-174.6 189.6c0 0 1-6.1-1.1-8.8 0 0 1.2 5.1-0.7 7.4z"/>
						<path class="s2" d="m-177.8 186.8c0 0 0.5-6.2-1.8-8.7 0 0 1.6 5-0.1 7.4z"/>
						<path class="s2" d="m-181.5 184.9c0 0-0.6-6.2-3.4-8.3 0 0 2.5 4.7 1.4 7.4z"/>
						<path class="s2" d="m-174.7 189.6c0 0-4.8 3.8-8.3 3.3 0 0 5.1-1.5 6.2-4.1z"/>
						<path class="s2" d="m-177.9 187.4c0 0-5.2 3.4-8.6 2.5 0 0 5.2-1 6.6-3.5z"/>
						<path class="s2" d="m-181.8 185.2c0 0-5.7 2.3-8.9 0.9 0 0 5.3 0 7.1-2.3z"/>
						<path class="s2" d="m-186.2 181.7c0 0-0.5-4.7-2.7-6.4 0 0 1.9 3.6 1.1 5.7z"/>
						<path class="s2" d="m-186.5 182c0 0-4.4 1.8-6.9 0.7 0 0 4.1 0 5.6-1.8z"/>
						<path class="s2" d="m-191.1 179.8c0 0-0.4-3.4-2-4.6 0 0 1.4 2.6 0.8 4.1z"/>
						<path class="s2" d="m-191.3 180c0 0-3.2 1.3-5 0.5 0 0 3 0 4-1.3z"/>
						<path class="s0" d="m-195.5 178.3c7.1 2.9 18.5 10 22.5 13.6q0.2-0.5 0.5-1.1 0.1-0.1 0.1-0.2c-1.7-1.8-13.8-9.8-22.8-12.8-0.4-0.1-0.6 0.4-0.3 0.5z"/>
					</g>
				</g>
				<g>
					<path class="s0" d="m-168.1 170.7c-1.7-5.9-5.7-10.9-11.4-13.8-0.3-0.2-0.5-0.6-0.3-1 0.2-0.3 0.6-0.5 1-0.3 5.1 2.7 9.1 7 11.2 12.1z"/>
					<g>
						<path class="s1" d="m-204.1 144.2c7.4 6 6.2 13 14.3 19.8 4.9 4.1 11 2.9 14.7-2.2q0.8-1.1 1.4-2.3 0.3-0.6 0.5-1.3c1.7-4.5 1-9.8-3-12.7-10.6-7.7-27.9-1.3-27.9-1.3z"/>
						<path class="s2" d="m-175.8 158.3c0 0 1-6.1-1.1-8.8 0 0 1.1 5.1-0.7 7.4z"/>
						<path class="s2" d="m-179 155.5c0 0 0.5-6.2-1.9-8.8 0 0 1.6 5.1 0 7.5z"/>
						<path class="s2" d="m-182.7 153.6c0 0-0.7-6.2-3.5-8.3 0 0 2.6 4.7 1.4 7.4z"/>
						<path class="s2" d="m-175.9 158.3c0 0-4.9 3.8-8.3 3.3 0 0 5-1.5 6.2-4.1z"/>
						<path class="s2" d="m-179.1 156.1c0 0-5.2 3.4-8.6 2.5 0 0 5.1-1 6.5-3.5z"/>
						<path class="s2" d="m-183 153.9c0 0-5.7 2.3-8.9 0.9 0 0 5.3 0 7.1-2.3z"/>
						<path class="s2" d="m-187.4 150.4c0 0-0.6-4.7-2.7-6.4 0 0 1.9 3.6 1 5.7z"/>
						<path class="s2" d="m-187.7 150.7c0 0-4.4 1.8-6.9 0.7 0 0 4.1 0 5.5-1.8z"/>
						<path class="s2" d="m-192.3 148.5c0 0-0.4-3.4-2-4.6 0 0 1.4 2.6 0.8 4.1z"/>
						<path class="s2" d="m-192.5 148.7c0 0-3.2 1.3-5 0.5 0 0 2.9 0 4-1.3z"/>
						<path class="s0" d="m-196.7 147c7.1 2.9 18.4 10 22.4 13.6q0.3-0.5 0.6-1.1 0-0.1 0.1-0.2c-1.7-1.8-13.8-9.8-22.9-12.8-0.3-0.1-0.5 0.4-0.2 0.5z"/>
					</g>
				</g>
				<path class="s0" d="m-158.4 134c4.3-5 10.1-8.1 16-8.9 0.4-0.1 0.8 0.2 0.8 0.6 0.1 0.4 0 0.4-0.4 0.5-5.6 1.4-8.4 2.6-11.6 5.3-2.8 2.3-4.8 5.5-5.9 9q-0.5 1.7-1.2 3.5c-9.6 27.6-7.6 41-4.7 61.3 1.8 12.4 4.1 27.8 4.1 50.6h-2c0-22.7-2.2-38-4-50.3-3-20.6-5-34.2 4.8-62.3q1.3-3.9 2.5-8c0.5-1.7 0-3.5-1.2-4.8-1.7-1.6-3.6-3-5.8-4.2-0.3-0.1-0.4-0.6-0.3-0.9 0.2-0.4 0.6-0.5 1-0.3 2.1 1.1 4.4 2.7 6.3 4.5 1.2 1.1 1.8 2.7 1.6 4.4z"/>
				<g>
					<path class="s1" d="m-191.6 113.7c7.4 6 6.2 13 14.3 19.8 4.9 4 11 2.9 14.7-2.2q0.8-1.1 1.4-2.3 0.3-0.6 0.5-1.3c1.7-4.6 1-9.8-3-12.7-10.5-7.7-27.9-1.3-27.9-1.3z"/>
					<path class="s2" d="m-163.3 127.8c0 0 1-6.1-1.1-8.9 0 0 1.1 5.1-0.7 7.4z"/>
					<path class="s2" d="m-166.5 125c0 0 0.5-6.2-1.9-8.8 0 0 1.6 5 0 7.5z"/>
					<path class="s2" d="m-170.2 123c0 0-0.7-6.1-3.5-8.2 0 0 2.6 4.6 1.4 7.3z"/>
					<path class="s2" d="m-163.4 127.8c0 0-4.9 3.8-8.3 3.2 0 0 5.1-1.4 6.2-4.1z"/>
					<path class="s2" d="m-166.6 125.6c0 0-5.2 3.3-8.6 2.5 0 0 5.2-1 6.5-3.6z"/>
					<path class="s2" d="m-170.5 123.4c0 0-5.7 2.3-8.9 0.8 0 0 5.3 0.1 7.1-2.2z"/>
					<path class="s2" d="m-174.9 119.9c0 0-0.6-4.8-2.7-6.4 0 0 1.9 3.6 1 5.7z"/>
					<path class="s2" d="m-175.2 120.2c0 0-4.4 1.8-6.9 0.6 0 0 4.1 0 5.5-1.7z"/>
					<path class="s2" d="m-179.8 118c0 0-0.4-3.5-2-4.6 0 0 1.4 2.5 0.8 4.1z"/>
					<path class="s2" d="m-180 118.2c0 0-3.2 1.3-5 0.4 0 0 2.9 0.1 4-1.2z"/>
					<path class="s0" d="m-184.2 116.5c7.1 2.9 18.4 10 22.4 13.5q0.3-0.5 0.6-1 0-0.1 0.1-0.3c-1.7-1.7-13.8-9.8-22.8-12.8-0.4-0.1-0.6 0.4-0.3 0.6z"/>
				</g>
				<g>
					<path class="s3" d="m-197.1 276c-2.4 0-4.4-2-4.4-4.4 0-2.4 2-4.4 4.4-4.4q0 0 0.1 0c0.7-2.2 2.8-3.8 5.2-3.8q0.1 0 0.1 0c0.6-1.7 2.2-2.8 4.1-2.8 0.8 0 1.5 0.1 2.1 0.5 0.8-0.5 1.7-0.7 2.7-0.7q0.3 0 0.6 0c1-1.4 2.6-2.3 4.5-2.3 0.4-0.8 1.3-1.4 2.3-1.4 0.5 0 1 0.2 1.5 0.5 1.1-1.2 2.7-2 4.6-2q0.5 0 1.1 0.1c1.3-1.8 3.5-2.9 5.9-2.9 2.4 0 4.6 1.1 5.9 2.9q0.6-0.1 1.1-0.1c1.8 0 3.5 0.8 4.6 2 0.4-0.3 1-0.5 1.5-0.5 1 0 1.9 0.6 2.3 1.4 1.9 0 3.5 0.9 4.5 2.3q0.3 0 0.6 0c1 0 1.9 0.2 2.7 0.7 0.6-0.4 1.3-0.5 2.1-0.5 1.9 0 3.5 1.1 4.1 2.8q0 0 0.1 0c2.4 0 4.5 1.6 5.2 3.8q0.1 0 0.1 0c2.4 0 4.4 2 4.4 4.4 0 2.4-2 4.4-4.4 4.4z"/>
					<path class="s4" d="m-188.9 266.3c0 0 3 0.2 3.7-3.1 0 0 0.2 1.4-0.2 2.5-0.5 1-1.7 1.7-3.5 0.6z"/>
					<path class="s4" d="m-135.4 267.1c0 0-3.9 0.3-4.8-3.9 0 0-0.3 1.8 0.3 3.1 0.6 1.4 2.1 2.3 4.5 0.8z"/>
					<path class="s4" d="m-163.9 272.1c0 0-3.9 0.2-4.7-3.9 0 0-0.3 1.8 0.3 3.1 0.6 1.4 2.1 2.3 4.4 0.8z"/>
					<path class="s4" d="m-169.3 262.1c0 0 3.9 0.2 4.7-3.9 0 0 0.4 1.8-0.2 3.1-0.6 1.4-2.2 2.3-4.5 0.8z"/>
					<path class="s4" d="m-144.5 265c-1.1 0.7-2.1 0.8-2.8 0.6-0.4 0.4-0.9 0.6-1.5 0.7-1.3 0.3-2.9-0.5-2.9-0.5 1.5 0.1 2.5-0.4 3.3-1q-0.3-0.3-0.4-0.6c-0.6-1.3-0.3-3-0.3-3 0.3 1.3 0.9 2.2 1.5 2.7q0.4 0.4 0.9 0.6c1.1 0.5 2.2 0.5 2.2 0.5z"/>
					<path class="s4" d="m-180.1 263.7c1.2 0.7 2.1 0.8 2.8 0.6 0.4 0.4 0.9 0.6 1.5 0.7 1.4 0.2 3-0.5 3-0.5-1.6 0.1-2.6-0.4-3.3-1q0.2-0.3 0.4-0.6c0.5-1.3 0.2-3 0.2-3-0.2 1.3-0.8 2.1-1.5 2.7q-0.4 0.3-0.8 0.6c-1.2 0.5-2.3 0.5-2.3 0.5z"/>
					<path class="s4" d="m-193.2 276c6.2 0 8.1-3.4 8.1-3.4 0 0 1.3 3.4 9 3.4z"/>
					<path class="s4" d="m-144.4 276c6.2 0 8-3.4 8-3.4 0 0 0.8 3.4 8.5 3.4z"/>
				</g>
			</g>
			<g>
				<g>
					<g>
						<path class="s0" d="m-270 255.9c-0.4 0-0.7-0.3-0.7-0.7v-17.4c0-9.1 5-17.3 13-21.4 0.4-0.2 0.8-0.1 1 0.3 0.2 0.3 0 0.7-0.3 0.9-7.6 3.9-12.3 11.7-12.3 20.2v17.4c0 0.4-0.3 0.7-0.7 0.7z"/>
						<g>
							<path class="s1" d="m-232.4 205c-7.4 6-6.2 13-14.3 19.7-4.9 4.1-10.9 3-14.7-2.1q-0.8-1.1-1.3-2.3-0.4-0.7-0.6-1.3c-1.7-4.6-0.9-9.8 3.1-12.8 10.5-7.7 27.8-1.2 27.8-1.2z"/>
							<path class="s2" d="m-260.6 219.1c0 0-1.1-6.1 1-8.9 0 0-1.1 5.1 0.7 7.4z"/>
							<path class="s2" d="m-257.5 216.2c0 0-0.5-6.1 1.9-8.7 0 0-1.6 5 0 7.4z"/>
							<path class="s2" d="m-253.8 214.3c0 0 0.7-6.1 3.5-8.2 0 0-2.5 4.6-1.4 7.3z"/>
							<path class="s2" d="m-260.6 219.1c0 0 4.9 3.7 8.3 3.2 0 0-5-1.4-6.2-4.1z"/>
							<path class="s2" d="m-257.3 216.8c0 0 5.2 3.4 8.6 2.6 0 0-5.2-1-6.6-3.6z"/>
							<path class="s2" d="m-253.5 214.7c0 0 5.8 2.3 8.9 0.8 0 0-5.2 0-7.1-2.2z"/>
							<path class="s2" d="m-249 211.2c0 0 0.5-4.8 2.7-6.4 0 0-2 3.6-1.1 5.7z"/>
							<path class="s2" d="m-248.8 211.5c0 0 4.5 1.7 6.9 0.6 0 0-4.1 0-5.5-1.7z"/>
							<path class="s2" d="m-244.1 209.3c0 0 0.4-3.5 1.9-4.7 0 0-1.4 2.6-0.8 4.1z"/>
							<path class="s2" d="m-244 209.5c0 0 3.3 1.2 5 0.4 0 0-2.9 0-3.9-1.2z"/>
							<path class="s0" d="m-239.8 207.8c-7 2.9-18.4 10-22.4 13.5q-0.3-0.5-0.5-1-0.1-0.2-0.2-0.3c1.8-1.7 13.9-9.8 22.9-12.8 0.3-0.1 0.6 0.4 0.2 0.6z"/>
						</g>
						<path class="s0" d="m-270 247.2c-0.4 0-0.7-0.3-0.7-0.7 0-8.6-4.7-16.3-12.3-20.2-0.4-0.2-0.5-0.6-0.3-1 0.2-0.3 0.6-0.5 0.9-0.3 8.1 4.2 13.1 12.4 13.1 21.5 0 0.4-0.3 0.7-0.7 0.7z"/>
						<g>
							<path class="s1" d="m-307.7 213.6c7.5 6 6.3 13 14.4 19.8 4.8 4.1 10.9 2.9 14.7-2.2q0.8-1.1 1.3-2.3 0.3-0.6 0.6-1.3c1.7-4.5 0.9-9.8-3.1-12.7-10.5-7.7-27.9-1.3-27.9-1.3z"/>
							<path class="s2" d="m-279.4 227.7c0 0 1.1-6.1-1.1-8.8 0 0 1.2 5.1-0.6 7.4z"/>
							<path class="s2" d="m-282.5 224.9c0 0 0.4-6.2-1.9-8.8 0 0 1.6 5.1 0 7.5z"/>
							<path class="s2" d="m-286.2 223c0 0-0.7-6.2-3.5-8.3 0 0 2.5 4.7 1.4 7.4z"/>
							<path class="s2" d="m-279.4 227.7c0 0-4.9 3.8-8.4 3.3 0 0 5.1-1.5 6.3-4.1z"/>
							<path class="s2" d="m-282.7 225.5c0 0-5.2 3.4-8.6 2.5 0 0 5.2-1 6.6-3.5z"/>
							<path class="s2" d="m-286.5 223.3c0 0-5.8 2.3-8.9 0.9 0 0 5.2 0 7.1-2.3z"/>
							<path class="s2" d="m-291 219.8c0 0-0.5-4.7-2.7-6.4 0 0 2 3.6 1.1 5.7z"/>
							<path class="s2" d="m-291.2 220.1c0 0-4.5 1.8-6.9 0.7 0 0 4 0 5.5-1.8z"/>
							<path class="s2" d="m-295.9 217.9c0 0-0.4-3.4-1.9-4.6 0 0 1.4 2.6 0.7 4.1z"/>
							<path class="s2" d="m-296.1 218.1c0 0-3.2 1.3-5 0.5 0 0 3 0 4-1.3z"/>
							<path class="s0" d="m-300.2 216.4c7 2.9 18.4 10 22.4 13.6q0.3-0.5 0.5-1.1 0.1-0.1 0.2-0.2c-1.8-1.8-13.9-9.8-22.9-12.8-0.3-0.1-0.6 0.4-0.2 0.5z"/>
						</g>
					</g>
				</g>
				<g>
					<path class="s3" d="m-304.8 276c-2.4 0-4.4-2-4.4-4.4 0-2.4 2-4.4 4.4-4.4q0 0 0.1 0c0.7-2.2 2.8-3.8 5.2-3.8q0.1 0 0.1 0c0.6-1.7 2.2-2.8 4.1-2.8 0.8 0 1.5 0.1 2.1 0.5 0.8-0.5 1.7-0.7 2.7-0.7q0.3 0 0.6 0c1-1.4 2.6-2.3 4.5-2.3 0.4-0.8 1.3-1.4 2.3-1.4 0.5 0 1 0.2 1.5 0.5 1.1-1.2 2.7-2 4.6-2q0.5 0 1.1 0.1c1.3-1.8 3.5-2.9 5.9-2.9 2.4 0 4.6 1.1 5.9 2.9q0.6-0.1 1.1-0.1c1.8 0 3.5 0.8 4.6 2 0.4-0.3 1-0.5 1.5-0.5 1 0 1.9 0.6 2.3 1.4 1.9 0 3.5 0.9 4.5 2.3q0.3 0 0.6 0c1 0 1.9 0.2 2.7 0.7 0.6-0.4 1.3-0.5 2.1-0.5 1.9 0 3.5 1.1 4.1 2.8q0 0 0.1 0c2.4 0 4.5 1.6 5.2 3.8q0.1 0 0.1 0c2.4 0 4.4 2 4.4 4.4 0 2.4-2 4.4-4.4 4.4z"/>
					<path class="s4" d="m-296.6 266.3c0 0 3 0.2 3.7-3.1 0 0 0.2 1.4-0.2 2.5-0.5 1-1.7 1.7-3.5 0.6z"/>
					<path class="s4" d="m-243.1 267.1c0 0-3.9 0.3-4.8-3.9 0 0-0.3 1.8 0.3 3.1 0.6 1.4 2.1 2.3 4.5 0.8z"/>
					<path class="s4" d="m-271.6 272.1c0 0-3.9 0.2-4.7-3.9 0 0-0.3 1.8 0.3 3.1 0.6 1.4 2.1 2.3 4.4 0.8z"/>
					<path class="s4" d="m-277 262.1c0 0 3.9 0.2 4.7-3.9 0 0 0.4 1.8-0.2 3.1-0.6 1.4-2.2 2.3-4.5 0.8z"/>
					<path class="s4" d="m-252.2 265c-1.1 0.7-2.1 0.8-2.8 0.6-0.4 0.4-0.9 0.6-1.5 0.7-1.3 0.3-2.9-0.5-2.9-0.5 1.5 0.1 2.5-0.4 3.3-1q-0.3-0.3-0.4-0.6c-0.6-1.3-0.3-3-0.3-3 0.3 1.3 0.9 2.2 1.5 2.7q0.4 0.4 0.9 0.6c1.1 0.5 2.2 0.5 2.2 0.5z"/>
					<path class="s4" d="m-287.8 263.7c1.2 0.7 2.1 0.8 2.8 0.6 0.4 0.4 1 0.6 1.5 0.7 1.4 0.2 3-0.5 3-0.5-1.5 0.1-2.6-0.4-3.3-1q0.2-0.3 0.4-0.6c0.5-1.3 0.2-3 0.2-3-0.2 1.3-0.8 2.1-1.5 2.7q-0.4 0.3-0.8 0.6c-1.2 0.5-2.3 0.5-2.3 0.5z"/>
					<path class="s4" d="m-300.9 276c6.3 0 8.1-3.4 8.1-3.4 0 0 1.3 3.4 9 3.4z"/>
					<path class="s4" d="m-252.1 276c6.2 0 8.1-3.4 8.1-3.4 0 0 0.7 3.4 8.4 3.4z"/>
				</g>
			</g>
			<g>
				<path class="s3" d="m-412.5 276c-2.4 0-4.4-2-4.4-4.4 0-2.4 2-4.4 4.4-4.4q0 0 0.1 0c0.7-2.2 2.8-3.8 5.2-3.8q0.1 0 0.1 0c0.6-1.7 2.2-2.8 4.1-2.8 0.8 0 1.5 0.1 2.1 0.5 0.8-0.5 1.7-0.7 2.7-0.7q0.3 0 0.6 0c1-1.4 2.6-2.3 4.5-2.3 0.4-0.8 1.3-1.4 2.3-1.4 0.5 0 1 0.2 1.5 0.5 1.1-1.2 2.7-2 4.6-2q0.5 0 1.1 0.1c1.3-1.8 3.5-2.9 5.9-2.9 2.4 0 4.6 1.1 5.9 2.9q0.6-0.1 1.1-0.1c1.8 0 3.5 0.8 4.6 2 0.4-0.3 1-0.5 1.5-0.5 1 0 1.9 0.6 2.3 1.4 1.9 0 3.5 0.9 4.5 2.3q0.3 0 0.6 0c1 0 1.9 0.2 2.7 0.7 0.6-0.4 1.3-0.5 2.1-0.5 1.9 0 3.5 1.1 4.1 2.8q0 0 0.1 0c2.4 0 4.5 1.6 5.2 3.8q0.1 0 0.1 0c2.4 0 4.4 2 4.4 4.4 0 2.4-2 4.4-4.4 4.4z"/>
				<path class="s4" d="m-404.3 266.3c0 0 3 0.2 3.7-3.1 0 0 0.2 1.4-0.2 2.5-0.5 1-1.7 1.7-3.5 0.6z"/>
				<path class="s4" d="m-350.8 267.1c0 0-3.9 0.3-4.8-3.9 0 0-0.3 1.8 0.3 3.1 0.6 1.4 2.1 2.3 4.5 0.8z"/>
				<path class="s4" d="m-379.3 272.1c0 0-3.9 0.2-4.7-3.9 0 0-0.3 1.8 0.3 3.1 0.6 1.4 2.1 2.3 4.4 0.8z"/>
				<path class="s4" d="m-384.7 262.1c0 0 3.9 0.2 4.7-3.9 0 0 0.4 1.8-0.2 3.1-0.6 1.4-2.2 2.3-4.5 0.8z"/>
				<path class="s4" d="m-359.9 265c-1.1 0.7-2.1 0.8-2.8 0.6-0.4 0.4-0.9 0.6-1.5 0.7-1.3 0.3-2.9-0.5-2.9-0.5 1.5 0.1 2.5-0.4 3.3-1q-0.3-0.3-0.4-0.6c-0.6-1.3-0.3-3-0.3-3 0.3 1.3 0.9 2.2 1.5 2.7q0.4 0.4 0.9 0.6c1.1 0.5 2.2 0.5 2.2 0.5z"/>
				<path class="s4" d="m-395.5 263.7c1.2 0.7 2.1 0.8 2.8 0.6 0.4 0.4 1 0.6 1.5 0.7 1.4 0.2 3-0.5 3-0.5-1.5 0.1-2.6-0.4-3.3-1q0.2-0.3 0.4-0.6c0.5-1.3 0.2-3 0.2-3-0.2 1.3-0.8 2.1-1.5 2.7q-0.4 0.3-0.8 0.6c-1.2 0.5-2.3 0.5-2.3 0.5z"/>
				<path class="s4" d="m-408.6 276c6.3 0 8.1-3.4 8.1-3.4 0 0 1.3 3.4 9 3.4z"/>
				<path class="s4" d="m-359.8 276c6.2 0 8.1-3.4 8.1-3.4 0 0 0.7 3.4 8.4 3.4z"/>
			</g>
			<g>
				<g>
					<path class="s0" d="m-53.6 255.9h-2c0-22.7-2.2-38-4-50.3-3-20.6-5-34.2 4.8-62.3 5.3-15.4 8.5-33.1 9.3-52.4h2c-0.9 19.6-4 37.5-9.5 53.1-9.6 27.6-7.6 41-4.7 61.3 1.8 12.4 4.1 27.8 4.1 50.6z"/>
					<g>
						<path class="s0" d="m-54.6 255.9c-0.4 0-0.7-0.3-0.7-0.7v-17.4c0-9.1 5-17.3 13-21.4 0.4-0.2 0.8-0.1 1 0.3 0.2 0.3 0 0.7-0.3 0.9-7.6 3.9-12.3 11.7-12.3 20.2v17.4c0 0.4-0.3 0.7-0.7 0.7z"/>
						<g>
							<path class="s1" d="m-17 205c-7.4 6-6.2 13-14.3 19.7-4.9 4.1-10.9 3-14.7-2.1q-0.8-1.1-1.3-2.3-0.4-0.7-0.6-1.3c-1.7-4.6-0.9-9.8 3-12.8 10.6-7.7 27.9-1.2 27.9-1.2z"/>
							<path class="s2" d="m-45.2 219.1c0 0-1.1-6.1 1-8.9 0 0-1.1 5.1 0.7 7.4z"/>
							<path class="s2" d="m-42.1 216.2c0 0-0.5-6.1 1.9-8.7 0 0-1.6 5 0 7.4z"/>
							<path class="s2" d="m-38.4 214.3c0 0 0.7-6.1 3.5-8.2 0 0-2.5 4.6-1.4 7.3z"/>
							<path class="s2" d="m-45.2 219.1c0 0 4.9 3.7 8.3 3.2 0 0-5-1.4-6.2-4.1z"/>
							<path class="s2" d="m-41.9 216.8c0 0 5.2 3.4 8.5 2.6 0 0-5.1-1-6.5-3.6z"/>
							<path class="s2" d="m-38.1 214.7c0 0 5.8 2.3 8.9 0.8 0 0-5.2 0-7.1-2.2z"/>
							<path class="s2" d="m-33.6 211.2c0 0 0.5-4.8 2.7-6.4 0 0-2 3.6-1.1 5.7z"/>
							<path class="s2" d="m-33.4 211.5c0 0 4.5 1.7 6.9 0.6 0 0-4.1 0-5.5-1.7z"/>
							<path class="s2" d="m-28.7 209.3c0 0 0.4-3.5 1.9-4.7 0 0-1.4 2.6-0.8 4.1z"/>
							<path class="s2" d="m-28.6 209.5c0 0 3.3 1.2 5 0.4 0 0-2.9 0-4-1.2z"/>
							<path class="s0" d="m-24.4 207.8c-7 2.9-18.4 10-22.4 13.5q-0.3-0.5-0.6-1 0-0.2-0.1-0.3c1.8-1.7 13.9-9.8 22.9-12.8 0.3-0.1 0.5 0.4 0.2 0.6z"/>
						</g>
						<path class="s0" d="m-54.6 247.2c-0.4 0-0.7-0.3-0.7-0.7 0-8.6-4.7-16.3-12.3-20.2-0.4-0.2-0.5-0.6-0.3-1 0.2-0.3 0.6-0.5 0.9-0.3 8.1 4.2 13.1 12.4 13.1 21.5 0 0.4-0.3 0.7-0.7 0.7z"/>
						<g>
							<path class="s1" d="m-92.3 213.6c7.5 6 6.3 13 14.4 19.8 4.8 4.1 10.9 2.9 14.7-2.2q0.8-1.1 1.3-2.3 0.3-0.6 0.6-1.3c1.7-4.5 0.9-9.8-3.1-12.7-10.5-7.7-27.9-1.3-27.9-1.3z"/>
							<path class="s2" d="m-64 227.7c0 0 1.1-6.1-1.1-8.8 0 0 1.2 5.1-0.6 7.4z"/>
							<path class="s2" d="m-67.2 224.9c0 0 0.5-6.2-1.8-8.8 0 0 1.6 5.1 0 7.5z"/>
							<path class="s2" d="m-70.8 223c0 0-0.7-6.2-3.5-8.3 0 0 2.5 4.7 1.4 7.4z"/>
							<path class="s2" d="m-64 227.7c0 0-4.9 3.8-8.4 3.3 0 0 5.1-1.5 6.3-4.1z"/>
							<path class="s2" d="m-67.3 225.5c0 0-5.2 3.4-8.6 2.5 0 0 5.2-1 6.6-3.5z"/>
							<path class="s2" d="m-71.1 223.3c0 0-5.8 2.3-8.9 0.9 0 0 5.2 0 7.1-2.3z"/>
							<path class="s2" d="m-75.6 219.8c0 0-0.5-4.7-2.7-6.4 0 0 2 3.6 1.1 5.7z"/>
							<path class="s2" d="m-75.8 220.1c0 0-4.5 1.8-6.9 0.7 0 0 4 0 5.5-1.8z"/>
							<path class="s2" d="m-80.5 217.9c0 0-0.4-3.4-1.9-4.6 0 0 1.4 2.6 0.7 4.1z"/>
							<path class="s2" d="m-80.7 218.1c0 0-3.2 1.3-5 0.5 0 0 3 0 4-1.3z"/>
							<path class="s0" d="m-84.8 216.4c7 2.9 18.4 10 22.4 13.6q0.3-0.5 0.5-1.1 0.1-0.1 0.2-0.2c-1.8-1.8-13.9-9.8-22.9-12.8-0.3-0.1-0.6 0.4-0.2 0.5z"/>
						</g>
					</g>
					<g>
						<path class="s0" d="m-58.9 204.4c1-7.8 5.7-14.6 12.8-18.3 0.4-0.2 0.8-0.1 1 0.3 0.2 0.3 0 0.8-0.3 1-7.6 3.9-12.3 11.6-12.3 20.1v2.9z"/>
						<g>
							<path class="s1" d="m-20.8 174.7c-7.4 6-6.2 13-14.3 19.8-4.9 4-10.9 2.9-14.7-2.2q-0.8-1.1-1.3-2.3-0.4-0.6-0.6-1.3c-1.7-4.6-0.9-9.8 3.1-12.7 10.5-7.7 27.8-1.3 27.8-1.3z"/>
							<path class="s2" d="m-49 188.8c0 0-1.1-6.1 1-8.9 0 0-1.1 5.2 0.7 7.5z"/>
							<path class="s2" d="m-45.9 186c0 0-0.5-6.2 1.9-8.8 0 0-1.6 5 0 7.5z"/>
							<path class="s2" d="m-42.2 184c0 0 0.7-6.1 3.5-8.2 0 0-2.5 4.6-1.4 7.3z"/>
							<path class="s2" d="m-49 188.8c0 0 4.9 3.8 8.3 3.2 0 0-5-1.4-6.2-4.1z"/>
							<path class="s2" d="m-45.7 186.6c0 0 5.2 3.3 8.6 2.5 0 0-5.2-1-6.6-3.6z"/>
							<path class="s2" d="m-41.9 184.4c0 0 5.8 2.3 8.9 0.8 0 0-5.2 0.1-7.1-2.2z"/>
							<path class="s2" d="m-37.4 180.9c0 0 0.5-4.8 2.7-6.4 0 0-2 3.6-1.1 5.7z"/>
							<path class="s2" d="m-37.2 181.2c0 0 4.5 1.8 6.9 0.6 0 0-4.1 0-5.5-1.7z"/>
							<path class="s2" d="m-32.5 179c0 0 0.4-3.5 1.9-4.6 0 0-1.4 2.6-0.8 4.1z"/>
							<path class="s2" d="m-32.3 179.2c0 0 3.2 1.3 4.9 0.5 0 0-2.9 0-3.9-1.3z"/>
							<path class="s0" d="m-28.2 177.5c-7 2.9-18.4 10-22.4 13.5q-0.3-0.5-0.5-1-0.1-0.1-0.2-0.3c1.8-1.7 13.9-9.8 22.9-12.7 0.3-0.2 0.6 0.4 0.2 0.5z"/>
						</g>
					</g>
					<g>
						<path class="s0" d="m-59.2 160.4c3.7-4.4 9-7.3 14.9-8.1 0.4 0 0.8 0.2 0.8 0.6 0.1 0.4-0.2 0.8-0.6 0.8-6.1 0.9-11.4 4.1-15 8.8z"/>
						<g>
							<path class="s1" d="m-16.6 150c-9 3.2-10.2 10.2-20.1 13.9-6 2.2-11.3-0.9-13.1-7q-0.4-1.3-0.6-2.6 0-0.7-0.1-1.4c0-4.9 2.4-9.5 7.2-11 12.5-3.7 26.7 8.1 26.7 8.1z"/>
							<path class="s2" d="m-48 153.9c0 0 1.1-6.1 4-8 0 0-2.8 4.4-1.9 7.2z"/>
							<path class="s2" d="m-44 152.3c0 0 1.6-6 4.6-7.6 0 0-3.1 4.1-2.4 7z"/>
							<path class="s2" d="m-39.9 151.7c0 0 2.7-5.6 6-6.6 0 0-3.9 3.5-3.8 6.4z"/>
							<path class="s2" d="m-47.9 153.9c0 0 3.3 5.2 6.7 5.8 0 0-4.3-3-4.5-5.9z"/>
							<path class="s2" d="m-44.1 152.9c0 0 3.8 4.9 7.2 5.2 0 0-4.5-2.6-5-5.5z"/>
							<path class="s2" d="m-39.8 152.1c0 0 4.7 4.1 8.1 3.8 0 0-4.9-1.7-5.9-4.5z"/>
							<path class="s2" d="m-34.4 150.3c0 0 2.1-4.3 4.7-5.1 0 0-3 2.7-2.9 5z"/>
							<path class="s2" d="m-34.3 150.7c0 0 3.6 3.1 6.3 2.9 0 0-3.8-1.4-4.6-3.5z"/>
							<path class="s2" d="m-29.1 150.2c0 0 1.5-3.2 3.3-3.7 0 0-2.1 1.9-2.1 3.6z"/>
							<path class="s2" d="m-29 150.4c0 0 2.6 2.3 4.5 2.1 0 0-2.8-1-3.3-2.5z"/>
							<path class="s0" d="m-24.5 150.2c-7.7 0.4-20.8 3.3-25.7 5.3q-0.1-0.6-0.2-1.2 0-0.1 0-0.3c2.2-1 16.3-4.6 25.8-4.4 0.4 0 0.4 0.6 0.1 0.6z"/>
						</g>
					</g>
					<g>
						<path class="s0" d="m-52.3 136.9c3.7-6.4 10.1-10.8 17.6-11.8 0.4-0.1 0.8 0.2 0.8 0.6 0.1 0.4-0.2 0.8-0.6 0.8-7.6 1-14 5.7-17.3 12.5z"/>
						<g>
							<path class="s1" d="m-7 122.8c-9 3.2-10.3 10.2-20.2 13.9-5.9 2.2-11.3-0.9-13.1-7q-0.4-1.3-0.5-2.6-0.1-0.7-0.1-1.4c0-4.9 2.4-9.6 7.2-11 12.5-3.7 26.7 8.1 26.7 8.1z"/>
							<path class="s2" d="m-38.4 126.7c0 0 1.1-6.1 4-8 0 0-2.8 4.4-1.9 7.2z"/>
							<path class="s2" d="m-34.5 125.1c0 0 1.6-6 4.7-7.7 0 0-3.2 4.2-2.5 7.1z"/>
							<path class="s2" d="m-30.4 124.5c0 0 2.7-5.6 6.1-6.6 0 0-3.9 3.5-3.8 6.4z"/>
							<path class="s2" d="m-38.4 126.7c0 0 3.4 5.2 6.8 5.8 0 0-4.3-3-4.5-5.9z"/>
							<path class="s2" d="m-34.5 125.7c0 0 3.7 4.9 7.2 5.2 0 0-4.5-2.6-5-5.5z"/>
							<path class="s2" d="m-30.2 124.9c0 0 4.6 4.1 8.1 3.8 0 0-4.9-1.8-5.9-4.5z"/>
							<path class="s2" d="m-24.8 123.1c0 0 2.1-4.3 4.7-5.1 0 0-3.1 2.7-3 5z"/>
							<path class="s2" d="m-24.7 123.4c0 0 3.6 3.2 6.3 3 0 0-3.8-1.4-4.6-3.5z"/>
							<path class="s2" d="m-19.6 122.9c0 0 1.6-3.1 3.4-3.7 0 0-2.2 2-2.1 3.6z"/>
							<path class="s2" d="m-19.5 123.2c0 0 2.6 2.3 4.6 2.1 0 0-2.8-1-3.4-2.5z"/>
							<path class="s0" d="m-15 123c-7.6 0.4-20.7 3.3-25.6 5.3q-0.1-0.6-0.2-1.2 0-0.2 0-0.3c2.2-1.1 16.3-4.6 25.8-4.4 0.3 0 0.4 0.6 0 0.6z"/>
						</g>
					</g>
					<g>
						<path class="s0" d="m-59.4 201.3c-1.8-5.6-5.7-10.3-11.1-13.1-0.4-0.2-0.5-0.6-0.4-1 0.2-0.3 0.7-0.5 1-0.3 4.5 2.4 8.1 6 10.4 10.3z"/>
						<g>
							<path class="s1" d="m-95.2 175.5c7.4 6 6.2 13 14.3 19.8 4.9 4.1 11 2.9 14.7-2.2q0.8-1.1 1.4-2.3 0.3-0.6 0.6-1.3c1.6-4.5 0.9-9.8-3.1-12.7-10.5-7.7-27.9-1.3-27.9-1.3z"/>
							<path class="s2" d="m-66.9 189.6c0 0 1-6.1-1.1-8.8 0 0 1.2 5.1-0.7 7.4z"/>
							<path class="s2" d="m-70.1 186.8c0 0 0.5-6.2-1.8-8.7 0 0 1.6 5-0.1 7.4z"/>
							<path class="s2" d="m-73.8 184.9c0 0-0.6-6.2-3.4-8.3 0 0 2.5 4.7 1.4 7.4z"/>
							<path class="s2" d="m-67 189.6c0 0-4.8 3.8-8.3 3.3 0 0 5.1-1.5 6.2-4.1z"/>
							<path class="s2" d="m-70.2 187.4c0 0-5.2 3.4-8.6 2.5 0 0 5.2-1 6.6-3.5z"/>
							<path class="s2" d="m-74.1 185.2c0 0-5.7 2.3-8.9 0.9 0 0 5.3 0 7.1-2.3z"/>
							<path class="s2" d="m-78.5 181.7c0 0-0.6-4.7-2.7-6.4 0 0 1.9 3.6 1.1 5.7z"/>
							<path class="s2" d="m-78.8 182c0 0-4.4 1.8-6.9 0.7 0 0 4.1 0 5.6-1.8z"/>
							<path class="s2" d="m-83.4 179.8c0 0-0.4-3.4-2-4.6 0 0 1.4 2.6 0.8 4.1z"/>
							<path class="s2" d="m-83.6 180c0 0-3.2 1.3-5 0.5 0 0 3 0 4-1.3z"/>
							<path class="s0" d="m-87.8 178.3c7.1 2.9 18.5 10 22.5 13.6q0.2-0.5 0.5-1.1 0.1-0.1 0.1-0.2c-1.7-1.8-13.8-9.8-22.8-12.8-0.4-0.1-0.6 0.4-0.3 0.5z"/>
						</g>
					</g>
					<g>
						<path class="s0" d="m-60.4 170.7c-1.7-5.9-5.7-10.9-11.4-13.8-0.3-0.2-0.5-0.6-0.3-1 0.2-0.3 0.6-0.5 1-0.3 5.1 2.7 9 7 11.2 12.1z"/>
						<g>
							<path class="s1" d="m-96.4 144.2c7.4 6 6.2 13 14.3 19.8 4.9 4.1 11 2.9 14.7-2.2q0.8-1.1 1.4-2.3 0.3-0.6 0.5-1.3c1.7-4.5 1-9.8-3-12.7-10.6-7.7-27.9-1.3-27.9-1.3z"/>
							<path class="s2" d="m-68.1 158.3c0 0 1-6.1-1.1-8.8 0 0 1.1 5.1-0.7 7.4z"/>
							<path class="s2" d="m-71.3 155.5c0 0 0.5-6.2-1.9-8.8 0 0 1.6 5.1 0 7.5z"/>
							<path class="s2" d="m-75 153.6c0 0-0.7-6.2-3.5-8.3 0 0 2.5 4.7 1.4 7.4z"/>
							<path class="s2" d="m-68.2 158.3c0 0-4.9 3.8-8.3 3.3 0 0 5-1.5 6.2-4.1z"/>
							<path class="s2" d="m-71.4 156.1c0 0-5.2 3.4-8.6 2.5 0 0 5.1-1 6.5-3.5z"/>
							<path class="s2" d="m-75.3 153.9c0 0-5.7 2.3-8.9 0.9 0 0 5.3 0 7.1-2.3z"/>
							<path class="s2" d="m-79.7 150.4c0 0-0.6-4.7-2.7-6.4 0 0 1.9 3.6 1 5.7z"/>
							<path class="s2" d="m-80 150.7c0 0-4.4 1.8-6.9 0.7 0 0 4.1 0 5.5-1.8z"/>
							<path class="s2" d="m-84.6 148.5c0 0-0.4-3.4-2-4.6 0 0 1.4 2.6 0.8 4.1z"/>
							<path class="s2" d="m-84.8 148.7c0 0-3.2 1.3-5 0.5 0 0 2.9 0 4-1.3z"/>
							<path class="s0" d="m-89 147c7.1 2.9 18.4 10 22.4 13.6q0.3-0.5 0.6-1.1 0-0.1 0.1-0.2c-1.7-1.8-13.8-9.8-22.9-12.8-0.3-0.1-0.5 0.4-0.2 0.5z"/>
						</g>
					</g>
					<g>
						<path class="s0" d="m-50.9 133.7c-2.1-3-4.9-5.6-8.4-7.4-0.3-0.1-0.5-0.6-0.3-0.9 0.2-0.4 0.6-0.5 1-0.3 3.3 1.7 6.1 4.1 8.3 7z"/>
						<g>
							<path class="s1" d="m-83.9 113.7c7.4 6 6.2 13 14.3 19.8 4.9 4 11 2.9 14.7-2.2q0.8-1.1 1.4-2.3 0.3-0.6 0.5-1.3c1.7-4.6 1-9.8-3-12.7-10.5-7.7-27.9-1.3-27.9-1.3z"/>
							<path class="s2" d="m-55.6 127.8c0 0 1-6.1-1.1-8.9 0 0 1.1 5.1-0.7 7.4z"/>
							<path class="s2" d="m-58.8 125c0 0 0.5-6.2-1.9-8.8 0 0 1.6 5 0 7.5z"/>
							<path class="s2" d="m-62.5 123c0 0-0.7-6.1-3.5-8.2 0 0 2.6 4.6 1.4 7.3z"/>
							<path class="s2" d="m-55.7 127.8c0 0-4.9 3.8-8.3 3.2 0 0 5.1-1.4 6.2-4.1z"/>
							<path class="s2" d="m-58.9 125.6c0 0-5.2 3.3-8.6 2.5 0 0 5.1-1 6.5-3.6z"/>
							<path class="s2" d="m-62.8 123.4c0 0-5.7 2.3-8.9 0.8 0 0 5.3 0.1 7.1-2.2z"/>
							<path class="s2" d="m-67.2 119.9c0 0-0.6-4.8-2.7-6.4 0 0 1.9 3.6 1 5.7z"/>
							<path class="s2" d="m-67.5 120.2c0 0-4.4 1.8-6.9 0.6 0 0 4.1 0 5.5-1.7z"/>
							<path class="s2" d="m-72.1 118c0 0-0.4-3.5-2-4.6 0 0 1.4 2.5 0.8 4.1z"/>
							<path class="s2" d="m-72.3 118.2c0 0-3.2 1.3-5 0.4 0 0 2.9 0.1 4-1.2z"/>
							<path class="s0" d="m-76.5 116.5c7.1 2.9 18.4 10 22.4 13.5q0.3-0.5 0.6-1 0-0.1 0.1-0.3c-1.7-1.7-13.8-9.8-22.8-12.8-0.4-0.1-0.6 0.4-0.3 0.6z"/>
						</g>
					</g>
				</g>
				<g>
					<path class="s3" d="m-89.4 276c-2.4 0-4.4-2-4.4-4.4 0-2.4 2-4.4 4.4-4.4q0 0 0.1 0c0.7-2.2 2.8-3.8 5.2-3.8q0.1 0 0.1 0c0.6-1.7 2.2-2.8 4.1-2.8 0.8 0 1.5 0.1 2.1 0.5 0.8-0.5 1.7-0.7 2.7-0.7q0.3 0 0.6 0c1-1.4 2.6-2.3 4.5-2.3 0.4-0.8 1.3-1.4 2.3-1.4 0.5 0 1 0.2 1.5 0.5 1.1-1.2 2.7-2 4.6-2q0.5 0 1.1 0.1c1.3-1.8 3.5-2.9 5.9-2.9 2.4 0 4.6 1.1 5.9 2.9q0.6-0.1 1.1-0.1c1.8 0 3.5 0.8 4.6 2 0.4-0.3 1-0.5 1.5-0.5 1 0 1.9 0.6 2.3 1.4 1.9 0 3.5 0.9 4.5 2.3q0.3 0 0.6 0c1 0 1.9 0.2 2.7 0.7 0.6-0.4 1.3-0.5 2.1-0.5 1.9 0 3.5 1.1 4.1 2.8q0 0 0.1 0c2.4 0 4.5 1.6 5.2 3.8q0.1 0 0.1 0c2.4 0 4.4 2 4.4 4.4 0 2.4-2 4.4-4.4 4.4z"/>
					<path class="s4" d="m-81.2 266.3c0 0 3 0.2 3.7-3.1 0 0 0.2 1.4-0.2 2.5-0.5 1-1.7 1.7-3.5 0.6z"/>
					<path class="s4" d="m-27.7 267.1c0 0-3.9 0.3-4.8-3.9 0 0-0.3 1.8 0.3 3.1 0.6 1.4 2.1 2.3 4.5 0.8z"/>
					<path class="s4" d="m-56.2 272.1c0 0-3.9 0.2-4.7-3.9 0 0-0.3 1.8 0.3 3.1 0.6 1.4 2.1 2.3 4.4 0.8z"/>
					<path class="s4" d="m-61.6 262.1c0 0 3.9 0.2 4.7-3.9 0 0 0.4 1.8-0.2 3.1-0.6 1.4-2.2 2.3-4.5 0.8z"/>
					<path class="s4" d="m-36.8 265c-1.1 0.7-2.1 0.8-2.8 0.6-0.4 0.4-0.9 0.6-1.5 0.7-1.3 0.3-2.9-0.5-2.9-0.5 1.5 0.1 2.5-0.4 3.3-1q-0.3-0.3-0.4-0.6c-0.6-1.3-0.3-3-0.3-3 0.3 1.3 0.9 2.2 1.5 2.7q0.4 0.4 0.9 0.6c1.1 0.5 2.2 0.5 2.2 0.5z"/>
					<path class="s4" d="m-72.4 263.7c1.2 0.7 2.1 0.8 2.8 0.6 0.4 0.4 0.9 0.6 1.5 0.7 1.4 0.2 2.9-0.5 2.9-0.5-1.5 0.1-2.5-0.4-3.2-1q0.2-0.3 0.4-0.6c0.5-1.3 0.2-3 0.2-3-0.2 1.3-0.8 2.1-1.5 2.7q-0.4 0.3-0.8 0.6c-1.2 0.5-2.3 0.5-2.3 0.5z"/>
					<path class="s4" d="m-85.5 276c6.2 0 8.1-3.4 8.1-3.4 0 0 1.3 3.4 9 3.4z"/>
					<path class="s4" d="m-36.7 276c6.2 0 8-3.4 8-3.4 0 0 0.8 3.4 8.5 3.4z"/>
				</g>
				<g>
					<path class="s8" d="m-55.5 80.4c3.3-8.6 12.9-12.9 21.5-9.6 8.5 3.3 12.8 12.9 9.5 21.5z"/>
					<path class="s1" d="m-15 84.6c0 0-4.1 1.7-7.2 9.7-3.7 9.8-14.7 14.7-24.5 10.9-9.7-3.7-14.6-14.7-10.8-24.5 2.8-7.3-2.9-12.6-2.9-12.6 0 0 9.2 2.2 12.7 10 1.4-1.3 3.2-2.3 5.5-2.5 0 0 0.6 2.5 3.2 5.6 1.4-2 2.2-4.2 2.2-4.2 0 0 1.1 2 1.4 4.3 1.2-0.5 2.6-1.3 3.6-2.3 0 0 2 3.4 1.3 9.3 3.3-2.7 9.1-6 15.5-3.7z"/>
				</g>
			</g>
		</g>
	</g>
</svg>