<svg version="1.2" xmlns="http://www.w3.org/2000/svg" viewBox="0 0 99 290" width="99" height="290">
	<title>34295180_sunflower_growth</title>
	<style>
		.s0 { fill: #8bbc4a } 
		.s1 { fill: #9cd83d } 
		.s2 { fill: #98c939 } 
		.s3 { fill: #5e3430 } 
		.s4 { fill: #492523 } 
		.s5 { fill: #f7df2f } 
		.s6 { fill: #e2bd20 } 
		.s7 { fill: #efca30 } 
		.s8 { fill: #ffee42 } 
		.s9 { fill: #502318 } 
	</style>
	<g id="objects">
		<g>
			<g>
				<g>
					<path class="s0" d="m482.1 255.9h-2c0-22.7-2.2-38-4-50.3-3-20.6-5-34.2 4.8-62.3 5.3-15.4 8.5-33.1 9.3-52.4h2c-0.9 19.6-4 37.5-9.5 53.1-9.6 27.6-7.6 41-4.7 61.3 1.8 12.4 4.1 27.8 4.1 50.6z"/>
					<g>
						<path class="s0" d="m481.1 255.9c-0.4 0-0.7-0.3-0.7-0.7v-17.4c0-9.1 5-17.3 13-21.4 0.4-0.2 0.8-0.1 1 0.3 0.2 0.3 0 0.7-0.3 0.9-7.6 3.9-12.3 11.7-12.3 20.2v17.4c0 0.4-0.3 0.7-0.7 0.7z"/>
						<g>
							<path class="s1" d="m518.7 205c-7.4 6-6.2 13-14.3 19.7-4.9 4.1-10.9 3-14.7-2.1q-0.8-1.1-1.4-2.3-0.3-0.7-0.5-1.3c-1.7-4.6-1-9.8 3-12.8 10.6-7.7 27.9-1.2 27.9-1.2z"/>
							<path class="s2" d="m490.5 219.1c0 0-1.1-6.1 1-8.9 0 0-1.1 5.1 0.7 7.4z"/>
							<path class="s2" d="m493.6 216.2c0 0-0.5-6.1 1.9-8.7 0 0-1.6 5 0 7.4z"/>
							<path class="s2" d="m497.3 214.3c0 0 0.7-6.1 3.5-8.2 0 0-2.5 4.6-1.4 7.3z"/>
							<path class="s2" d="m490.5 219.1c0 0 4.9 3.7 8.3 3.2 0 0-5-1.4-6.2-4.1z"/>
							<path class="s2" d="m493.8 216.8c0 0 5.2 3.4 8.5 2.6 0 0-5.1-1-6.5-3.6z"/>
							<path class="s2" d="m497.6 214.7c0 0 5.8 2.3 8.9 0.8 0 0-5.2 0-7.1-2.2z"/>
							<path class="s2" d="m502.1 211.2c0 0 0.5-4.8 2.7-6.4 0 0-2 3.6-1.1 5.7z"/>
							<path class="s2" d="m502.3 211.5c0 0 4.5 1.7 6.9 0.6 0 0-4.1 0-5.5-1.7z"/>
							<path class="s2" d="m507 209.3c0 0 0.4-3.5 1.9-4.7 0 0-1.4 2.6-0.8 4.1z"/>
							<path class="s2" d="m507.1 209.5c0 0 3.3 1.2 5 0.4 0 0-2.9 0-4-1.2z"/>
							<path class="s0" d="m511.3 207.8c-7.1 2.9-18.4 10-22.4 13.5q-0.3-0.5-0.6-1 0-0.2-0.1-0.3c1.8-1.7 13.9-9.8 22.9-12.8 0.3-0.1 0.5 0.4 0.2 0.6z"/>
						</g>
						<path class="s0" d="m481.1 247.2c-0.4 0-0.7-0.3-0.7-0.7 0-8.6-4.7-16.3-12.3-20.2-0.4-0.2-0.5-0.6-0.3-1 0.2-0.3 0.6-0.5 0.9-0.3 8.1 4.2 13.1 12.4 13.1 21.5 0 0.4-0.3 0.7-0.7 0.7z"/>
						<g>
							<path class="s1" d="m443.4 213.6c7.5 6 6.3 13 14.4 19.8 4.8 4.1 10.9 2.9 14.7-2.2q0.8-1.1 1.3-2.3 0.3-0.6 0.6-1.3c1.7-4.5 0.9-9.8-3.1-12.7-10.5-7.7-27.9-1.3-27.9-1.3z"/>
							<path class="s2" d="m471.7 227.7c0 0 1.1-6.1-1.1-8.8 0 0 1.2 5.1-0.6 7.4z"/>
							<path class="s2" d="m468.5 224.9c0 0 0.5-6.2-1.8-8.8 0 0 1.6 5.1 0 7.5z"/>
							<path class="s2" d="m464.9 223c0 0-0.7-6.2-3.5-8.3 0 0 2.5 4.7 1.4 7.4z"/>
							<path class="s2" d="m471.7 227.7c0 0-4.9 3.8-8.4 3.3 0 0 5.1-1.5 6.3-4.1z"/>
							<path class="s2" d="m468.4 225.5c0 0-5.2 3.4-8.6 2.5 0 0 5.2-1 6.6-3.5z"/>
							<path class="s2" d="m464.6 223.3c0 0-5.8 2.3-8.9 0.9 0 0 5.2 0 7.1-2.3z"/>
							<path class="s2" d="m460.1 219.8c0 0-0.5-4.7-2.7-6.4 0 0 2 3.6 1.1 5.7z"/>
							<path class="s2" d="m459.9 220.1c0 0-4.5 1.8-6.9 0.7 0 0 4 0 5.5-1.8z"/>
							<path class="s2" d="m455.2 217.9c0 0-0.4-3.4-1.9-4.6 0 0 1.4 2.6 0.7 4.1z"/>
							<path class="s2" d="m455 218.1c0 0-3.2 1.3-5 0.5 0 0 3 0 4-1.3z"/>
							<path class="s0" d="m450.9 216.4c7 2.9 18.4 10 22.4 13.6q0.3-0.5 0.5-1.1 0.1-0.1 0.2-0.2c-1.8-1.8-13.9-9.8-22.9-12.8-0.3-0.1-0.6 0.4-0.2 0.5z"/>
						</g>
					</g>
					<g>
						<path class="s0" d="m476.8 204.4c1-7.8 5.7-14.6 12.8-18.3 0.4-0.2 0.8-0.1 1 0.3 0.2 0.3 0 0.8-0.3 1-7.6 3.9-12.3 11.6-12.3 20.1v2.9z"/>
						<g>
							<path class="s1" d="m514.9 174.7c-7.4 6-6.2 13-14.3 19.8-4.9 4-10.9 2.9-14.7-2.2q-0.8-1.1-1.3-2.3-0.4-0.6-0.6-1.3c-1.7-4.6-0.9-9.8 3.1-12.7 10.5-7.7 27.8-1.3 27.8-1.3z"/>
							<path class="s2" d="m486.7 188.8c0 0-1.1-6.1 1-8.9 0 0-1.1 5.2 0.7 7.5z"/>
							<path class="s2" d="m489.8 186c0 0-0.5-6.2 1.9-8.8 0 0-1.6 5 0 7.5z"/>
							<path class="s2" d="m493.5 184c0 0 0.7-6.1 3.5-8.2 0 0-2.5 4.6-1.4 7.3z"/>
							<path class="s2" d="m486.7 188.8c0 0 4.9 3.8 8.3 3.2 0 0-5-1.4-6.2-4.1z"/>
							<path class="s2" d="m490 186.6c0 0 5.2 3.3 8.6 2.5 0 0-5.2-1-6.6-3.6z"/>
							<path class="s2" d="m493.8 184.4c0 0 5.8 2.3 8.9 0.8 0 0-5.2 0.1-7.1-2.2z"/>
							<path class="s2" d="m498.3 180.9c0 0 0.5-4.8 2.7-6.4 0 0-2 3.6-1.1 5.7z"/>
							<path class="s2" d="m498.5 181.2c0 0 4.5 1.8 6.9 0.6 0 0-4.1 0-5.5-1.7z"/>
							<path class="s2" d="m503.2 179c0 0 0.4-3.5 1.9-4.6 0 0-1.4 2.6-0.8 4.1z"/>
							<path class="s2" d="m503.3 179.2c0 0 3.3 1.3 5 0.5 0 0-2.9 0-3.9-1.3z"/>
							<path class="s0" d="m507.5 177.5c-7 2.9-18.4 10-22.4 13.5q-0.3-0.5-0.5-1-0.1-0.1-0.2-0.3c1.8-1.7 13.9-9.8 22.9-12.7 0.3-0.2 0.6 0.4 0.2 0.5z"/>
						</g>
					</g>
					<g>
						<path class="s0" d="m476.5 160.4c3.7-4.4 9-7.3 14.9-8.1 0.4 0 0.8 0.2 0.8 0.6 0.1 0.4-0.2 0.8-0.6 0.8-6.1 0.9-11.4 4.1-15 8.8z"/>
						<g>
							<path class="s1" d="m519.1 150c-9 3.2-10.2 10.2-20.1 13.9-6 2.2-11.3-0.9-13.1-7q-0.4-1.3-0.6-2.6-0.1-0.7-0.1-1.4c0-4.9 2.4-9.5 7.2-11 12.5-3.7 26.7 8.1 26.7 8.1z"/>
							<path class="s2" d="m487.7 153.9c0 0 1.1-6.1 4-8 0 0-2.8 4.4-1.9 7.2z"/>
							<path class="s2" d="m491.7 152.3c0 0 1.6-6 4.6-7.6 0 0-3.1 4.1-2.4 7z"/>
							<path class="s2" d="m495.8 151.7c0 0 2.7-5.6 6-6.6 0 0-3.9 3.5-3.8 6.4z"/>
							<path class="s2" d="m487.8 153.9c0 0 3.3 5.2 6.7 5.8 0 0-4.3-3-4.5-5.9z"/>
							<path class="s2" d="m491.6 152.9c0 0 3.8 4.9 7.2 5.2 0 0-4.5-2.6-5-5.5z"/>
							<path class="s2" d="m495.9 152.1c0 0 4.7 4.1 8.1 3.8 0 0-4.9-1.7-5.9-4.5z"/>
							<path class="s2" d="m501.3 150.3c0 0 2.1-4.3 4.7-5.1 0 0-3 2.7-2.9 5z"/>
							<path class="s2" d="m501.4 150.7c0 0 3.6 3.1 6.3 2.9 0 0-3.8-1.4-4.6-3.5z"/>
							<path class="s2" d="m506.6 150.2c0 0 1.5-3.2 3.3-3.7 0 0-2.1 1.9-2.1 3.6z"/>
							<path class="s2" d="m506.7 150.4c0 0 2.6 2.3 4.5 2.1 0 0-2.8-1-3.3-2.5z"/>
							<path class="s0" d="m511.2 150.2c-7.7 0.4-20.8 3.3-25.7 5.3q-0.1-0.6-0.2-1.2 0-0.1 0-0.3c2.2-1 16.3-4.6 25.8-4.4 0.4 0 0.4 0.6 0.1 0.6z"/>
						</g>
					</g>
					<g>
						<path class="s0" d="m483.4 136.9c3.7-6.4 10.1-10.8 17.6-11.8 0.4-0.1 0.8 0.2 0.8 0.6 0.1 0.4-0.2 0.8-0.6 0.8-7.6 1-14 5.7-17.3 12.5z"/>
						<g>
							<path class="s1" d="m528.7 122.8c-9 3.2-10.3 10.2-20.2 13.9-5.9 2.2-11.3-0.9-13.1-7q-0.4-1.3-0.5-2.6-0.1-0.7-0.1-1.4c0-4.9 2.4-9.6 7.2-11 12.5-3.7 26.7 8.1 26.7 8.1z"/>
							<path class="s2" d="m497.3 126.7c0 0 1.1-6.1 4-8 0 0-2.8 4.4-1.9 7.2z"/>
							<path class="s2" d="m501.2 125.1c0 0 1.6-6 4.7-7.7 0 0-3.2 4.2-2.5 7.1z"/>
							<path class="s2" d="m505.3 124.5c0 0 2.7-5.6 6.1-6.6 0 0-3.9 3.5-3.8 6.4z"/>
							<path class="s2" d="m497.3 126.7c0 0 3.4 5.2 6.8 5.8 0 0-4.3-3-4.5-5.9z"/>
							<path class="s2" d="m501.2 125.7c0 0 3.7 4.9 7.2 5.2 0 0-4.5-2.6-5-5.5z"/>
							<path class="s2" d="m505.5 124.9c0 0 4.6 4.1 8.1 3.8 0 0-4.9-1.8-5.9-4.5z"/>
							<path class="s2" d="m510.9 123.1c0 0 2.1-4.3 4.7-5.1 0 0-3.1 2.7-3 5z"/>
							<path class="s2" d="m511 123.4c0 0 3.6 3.2 6.3 3 0 0-3.9-1.4-4.6-3.5z"/>
							<path class="s2" d="m516.1 122.9c0 0 1.6-3.1 3.4-3.7 0 0-2.2 2-2.1 3.6z"/>
							<path class="s2" d="m516.2 123.2c0 0 2.6 2.3 4.6 2.1 0 0-2.8-1-3.4-2.5z"/>
							<path class="s0" d="m520.7 123c-7.6 0.4-20.7 3.3-25.6 5.3q-0.1-0.6-0.2-1.2 0-0.2 0-0.3c2.2-1.1 16.3-4.6 25.8-4.4 0.3 0 0.4 0.6 0 0.6z"/>
						</g>
					</g>
					<g>
						<path class="s0" d="m476.3 201.3c-1.8-5.6-5.7-10.3-11.1-13.1-0.4-0.2-0.5-0.6-0.4-1 0.2-0.3 0.7-0.5 1-0.3 4.5 2.4 8.1 6 10.4 10.3z"/>
						<g>
							<path class="s1" d="m440.5 175.5c7.4 6 6.2 13 14.3 19.8 4.9 4.1 11 2.9 14.7-2.2q0.8-1.1 1.4-2.3 0.3-0.6 0.6-1.3c1.6-4.5 0.9-9.8-3.1-12.7-10.5-7.7-27.9-1.3-27.9-1.3z"/>
							<path class="s2" d="m468.8 189.6c0 0 1-6.1-1.1-8.8 0 0 1.2 5.1-0.7 7.4z"/>
							<path class="s2" d="m465.6 186.8c0 0 0.5-6.2-1.8-8.7 0 0 1.5 5-0.1 7.4z"/>
							<path class="s2" d="m461.9 184.9c0 0-0.6-6.2-3.4-8.3 0 0 2.5 4.7 1.4 7.4z"/>
							<path class="s2" d="m468.7 189.6c0 0-4.8 3.8-8.3 3.3 0 0 5.1-1.5 6.2-4.1z"/>
							<path class="s2" d="m465.5 187.4c0 0-5.2 3.4-8.6 2.5 0 0 5.2-1 6.6-3.5z"/>
							<path class="s2" d="m461.6 185.2c0 0-5.7 2.3-8.9 0.9 0 0 5.3 0 7.1-2.3z"/>
							<path class="s2" d="m457.2 181.7c0 0-0.6-4.7-2.7-6.4 0 0 1.9 3.6 1.1 5.7z"/>
							<path class="s2" d="m456.9 182c0 0-4.4 1.8-6.9 0.7 0 0 4.1 0 5.6-1.8z"/>
							<path class="s2" d="m452.3 179.8c0 0-0.4-3.4-2-4.6 0 0 1.4 2.6 0.8 4.1z"/>
							<path class="s2" d="m452.1 180c0 0-3.2 1.3-5 0.5 0 0 3 0 4-1.3z"/>
							<path class="s0" d="m447.9 178.3c7.1 2.9 18.5 10 22.4 13.6q0.3-0.5 0.6-1.1 0.1-0.1 0.1-0.2c-1.7-1.8-13.8-9.8-22.8-12.8-0.4-0.1-0.6 0.4-0.3 0.5z"/>
						</g>
					</g>
					<g>
						<path class="s0" d="m475.3 170.7c-1.7-5.9-5.7-10.9-11.4-13.8-0.3-0.2-0.5-0.6-0.3-1 0.2-0.3 0.6-0.5 1-0.3 5.1 2.7 9 7 11.2 12.1z"/>
						<g>
							<path class="s1" d="m439.3 144.2c7.4 6 6.2 13 14.3 19.8 4.9 4.1 11 2.9 14.7-2.2q0.8-1.1 1.4-2.3 0.3-0.6 0.5-1.3c1.7-4.5 1-9.8-3-12.7-10.6-7.7-27.9-1.3-27.9-1.3z"/>
							<path class="s2" d="m467.6 158.3c0 0 1-6.1-1.1-8.8 0 0 1.1 5.1-0.7 7.4z"/>
							<path class="s2" d="m464.4 155.5c0 0 0.5-6.2-1.9-8.8 0 0 1.6 5.1 0 7.5z"/>
							<path class="s2" d="m460.7 153.6c0 0-0.7-6.2-3.5-8.3 0 0 2.5 4.7 1.4 7.4z"/>
							<path class="s2" d="m467.5 158.3c0 0-4.9 3.8-8.3 3.3 0 0 5-1.5 6.2-4.1z"/>
							<path class="s2" d="m464.3 156.1c0 0-5.2 3.4-8.6 2.5 0 0 5.1-1 6.5-3.5z"/>
							<path class="s2" d="m460.4 153.9c0 0-5.7 2.3-8.9 0.9 0 0 5.3 0 7.1-2.3z"/>
							<path class="s2" d="m456 150.4c0 0-0.6-4.7-2.7-6.4 0 0 1.9 3.6 1 5.7z"/>
							<path class="s2" d="m455.7 150.7c0 0-4.4 1.8-6.9 0.7 0 0 4.1 0 5.5-1.8z"/>
							<path class="s2" d="m451 148.5c0 0-0.3-3.4-1.9-4.6 0 0 1.4 2.6 0.8 4.1z"/>
							<path class="s2" d="m450.9 148.7c0 0-3.2 1.3-5 0.5 0 0 2.9 0 4-1.3z"/>
							<path class="s0" d="m446.7 147c7.1 2.9 18.4 10 22.4 13.6q0.3-0.5 0.6-1.1 0-0.1 0.1-0.2c-1.7-1.8-13.8-9.8-22.9-12.8-0.3-0.1-0.5 0.4-0.2 0.5z"/>
						</g>
					</g>
					<g>
						<path class="s0" d="m484.8 133.7c-2.1-3-4.9-5.6-8.4-7.4-0.3-0.1-0.5-0.6-0.3-0.9 0.2-0.4 0.6-0.5 1-0.3 3.3 1.7 6.1 4.1 8.3 7z"/>
						<g>
							<path class="s1" d="m451.8 113.7c7.4 6 6.2 13 14.3 19.8 4.9 4 11 2.9 14.7-2.2q0.8-1.1 1.4-2.3 0.3-0.6 0.5-1.3c1.7-4.6 1-9.8-3-12.7-10.6-7.7-27.9-1.3-27.9-1.3z"/>
							<path class="s2" d="m480.1 127.8c0 0 1-6.1-1.1-8.9 0 0 1.1 5.1-0.7 7.4z"/>
							<path class="s2" d="m476.9 125c0 0 0.5-6.2-1.9-8.8 0 0 1.6 5 0 7.5z"/>
							<path class="s2" d="m473.2 123c0 0-0.7-6.1-3.5-8.2 0 0 2.6 4.6 1.4 7.3z"/>
							<path class="s2" d="m480 127.8c0 0-4.9 3.8-8.3 3.2 0 0 5-1.4 6.2-4.1z"/>
							<path class="s2" d="m476.8 125.6c0 0-5.2 3.3-8.6 2.5 0 0 5.1-1 6.5-3.6z"/>
							<path class="s2" d="m472.9 123.4c0 0-5.7 2.3-8.9 0.8 0 0 5.3 0.1 7.1-2.2z"/>
							<path class="s2" d="m468.5 119.9c0 0-0.6-4.8-2.7-6.4 0 0 1.9 3.6 1 5.7z"/>
							<path class="s2" d="m468.2 120.2c0 0-4.4 1.8-6.9 0.6 0 0 4.1 0 5.5-1.7z"/>
							<path class="s2" d="m463.6 118c0 0-0.4-3.5-2-4.6 0 0 1.4 2.5 0.8 4.1z"/>
							<path class="s2" d="m463.4 118.2c0 0-3.2 1.3-5 0.4 0 0 2.9 0.1 4-1.2z"/>
							<path class="s0" d="m459.2 116.5c7.1 2.9 18.4 10 22.4 13.5q0.3-0.5 0.6-1 0-0.1 0.1-0.3c-1.7-1.7-13.8-9.8-22.8-12.8-0.4-0.1-0.6 0.4-0.3 0.6z"/>
						</g>
					</g>
				</g>
				<g>
					<path class="s3" d="m446.3 276c-2.4 0-4.4-2-4.4-4.4 0-2.4 2-4.4 4.4-4.4q0 0 0.1 0c0.7-2.2 2.8-3.8 5.2-3.8q0.1 0 0.1 0c0.6-1.7 2.2-2.8 4.1-2.8 0.8 0 1.5 0.1 2.1 0.5 0.8-0.5 1.7-0.7 2.6-0.7q0.4 0 0.7 0c1-1.4 2.6-2.3 4.5-2.3 0.4-0.8 1.3-1.4 2.3-1.4 0.5 0 1 0.2 1.5 0.5 1.1-1.2 2.7-2 4.6-2q0.5 0 1.1 0.1c1.3-1.8 3.5-2.9 5.9-2.9 2.4 0 4.6 1.1 5.9 2.9q0.6-0.1 1.1-0.1c1.8 0 3.5 0.8 4.6 2 0.4-0.3 0.9-0.5 1.5-0.5 1 0 1.9 0.6 2.3 1.4 1.9 0 3.5 0.9 4.5 2.3q0.3 0 0.6 0c1 0 1.9 0.2 2.7 0.7 0.6-0.4 1.3-0.5 2.1-0.5 1.9 0 3.5 1.1 4.1 2.8q0 0 0.1 0c2.4 0 4.5 1.6 5.2 3.8q0 0 0.1 0c2.4 0 4.4 2 4.4 4.4 0 2.4-2 4.4-4.4 4.4z"/>
					<path class="s4" d="m454.5 266.3c0 0 3 0.2 3.7-3.1 0 0 0.2 1.4-0.2 2.5-0.5 1-1.7 1.7-3.5 0.6z"/>
					<path class="s4" d="m508 267.1c0 0-3.9 0.3-4.8-3.9 0 0-0.3 1.8 0.3 3.1 0.6 1.4 2.1 2.3 4.5 0.8z"/>
					<path class="s4" d="m479.5 272.1c0 0-3.9 0.2-4.7-3.9 0 0-0.3 1.8 0.3 3.1 0.6 1.4 2.1 2.3 4.4 0.8z"/>
					<path class="s4" d="m474.1 262.1c0 0 3.9 0.2 4.7-3.9 0 0 0.4 1.8-0.2 3.1-0.6 1.4-2.2 2.3-4.5 0.8z"/>
					<path class="s4" d="m498.9 265c-1.1 0.7-2.1 0.8-2.8 0.6-0.4 0.4-0.9 0.6-1.5 0.7-1.3 0.3-2.9-0.5-2.9-0.5 1.5 0.1 2.5-0.4 3.3-1q-0.3-0.3-0.4-0.6c-0.6-1.3-0.3-3-0.3-3 0.3 1.3 0.9 2.2 1.5 2.7q0.4 0.4 0.9 0.6c1.1 0.5 2.2 0.5 2.2 0.5z"/>
					<path class="s4" d="m463.3 263.7c1.2 0.7 2.1 0.8 2.8 0.6 0.4 0.4 0.9 0.6 1.5 0.7 1.4 0.2 2.9-0.5 2.9-0.5-1.5 0.1-2.5-0.4-3.2-1q0.2-0.3 0.4-0.6c0.5-1.3 0.2-3 0.2-3-0.2 1.3-0.8 2.1-1.5 2.7q-0.4 0.3-0.8 0.6c-1.2 0.5-2.3 0.5-2.3 0.5z"/>
					<path class="s4" d="m450.2 276c6.2 0 8.1-3.4 8.1-3.4 0 0 1.3 3.4 9 3.4z"/>
					<path class="s4" d="m499 276c6.2 0 8-3.4 8-3.4 0 0 0.8 3.4 8.5 3.4z"/>
				</g>
				<g>
					<path class="s5" d="m492.4 44.4c0.2-15.3-6.1-22.4-9.2-25-1-0.8-2.5-0.5-3 0.6-1.9 3.7-4.8 12.7 1.5 26.6z"/>
					<path class="s5" d="m479.1 48.4c-10.7-11-20.1-11.6-24.2-11.2-1.3 0.1-2.1 1.3-1.7 2.5 1.3 4 5.6 12.4 19.9 17.8z"/>
					<path class="s5" d="m472.5 60.6c-15.3-0.2-22.4 6-25 9.2-0.8 0.9-0.5 2.4 0.6 3 3.7 1.8 12.7 4.7 26.6-1.5z"/>
					<path class="s5" d="m476.5 73.8c-11 10.7-11.6 20.1-11.2 24.3 0.1 1.2 1.3 2 2.5 1.6 4-1.2 12.4-5.6 17.8-19.9z"/>
					<path class="s5" d="m488.6 80.4c-0.2 15.3 6.1 22.4 9.3 25.1 0.9 0.8 2.4 0.5 2.9-0.7 1.9-3.6 4.8-12.6-1.4-26.6z"/>
					<path class="s5" d="m501.9 76.5c10.7 10.9 20.1 11.6 24.2 11.2 1.3-0.2 2.1-1.4 1.7-2.6-1.3-3.9-5.6-12.3-19.9-17.8z"/>
					<path class="s5" d="m508.5 64.3c15.3 0.2 22.4-6 25-9.2 0.9-1 0.6-2.4-0.6-3-3.7-1.9-12.7-4.8-26.6 1.5z"/>
					<path class="s5" d="m504.5 51c11-10.7 11.6-20.1 11.2-24.2-0.1-1.3-1.3-2.1-2.5-1.7-3.9 1.3-12.4 5.6-17.8 19.9z"/>
					<path class="s6" d="m485.4 45.1c-5.6-14.3-14.1-18.5-18-19.7-1.2-0.4-2.5 0.4-2.6 1.7-0.3 4.1 0.4 13.6 11.5 24.1z"/>
					<path class="s6" d="m474.6 53.8c-14-6.1-23-3.1-26.6-1.2-1.2 0.6-1.4 2-0.6 3 2.6 3.2 9.8 9.3 25.1 8.9z"/>
					<path class="s6" d="m473.2 67.5c-14.3 5.6-18.5 14.1-19.7 18.1-0.4 1.2 0.4 2.4 1.7 2.5 4.1 0.3 13.5-0.4 24.1-11.5z"/>
					<path class="s6" d="m481.8 78.3c-6 14-3.1 23-1.1 26.7 0.6 1.1 2 1.4 3 0.6 3.1-2.7 9.3-9.9 8.9-25.2z"/>
					<path class="s6" d="m495.6 79.8c5.6 14.2 14.1 18.4 18 19.7 1.2 0.3 2.5-0.5 2.6-1.7 0.3-4.2-0.4-13.6-11.5-24.1z"/>
					<path class="s6" d="m506.4 71.1c14 6.1 23 3.1 26.6 1.2 1.2-0.6 1.4-2.1 0.6-3-2.6-3.2-9.8-9.3-25.1-9z"/>
					<path class="s6" d="m507.9 57.3c14.2-5.6 18.4-14.1 19.6-18 0.4-1.2-0.4-2.4-1.7-2.5-4.1-0.4-13.5 0.4-24.1 11.5z"/>
					<path class="s6" d="m499.2 46.5c6-14 3.1-23 1.1-26.6-0.6-1.1-2-1.4-3-0.6-3.1 2.7-9.3 9.9-8.9 25.2z"/>
					<path class="s6" d="m485.4 45.1c-5.6-14.3-14.1-18.5-18-19.7-1.2-0.4-2.5 0.4-2.6 1.7-0.3 4.1 0.4 13.6 11.5 24.1z"/>
					<path class="s6" d="m474.6 53.8c-14-6.1-23-3.1-26.6-1.2-1.2 0.6-1.4 2-0.6 3 2.6 3.2 9.8 9.3 25.1 8.9z"/>
					<path class="s6" d="m473.2 67.5c-14.3 5.6-18.5 14.1-19.7 18.1-0.4 1.2 0.4 2.4 1.7 2.5 4.1 0.3 13.5-0.4 24.1-11.5z"/>
					<path class="s6" d="m481.8 78.3c-6 14-3.1 23-1.1 26.7 0.6 1.1 2 1.4 3 0.6 3.1-2.7 9.3-9.9 8.9-25.2z"/>
					<path class="s6" d="m495.6 79.8c5.6 14.2 14.1 18.4 18 19.7 1.2 0.3 2.5-0.5 2.6-1.7 0.3-4.2-0.4-13.6-11.5-24.1z"/>
					<path class="s6" d="m506.4 71.1c14 6.1 23 3.1 26.6 1.2 1.2-0.6 1.4-2.1 0.6-3-2.6-3.2-9.8-9.3-25.1-9z"/>
					<path class="s6" d="m507.9 57.3c14.2-5.6 18.4-14.1 19.6-18 0.4-1.2-0.4-2.4-1.7-2.5-4.1-0.4-13.5 0.4-24.1 11.5z"/>
					<path class="s6" d="m499.2 46.5c6-14 3.1-23 1.1-26.6-0.6-1.1-2-1.4-3-0.6-3.1 2.7-9.3 9.9-8.9 25.2z"/>
					<path class="s7" d="m489 44.4c-2.7-15.1-10.1-20.9-13.7-22.9-1.1-0.6-2.5-0.1-2.8 1.2-1.2 3.9-2.4 13.3 6.4 25.9z"/>
					<path class="s7" d="m476.7 50.8c-12.5-8.8-21.9-7.7-25.9-6.6-1.2 0.4-1.8 1.8-1.2 2.9 2 3.6 7.8 11.1 22.9 13.7z"/>
					<path class="s7" d="m472.5 63.9c-15.1 2.7-20.9 10.1-22.9 13.7-0.6 1.1-0.1 2.5 1.1 2.9 4 1.1 13.4 2.3 25.9-6.5z"/>
					<path class="s7" d="m478.8 76.2c-8.8 12.6-7.6 22-6.5 25.9 0.4 1.2 1.7 1.8 2.8 1.2 3.7-2 11.1-7.8 13.8-22.9z"/>
					<path class="s7" d="m492 80.4c2.7 15.1 10.1 21 13.7 23 1.1 0.6 2.5 0 2.8-1.2 1.2-4 2.4-13.4-6.4-25.9z"/>
					<path class="s7" d="m504.3 74.1c12.5 8.8 21.9 7.7 25.9 6.5 1.2-0.3 1.8-1.7 1.2-2.8-2-3.6-7.8-11.1-22.9-13.8z"/>
					<path class="s7" d="m508.5 60.9c15.1-2.6 20.9-10.1 22.9-13.7 0.6-1.1 0.1-2.5-1.1-2.8-4-1.2-13.4-2.3-25.9 6.4z"/>
					<path class="s7" d="m502.2 48.6c8.8-12.5 7.6-21.9 6.5-25.9-0.4-1.2-1.7-1.8-2.8-1.2-3.7 2-11.1 7.8-13.8 22.9z"/>
					<path class="s7" d="m489 44.4c-2.7-15.1-10.1-20.9-13.7-22.9-1.1-0.6-2.5-0.1-2.8 1.2-1.2 3.9-2.4 13.3 6.4 25.9z"/>
					<path class="s7" d="m476.7 50.8c-12.5-8.8-21.9-7.7-25.9-6.6-1.2 0.4-1.8 1.8-1.2 2.9 2 3.6 7.8 11.1 22.9 13.7z"/>
					<path class="s7" d="m472.5 63.9c-15.1 2.7-20.9 10.1-22.9 13.7-0.6 1.1-0.1 2.5 1.1 2.9 4 1.1 13.4 2.3 25.9-6.5z"/>
					<path class="s7" d="m478.8 76.2c-8.8 12.6-7.6 22-6.5 25.9 0.4 1.2 1.7 1.8 2.8 1.2 3.7-2 11.1-7.8 13.8-22.9z"/>
					<path class="s7" d="m492 80.4c2.7 15.1 10.1 21 13.7 23 1.1 0.6 2.5 0 2.8-1.2 1.2-4 2.4-13.4-6.4-25.9z"/>
					<path class="s7" d="m504.3 74.1c12.5 8.8 21.9 7.7 25.9 6.5 1.2-0.3 1.8-1.7 1.2-2.8-2-3.6-7.8-11.1-22.9-13.8z"/>
					<path class="s7" d="m508.5 60.9c15.1-2.6 20.9-10.1 22.9-13.7 0.6-1.1 0.1-2.5-1.1-2.8-4-1.2-13.4-2.3-25.9 6.4z"/>
					<path class="s7" d="m502.2 48.6c8.8-12.5 7.6-21.9 6.5-25.9-0.4-1.2-1.7-1.8-2.8-1.2-3.7 2-11.1 7.8-13.8 22.9z"/>
					<path class="s8" d="m496 45.2c3.3-15-1.4-23.2-4-26.4-0.8-1-2.2-1-3 0-2.6 3.2-7.3 11.4-4 26.4z"/>
					<path class="s8" d="m482.2 46.4c-8.2-12.9-17.4-15.5-21.5-15.9-1.2-0.2-2.3 0.9-2.1 2.1 0.4 4.2 3 13.3 15.8 21.5z"/>
					<path class="s8" d="m473.3 57c-15-3.3-23.2 1.3-26.4 3.9-1 0.8-1 2.3 0 3.1 3.2 2.5 11.4 7.2 26.4 3.9z"/>
					<path class="s8" d="m474.4 70.8c-12.8 8.2-15.4 17.3-15.8 21.4-0.2 1.3 0.9 2.3 2.1 2.2 4.1-0.5 13.2-3 21.5-15.9z"/>
					<path class="s8" d="m485 79.7c-3.3 14.9 1.4 23.1 4 26.4 0.8 1 2.2 1 3 0 2.6-3.3 7.3-11.5 4-26.4z"/>
					<path class="s8" d="m498.8 78.5c8.3 12.9 17.4 15.4 21.5 15.9 1.2 0.1 2.3-0.9 2.1-2.2-0.4-4.1-2.9-13.2-15.8-21.4z"/>
					<path class="s8" d="m507.7 67.9c15 3.3 23.2-1.4 26.4-3.9 1-0.8 1-2.3 0-3.1-3.2-2.6-11.4-7.2-26.4-3.9z"/>
					<path class="s8" d="m506.6 54.1c12.9-8.2 15.4-17.3 15.8-21.5 0.2-1.2-0.9-2.3-2.1-2.1-4.1 0.4-13.2 3-21.5 15.9z"/>
					<path fill-rule="evenodd" class="s9" d="m490.5 83.4c-11.6 0-21-9.4-21-21 0-11.6 9.4-21 21-21 11.6 0 21 9.4 21 21 0 11.6-9.4 21-21 21z"/>
				</g>
			</g>
			<g>
				<g>
					<path class="s0" d="m265.7 255.9c-0.4 0-0.7-0.3-0.7-0.7v-17.4c0-9.1 5-17.3 13-21.4 0.4-0.2 0.8-0.1 1 0.3 0.2 0.3 0 0.7-0.3 0.9-7.6 3.9-12.3 11.7-12.3 20.2v17.4c0 0.4-0.3 0.7-0.7 0.7z"/>
					<g>
						<path class="s1" d="m303.3 205c-7.4 6-6.2 13-14.3 19.7-4.9 4.1-10.9 3-14.7-2.1q-0.8-1.1-1.3-2.3-0.4-0.7-0.6-1.3c-1.7-4.6-0.9-9.8 3.1-12.8 10.5-7.7 27.8-1.2 27.8-1.2z"/>
						<path class="s2" d="m275.1 219.1c0 0-1.1-6.1 1-8.9 0 0-1.1 5.1 0.7 7.4z"/>
						<path class="s2" d="m278.2 216.2c0 0-0.5-6.1 1.9-8.7 0 0-1.6 5 0 7.4z"/>
						<path class="s2" d="m281.9 214.3c0 0 0.7-6.1 3.5-8.2 0 0-2.5 4.6-1.4 7.3z"/>
						<path class="s2" d="m275.1 219.1c0 0 4.9 3.7 8.3 3.2 0 0-5-1.4-6.2-4.1z"/>
						<path class="s2" d="m278.4 216.8c0 0 5.2 3.4 8.6 2.6 0 0-5.2-1-6.6-3.6z"/>
						<path class="s2" d="m282.2 214.7c0 0 5.8 2.3 8.9 0.8 0 0-5.2 0-7.1-2.2z"/>
						<path class="s2" d="m286.7 211.2c0 0 0.5-4.8 2.7-6.4 0 0-2 3.6-1.1 5.7z"/>
						<path class="s2" d="m286.9 211.5c0 0 4.5 1.7 6.9 0.6 0 0-4.1 0-5.5-1.7z"/>
						<path class="s2" d="m291.6 209.3c0 0 0.4-3.5 1.9-4.7 0 0-1.4 2.6-0.8 4.1z"/>
						<path class="s2" d="m291.7 209.5c0 0 3.3 1.2 5 0.4 0 0-2.9 0-3.9-1.2z"/>
						<path class="s0" d="m295.9 207.8c-7 2.9-18.4 10-22.4 13.5q-0.3-0.5-0.5-1-0.1-0.2-0.2-0.3c1.8-1.7 13.9-9.8 22.9-12.8 0.3-0.1 0.5 0.4 0.2 0.6z"/>
					</g>
					<path class="s0" d="m265.7 247.2c-0.4 0-0.7-0.3-0.7-0.7 0-8.6-4.7-16.3-12.3-20.2-0.4-0.2-0.5-0.6-0.3-1 0.2-0.3 0.6-0.5 0.9-0.3 8.1 4.2 13.1 12.4 13.1 21.5 0 0.4-0.3 0.7-0.7 0.7z"/>
					<g>
						<path class="s1" d="m228 213.6c7.5 6 6.3 13 14.4 19.8 4.8 4.1 10.9 2.9 14.7-2.2q0.8-1.1 1.3-2.3 0.3-0.6 0.6-1.3c1.7-4.5 0.9-9.8-3.1-12.7-10.5-7.7-27.9-1.3-27.9-1.3z"/>
						<path class="s2" d="m256.3 227.7c0 0 1.1-6.1-1.1-8.8 0 0 1.2 5.1-0.6 7.4z"/>
						<path class="s2" d="m253.1 224.9c0 0 0.5-6.2-1.8-8.8 0 0 1.6 5.1 0 7.5z"/>
						<path class="s2" d="m249.5 223c0 0-0.7-6.2-3.5-8.3 0 0 2.5 4.7 1.4 7.4z"/>
						<path class="s2" d="m256.3 227.7c0 0-4.9 3.8-8.4 3.3 0 0 5.1-1.5 6.3-4.1z"/>
						<path class="s2" d="m253 225.5c0 0-5.2 3.4-8.6 2.5 0 0 5.2-1 6.6-3.5z"/>
						<path class="s2" d="m249.2 223.3c0 0-5.8 2.3-8.9 0.9 0 0 5.2 0 7.1-2.3z"/>
						<path class="s2" d="m244.7 219.8c0 0-0.5-4.7-2.7-6.4 0 0 2 3.6 1.1 5.7z"/>
						<path class="s2" d="m244.5 220.1c0 0-4.5 1.8-6.9 0.7 0 0 4 0 5.5-1.8z"/>
						<path class="s2" d="m239.8 217.9c0 0-0.4-3.4-1.9-4.6 0 0 1.4 2.6 0.7 4.1z"/>
						<path class="s2" d="m239.6 218.1c0 0-3.2 1.3-5 0.5 0 0 3 0 4-1.3z"/>
						<path class="s0" d="m235.5 216.4c7 2.9 18.4 10 22.4 13.6q0.3-0.5 0.5-1.1 0.1-0.1 0.2-0.2c-1.8-1.8-13.9-9.8-22.9-12.8-0.3-0.1-0.6 0.4-0.2 0.5z"/>
					</g>
				</g>
				<g>
					<path class="s0" d="m261.4 204.4c1-7.8 5.7-14.6 12.8-18.3 0.4-0.2 0.8-0.1 1 0.3 0.2 0.3 0.1 0.8-0.3 1-7.6 3.9-12.3 11.6-12.3 20.1v2.9z"/>
					<g>
						<path class="s1" d="m299.5 174.7c-7.4 6-6.2 13-14.3 19.8-4.8 4-10.9 2.9-14.7-2.2q-0.8-1.1-1.3-2.3-0.4-0.6-0.6-1.3c-1.7-4.6-0.9-9.8 3.1-12.7 10.5-7.7 27.8-1.3 27.8-1.3z"/>
						<path class="s2" d="m271.3 188.8c0 0-1.1-6.1 1-8.9 0 0-1.1 5.2 0.7 7.5z"/>
						<path class="s2" d="m274.4 186c0 0-0.5-6.2 1.9-8.8 0 0-1.6 5 0 7.5z"/>
						<path class="s2" d="m278.1 184c0 0 0.7-6.1 3.5-8.2 0 0-2.5 4.6-1.4 7.3z"/>
						<path class="s2" d="m271.3 188.8c0 0 4.9 3.8 8.3 3.2 0 0-5-1.4-6.2-4.1z"/>
						<path class="s2" d="m274.6 186.6c0 0 5.2 3.3 8.6 2.5 0 0-5.2-1-6.6-3.6z"/>
						<path class="s2" d="m278.4 184.4c0 0 5.8 2.3 8.9 0.8 0 0-5.2 0.1-7.1-2.2z"/>
						<path class="s2" d="m282.9 180.9c0 0 0.5-4.8 2.7-6.4 0 0-2 3.6-1.1 5.7z"/>
						<path class="s2" d="m283.1 181.2c0 0 4.5 1.8 6.9 0.6 0 0-4.1 0-5.5-1.7z"/>
						<path class="s2" d="m287.8 179c0 0 0.4-3.5 1.9-4.6 0 0-1.4 2.6-0.8 4.1z"/>
						<path class="s2" d="m288 179.2c0 0 3.2 1.3 4.9 0.5 0 0-2.9 0-3.9-1.3z"/>
						<path class="s0" d="m292.1 177.5c-7 2.9-18.4 10-22.4 13.5q-0.3-0.5-0.5-1-0.1-0.1-0.2-0.3c1.8-1.7 13.9-9.8 22.9-12.7 0.3-0.2 0.6 0.4 0.2 0.5z"/>
					</g>
				</g>
				<g>
					<path class="s0" d="m261.1 160.4c3.7-4.4 9-7.3 14.9-8.1 0.4 0 0.8 0.2 0.8 0.6 0.1 0.4-0.2 0.8-0.6 0.8-6.1 0.9-11.4 4.1-15 8.8z"/>
					<g>
						<path class="s1" d="m303.7 150c-9 3.2-10.2 10.2-20.1 13.9-6 2.2-11.3-0.9-13.1-7q-0.4-1.3-0.6-2.6 0-0.7-0.1-1.4c0-4.9 2.4-9.5 7.2-11 12.5-3.7 26.7 8.1 26.7 8.1z"/>
						<path class="s2" d="m272.3 153.9c0 0 1.1-6.1 4-8 0 0-2.8 4.4-1.8 7.2z"/>
						<path class="s2" d="m276.3 152.3c0 0 1.6-6 4.6-7.6 0 0-3.1 4.1-2.4 7z"/>
						<path class="s2" d="m280.4 151.7c0 0 2.7-5.6 6-6.6 0 0-3.9 3.5-3.8 6.4z"/>
						<path class="s2" d="m272.4 153.9c0 0 3.3 5.2 6.7 5.8 0 0-4.3-3-4.5-5.9z"/>
						<path class="s2" d="m276.2 152.9c0 0 3.8 4.9 7.2 5.2 0 0-4.5-2.6-5-5.5z"/>
						<path class="s2" d="m280.5 152.1c0 0 4.7 4.1 8.1 3.8 0 0-4.9-1.7-5.9-4.5z"/>
						<path class="s2" d="m285.9 150.3c0 0 2.1-4.3 4.7-5.1 0 0-3 2.7-2.9 5z"/>
						<path class="s2" d="m286 150.7c0 0 3.6 3.1 6.3 2.9 0 0-3.8-1.4-4.6-3.5z"/>
						<path class="s2" d="m291.2 150.2c0 0 1.5-3.2 3.4-3.7 0 0-2.2 1.9-2.2 3.6z"/>
						<path class="s2" d="m291.3 150.4c0 0 2.6 2.3 4.5 2.1 0 0-2.8-1-3.3-2.5z"/>
						<path class="s0" d="m295.8 150.2c-7.7 0.4-20.8 3.3-25.7 5.3q-0.1-0.6-0.2-1.2 0-0.1 0-0.3c2.2-1 16.3-4.6 25.8-4.4 0.4 0 0.4 0.6 0.1 0.6z"/>
					</g>
				</g>
				<g>
					<path class="s1" d="m313.3 122.8c-9 3.2-10.3 10.2-20.2 13.9-5.9 2.2-11.3-0.9-13.1-7q-0.4-1.3-0.5-2.6-0.1-0.7-0.1-1.4c0-4.9 2.4-9.6 7.2-11 12.5-3.7 26.7 8.1 26.7 8.1z"/>
					<path class="s2" d="m281.9 126.7c0 0 1.1-6.1 4-8 0 0-2.8 4.4-1.9 7.2z"/>
					<path class="s2" d="m285.8 125.1c0 0 1.6-6 4.7-7.7 0 0-3.2 4.2-2.5 7.1z"/>
					<path class="s2" d="m289.9 124.5c0 0 2.7-5.6 6.1-6.6 0 0-3.9 3.5-3.8 6.4z"/>
					<path class="s2" d="m281.9 126.7c0.1 0 3.4 5.2 6.8 5.8 0 0-4.3-3-4.5-5.9z"/>
					<path class="s2" d="m285.8 125.7c0 0 3.7 4.9 7.2 5.2 0 0-4.5-2.6-5-5.5z"/>
					<path class="s2" d="m290.1 124.9c0 0 4.6 4.1 8.1 3.8 0 0-4.9-1.8-5.9-4.5z"/>
					<path class="s2" d="m295.5 123.1c0 0 2.1-4.3 4.7-5.1 0 0-3.1 2.7-3 5z"/>
					<path class="s2" d="m295.6 123.4c0 0 3.6 3.2 6.3 3 0 0-3.8-1.4-4.6-3.5z"/>
					<path class="s2" d="m300.7 122.9c0 0 1.6-3.1 3.4-3.7 0 0-2.2 2-2.1 3.6z"/>
					<path class="s2" d="m300.8 123.2c0 0 2.6 2.3 4.6 2.1 0 0-2.8-1-3.4-2.5z"/>
					<path class="s0" d="m305.3 123c-7.6 0.4-20.7 3.3-25.6 5.3q-0.1-0.6-0.2-1.2 0-0.2 0-0.3c2.2-1.1 16.3-4.6 25.8-4.4 0.3 0 0.4 0.6 0 0.6z"/>
				</g>
				<g>
					<path class="s0" d="m260.9 201.3c-1.8-5.6-5.7-10.3-11.1-13.1-0.4-0.2-0.5-0.6-0.4-1 0.2-0.3 0.7-0.5 1-0.3 4.5 2.4 8.1 6 10.4 10.3z"/>
					<g>
						<path class="s1" d="m225.1 175.5c7.4 6 6.2 13 14.4 19.8 4.8 4.1 10.9 2.9 14.6-2.2q0.8-1.1 1.4-2.3 0.3-0.6 0.6-1.3c1.6-4.5 0.9-9.8-3.1-12.7-10.5-7.7-27.9-1.3-27.9-1.3z"/>
						<path class="s2" d="m253.4 189.6c0 0 1-6.1-1.1-8.8 0 0 1.2 5.1-0.7 7.4z"/>
						<path class="s2" d="m250.2 186.8c0 0 0.5-6.2-1.8-8.7 0 0 1.6 5-0.1 7.4z"/>
						<path class="s2" d="m246.5 184.9c0 0-0.6-6.2-3.4-8.3 0 0 2.5 4.7 1.4 7.4z"/>
						<path class="s2" d="m253.3 189.6c0 0-4.8 3.8-8.3 3.3 0 0 5.1-1.5 6.2-4.1z"/>
						<path class="s2" d="m250.1 187.4c0 0-5.2 3.4-8.6 2.5 0 0 5.2-1 6.6-3.5z"/>
						<path class="s2" d="m246.2 185.2c0 0-5.7 2.3-8.9 0.9 0 0 5.3 0 7.1-2.3z"/>
						<path class="s2" d="m241.8 181.7c0 0-0.5-4.7-2.7-6.4 0 0 1.9 3.6 1.1 5.7z"/>
						<path class="s2" d="m241.5 182c0 0-4.4 1.8-6.9 0.7 0 0 4.1 0 5.6-1.8z"/>
						<path class="s2" d="m236.9 179.8c0 0-0.4-3.4-2-4.6 0 0 1.4 2.6 0.8 4.1z"/>
						<path class="s2" d="m236.7 180c0 0-3.2 1.3-5 0.5 0 0 3 0 4-1.3z"/>
						<path class="s0" d="m232.5 178.3c7.1 2.9 18.5 10 22.5 13.6q0.2-0.5 0.5-1.1 0.1-0.1 0.1-0.2c-1.7-1.8-13.8-9.8-22.8-12.8-0.4-0.1-0.6 0.4-0.3 0.5z"/>
					</g>
				</g>
				<g>
					<path class="s0" d="m259.9 170.7c-1.7-5.9-5.7-10.9-11.4-13.8-0.3-0.2-0.5-0.6-0.3-1 0.2-0.3 0.6-0.5 1-0.3 5.1 2.7 9.1 7 11.2 12.1z"/>
					<g>
						<path class="s1" d="m223.9 144.2c7.4 6 6.2 13 14.3 19.8 4.9 4.1 11 2.9 14.7-2.2q0.8-1.1 1.4-2.3 0.3-0.6 0.5-1.3c1.7-4.5 1-9.8-3-12.7-10.6-7.7-27.9-1.3-27.9-1.3z"/>
						<path class="s2" d="m252.2 158.3c0 0 1-6.1-1.1-8.8 0 0 1.1 5.1-0.7 7.4z"/>
						<path class="s2" d="m249 155.5c0 0 0.5-6.2-1.9-8.8 0 0 1.6 5.1 0 7.5z"/>
						<path class="s2" d="m245.3 153.6c0 0-0.7-6.2-3.5-8.3 0 0 2.6 4.7 1.4 7.4z"/>
						<path class="s2" d="m252.1 158.3c0 0-4.9 3.8-8.3 3.3 0 0 5-1.5 6.2-4.1z"/>
						<path class="s2" d="m248.9 156.1c0 0-5.2 3.4-8.6 2.5 0 0 5.1-1 6.5-3.5z"/>
						<path class="s2" d="m245 153.9c0 0-5.7 2.3-8.9 0.9 0 0 5.3 0 7.1-2.3z"/>
						<path class="s2" d="m240.6 150.4c0 0-0.6-4.7-2.7-6.4 0 0 1.9 3.6 1 5.7z"/>
						<path class="s2" d="m240.3 150.7c0 0-4.4 1.8-6.9 0.7 0 0 4.1 0 5.5-1.8z"/>
						<path class="s2" d="m235.7 148.5c0 0-0.4-3.4-2-4.6 0 0 1.4 2.6 0.8 4.1z"/>
						<path class="s2" d="m235.5 148.7c0 0-3.2 1.3-5 0.5 0 0 2.9 0 4-1.3z"/>
						<path class="s0" d="m231.3 147c7.1 2.9 18.4 10 22.4 13.6q0.3-0.5 0.6-1.1 0-0.1 0.1-0.2c-1.7-1.8-13.8-9.8-22.9-12.8-0.3-0.1-0.5 0.4-0.2 0.5z"/>
					</g>
				</g>
				<path class="s0" d="m269.6 134c4.3-5 10.1-8.1 16-8.9 0.4-0.1 0.8 0.2 0.8 0.6 0.1 0.4 0 0.4-0.4 0.5-5.6 1.4-8.4 2.6-11.6 5.3-2.8 2.3-4.8 5.5-5.9 9q-0.5 1.7-1.2 3.5c-9.6 27.6-7.6 41-4.7 61.3 1.8 12.4 4.1 27.8 4.1 50.6h-2c0-22.7-2.2-38-4-50.3-3-20.6-5-34.2 4.8-62.3q1.3-3.9 2.5-8c0.5-1.7 0-3.5-1.2-4.8-1.7-1.6-3.6-3-5.8-4.2-0.3-0.1-0.5-0.6-0.3-0.9 0.2-0.4 0.6-0.5 1-0.3 2.1 1.1 4.4 2.7 6.3 4.5 1.2 1.1 1.8 2.7 1.6 4.4z"/>
				<g>
					<path class="s1" d="m236.4 113.7c7.4 6 6.2 13 14.3 19.8 4.9 4 11 2.9 14.7-2.2q0.8-1.1 1.4-2.3 0.3-0.6 0.5-1.3c1.7-4.6 1-9.8-3-12.7-10.5-7.7-27.9-1.3-27.9-1.3z"/>
					<path class="s2" d="m264.7 127.8c0 0 1-6.1-1.1-8.9 0 0 1.1 5.1-0.7 7.4z"/>
					<path class="s2" d="m261.5 125c0 0 0.5-6.2-1.9-8.8 0 0 1.6 5 0 7.5z"/>
					<path class="s2" d="m257.8 123c0 0-0.7-6.1-3.5-8.2 0 0 2.6 4.6 1.4 7.3z"/>
					<path class="s2" d="m264.6 127.8c0 0-4.9 3.8-8.3 3.2 0 0 5.1-1.4 6.2-4.1z"/>
					<path class="s2" d="m261.4 125.6c0 0-5.2 3.3-8.6 2.5 0 0 5.2-1 6.5-3.6z"/>
					<path class="s2" d="m257.5 123.4c0 0-5.7 2.3-8.9 0.8 0 0 5.3 0.1 7.1-2.2z"/>
					<path class="s2" d="m253.1 119.9c0 0-0.6-4.8-2.7-6.4 0 0 1.9 3.6 1 5.7z"/>
					<path class="s2" d="m252.8 120.2c0 0-4.4 1.8-6.9 0.6 0 0 4.1 0 5.5-1.7z"/>
					<path class="s2" d="m248.2 118c0 0-0.4-3.5-2-4.6 0 0 1.4 2.5 0.8 4.1z"/>
					<path class="s2" d="m248 118.2c0 0-3.2 1.3-5 0.4 0 0 2.9 0.1 4-1.2z"/>
					<path class="s0" d="m243.8 116.5c7.1 2.9 18.4 10 22.4 13.5q0.3-0.5 0.6-1 0-0.1 0.1-0.3c-1.7-1.7-13.8-9.8-22.8-12.8-0.4-0.1-0.6 0.4-0.3 0.6z"/>
				</g>
				<g>
					<path class="s3" d="m230.9 276c-2.4 0-4.4-2-4.4-4.4 0-2.4 2-4.4 4.4-4.4q0 0 0.1 0c0.7-2.2 2.8-3.8 5.2-3.8q0.1 0 0.1 0c0.6-1.7 2.2-2.8 4.1-2.8 0.8 0 1.5 0.1 2.1 0.5 0.8-0.5 1.7-0.7 2.7-0.7q0.3 0 0.6 0c1-1.4 2.6-2.3 4.5-2.3 0.4-0.8 1.3-1.4 2.3-1.4 0.5 0 1 0.2 1.5 0.5 1.1-1.2 2.7-2 4.6-2q0.5 0 1.1 0.1c1.3-1.8 3.5-2.9 5.9-2.9 2.4 0 4.6 1.1 5.9 2.9q0.6-0.1 1.1-0.1c1.8 0 3.5 0.8 4.6 2 0.4-0.3 1-0.5 1.5-0.5 1 0 1.9 0.6 2.3 1.4 1.9 0 3.5 0.9 4.5 2.3q0.3 0 0.6 0c1 0 1.9 0.2 2.7 0.7 0.6-0.4 1.3-0.5 2.1-0.5 1.9 0 3.5 1.1 4.1 2.8q0 0 0.1 0c2.4 0 4.5 1.6 5.2 3.8q0.1 0 0.1 0c2.4 0 4.4 2 4.4 4.4 0 2.4-2 4.4-4.4 4.4z"/>
					<path class="s4" d="m239.1 266.3c0 0 3 0.2 3.7-3.1 0 0 0.2 1.4-0.2 2.5-0.5 1-1.7 1.7-3.5 0.6z"/>
					<path class="s4" d="m292.6 267.1c0 0-3.9 0.3-4.8-3.9 0 0-0.3 1.8 0.3 3.1 0.6 1.4 2.1 2.3 4.5 0.8z"/>
					<path class="s4" d="m264.1 272.1c0 0-3.9 0.2-4.7-3.9 0 0-0.3 1.8 0.3 3.1 0.6 1.4 2.1 2.3 4.4 0.8z"/>
					<path class="s4" d="m258.7 262.1c0 0 3.9 0.2 4.7-3.9 0 0 0.4 1.8-0.2 3.1-0.6 1.4-2.2 2.3-4.5 0.8z"/>
					<path class="s4" d="m283.5 265c-1.1 0.7-2.1 0.8-2.8 0.6-0.4 0.4-0.9 0.6-1.5 0.7-1.3 0.3-2.9-0.5-2.9-0.5 1.5 0.1 2.5-0.4 3.3-1q-0.3-0.3-0.4-0.6c-0.6-1.3-0.3-3-0.3-3 0.3 1.3 0.9 2.2 1.5 2.7q0.4 0.4 0.9 0.6c1.1 0.5 2.2 0.5 2.2 0.5z"/>
					<path class="s4" d="m247.9 263.7c1.2 0.7 2.1 0.8 2.8 0.6 0.4 0.4 0.9 0.6 1.5 0.7 1.4 0.2 3-0.5 3-0.5-1.6 0.1-2.6-0.4-3.3-1q0.2-0.3 0.4-0.6c0.5-1.3 0.2-3 0.2-3-0.2 1.3-0.8 2.1-1.5 2.7q-0.4 0.3-0.8 0.6c-1.2 0.5-2.3 0.5-2.3 0.5z"/>
					<path class="s4" d="m234.8 276c6.2 0 8.1-3.4 8.1-3.4 0 0 1.3 3.4 9 3.4z"/>
					<path class="s4" d="m283.6 276c6.2 0 8-3.4 8-3.4 0 0 0.8 3.4 8.5 3.4z"/>
				</g>
			</g>
			<g>
				<g>
					<g>
						<path class="s0" d="m158 255.9c-0.4 0-0.7-0.3-0.7-0.7v-17.4c0-9.1 5-17.3 13-21.4 0.4-0.2 0.8-0.1 1 0.3 0.2 0.3 0 0.7-0.3 0.9-7.6 3.9-12.3 11.7-12.3 20.2v17.4c0 0.4-0.3 0.7-0.7 0.7z"/>
						<g>
							<path class="s1" d="m195.6 205c-7.4 6-6.2 13-14.3 19.7-4.9 4.1-10.9 3-14.7-2.1q-0.8-1.1-1.3-2.3-0.4-0.7-0.6-1.3c-1.7-4.6-0.9-9.8 3.1-12.8 10.5-7.7 27.8-1.2 27.8-1.2z"/>
							<path class="s2" d="m167.4 219.1c0 0-1.1-6.1 1-8.9 0 0-1.1 5.1 0.7 7.4z"/>
							<path class="s2" d="m170.5 216.2c0 0-0.5-6.1 1.9-8.7 0 0-1.6 5 0 7.4z"/>
							<path class="s2" d="m174.2 214.3c0 0 0.7-6.1 3.5-8.2 0 0-2.5 4.6-1.4 7.3z"/>
							<path class="s2" d="m167.4 219.1c0 0 4.9 3.7 8.3 3.2 0 0-5-1.4-6.2-4.1z"/>
							<path class="s2" d="m170.7 216.8c0 0 5.2 3.4 8.6 2.6 0 0-5.2-1-6.6-3.6z"/>
							<path class="s2" d="m174.5 214.7c0 0 5.8 2.3 8.9 0.8 0 0-5.2 0-7.1-2.2z"/>
							<path class="s2" d="m179 211.2c0 0 0.5-4.8 2.7-6.4 0 0-2 3.6-1.1 5.7z"/>
							<path class="s2" d="m179.2 211.5c0 0 4.5 1.7 6.9 0.6 0 0-4.1 0-5.5-1.7z"/>
							<path class="s2" d="m183.9 209.3c0 0 0.4-3.5 1.9-4.7 0 0-1.4 2.6-0.8 4.1z"/>
							<path class="s2" d="m184 209.5c0 0 3.3 1.2 5 0.4 0 0-2.9 0-3.9-1.2z"/>
							<path class="s0" d="m188.2 207.8c-7 2.9-18.4 10-22.4 13.5q-0.3-0.5-0.5-1-0.1-0.2-0.2-0.3c1.8-1.7 13.9-9.8 22.9-12.8 0.3-0.1 0.6 0.4 0.2 0.6z"/>
						</g>
						<path class="s0" d="m158 247.2c-0.4 0-0.7-0.3-0.7-0.7 0-8.6-4.7-16.3-12.3-20.2-0.4-0.2-0.5-0.6-0.3-1 0.2-0.3 0.6-0.5 0.9-0.3 8.1 4.2 13.1 12.4 13.1 21.5 0 0.4-0.3 0.7-0.7 0.7z"/>
						<g>
							<path class="s1" d="m120.3 213.6c7.5 6 6.3 13 14.4 19.8 4.8 4.1 10.9 2.9 14.7-2.2q0.8-1.1 1.3-2.3 0.3-0.6 0.6-1.3c1.7-4.5 0.9-9.8-3.1-12.7-10.5-7.7-27.9-1.3-27.9-1.3z"/>
							<path class="s2" d="m148.6 227.7c0 0 1.1-6.1-1.1-8.8 0 0 1.2 5.1-0.6 7.4z"/>
							<path class="s2" d="m145.5 224.9c0 0 0.4-6.2-1.9-8.8 0 0 1.6 5.1 0 7.5z"/>
							<path class="s2" d="m141.8 223c0 0-0.7-6.2-3.5-8.3 0 0 2.5 4.7 1.4 7.4z"/>
							<path class="s2" d="m148.6 227.7c0 0-4.9 3.8-8.4 3.3 0 0 5.1-1.5 6.3-4.1z"/>
							<path class="s2" d="m145.3 225.5c0 0-5.2 3.4-8.6 2.5 0 0 5.2-1 6.6-3.5z"/>
							<path class="s2" d="m141.5 223.3c0 0-5.8 2.3-8.9 0.9 0 0 5.2 0 7.1-2.3z"/>
							<path class="s2" d="m137 219.8c0 0-0.5-4.7-2.7-6.4 0 0 2 3.6 1.1 5.7z"/>
							<path class="s2" d="m136.8 220.1c0 0-4.5 1.8-6.9 0.7 0 0 4 0 5.5-1.8z"/>
							<path class="s2" d="m132.1 217.9c0 0-0.4-3.4-1.9-4.6 0 0 1.4 2.6 0.7 4.1z"/>
							<path class="s2" d="m131.9 218.1c0 0-3.2 1.3-5 0.5 0 0 3 0 4-1.3z"/>
							<path class="s0" d="m127.8 216.4c7 2.9 18.4 10 22.4 13.6q0.3-0.5 0.5-1.1 0.1-0.1 0.2-0.2c-1.8-1.8-13.9-9.8-22.9-12.8-0.3-0.1-0.6 0.4-0.2 0.5z"/>
						</g>
					</g>
				</g>
				<g>
					<path class="s3" d="m123.2 276c-2.4 0-4.4-2-4.4-4.4 0-2.4 2-4.4 4.4-4.4q0 0 0.1 0c0.7-2.2 2.8-3.8 5.2-3.8q0.1 0 0.1 0c0.6-1.7 2.2-2.8 4.1-2.8 0.8 0 1.5 0.1 2.1 0.5 0.8-0.5 1.7-0.7 2.7-0.7q0.3 0 0.6 0c1-1.4 2.6-2.3 4.5-2.3 0.4-0.8 1.3-1.4 2.3-1.4 0.5 0 1 0.2 1.5 0.5 1.1-1.2 2.7-2 4.6-2q0.5 0 1.1 0.1c1.3-1.8 3.5-2.9 5.9-2.9 2.4 0 4.6 1.1 5.9 2.9q0.6-0.1 1.1-0.1c1.8 0 3.5 0.8 4.6 2 0.4-0.3 1-0.5 1.5-0.5 1 0 1.9 0.6 2.3 1.4 1.9 0 3.5 0.9 4.5 2.3q0.3 0 0.6 0c1 0 1.9 0.2 2.7 0.7 0.6-0.4 1.3-0.5 2.1-0.5 1.9 0 3.5 1.1 4.1 2.8q0 0 0.1 0c2.4 0 4.5 1.6 5.2 3.8q0.1 0 0.1 0c2.4 0 4.4 2 4.4 4.4 0 2.4-2 4.4-4.4 4.4z"/>
					<path class="s4" d="m131.4 266.3c0 0 3 0.2 3.7-3.1 0 0 0.2 1.4-0.2 2.5-0.5 1-1.7 1.7-3.5 0.6z"/>
					<path class="s4" d="m184.9 267.1c0 0-3.9 0.3-4.8-3.9 0 0-0.3 1.8 0.3 3.1 0.6 1.4 2.1 2.3 4.5 0.8z"/>
					<path class="s4" d="m156.4 272.1c0 0-3.9 0.2-4.7-3.9 0 0-0.3 1.8 0.3 3.1 0.6 1.4 2.1 2.3 4.4 0.8z"/>
					<path class="s4" d="m151 262.1c0 0 3.9 0.2 4.7-3.9 0 0 0.4 1.8-0.2 3.1-0.6 1.4-2.2 2.3-4.5 0.8z"/>
					<path class="s4" d="m175.8 265c-1.1 0.7-2.1 0.8-2.8 0.6-0.4 0.4-0.9 0.6-1.5 0.7-1.3 0.3-2.9-0.5-2.9-0.5 1.5 0.1 2.5-0.4 3.3-1q-0.3-0.3-0.4-0.6c-0.6-1.3-0.3-3-0.3-3 0.3 1.3 0.9 2.2 1.5 2.7q0.4 0.4 0.9 0.6c1.1 0.5 2.2 0.5 2.2 0.5z"/>
					<path class="s4" d="m140.2 263.7c1.2 0.7 2.1 0.8 2.8 0.6 0.4 0.4 1 0.6 1.5 0.7 1.4 0.2 3-0.5 3-0.5-1.5 0.1-2.6-0.4-3.3-1q0.2-0.3 0.4-0.6c0.5-1.3 0.2-3 0.2-3-0.2 1.3-0.8 2.1-1.5 2.7q-0.4 0.3-0.8 0.6c-1.2 0.5-2.3 0.5-2.3 0.5z"/>
					<path class="s4" d="m127.1 276c6.3 0 8.1-3.4 8.1-3.4 0 0 1.3 3.4 9 3.4z"/>
					<path class="s4" d="m175.9 276c6.2 0 8.1-3.4 8.1-3.4 0 0 0.7 3.4 8.4 3.4z"/>
				</g>
			</g>
			<g>
				<path class="s3" d="m15.5 276c-2.4 0-4.4-2-4.4-4.4 0-2.4 2-4.4 4.4-4.4q0 0 0.1 0c0.7-2.2 2.8-3.8 5.2-3.8q0.1 0 0.1 0c0.6-1.7 2.2-2.8 4.1-2.8 0.8 0 1.5 0.1 2.1 0.5 0.8-0.5 1.7-0.7 2.7-0.7q0.3 0 0.6 0c1-1.4 2.6-2.3 4.5-2.3 0.4-0.8 1.3-1.4 2.3-1.4 0.5 0 1 0.2 1.5 0.5 1.1-1.2 2.7-2 4.6-2q0.5 0 1.1 0.1c1.3-1.8 3.5-2.9 5.9-2.9 2.4 0 4.6 1.1 5.9 2.9q0.6-0.1 1.1-0.1c1.8 0 3.5 0.8 4.6 2 0.4-0.3 1-0.5 1.5-0.5 1 0 1.9 0.6 2.3 1.4 1.9 0 3.5 0.9 4.5 2.3q0.3 0 0.6 0c1 0 1.9 0.2 2.7 0.7 0.6-0.4 1.3-0.5 2.1-0.5 1.9 0 3.5 1.1 4.1 2.8q0 0 0.1 0c2.4 0 4.5 1.6 5.2 3.8q0.1 0 0.1 0c2.4 0 4.4 2 4.4 4.4 0 2.4-2 4.4-4.4 4.4z"/>
				<path class="s4" d="m23.7 266.3c0 0 3 0.2 3.7-3.1 0 0 0.2 1.4-0.2 2.5-0.5 1-1.7 1.7-3.5 0.6z"/>
				<path class="s4" d="m77.2 267.1c0 0-3.9 0.3-4.8-3.9 0 0-0.3 1.8 0.3 3.1 0.6 1.4 2.1 2.3 4.5 0.8z"/>
				<path class="s4" d="m48.7 272.1c0 0-3.9 0.2-4.7-3.9 0 0-0.3 1.8 0.3 3.1 0.6 1.4 2.1 2.3 4.4 0.8z"/>
				<path class="s4" d="m43.3 262.1c0 0 3.9 0.2 4.7-3.9 0 0 0.4 1.8-0.2 3.1-0.6 1.4-2.2 2.3-4.5 0.8z"/>
				<path class="s4" d="m68.1 265c-1.1 0.7-2.1 0.8-2.8 0.6-0.4 0.4-0.9 0.6-1.5 0.7-1.3 0.3-2.9-0.5-2.9-0.5 1.5 0.1 2.5-0.4 3.3-1q-0.3-0.3-0.4-0.6c-0.6-1.3-0.3-3-0.3-3 0.3 1.3 0.9 2.2 1.5 2.7q0.4 0.4 0.9 0.6c1.1 0.5 2.2 0.5 2.2 0.5z"/>
				<path class="s4" d="m32.5 263.7c1.2 0.7 2.1 0.8 2.8 0.6 0.4 0.4 1 0.6 1.5 0.7 1.4 0.2 3-0.5 3-0.5-1.5 0.1-2.6-0.4-3.3-1q0.2-0.3 0.4-0.6c0.5-1.3 0.2-3 0.2-3-0.2 1.3-0.8 2.1-1.5 2.7q-0.4 0.3-0.8 0.6c-1.2 0.5-2.3 0.5-2.3 0.5z"/>
				<path class="s4" d="m19.4 276c6.3 0 8.1-3.4 8.1-3.4 0 0 1.3 3.4 9 3.4z"/>
				<path class="s4" d="m68.2 276c6.2 0 8.1-3.4 8.1-3.4 0 0 0.7 3.4 8.4 3.4z"/>
			</g>
			<g>
				<g>
					<path class="s0" d="m374.4 255.9h-2c0-22.7-2.2-38-4-50.3-3-20.6-5-34.2 4.8-62.3 5.3-15.4 8.5-33.1 9.3-52.4h2c-0.9 19.6-4 37.5-9.5 53.1-9.6 27.6-7.6 41-4.7 61.3 1.8 12.4 4.1 27.8 4.1 50.6z"/>
					<g>
						<path class="s0" d="m373.4 255.9c-0.4 0-0.7-0.3-0.7-0.7v-17.4c0-9.1 5-17.3 13-21.4 0.4-0.2 0.8-0.1 1 0.3 0.2 0.3 0 0.7-0.3 0.9-7.6 3.9-12.3 11.7-12.3 20.2v17.4c0 0.4-0.3 0.7-0.7 0.7z"/>
						<g>
							<path class="s1" d="m411 205c-7.4 6-6.2 13-14.3 19.7-4.9 4.1-10.9 3-14.7-2.1q-0.8-1.1-1.3-2.3-0.4-0.7-0.6-1.3c-1.7-4.6-0.9-9.8 3-12.8 10.6-7.7 27.9-1.2 27.9-1.2z"/>
							<path class="s2" d="m382.8 219.1c0 0-1.1-6.1 1-8.9 0 0-1.1 5.1 0.7 7.4z"/>
							<path class="s2" d="m385.9 216.2c0 0-0.5-6.1 1.9-8.7 0 0-1.6 5 0 7.4z"/>
							<path class="s2" d="m389.6 214.3c0 0 0.7-6.1 3.5-8.2 0 0-2.5 4.6-1.4 7.3z"/>
							<path class="s2" d="m382.8 219.1c0 0 4.9 3.7 8.3 3.2 0 0-5-1.4-6.2-4.1z"/>
							<path class="s2" d="m386.1 216.8c0 0 5.2 3.4 8.5 2.6 0 0-5.1-1-6.5-3.6z"/>
							<path class="s2" d="m389.9 214.7c0 0 5.8 2.3 8.9 0.8 0 0-5.2 0-7.1-2.2z"/>
							<path class="s2" d="m394.4 211.2c0 0 0.5-4.8 2.7-6.4 0 0-2 3.6-1.1 5.7z"/>
							<path class="s2" d="m394.6 211.5c0 0 4.5 1.7 6.9 0.6 0 0-4.1 0-5.5-1.7z"/>
							<path class="s2" d="m399.3 209.3c0 0 0.4-3.5 1.9-4.7 0 0-1.4 2.6-0.8 4.1z"/>
							<path class="s2" d="m399.4 209.5c0 0 3.3 1.2 5 0.4 0 0-2.9 0-4-1.2z"/>
							<path class="s0" d="m403.6 207.8c-7 2.9-18.4 10-22.4 13.5q-0.3-0.5-0.6-1 0-0.2-0.1-0.3c1.8-1.7 13.9-9.8 22.9-12.8 0.3-0.1 0.5 0.4 0.2 0.6z"/>
						</g>
						<path class="s0" d="m373.4 247.2c-0.4 0-0.7-0.3-0.7-0.7 0-8.6-4.7-16.3-12.3-20.2-0.4-0.2-0.5-0.6-0.3-1 0.2-0.3 0.6-0.5 0.9-0.3 8.1 4.2 13.1 12.4 13.1 21.5 0 0.4-0.3 0.7-0.7 0.7z"/>
						<g>
							<path class="s1" d="m335.7 213.6c7.5 6 6.3 13 14.4 19.8 4.8 4.1 10.9 2.9 14.7-2.2q0.8-1.1 1.3-2.3 0.3-0.6 0.6-1.3c1.7-4.5 0.9-9.8-3.1-12.7-10.5-7.7-27.9-1.3-27.9-1.3z"/>
							<path class="s2" d="m364 227.7c0 0 1.1-6.1-1.1-8.8 0 0 1.2 5.1-0.6 7.4z"/>
							<path class="s2" d="m360.8 224.9c0 0 0.5-6.2-1.8-8.8 0 0 1.6 5.1 0 7.5z"/>
							<path class="s2" d="m357.2 223c0 0-0.7-6.2-3.5-8.3 0 0 2.5 4.7 1.4 7.4z"/>
							<path class="s2" d="m364 227.7c0 0-4.9 3.8-8.4 3.3 0 0 5.1-1.5 6.3-4.1z"/>
							<path class="s2" d="m360.7 225.5c0 0-5.2 3.4-8.6 2.5 0 0 5.2-1 6.6-3.5z"/>
							<path class="s2" d="m356.9 223.3c0 0-5.8 2.3-8.9 0.9 0 0 5.2 0 7.1-2.3z"/>
							<path class="s2" d="m352.4 219.8c0 0-0.5-4.7-2.7-6.4 0 0 2 3.6 1.1 5.7z"/>
							<path class="s2" d="m352.2 220.1c0 0-4.5 1.8-6.9 0.7 0 0 4 0 5.5-1.8z"/>
							<path class="s2" d="m347.5 217.9c0 0-0.4-3.4-1.9-4.6 0 0 1.4 2.6 0.7 4.1z"/>
							<path class="s2" d="m347.3 218.1c0 0-3.2 1.3-5 0.5 0 0 3 0 4-1.3z"/>
							<path class="s0" d="m343.2 216.4c7 2.9 18.4 10 22.4 13.6q0.3-0.5 0.5-1.1 0.1-0.1 0.2-0.2c-1.8-1.8-13.9-9.8-22.9-12.8-0.3-0.1-0.6 0.4-0.2 0.5z"/>
						</g>
					</g>
					<g>
						<path class="s0" d="m369.1 204.4c1-7.8 5.7-14.6 12.8-18.3 0.4-0.2 0.8-0.1 1 0.3 0.2 0.3 0 0.8-0.3 1-7.6 3.9-12.3 11.6-12.3 20.1v2.9z"/>
						<g>
							<path class="s1" d="m407.2 174.7c-7.4 6-6.2 13-14.3 19.8-4.9 4-10.9 2.9-14.7-2.2q-0.8-1.1-1.3-2.3-0.4-0.6-0.6-1.3c-1.7-4.6-0.9-9.8 3.1-12.7 10.5-7.7 27.8-1.3 27.8-1.3z"/>
							<path class="s2" d="m379 188.8c0 0-1.1-6.1 1-8.9 0 0-1.1 5.2 0.7 7.5z"/>
							<path class="s2" d="m382.1 186c0 0-0.5-6.2 1.9-8.8 0 0-1.6 5 0 7.5z"/>
							<path class="s2" d="m385.8 184c0 0 0.7-6.1 3.5-8.2 0 0-2.5 4.6-1.4 7.3z"/>
							<path class="s2" d="m379 188.8c0 0 4.9 3.8 8.3 3.2 0 0-5-1.4-6.2-4.1z"/>
							<path class="s2" d="m382.3 186.6c0 0 5.2 3.3 8.6 2.5 0 0-5.2-1-6.6-3.6z"/>
							<path class="s2" d="m386.1 184.4c0 0 5.8 2.3 8.9 0.8 0 0-5.2 0.1-7.1-2.2z"/>
							<path class="s2" d="m390.6 180.9c0 0 0.5-4.8 2.7-6.4 0 0-2 3.6-1.1 5.7z"/>
							<path class="s2" d="m390.8 181.2c0 0 4.5 1.8 6.9 0.6 0 0-4.1 0-5.5-1.7z"/>
							<path class="s2" d="m395.5 179c0 0 0.4-3.5 1.9-4.6 0 0-1.4 2.6-0.8 4.1z"/>
							<path class="s2" d="m395.7 179.2c0 0 3.2 1.3 4.9 0.5 0 0-2.9 0-3.9-1.3z"/>
							<path class="s0" d="m399.8 177.5c-7 2.9-18.4 10-22.4 13.5q-0.3-0.5-0.5-1-0.1-0.1-0.2-0.3c1.8-1.7 13.9-9.8 22.9-12.7 0.3-0.2 0.6 0.4 0.2 0.5z"/>
						</g>
					</g>
					<g>
						<path class="s0" d="m368.8 160.4c3.7-4.4 9-7.3 14.9-8.1 0.4 0 0.8 0.2 0.8 0.6 0.1 0.4-0.2 0.8-0.6 0.8-6.1 0.9-11.4 4.1-15 8.8z"/>
						<g>
							<path class="s1" d="m411.4 150c-9 3.2-10.2 10.2-20.1 13.9-6 2.2-11.3-0.9-13.1-7q-0.4-1.3-0.6-2.6 0-0.7-0.1-1.4c0-4.9 2.4-9.5 7.2-11 12.5-3.7 26.7 8.1 26.7 8.1z"/>
							<path class="s2" d="m380 153.9c0 0 1.1-6.1 4-8 0 0-2.8 4.4-1.9 7.2z"/>
							<path class="s2" d="m384 152.3c0 0 1.6-6 4.6-7.6 0 0-3.1 4.1-2.4 7z"/>
							<path class="s2" d="m388.1 151.7c0 0 2.7-5.6 6-6.6 0 0-3.9 3.5-3.8 6.4z"/>
							<path class="s2" d="m380.1 153.9c0 0 3.3 5.2 6.7 5.8 0 0-4.3-3-4.5-5.9z"/>
							<path class="s2" d="m383.9 152.9c0 0 3.8 4.9 7.2 5.2 0 0-4.5-2.6-5-5.5z"/>
							<path class="s2" d="m388.2 152.1c0 0 4.7 4.1 8.1 3.8 0 0-4.9-1.7-5.9-4.5z"/>
							<path class="s2" d="m393.6 150.3c0 0 2.1-4.3 4.7-5.1 0 0-3 2.7-2.9 5z"/>
							<path class="s2" d="m393.7 150.7c0 0 3.6 3.1 6.3 2.9 0 0-3.8-1.4-4.6-3.5z"/>
							<path class="s2" d="m398.9 150.2c0 0 1.5-3.2 3.3-3.7 0 0-2.1 1.9-2.1 3.6z"/>
							<path class="s2" d="m399 150.4c0 0 2.6 2.3 4.5 2.1 0 0-2.8-1-3.3-2.5z"/>
							<path class="s0" d="m403.5 150.2c-7.7 0.4-20.8 3.3-25.7 5.3q-0.1-0.6-0.2-1.2 0-0.1 0-0.3c2.2-1 16.3-4.6 25.8-4.4 0.4 0 0.4 0.6 0.1 0.6z"/>
						</g>
					</g>
					<g>
						<path class="s0" d="m375.7 136.9c3.7-6.4 10.1-10.8 17.6-11.8 0.4-0.1 0.8 0.2 0.8 0.6 0.1 0.4-0.2 0.8-0.6 0.8-7.6 1-14 5.7-17.3 12.5z"/>
						<g>
							<path class="s1" d="m421 122.8c-9 3.2-10.3 10.2-20.2 13.9-5.9 2.2-11.3-0.9-13.1-7q-0.4-1.3-0.5-2.6-0.1-0.7-0.1-1.4c0-4.9 2.4-9.6 7.2-11 12.5-3.7 26.7 8.1 26.7 8.1z"/>
							<path class="s2" d="m389.6 126.7c0 0 1.1-6.1 4-8 0 0-2.8 4.4-1.9 7.2z"/>
							<path class="s2" d="m393.5 125.1c0 0 1.6-6 4.7-7.7 0 0-3.2 4.2-2.5 7.1z"/>
							<path class="s2" d="m397.6 124.5c0 0 2.7-5.6 6.1-6.6 0 0-3.9 3.5-3.8 6.4z"/>
							<path class="s2" d="m389.6 126.7c0 0 3.4 5.2 6.8 5.8 0 0-4.3-3-4.5-5.9z"/>
							<path class="s2" d="m393.5 125.7c0 0 3.7 4.9 7.2 5.2 0 0-4.5-2.6-5-5.5z"/>
							<path class="s2" d="m397.8 124.9c0 0 4.6 4.1 8.1 3.8 0 0-4.9-1.8-5.9-4.5z"/>
							<path class="s2" d="m403.2 123.1c0 0 2.1-4.3 4.7-5.1 0 0-3.1 2.7-3 5z"/>
							<path class="s2" d="m403.3 123.4c0 0 3.6 3.2 6.3 3 0 0-3.8-1.4-4.6-3.5z"/>
							<path class="s2" d="m408.4 122.9c0 0 1.6-3.1 3.4-3.7 0 0-2.2 2-2.1 3.6z"/>
							<path class="s2" d="m408.5 123.2c0 0 2.6 2.3 4.6 2.1 0 0-2.8-1-3.4-2.5z"/>
							<path class="s0" d="m413 123c-7.6 0.4-20.7 3.3-25.6 5.3q-0.1-0.6-0.2-1.2 0-0.2 0-0.3c2.2-1.1 16.3-4.6 25.8-4.4 0.3 0 0.4 0.6 0 0.6z"/>
						</g>
					</g>
					<g>
						<path class="s0" d="m368.6 201.3c-1.8-5.6-5.7-10.3-11.1-13.1-0.4-0.2-0.5-0.6-0.4-1 0.2-0.3 0.7-0.5 1-0.3 4.5 2.4 8.1 6 10.4 10.3z"/>
						<g>
							<path class="s1" d="m332.8 175.5c7.4 6 6.2 13 14.3 19.8 4.9 4.1 11 2.9 14.7-2.2q0.8-1.1 1.4-2.3 0.3-0.6 0.6-1.3c1.6-4.5 0.9-9.8-3.1-12.7-10.5-7.7-27.9-1.3-27.9-1.3z"/>
							<path class="s2" d="m361.1 189.6c0 0 1-6.1-1.1-8.8 0 0 1.2 5.1-0.7 7.4z"/>
							<path class="s2" d="m357.9 186.8c0 0 0.5-6.2-1.8-8.7 0 0 1.6 5-0.1 7.4z"/>
							<path class="s2" d="m354.2 184.9c0 0-0.6-6.2-3.4-8.3 0 0 2.5 4.7 1.4 7.4z"/>
							<path class="s2" d="m361 189.6c0 0-4.8 3.8-8.3 3.3 0 0 5.1-1.5 6.2-4.1z"/>
							<path class="s2" d="m357.8 187.4c0 0-5.2 3.4-8.6 2.5 0 0 5.2-1 6.6-3.5z"/>
							<path class="s2" d="m353.9 185.2c0 0-5.7 2.3-8.9 0.9 0 0 5.3 0 7.1-2.3z"/>
							<path class="s2" d="m349.5 181.7c0 0-0.6-4.7-2.7-6.4 0 0 1.9 3.6 1.1 5.7z"/>
							<path class="s2" d="m349.2 182c0 0-4.4 1.8-6.9 0.7 0 0 4.1 0 5.6-1.8z"/>
							<path class="s2" d="m344.6 179.8c0 0-0.4-3.4-2-4.6 0 0 1.4 2.6 0.8 4.1z"/>
							<path class="s2" d="m344.4 180c0 0-3.2 1.3-5 0.5 0 0 3 0 4-1.3z"/>
							<path class="s0" d="m340.2 178.3c7.1 2.9 18.5 10 22.5 13.6q0.2-0.5 0.5-1.1 0.1-0.1 0.1-0.2c-1.7-1.8-13.8-9.8-22.8-12.8-0.4-0.1-0.6 0.4-0.3 0.5z"/>
						</g>
					</g>
					<g>
						<path class="s0" d="m367.6 170.7c-1.7-5.9-5.7-10.9-11.4-13.8-0.3-0.2-0.5-0.6-0.3-1 0.2-0.3 0.6-0.5 1-0.3 5.1 2.7 9 7 11.2 12.1z"/>
						<g>
							<path class="s1" d="m331.6 144.2c7.4 6 6.2 13 14.3 19.8 4.9 4.1 11 2.9 14.7-2.2q0.8-1.1 1.4-2.3 0.3-0.6 0.5-1.3c1.7-4.5 1-9.8-3-12.7-10.6-7.7-27.9-1.3-27.9-1.3z"/>
							<path class="s2" d="m359.9 158.3c0 0 1-6.1-1.1-8.8 0 0 1.1 5.1-0.7 7.4z"/>
							<path class="s2" d="m356.7 155.5c0 0 0.5-6.2-1.9-8.8 0 0 1.6 5.1 0 7.5z"/>
							<path class="s2" d="m353 153.6c0 0-0.7-6.2-3.5-8.3 0 0 2.5 4.7 1.4 7.4z"/>
							<path class="s2" d="m359.8 158.3c0 0-4.9 3.8-8.3 3.3 0 0 5-1.5 6.2-4.1z"/>
							<path class="s2" d="m356.6 156.1c0 0-5.2 3.4-8.6 2.5 0 0 5.1-1 6.5-3.5z"/>
							<path class="s2" d="m352.7 153.9c0 0-5.7 2.3-8.9 0.9 0 0 5.3 0 7.1-2.3z"/>
							<path class="s2" d="m348.3 150.4c0 0-0.6-4.7-2.7-6.4 0 0 1.9 3.6 1 5.7z"/>
							<path class="s2" d="m348 150.7c0 0-4.4 1.8-6.9 0.7 0 0 4.1 0 5.5-1.8z"/>
							<path class="s2" d="m343.4 148.5c0 0-0.4-3.4-2-4.6 0 0 1.4 2.6 0.8 4.1z"/>
							<path class="s2" d="m343.2 148.7c0 0-3.2 1.3-5 0.5 0 0 2.9 0 4-1.3z"/>
							<path class="s0" d="m339 147c7.1 2.9 18.4 10 22.4 13.6q0.3-0.5 0.6-1.1 0-0.1 0.1-0.2c-1.7-1.8-13.8-9.8-22.9-12.8-0.3-0.1-0.5 0.4-0.2 0.5z"/>
						</g>
					</g>
					<g>
						<path class="s0" d="m377.1 133.7c-2.1-3-4.9-5.6-8.4-7.4-0.3-0.1-0.5-0.6-0.3-0.9 0.2-0.4 0.6-0.5 1-0.3 3.3 1.7 6.1 4.1 8.3 7z"/>
						<g>
							<path class="s1" d="m344.1 113.7c7.4 6 6.2 13 14.3 19.8 4.9 4 11 2.9 14.7-2.2q0.8-1.1 1.4-2.3 0.3-0.6 0.5-1.3c1.7-4.6 1-9.8-3-12.7-10.5-7.7-27.9-1.3-27.9-1.3z"/>
							<path class="s2" d="m372.4 127.8c0 0 1-6.1-1.1-8.9 0 0 1.1 5.1-0.7 7.4z"/>
							<path class="s2" d="m369.2 125c0 0 0.5-6.2-1.9-8.8 0 0 1.6 5 0 7.5z"/>
							<path class="s2" d="m365.5 123c0 0-0.7-6.1-3.5-8.2 0 0 2.6 4.6 1.4 7.3z"/>
							<path class="s2" d="m372.3 127.8c0 0-4.9 3.8-8.3 3.2 0 0 5.1-1.4 6.2-4.1z"/>
							<path class="s2" d="m369.1 125.6c0 0-5.2 3.3-8.6 2.5 0 0 5.1-1 6.5-3.6z"/>
							<path class="s2" d="m365.2 123.4c0 0-5.7 2.3-8.9 0.8 0 0 5.3 0.1 7.1-2.2z"/>
							<path class="s2" d="m360.8 119.9c0 0-0.6-4.8-2.7-6.4 0 0 1.9 3.6 1 5.7z"/>
							<path class="s2" d="m360.5 120.2c0 0-4.4 1.8-6.9 0.6 0 0 4.1 0 5.5-1.7z"/>
							<path class="s2" d="m355.9 118c0 0-0.4-3.5-2-4.6 0 0 1.4 2.5 0.8 4.1z"/>
							<path class="s2" d="m355.7 118.2c0 0-3.2 1.3-5 0.4 0 0 2.9 0.1 4-1.2z"/>
							<path class="s0" d="m351.5 116.5c7.1 2.9 18.4 10 22.4 13.5q0.3-0.5 0.6-1 0-0.1 0.1-0.3c-1.7-1.7-13.8-9.8-22.8-12.8-0.4-0.1-0.6 0.4-0.3 0.6z"/>
						</g>
					</g>
				</g>
				<g>
					<path class="s3" d="m338.6 276c-2.4 0-4.4-2-4.4-4.4 0-2.4 2-4.4 4.4-4.4q0 0 0.1 0c0.7-2.2 2.8-3.8 5.2-3.8q0.1 0 0.1 0c0.6-1.7 2.2-2.8 4.1-2.8 0.8 0 1.5 0.1 2.1 0.5 0.8-0.5 1.7-0.7 2.7-0.7q0.3 0 0.6 0c1-1.4 2.6-2.3 4.5-2.3 0.4-0.8 1.3-1.4 2.3-1.4 0.5 0 1 0.2 1.5 0.5 1.1-1.2 2.7-2 4.6-2q0.5 0 1.1 0.1c1.3-1.8 3.5-2.9 5.9-2.9 2.4 0 4.6 1.1 5.9 2.9q0.6-0.1 1.1-0.1c1.8 0 3.5 0.8 4.6 2 0.4-0.3 1-0.5 1.5-0.5 1 0 1.9 0.6 2.3 1.4 1.9 0 3.5 0.9 4.5 2.3q0.3 0 0.6 0c1 0 1.9 0.2 2.7 0.7 0.6-0.4 1.3-0.5 2.1-0.5 1.9 0 3.5 1.1 4.1 2.8q0 0 0.1 0c2.4 0 4.5 1.6 5.2 3.8q0.1 0 0.1 0c2.4 0 4.4 2 4.4 4.4 0 2.4-2 4.4-4.4 4.4z"/>
					<path class="s4" d="m346.8 266.3c0 0 3 0.2 3.7-3.1 0 0 0.2 1.4-0.2 2.5-0.5 1-1.7 1.7-3.5 0.6z"/>
					<path class="s4" d="m400.3 267.1c0 0-3.9 0.3-4.8-3.9 0 0-0.3 1.8 0.3 3.1 0.6 1.4 2.1 2.3 4.5 0.8z"/>
					<path class="s4" d="m371.8 272.1c0 0-3.9 0.2-4.7-3.9 0 0-0.3 1.8 0.3 3.1 0.6 1.4 2.1 2.3 4.4 0.8z"/>
					<path class="s4" d="m366.4 262.1c0 0 3.9 0.2 4.7-3.9 0 0 0.4 1.8-0.2 3.1-0.6 1.4-2.2 2.3-4.5 0.8z"/>
					<path class="s4" d="m391.2 265c-1.1 0.7-2.1 0.8-2.8 0.6-0.4 0.4-0.9 0.6-1.5 0.7-1.3 0.3-2.9-0.5-2.9-0.5 1.5 0.1 2.5-0.4 3.3-1q-0.3-0.3-0.4-0.6c-0.6-1.3-0.3-3-0.3-3 0.3 1.3 0.9 2.2 1.5 2.7q0.4 0.4 0.9 0.6c1.1 0.5 2.2 0.5 2.2 0.5z"/>
					<path class="s4" d="m355.6 263.7c1.2 0.7 2.1 0.8 2.8 0.6 0.4 0.4 0.9 0.6 1.5 0.7 1.4 0.2 2.9-0.5 2.9-0.5-1.5 0.1-2.5-0.4-3.2-1q0.2-0.3 0.4-0.6c0.5-1.3 0.2-3 0.2-3-0.2 1.3-0.8 2.1-1.5 2.7q-0.4 0.3-0.8 0.6c-1.2 0.5-2.3 0.5-2.3 0.5z"/>
					<path class="s4" d="m342.5 276c6.2 0 8.1-3.4 8.1-3.4 0 0 1.3 3.4 9 3.4z"/>
					<path class="s4" d="m391.3 276c6.2 0 8-3.4 8-3.4 0 0 0.8 3.4 8.5 3.4z"/>
				</g>
				<g>
					<path class="s8" d="m372.5 80.4c3.3-8.6 12.9-12.9 21.5-9.6 8.5 3.3 12.8 12.9 9.5 21.5z"/>
					<path class="s1" d="m413 84.6c0 0-4.1 1.7-7.2 9.7-3.7 9.8-14.7 14.7-24.5 10.9-9.7-3.7-14.6-14.7-10.8-24.5 2.8-7.3-2.9-12.6-2.9-12.6 0 0 9.2 2.2 12.7 10 1.4-1.3 3.2-2.3 5.5-2.5 0 0 0.6 2.5 3.2 5.6 1.4-2 2.2-4.2 2.2-4.2 0 0 1.1 2 1.4 4.3 1.2-0.5 2.6-1.3 3.6-2.3 0 0 2 3.4 1.3 9.3 3.3-2.7 9.1-6 15.5-3.7z"/>
				</g>
			</g>
		</g>
	</g>
</svg>