<svg version="1.2" xmlns="http://www.w3.org/2000/svg" viewBox="0 0 102 299" width="102" height="299">
	<title>34295180_sunflower_growth</title>
	<style>
		.s0 { fill: #8bbc4a } 
		.s1 { fill: #9cd83d } 
		.s2 { fill: #98c939 } 
		.s3 { fill: #5e3430 } 
		.s4 { fill: #492523 } 
		.s5 { fill: #f7df2f } 
		.s6 { fill: #e2bd20 } 
		.s7 { fill: #efca30 } 
		.s8 { fill: #ffee42 } 
		.s9 { fill: #502318 } 
	</style>
	<g id="objects">
		<g>
			<g>
				<g>
					<path class="s0" d="m373.1 256.9h-2c0-22.7-2.2-38-4-50.3-3-20.6-5-34.2 4.8-62.3 5.3-15.4 8.5-33.1 9.3-52.4h2c-0.9 19.6-4 37.5-9.5 53.1-9.6 27.6-7.6 41-4.7 61.3 1.8 12.4 4.1 27.8 4.1 50.6z"/>
					<g>
						<path class="s0" d="m372.1 256.9c-0.4 0-0.7-0.3-0.7-0.7v-17.4c0-9.1 5-17.3 13-21.4 0.4-0.2 0.8-0.1 1 0.3 0.2 0.3 0 0.7-0.3 0.9-7.6 3.9-12.3 11.7-12.3 20.2v17.4c0 0.4-0.3 0.7-0.7 0.7z"/>
						<g>
							<path class="s1" d="m409.7 206c-7.4 6-6.2 13-14.3 19.7-4.9 4.1-10.9 3-14.7-2.1q-0.8-1.1-1.4-2.3-0.3-0.7-0.5-1.3c-1.7-4.6-1-9.8 3-12.8 10.6-7.7 27.9-1.2 27.9-1.2z"/>
							<path class="s2" d="m381.5 220.1c0 0-1.1-6.1 1-8.9 0 0-1.1 5.1 0.7 7.4z"/>
							<path class="s2" d="m384.6 217.2c0 0-0.5-6.1 1.9-8.7 0 0-1.6 5 0 7.4z"/>
							<path class="s2" d="m388.3 215.3c0 0 0.7-6.1 3.5-8.2 0 0-2.5 4.6-1.4 7.3z"/>
							<path class="s2" d="m381.5 220.1c0 0 4.9 3.7 8.3 3.2 0 0-5-1.4-6.2-4.1z"/>
							<path class="s2" d="m384.8 217.8c0 0 5.2 3.4 8.5 2.6 0 0-5.1-1-6.5-3.6z"/>
							<path class="s2" d="m388.6 215.7c0 0 5.8 2.3 8.9 0.8 0 0-5.2 0-7.1-2.2z"/>
							<path class="s2" d="m393.1 212.2c0 0 0.5-4.8 2.7-6.4 0 0-2 3.6-1.1 5.7z"/>
							<path class="s2" d="m393.3 212.5c0 0 4.5 1.7 6.9 0.6 0 0-4.1 0-5.5-1.7z"/>
							<path class="s2" d="m398 210.3c0 0 0.4-3.5 1.9-4.7 0 0-1.4 2.6-0.8 4.1z"/>
							<path class="s2" d="m398.1 210.5c0 0 3.3 1.2 5 0.4 0 0-2.9 0-4-1.2z"/>
							<path class="s0" d="m402.3 208.8c-7.1 2.9-18.4 10-22.4 13.5q-0.3-0.5-0.6-1 0-0.2-0.1-0.3c1.8-1.7 13.9-9.8 22.9-12.8 0.3-0.1 0.5 0.4 0.2 0.6z"/>
						</g>
						<path class="s0" d="m372.1 248.2c-0.4 0-0.7-0.3-0.7-0.7 0-8.6-4.7-16.3-12.3-20.2-0.4-0.2-0.5-0.6-0.3-1 0.2-0.3 0.6-0.5 0.9-0.3 8.1 4.2 13.1 12.4 13.1 21.5 0 0.4-0.3 0.7-0.7 0.7z"/>
						<g>
							<path class="s1" d="m334.4 214.6c7.5 6 6.3 13 14.4 19.8 4.8 4.1 10.9 2.9 14.7-2.2q0.8-1.1 1.3-2.3 0.3-0.6 0.6-1.3c1.7-4.5 0.9-9.8-3.1-12.7-10.5-7.7-27.9-1.3-27.9-1.3z"/>
							<path class="s2" d="m362.7 228.7c0 0 1.1-6.1-1.1-8.8 0 0 1.2 5.1-0.6 7.4z"/>
							<path class="s2" d="m359.5 225.9c0 0 0.5-6.2-1.8-8.8 0 0 1.6 5.1 0 7.5z"/>
							<path class="s2" d="m355.9 224c0 0-0.7-6.2-3.5-8.3 0 0 2.5 4.7 1.4 7.4z"/>
							<path class="s2" d="m362.7 228.7c0 0-4.9 3.8-8.4 3.3 0 0 5.1-1.5 6.3-4.1z"/>
							<path class="s2" d="m359.4 226.5c0 0-5.2 3.4-8.6 2.5 0 0 5.2-1 6.6-3.5z"/>
							<path class="s2" d="m355.6 224.3c0 0-5.8 2.3-8.9 0.9 0 0 5.2 0 7.1-2.3z"/>
							<path class="s2" d="m351.1 220.8c0 0-0.5-4.7-2.7-6.4 0 0 2 3.6 1.1 5.7z"/>
							<path class="s2" d="m350.9 221.1c0 0-4.5 1.8-6.9 0.7 0 0 4 0 5.5-1.8z"/>
							<path class="s2" d="m346.2 218.9c0 0-0.4-3.4-1.9-4.6 0 0 1.4 2.6 0.7 4.1z"/>
							<path class="s2" d="m346 219.1c0 0-3.2 1.3-5 0.5 0 0 3 0 4-1.3z"/>
							<path class="s0" d="m341.9 217.4c7 2.9 18.4 10 22.4 13.6q0.3-0.5 0.5-1.1 0.1-0.1 0.2-0.2c-1.8-1.8-13.9-9.8-22.9-12.8-0.3-0.1-0.6 0.4-0.2 0.5z"/>
						</g>
					</g>
					<g>
						<path class="s0" d="m367.8 205.4c1-7.8 5.7-14.6 12.8-18.3 0.4-0.2 0.8-0.1 1 0.3 0.2 0.3 0 0.8-0.3 1-7.6 3.9-12.3 11.6-12.3 20.1v2.9z"/>
						<g>
							<path class="s1" d="m405.9 175.7c-7.4 6-6.2 13-14.3 19.8-4.9 4-10.9 2.9-14.7-2.2q-0.8-1.1-1.3-2.3-0.4-0.6-0.6-1.3c-1.7-4.6-0.9-9.8 3.1-12.7 10.5-7.7 27.8-1.3 27.8-1.3z"/>
							<path class="s2" d="m377.7 189.8c0 0-1.1-6.1 1-8.9 0 0-1.1 5.2 0.7 7.5z"/>
							<path class="s2" d="m380.8 187c0 0-0.5-6.2 1.9-8.8 0 0-1.6 5 0 7.5z"/>
							<path class="s2" d="m384.5 185c0 0 0.7-6.1 3.5-8.2 0 0-2.5 4.6-1.4 7.3z"/>
							<path class="s2" d="m377.7 189.8c0 0 4.9 3.8 8.3 3.2 0 0-5-1.4-6.2-4.1z"/>
							<path class="s2" d="m381 187.6c0 0 5.2 3.3 8.6 2.5 0 0-5.2-1-6.6-3.6z"/>
							<path class="s2" d="m384.8 185.4c0 0 5.8 2.3 8.9 0.8 0 0-5.2 0.1-7.1-2.2z"/>
							<path class="s2" d="m389.3 181.9c0 0 0.5-4.8 2.7-6.4 0 0-2 3.6-1.1 5.7z"/>
							<path class="s2" d="m389.5 182.2c0 0 4.5 1.8 6.9 0.6 0 0-4.1 0-5.5-1.7z"/>
							<path class="s2" d="m394.2 180c0 0 0.4-3.5 1.9-4.6 0 0-1.4 2.6-0.8 4.1z"/>
							<path class="s2" d="m394.3 180.2c0 0 3.3 1.3 5 0.5 0 0-2.9 0-3.9-1.3z"/>
							<path class="s0" d="m398.5 178.5c-7 2.9-18.4 10-22.4 13.5q-0.3-0.5-0.5-1-0.1-0.1-0.2-0.3c1.8-1.7 13.9-9.8 22.9-12.7 0.3-0.2 0.6 0.4 0.2 0.5z"/>
						</g>
					</g>
					<g>
						<path class="s0" d="m367.5 161.4c3.7-4.4 9-7.3 14.9-8.1 0.4 0 0.8 0.2 0.8 0.6 0.1 0.4-0.2 0.8-0.6 0.8-6.1 0.9-11.4 4.1-15 8.8z"/>
						<g>
							<path class="s1" d="m410.1 151c-9 3.2-10.2 10.2-20.1 13.9-6 2.2-11.3-0.9-13.1-7q-0.4-1.3-0.6-2.6-0.1-0.7-0.1-1.4c0-4.9 2.4-9.5 7.2-11 12.5-3.7 26.7 8.1 26.7 8.1z"/>
							<path class="s2" d="m378.7 154.9c0 0 1.1-6.1 4-8 0 0-2.8 4.4-1.9 7.2z"/>
							<path class="s2" d="m382.7 153.3c0 0 1.6-6 4.6-7.6 0 0-3.1 4.1-2.4 7z"/>
							<path class="s2" d="m386.8 152.7c0 0 2.7-5.6 6-6.6 0 0-3.9 3.5-3.8 6.4z"/>
							<path class="s2" d="m378.8 154.9c0 0 3.3 5.2 6.7 5.8 0 0-4.3-3-4.5-5.9z"/>
							<path class="s2" d="m382.6 153.9c0 0 3.8 4.9 7.2 5.2 0 0-4.5-2.6-5-5.5z"/>
							<path class="s2" d="m386.9 153.1c0 0 4.7 4.1 8.1 3.8 0 0-4.9-1.7-5.9-4.5z"/>
							<path class="s2" d="m392.3 151.3c0 0 2.1-4.3 4.7-5.1 0 0-3 2.7-2.9 5z"/>
							<path class="s2" d="m392.4 151.7c0 0 3.6 3.1 6.3 2.9 0 0-3.8-1.4-4.6-3.5z"/>
							<path class="s2" d="m397.6 151.2c0 0 1.5-3.2 3.3-3.7 0 0-2.1 1.9-2.1 3.6z"/>
							<path class="s2" d="m397.7 151.4c0 0 2.6 2.3 4.5 2.1 0 0-2.8-1-3.3-2.5z"/>
							<path class="s0" d="m402.2 151.2c-7.7 0.4-20.8 3.3-25.7 5.3q-0.1-0.6-0.2-1.2 0-0.1 0-0.3c2.2-1 16.3-4.6 25.8-4.4 0.4 0 0.4 0.6 0.1 0.6z"/>
						</g>
					</g>
					<g>
						<path class="s0" d="m374.4 137.9c3.7-6.4 10.1-10.8 17.6-11.8 0.4-0.1 0.8 0.2 0.8 0.6 0.1 0.4-0.2 0.8-0.6 0.8-7.6 1-14 5.7-17.3 12.5z"/>
						<g>
							<path class="s1" d="m419.7 123.8c-9 3.2-10.3 10.2-20.2 13.9-5.9 2.2-11.3-0.9-13.1-7q-0.4-1.3-0.5-2.6-0.1-0.7-0.1-1.4c0-4.9 2.4-9.6 7.2-11 12.5-3.7 26.7 8.1 26.7 8.1z"/>
							<path class="s2" d="m388.3 127.7c0 0 1.1-6.1 4-8 0 0-2.8 4.4-1.9 7.2z"/>
							<path class="s2" d="m392.2 126.1c0 0 1.6-6 4.7-7.7 0 0-3.2 4.2-2.5 7.1z"/>
							<path class="s2" d="m396.3 125.5c0 0 2.7-5.6 6.1-6.6 0 0-3.9 3.5-3.8 6.4z"/>
							<path class="s2" d="m388.3 127.7c0 0 3.4 5.2 6.8 5.8 0 0-4.3-3-4.5-5.9z"/>
							<path class="s2" d="m392.2 126.7c0 0 3.7 4.9 7.2 5.2 0 0-4.5-2.6-5-5.5z"/>
							<path class="s2" d="m396.5 125.9c0 0 4.6 4.1 8.1 3.8 0 0-4.9-1.8-5.9-4.5z"/>
							<path class="s2" d="m401.9 124.1c0 0 2.1-4.3 4.7-5.1 0 0-3.1 2.7-3 5z"/>
							<path class="s2" d="m402 124.4c0 0 3.6 3.2 6.3 3 0 0-3.9-1.4-4.6-3.5z"/>
							<path class="s2" d="m407.1 123.9c0 0 1.6-3.1 3.4-3.7 0 0-2.2 2-2.1 3.6z"/>
							<path class="s2" d="m407.2 124.2c0 0 2.6 2.3 4.6 2.1 0 0-2.8-1-3.4-2.5z"/>
							<path class="s0" d="m411.7 124c-7.6 0.4-20.7 3.3-25.6 5.3q-0.1-0.6-0.2-1.2 0-0.2 0-0.3c2.2-1.1 16.3-4.6 25.8-4.4 0.3 0 0.4 0.6 0 0.6z"/>
						</g>
					</g>
					<g>
						<path class="s0" d="m367.3 202.3c-1.8-5.6-5.7-10.3-11.1-13.1-0.4-0.2-0.5-0.6-0.4-1 0.2-0.3 0.7-0.5 1-0.3 4.5 2.4 8.1 6 10.4 10.3z"/>
						<g>
							<path class="s1" d="m331.5 176.5c7.4 6 6.2 13 14.3 19.8 4.9 4.1 11 2.9 14.7-2.2q0.8-1.1 1.4-2.3 0.3-0.6 0.6-1.3c1.6-4.5 0.9-9.8-3.1-12.7-10.5-7.7-27.9-1.3-27.9-1.3z"/>
							<path class="s2" d="m359.8 190.6c0 0 1-6.1-1.1-8.8 0 0 1.2 5.1-0.7 7.4z"/>
							<path class="s2" d="m356.6 187.8c0 0 0.5-6.2-1.8-8.7 0 0 1.5 5-0.1 7.4z"/>
							<path class="s2" d="m352.9 185.9c0 0-0.6-6.2-3.4-8.3 0 0 2.5 4.7 1.4 7.4z"/>
							<path class="s2" d="m359.7 190.6c0 0-4.8 3.8-8.3 3.3 0 0 5.1-1.5 6.2-4.1z"/>
							<path class="s2" d="m356.5 188.4c0 0-5.2 3.4-8.6 2.5 0 0 5.2-1 6.6-3.5z"/>
							<path class="s2" d="m352.6 186.2c0 0-5.7 2.3-8.9 0.9 0 0 5.3 0 7.1-2.3z"/>
							<path class="s2" d="m348.2 182.7c0 0-0.6-4.7-2.7-6.4 0 0 1.9 3.6 1.1 5.7z"/>
							<path class="s2" d="m347.9 183c0 0-4.4 1.8-6.9 0.7 0 0 4.1 0 5.6-1.8z"/>
							<path class="s2" d="m343.3 180.8c0 0-0.4-3.4-2-4.6 0 0 1.4 2.6 0.8 4.1z"/>
							<path class="s2" d="m343.1 181c0 0-3.2 1.3-5 0.5 0 0 3 0 4-1.3z"/>
							<path class="s0" d="m338.9 179.3c7.1 2.9 18.5 10 22.4 13.6q0.3-0.5 0.6-1.1 0.1-0.1 0.1-0.2c-1.7-1.8-13.8-9.8-22.8-12.8-0.4-0.1-0.6 0.4-0.3 0.5z"/>
						</g>
					</g>
					<g>
						<path class="s0" d="m366.3 171.7c-1.7-5.9-5.7-10.9-11.4-13.8-0.3-0.2-0.5-0.6-0.3-1 0.2-0.3 0.6-0.5 1-0.3 5.1 2.7 9 7 11.2 12.1z"/>
						<g>
							<path class="s1" d="m330.3 145.2c7.4 6 6.2 13 14.3 19.8 4.9 4.1 11 2.9 14.7-2.2q0.8-1.1 1.4-2.3 0.3-0.6 0.5-1.3c1.7-4.5 1-9.8-3-12.7-10.6-7.7-27.9-1.3-27.9-1.3z"/>
							<path class="s2" d="m358.6 159.3c0 0 1-6.1-1.1-8.8 0 0 1.1 5.1-0.7 7.4z"/>
							<path class="s2" d="m355.4 156.5c0 0 0.5-6.2-1.9-8.8 0 0 1.6 5.1 0 7.5z"/>
							<path class="s2" d="m351.7 154.6c0 0-0.7-6.2-3.5-8.3 0 0 2.5 4.7 1.4 7.4z"/>
							<path class="s2" d="m358.5 159.3c0 0-4.9 3.8-8.3 3.3 0 0 5-1.5 6.2-4.1z"/>
							<path class="s2" d="m355.3 157.1c0 0-5.2 3.4-8.6 2.5 0 0 5.1-1 6.5-3.5z"/>
							<path class="s2" d="m351.4 154.9c0 0-5.7 2.3-8.9 0.9 0 0 5.3 0 7.1-2.3z"/>
							<path class="s2" d="m347 151.4c0 0-0.6-4.7-2.7-6.4 0 0 1.9 3.6 1 5.7z"/>
							<path class="s2" d="m346.7 151.7c0 0-4.4 1.8-6.9 0.7 0 0 4.1 0 5.5-1.8z"/>
							<path class="s2" d="m342 149.5c0 0-0.3-3.4-1.9-4.6 0 0 1.4 2.6 0.8 4.1z"/>
							<path class="s2" d="m341.9 149.7c0 0-3.2 1.3-5 0.5 0 0 2.9 0 4-1.3z"/>
							<path class="s0" d="m337.7 148c7.1 2.9 18.4 10 22.4 13.6q0.3-0.5 0.6-1.1 0-0.1 0.1-0.2c-1.7-1.8-13.8-9.8-22.9-12.8-0.3-0.1-0.5 0.4-0.2 0.5z"/>
						</g>
					</g>
					<g>
						<path class="s0" d="m375.8 134.7c-2.1-3-4.9-5.6-8.4-7.4-0.3-0.1-0.5-0.6-0.3-0.9 0.2-0.4 0.6-0.5 1-0.3 3.3 1.7 6.1 4.1 8.3 7z"/>
						<g>
							<path class="s1" d="m342.8 114.7c7.4 6 6.2 13 14.3 19.8 4.9 4 11 2.9 14.7-2.2q0.8-1.1 1.4-2.3 0.3-0.6 0.5-1.3c1.7-4.6 1-9.8-3-12.7-10.6-7.7-27.9-1.3-27.9-1.3z"/>
							<path class="s2" d="m371.1 128.8c0 0 1-6.1-1.1-8.9 0 0 1.1 5.1-0.7 7.4z"/>
							<path class="s2" d="m367.9 126c0 0 0.5-6.2-1.9-8.8 0 0 1.6 5 0 7.5z"/>
							<path class="s2" d="m364.2 124c0 0-0.7-6.1-3.5-8.2 0 0 2.6 4.6 1.4 7.3z"/>
							<path class="s2" d="m371 128.8c0 0-4.9 3.8-8.3 3.2 0 0 5-1.4 6.2-4.1z"/>
							<path class="s2" d="m367.8 126.6c0 0-5.2 3.3-8.6 2.5 0 0 5.1-1 6.5-3.6z"/>
							<path class="s2" d="m363.9 124.4c0 0-5.7 2.3-8.9 0.8 0 0 5.3 0.1 7.1-2.2z"/>
							<path class="s2" d="m359.5 120.9c0 0-0.6-4.8-2.7-6.4 0 0 1.9 3.6 1 5.7z"/>
							<path class="s2" d="m359.2 121.2c0 0-4.4 1.8-6.9 0.6 0 0 4.1 0 5.5-1.7z"/>
							<path class="s2" d="m354.6 119c0 0-0.4-3.5-2-4.6 0 0 1.4 2.5 0.8 4.1z"/>
							<path class="s2" d="m354.4 119.2c0 0-3.2 1.3-5 0.4 0 0 2.9 0.1 4-1.2z"/>
							<path class="s0" d="m350.2 117.5c7.1 2.9 18.4 10 22.4 13.5q0.3-0.5 0.6-1 0-0.1 0.1-0.3c-1.7-1.7-13.8-9.8-22.8-12.8-0.4-0.1-0.6 0.4-0.3 0.6z"/>
						</g>
					</g>
				</g>
				<g>
					<path class="s3" d="m337.3 277c-2.4 0-4.4-2-4.4-4.4 0-2.4 2-4.4 4.4-4.4q0 0 0.1 0c0.7-2.2 2.8-3.8 5.2-3.8q0.1 0 0.1 0c0.6-1.7 2.2-2.8 4.1-2.8 0.8 0 1.5 0.1 2.1 0.5 0.8-0.5 1.7-0.7 2.6-0.7q0.4 0 0.7 0c1-1.4 2.6-2.3 4.5-2.3 0.4-0.8 1.3-1.4 2.3-1.4 0.5 0 1 0.2 1.5 0.5 1.1-1.2 2.7-2 4.6-2q0.5 0 1.1 0.1c1.3-1.8 3.5-2.9 5.9-2.9 2.4 0 4.6 1.1 5.9 2.9q0.6-0.1 1.1-0.1c1.8 0 3.5 0.8 4.6 2 0.4-0.3 0.9-0.5 1.5-0.5 1 0 1.9 0.6 2.3 1.4 1.9 0 3.5 0.9 4.5 2.3q0.3 0 0.6 0c1 0 1.9 0.2 2.7 0.7 0.6-0.4 1.3-0.5 2.1-0.5 1.9 0 3.5 1.1 4.1 2.8q0 0 0.1 0c2.4 0 4.5 1.6 5.2 3.8q0 0 0.1 0c2.4 0 4.4 2 4.4 4.4 0 2.4-2 4.4-4.4 4.4z"/>
					<path class="s4" d="m345.5 267.3c0 0 3 0.2 3.7-3.1 0 0 0.2 1.4-0.2 2.5-0.5 1-1.7 1.7-3.5 0.6z"/>
					<path class="s4" d="m399 268.1c0 0-3.9 0.3-4.8-3.9 0 0-0.3 1.8 0.3 3.1 0.6 1.4 2.1 2.3 4.5 0.8z"/>
					<path class="s4" d="m370.5 273.1c0 0-3.9 0.2-4.7-3.9 0 0-0.3 1.8 0.3 3.1 0.6 1.4 2.1 2.3 4.4 0.8z"/>
					<path class="s4" d="m365.1 263.1c0 0 3.9 0.2 4.7-3.9 0 0 0.4 1.8-0.2 3.1-0.6 1.4-2.2 2.3-4.5 0.8z"/>
					<path class="s4" d="m389.9 266c-1.1 0.7-2.1 0.8-2.8 0.6-0.4 0.4-0.9 0.6-1.5 0.7-1.3 0.3-2.9-0.5-2.9-0.5 1.5 0.1 2.5-0.4 3.3-1q-0.3-0.3-0.4-0.6c-0.6-1.3-0.3-3-0.3-3 0.3 1.3 0.9 2.2 1.5 2.7q0.4 0.4 0.9 0.6c1.1 0.5 2.2 0.5 2.2 0.5z"/>
					<path class="s4" d="m354.3 264.7c1.2 0.7 2.1 0.8 2.8 0.6 0.4 0.4 0.9 0.6 1.5 0.7 1.4 0.2 2.9-0.5 2.9-0.5-1.5 0.1-2.5-0.4-3.2-1q0.2-0.3 0.4-0.6c0.5-1.3 0.2-3 0.2-3-0.2 1.3-0.8 2.1-1.5 2.7q-0.4 0.3-0.8 0.6c-1.2 0.5-2.3 0.5-2.3 0.5z"/>
					<path class="s4" d="m341.2 277c6.2 0 8.1-3.4 8.1-3.4 0 0 1.3 3.4 9 3.4z"/>
					<path class="s4" d="m390 277c6.2 0 8-3.4 8-3.4 0 0 0.8 3.4 8.5 3.4z"/>
				</g>
				<g>
					<path class="s5" d="m383.4 45.4c0.2-15.3-6.1-22.4-9.2-25-1-0.8-2.5-0.5-3 0.6-1.9 3.7-4.8 12.7 1.5 26.6z"/>
					<path class="s5" d="m370.1 49.4c-10.7-11-20.1-11.6-24.2-11.2-1.3 0.1-2.1 1.3-1.7 2.5 1.3 4 5.6 12.4 19.9 17.8z"/>
					<path class="s5" d="m363.5 61.6c-15.3-0.2-22.4 6-25 9.2-0.8 0.9-0.5 2.4 0.6 3 3.7 1.8 12.7 4.7 26.6-1.5z"/>
					<path class="s5" d="m367.5 74.8c-11 10.7-11.6 20.1-11.2 24.3 0.1 1.2 1.3 2 2.5 1.6 4-1.2 12.4-5.6 17.8-19.9z"/>
					<path class="s5" d="m379.6 81.4c-0.2 15.3 6.1 22.4 9.3 25.1 0.9 0.8 2.4 0.5 2.9-0.7 1.9-3.6 4.8-12.6-1.4-26.6z"/>
					<path class="s5" d="m392.9 77.5c10.7 10.9 20.1 11.6 24.2 11.2 1.3-0.2 2.1-1.4 1.7-2.6-1.3-3.9-5.6-12.3-19.9-17.8z"/>
					<path class="s5" d="m399.5 65.3c15.3 0.2 22.4-6 25-9.2 0.9-1 0.6-2.4-0.6-3-3.7-1.9-12.7-4.8-26.6 1.5z"/>
					<path class="s5" d="m395.5 52c11-10.7 11.6-20.1 11.2-24.2-0.1-1.3-1.3-2.1-2.5-1.7-3.9 1.3-12.4 5.6-17.8 19.9z"/>
					<path class="s6" d="m376.4 46.1c-5.6-14.3-14.1-18.5-18-19.7-1.2-0.4-2.5 0.4-2.6 1.7-0.3 4.1 0.4 13.6 11.5 24.1z"/>
					<path class="s6" d="m365.6 54.8c-14-6.1-23-3.1-26.6-1.2-1.2 0.6-1.4 2-0.6 3 2.6 3.2 9.8 9.3 25.1 8.9z"/>
					<path class="s6" d="m364.2 68.5c-14.3 5.6-18.5 14.1-19.7 18.1-0.4 1.2 0.4 2.4 1.7 2.5 4.1 0.3 13.5-0.4 24.1-11.5z"/>
					<path class="s6" d="m372.8 79.3c-6 14-3.1 23-1.1 26.7 0.6 1.1 2 1.4 3 0.6 3.1-2.7 9.3-9.9 8.9-25.2z"/>
					<path class="s6" d="m386.6 80.8c5.6 14.2 14.1 18.4 18 19.7 1.2 0.3 2.5-0.5 2.6-1.7 0.3-4.2-0.4-13.6-11.5-24.1z"/>
					<path class="s6" d="m397.4 72.1c14 6.1 23 3.1 26.6 1.2 1.2-0.6 1.4-2.1 0.6-3-2.6-3.2-9.8-9.3-25.1-9z"/>
					<path class="s6" d="m398.9 58.3c14.2-5.6 18.4-14.1 19.6-18 0.4-1.2-0.4-2.4-1.7-2.5-4.1-0.4-13.5 0.4-24.1 11.5z"/>
					<path class="s6" d="m390.2 47.5c6-14 3.1-23 1.1-26.6-0.6-1.1-2-1.4-3-0.6-3.1 2.7-9.3 9.9-8.9 25.2z"/>
					<path class="s6" d="m376.4 46.1c-5.6-14.3-14.1-18.5-18-19.7-1.2-0.4-2.5 0.4-2.6 1.7-0.3 4.1 0.4 13.6 11.5 24.1z"/>
					<path class="s6" d="m365.6 54.8c-14-6.1-23-3.1-26.6-1.2-1.2 0.6-1.4 2-0.6 3 2.6 3.2 9.8 9.3 25.1 8.9z"/>
					<path class="s6" d="m364.2 68.5c-14.3 5.6-18.5 14.1-19.7 18.1-0.4 1.2 0.4 2.4 1.7 2.5 4.1 0.3 13.5-0.4 24.1-11.5z"/>
					<path class="s6" d="m372.8 79.3c-6 14-3.1 23-1.1 26.7 0.6 1.1 2 1.4 3 0.6 3.1-2.7 9.3-9.9 8.9-25.2z"/>
					<path class="s6" d="m386.6 80.8c5.6 14.2 14.1 18.4 18 19.7 1.2 0.3 2.5-0.5 2.6-1.7 0.3-4.2-0.4-13.6-11.5-24.1z"/>
					<path class="s6" d="m397.4 72.1c14 6.1 23 3.1 26.6 1.2 1.2-0.6 1.4-2.1 0.6-3-2.6-3.2-9.8-9.3-25.1-9z"/>
					<path class="s6" d="m398.9 58.3c14.2-5.6 18.4-14.1 19.6-18 0.4-1.2-0.4-2.4-1.7-2.5-4.1-0.4-13.5 0.4-24.1 11.5z"/>
					<path class="s6" d="m390.2 47.5c6-14 3.1-23 1.1-26.6-0.6-1.1-2-1.4-3-0.6-3.1 2.7-9.3 9.9-8.9 25.2z"/>
					<path class="s7" d="m380 45.4c-2.7-15.1-10.1-20.9-13.7-22.9-1.1-0.6-2.5-0.1-2.8 1.2-1.2 3.9-2.4 13.3 6.4 25.9z"/>
					<path class="s7" d="m367.7 51.8c-12.5-8.8-21.9-7.7-25.9-6.6-1.2 0.4-1.8 1.8-1.2 2.9 2 3.6 7.8 11.1 22.9 13.7z"/>
					<path class="s7" d="m363.5 64.9c-15.1 2.7-20.9 10.1-22.9 13.7-0.6 1.1-0.1 2.5 1.1 2.9 4 1.1 13.4 2.3 25.9-6.5z"/>
					<path class="s7" d="m369.8 77.2c-8.8 12.6-7.6 22-6.5 25.9 0.4 1.2 1.7 1.8 2.8 1.2 3.7-2 11.1-7.8 13.8-22.9z"/>
					<path class="s7" d="m383 81.4c2.7 15.1 10.1 21 13.7 23 1.1 0.6 2.5 0 2.8-1.2 1.2-4 2.4-13.4-6.4-25.9z"/>
					<path class="s7" d="m395.3 75.1c12.5 8.8 21.9 7.7 25.9 6.5 1.2-0.3 1.8-1.7 1.2-2.8-2-3.6-7.8-11.1-22.9-13.8z"/>
					<path class="s7" d="m399.5 61.9c15.1-2.6 20.9-10.1 22.9-13.7 0.6-1.1 0.1-2.5-1.1-2.8-4-1.2-13.4-2.3-25.9 6.4z"/>
					<path class="s7" d="m393.2 49.6c8.8-12.5 7.6-21.9 6.5-25.9-0.4-1.2-1.7-1.8-2.8-1.2-3.7 2-11.1 7.8-13.8 22.9z"/>
					<path class="s7" d="m380 45.4c-2.7-15.1-10.1-20.9-13.7-22.9-1.1-0.6-2.5-0.1-2.8 1.2-1.2 3.9-2.4 13.3 6.4 25.9z"/>
					<path class="s7" d="m367.7 51.8c-12.5-8.8-21.9-7.7-25.9-6.6-1.2 0.4-1.8 1.8-1.2 2.9 2 3.6 7.8 11.1 22.9 13.7z"/>
					<path class="s7" d="m363.5 64.9c-15.1 2.7-20.9 10.1-22.9 13.7-0.6 1.1-0.1 2.5 1.1 2.9 4 1.1 13.4 2.3 25.9-6.5z"/>
					<path class="s7" d="m369.8 77.2c-8.8 12.6-7.6 22-6.5 25.9 0.4 1.2 1.7 1.8 2.8 1.2 3.7-2 11.1-7.8 13.8-22.9z"/>
					<path class="s7" d="m383 81.4c2.7 15.1 10.1 21 13.7 23 1.1 0.6 2.5 0 2.8-1.2 1.2-4 2.4-13.4-6.4-25.9z"/>
					<path class="s7" d="m395.3 75.1c12.5 8.8 21.9 7.7 25.9 6.5 1.2-0.3 1.8-1.7 1.2-2.8-2-3.6-7.8-11.1-22.9-13.8z"/>
					<path class="s7" d="m399.5 61.9c15.1-2.6 20.9-10.1 22.9-13.7 0.6-1.1 0.1-2.5-1.1-2.8-4-1.2-13.4-2.3-25.9 6.4z"/>
					<path class="s7" d="m393.2 49.6c8.8-12.5 7.6-21.9 6.5-25.9-0.4-1.2-1.7-1.8-2.8-1.2-3.7 2-11.1 7.8-13.8 22.9z"/>
					<path class="s8" d="m387 46.2c3.3-15-1.4-23.2-4-26.4-0.8-1-2.2-1-3 0-2.6 3.2-7.3 11.4-4 26.4z"/>
					<path class="s8" d="m373.2 47.4c-8.2-12.9-17.4-15.5-21.5-15.9-1.2-0.2-2.3 0.9-2.1 2.1 0.4 4.2 3 13.3 15.8 21.5z"/>
					<path class="s8" d="m364.3 58c-15-3.3-23.2 1.3-26.4 3.9-1 0.8-1 2.3 0 3.1 3.2 2.5 11.4 7.2 26.4 3.9z"/>
					<path class="s8" d="m365.4 71.8c-12.8 8.2-15.4 17.3-15.8 21.4-0.2 1.3 0.9 2.3 2.1 2.2 4.1-0.5 13.2-3 21.5-15.9z"/>
					<path class="s8" d="m376 80.7c-3.3 14.9 1.4 23.1 4 26.4 0.8 1 2.2 1 3 0 2.6-3.3 7.3-11.5 4-26.4z"/>
					<path class="s8" d="m389.8 79.5c8.3 12.9 17.4 15.4 21.5 15.9 1.2 0.1 2.3-0.9 2.1-2.2-0.4-4.1-2.9-13.2-15.8-21.4z"/>
					<path class="s8" d="m398.7 68.9c15 3.3 23.2-1.4 26.4-3.9 1-0.8 1-2.3 0-3.1-3.2-2.6-11.4-7.2-26.4-3.9z"/>
					<path class="s8" d="m397.6 55.1c12.9-8.2 15.4-17.3 15.8-21.5 0.2-1.2-0.9-2.3-2.1-2.1-4.1 0.4-13.2 3-21.5 15.9z"/>
					<path fill-rule="evenodd" class="s9" d="m381.5 84.4c-11.6 0-21-9.4-21-21 0-11.6 9.4-21 21-21 11.6 0 21 9.4 21 21 0 11.6-9.4 21-21 21z"/>
				</g>
			</g>
			<g>
				<g>
					<path class="s0" d="m156.7 256.9c-0.4 0-0.7-0.3-0.7-0.7v-17.4c0-9.1 5-17.3 13-21.4 0.4-0.2 0.8-0.1 1 0.3 0.2 0.3 0 0.7-0.3 0.9-7.6 3.9-12.3 11.7-12.3 20.2v17.4c0 0.4-0.3 0.7-0.7 0.7z"/>
					<g>
						<path class="s1" d="m194.3 206c-7.4 6-6.2 13-14.3 19.7-4.9 4.1-10.9 3-14.7-2.1q-0.8-1.1-1.3-2.3-0.4-0.7-0.6-1.3c-1.7-4.6-0.9-9.8 3.1-12.8 10.5-7.7 27.8-1.2 27.8-1.2z"/>
						<path class="s2" d="m166.1 220.1c0 0-1.1-6.1 1-8.9 0 0-1.1 5.1 0.7 7.4z"/>
						<path class="s2" d="m169.2 217.2c0 0-0.5-6.1 1.9-8.7 0 0-1.6 5 0 7.4z"/>
						<path class="s2" d="m172.9 215.3c0 0 0.7-6.1 3.5-8.2 0 0-2.5 4.6-1.4 7.3z"/>
						<path class="s2" d="m166.1 220.1c0 0 4.9 3.7 8.3 3.2 0 0-5-1.4-6.2-4.1z"/>
						<path class="s2" d="m169.4 217.8c0 0 5.2 3.4 8.6 2.6 0 0-5.2-1-6.6-3.6z"/>
						<path class="s2" d="m173.2 215.7c0 0 5.8 2.3 8.9 0.8 0 0-5.2 0-7.1-2.2z"/>
						<path class="s2" d="m177.7 212.2c0 0 0.5-4.8 2.7-6.4 0 0-2 3.6-1.1 5.7z"/>
						<path class="s2" d="m177.9 212.5c0 0 4.5 1.7 6.9 0.6 0 0-4.1 0-5.5-1.7z"/>
						<path class="s2" d="m182.6 210.3c0 0 0.4-3.5 1.9-4.7 0 0-1.4 2.6-0.8 4.1z"/>
						<path class="s2" d="m182.7 210.5c0 0 3.3 1.2 5 0.4 0 0-2.9 0-3.9-1.2z"/>
						<path class="s0" d="m186.9 208.8c-7 2.9-18.4 10-22.4 13.5q-0.3-0.5-0.5-1-0.1-0.2-0.2-0.3c1.8-1.7 13.9-9.8 22.9-12.8 0.3-0.1 0.5 0.4 0.2 0.6z"/>
					</g>
					<path class="s0" d="m156.7 248.2c-0.4 0-0.7-0.3-0.7-0.7 0-8.6-4.7-16.3-12.3-20.2-0.4-0.2-0.5-0.6-0.3-1 0.2-0.3 0.6-0.5 0.9-0.3 8.1 4.2 13.1 12.4 13.1 21.5 0 0.4-0.3 0.7-0.7 0.7z"/>
					<g>
						<path class="s1" d="m119 214.6c7.5 6 6.3 13 14.4 19.8 4.8 4.1 10.9 2.9 14.7-2.2q0.8-1.1 1.3-2.3 0.3-0.6 0.6-1.3c1.7-4.5 0.9-9.8-3.1-12.7-10.5-7.7-27.9-1.3-27.9-1.3z"/>
						<path class="s2" d="m147.3 228.7c0 0 1.1-6.1-1.1-8.8 0 0 1.2 5.1-0.6 7.4z"/>
						<path class="s2" d="m144.1 225.9c0 0 0.5-6.2-1.8-8.8 0 0 1.6 5.1 0 7.5z"/>
						<path class="s2" d="m140.5 224c0 0-0.7-6.2-3.5-8.3 0 0 2.5 4.7 1.4 7.4z"/>
						<path class="s2" d="m147.3 228.7c0 0-4.9 3.8-8.4 3.3 0 0 5.1-1.5 6.3-4.1z"/>
						<path class="s2" d="m144 226.5c0 0-5.2 3.4-8.6 2.5 0 0 5.2-1 6.6-3.5z"/>
						<path class="s2" d="m140.2 224.3c0 0-5.8 2.3-8.9 0.9 0 0 5.2 0 7.1-2.3z"/>
						<path class="s2" d="m135.7 220.8c0 0-0.5-4.7-2.7-6.4 0 0 2 3.6 1.1 5.7z"/>
						<path class="s2" d="m135.5 221.1c0 0-4.5 1.8-6.9 0.7 0 0 4 0 5.5-1.8z"/>
						<path class="s2" d="m130.8 218.9c0 0-0.4-3.4-1.9-4.6 0 0 1.4 2.6 0.7 4.1z"/>
						<path class="s2" d="m130.6 219.1c0 0-3.2 1.3-5 0.5 0 0 3 0 4-1.3z"/>
						<path class="s0" d="m126.5 217.4c7 2.9 18.4 10 22.4 13.6q0.3-0.5 0.5-1.1 0.1-0.1 0.2-0.2c-1.8-1.8-13.9-9.8-22.9-12.8-0.3-0.1-0.6 0.4-0.2 0.5z"/>
					</g>
				</g>
				<g>
					<path class="s0" d="m152.4 205.4c1-7.8 5.7-14.6 12.8-18.3 0.4-0.2 0.8-0.1 1 0.3 0.2 0.3 0.1 0.8-0.3 1-7.6 3.9-12.3 11.6-12.3 20.1v2.9z"/>
					<g>
						<path class="s1" d="m190.5 175.7c-7.4 6-6.2 13-14.3 19.8-4.8 4-10.9 2.9-14.7-2.2q-0.8-1.1-1.3-2.3-0.4-0.6-0.6-1.3c-1.7-4.6-0.9-9.8 3.1-12.7 10.5-7.7 27.8-1.3 27.8-1.3z"/>
						<path class="s2" d="m162.3 189.8c0 0-1.1-6.1 1-8.9 0 0-1.1 5.2 0.7 7.5z"/>
						<path class="s2" d="m165.4 187c0 0-0.5-6.2 1.9-8.8 0 0-1.6 5 0 7.5z"/>
						<path class="s2" d="m169.1 185c0 0 0.7-6.1 3.5-8.2 0 0-2.5 4.6-1.4 7.3z"/>
						<path class="s2" d="m162.3 189.8c0 0 4.9 3.8 8.3 3.2 0 0-5-1.4-6.2-4.1z"/>
						<path class="s2" d="m165.6 187.6c0 0 5.2 3.3 8.6 2.5 0 0-5.2-1-6.6-3.6z"/>
						<path class="s2" d="m169.4 185.4c0 0 5.8 2.3 8.9 0.8 0 0-5.2 0.1-7.1-2.2z"/>
						<path class="s2" d="m173.9 181.9c0 0 0.5-4.8 2.7-6.4 0 0-2 3.6-1.1 5.7z"/>
						<path class="s2" d="m174.1 182.2c0 0 4.5 1.8 6.9 0.6 0 0-4.1 0-5.5-1.7z"/>
						<path class="s2" d="m178.8 180c0 0 0.4-3.5 1.9-4.6 0 0-1.4 2.6-0.8 4.1z"/>
						<path class="s2" d="m179 180.2c0 0 3.2 1.3 4.9 0.5 0 0-2.9 0-3.9-1.3z"/>
						<path class="s0" d="m183.1 178.5c-7 2.9-18.4 10-22.4 13.5q-0.3-0.5-0.5-1-0.1-0.1-0.2-0.3c1.8-1.7 13.9-9.8 22.9-12.7 0.3-0.2 0.6 0.4 0.2 0.5z"/>
					</g>
				</g>
				<g>
					<path class="s0" d="m152.1 161.4c3.7-4.4 9-7.3 14.9-8.1 0.4 0 0.8 0.2 0.8 0.6 0.1 0.4-0.2 0.8-0.6 0.8-6.1 0.9-11.4 4.1-15 8.8z"/>
					<g>
						<path class="s1" d="m194.7 151c-9 3.2-10.2 10.2-20.1 13.9-6 2.2-11.3-0.9-13.1-7q-0.4-1.3-0.6-2.6 0-0.7-0.1-1.4c0-4.9 2.4-9.5 7.2-11 12.5-3.7 26.7 8.1 26.7 8.1z"/>
						<path class="s2" d="m163.3 154.9c0 0 1.1-6.1 4-8 0 0-2.8 4.4-1.8 7.2z"/>
						<path class="s2" d="m167.3 153.3c0 0 1.6-6 4.6-7.6 0 0-3.1 4.1-2.4 7z"/>
						<path class="s2" d="m171.4 152.7c0 0 2.7-5.6 6-6.6 0 0-3.9 3.5-3.8 6.4z"/>
						<path class="s2" d="m163.4 154.9c0 0 3.3 5.2 6.7 5.8 0 0-4.3-3-4.5-5.9z"/>
						<path class="s2" d="m167.2 153.9c0 0 3.8 4.9 7.2 5.2 0 0-4.5-2.6-5-5.5z"/>
						<path class="s2" d="m171.5 153.1c0 0 4.7 4.1 8.1 3.8 0 0-4.9-1.7-5.9-4.5z"/>
						<path class="s2" d="m176.9 151.3c0 0 2.1-4.3 4.7-5.1 0 0-3 2.7-2.9 5z"/>
						<path class="s2" d="m177 151.7c0 0 3.6 3.1 6.3 2.9 0 0-3.8-1.4-4.6-3.5z"/>
						<path class="s2" d="m182.2 151.2c0 0 1.5-3.2 3.4-3.7 0 0-2.2 1.9-2.2 3.6z"/>
						<path class="s2" d="m182.3 151.4c0 0 2.6 2.3 4.5 2.1 0 0-2.8-1-3.3-2.5z"/>
						<path class="s0" d="m186.8 151.2c-7.7 0.4-20.8 3.3-25.7 5.3q-0.1-0.6-0.2-1.2 0-0.1 0-0.3c2.2-1 16.3-4.6 25.8-4.4 0.4 0 0.4 0.6 0.1 0.6z"/>
					</g>
				</g>
				<g>
					<path class="s1" d="m204.3 123.8c-9 3.2-10.3 10.2-20.2 13.9-5.9 2.2-11.3-0.9-13.1-7q-0.4-1.3-0.5-2.6-0.1-0.7-0.1-1.4c0-4.9 2.4-9.6 7.2-11 12.5-3.7 26.7 8.1 26.7 8.1z"/>
					<path class="s2" d="m172.9 127.7c0 0 1.1-6.1 4-8 0 0-2.8 4.4-1.9 7.2z"/>
					<path class="s2" d="m176.8 126.1c0 0 1.6-6 4.7-7.7 0 0-3.2 4.2-2.5 7.1z"/>
					<path class="s2" d="m180.9 125.5c0 0 2.7-5.6 6.1-6.6 0 0-3.9 3.5-3.8 6.4z"/>
					<path class="s2" d="m172.9 127.7c0 0 3.4 5.2 6.8 5.8 0 0-4.3-3-4.5-5.9z"/>
					<path class="s2" d="m176.8 126.7c0 0 3.7 4.9 7.2 5.2 0 0-4.5-2.6-5-5.5z"/>
					<path class="s2" d="m181.1 125.9c0 0 4.6 4.1 8.1 3.8 0 0-4.9-1.8-5.9-4.5z"/>
					<path class="s2" d="m186.5 124.1c0 0 2.1-4.3 4.7-5.1 0 0-3.1 2.7-3 5z"/>
					<path class="s2" d="m186.6 124.4c0 0 3.6 3.2 6.3 3 0 0-3.8-1.4-4.6-3.5z"/>
					<path class="s2" d="m191.7 123.9c0 0 1.6-3.1 3.4-3.7 0 0-2.2 2-2.1 3.6z"/>
					<path class="s2" d="m191.8 124.2c0 0 2.6 2.3 4.6 2.1 0 0-2.8-1-3.4-2.5z"/>
					<path class="s0" d="m196.3 124c-7.6 0.4-20.7 3.3-25.6 5.3q-0.1-0.6-0.2-1.2 0-0.2 0-0.3c2.2-1.1 16.3-4.6 25.8-4.4 0.3 0 0.4 0.6 0 0.6z"/>
				</g>
				<g>
					<path class="s0" d="m151.9 202.3c-1.8-5.6-5.7-10.3-11.1-13.1-0.4-0.2-0.5-0.6-0.4-1 0.2-0.3 0.7-0.5 1-0.3 4.5 2.4 8.1 6 10.4 10.3z"/>
					<g>
						<path class="s1" d="m116.1 176.5c7.4 6 6.2 13 14.4 19.8 4.8 4.1 10.9 2.9 14.6-2.2q0.8-1.1 1.4-2.3 0.3-0.6 0.6-1.3c1.6-4.5 0.9-9.8-3.1-12.7-10.5-7.7-27.9-1.3-27.9-1.3z"/>
						<path class="s2" d="m144.4 190.6c0 0 1-6.1-1.1-8.8 0 0 1.2 5.1-0.7 7.4z"/>
						<path class="s2" d="m141.2 187.8c0 0 0.5-6.2-1.8-8.7 0 0 1.6 5-0.1 7.4z"/>
						<path class="s2" d="m137.5 185.9c0 0-0.6-6.2-3.4-8.3 0 0 2.5 4.7 1.4 7.4z"/>
						<path class="s2" d="m144.3 190.6c0 0-4.8 3.8-8.3 3.3 0 0 5.1-1.5 6.2-4.1z"/>
						<path class="s2" d="m141.1 188.4c0 0-5.2 3.4-8.6 2.5 0 0 5.2-1 6.6-3.5z"/>
						<path class="s2" d="m137.2 186.2c0 0-5.7 2.3-8.9 0.9 0 0 5.3 0 7.1-2.3z"/>
						<path class="s2" d="m132.8 182.7c0 0-0.5-4.7-2.7-6.4 0 0 1.9 3.6 1.1 5.7z"/>
						<path class="s2" d="m132.5 183c0 0-4.4 1.8-6.9 0.7 0 0 4.1 0 5.6-1.8z"/>
						<path class="s2" d="m127.9 180.8c0 0-0.4-3.4-2-4.6 0 0 1.4 2.6 0.8 4.1z"/>
						<path class="s2" d="m127.7 181c0 0-3.2 1.3-5 0.5 0 0 3 0 4-1.3z"/>
						<path class="s0" d="m123.5 179.3c7.1 2.9 18.5 10 22.5 13.6q0.2-0.5 0.5-1.1 0.1-0.1 0.1-0.2c-1.7-1.8-13.8-9.8-22.8-12.8-0.4-0.1-0.6 0.4-0.3 0.5z"/>
					</g>
				</g>
				<g>
					<path class="s0" d="m150.9 171.7c-1.7-5.9-5.7-10.9-11.4-13.8-0.3-0.2-0.5-0.6-0.3-1 0.2-0.3 0.6-0.5 1-0.3 5.1 2.7 9.1 7 11.2 12.1z"/>
					<g>
						<path class="s1" d="m114.9 145.2c7.4 6 6.2 13 14.3 19.8 4.9 4.1 11 2.9 14.7-2.2q0.8-1.1 1.4-2.3 0.3-0.6 0.5-1.3c1.7-4.5 1-9.8-3-12.7-10.6-7.7-27.9-1.3-27.9-1.3z"/>
						<path class="s2" d="m143.2 159.3c0 0 1-6.1-1.1-8.8 0 0 1.1 5.1-0.7 7.4z"/>
						<path class="s2" d="m140 156.5c0 0 0.5-6.2-1.9-8.8 0 0 1.6 5.1 0 7.5z"/>
						<path class="s2" d="m136.3 154.6c0 0-0.7-6.2-3.5-8.3 0 0 2.6 4.7 1.4 7.4z"/>
						<path class="s2" d="m143.1 159.3c0 0-4.9 3.8-8.3 3.3 0 0 5-1.5 6.2-4.1z"/>
						<path class="s2" d="m139.9 157.1c0 0-5.2 3.4-8.6 2.5 0 0 5.1-1 6.5-3.5z"/>
						<path class="s2" d="m136 154.9c0 0-5.7 2.3-8.9 0.9 0 0 5.3 0 7.1-2.3z"/>
						<path class="s2" d="m131.6 151.4c0 0-0.6-4.7-2.7-6.4 0 0 1.9 3.6 1 5.7z"/>
						<path class="s2" d="m131.3 151.7c0 0-4.4 1.8-6.9 0.7 0 0 4.1 0 5.5-1.8z"/>
						<path class="s2" d="m126.7 149.5c0 0-0.4-3.4-2-4.6 0 0 1.4 2.6 0.8 4.1z"/>
						<path class="s2" d="m126.5 149.7c0 0-3.2 1.3-5 0.5 0 0 2.9 0 4-1.3z"/>
						<path class="s0" d="m122.3 148c7.1 2.9 18.4 10 22.4 13.6q0.3-0.5 0.6-1.1 0-0.1 0.1-0.2c-1.7-1.8-13.8-9.8-22.9-12.8-0.3-0.1-0.5 0.4-0.2 0.5z"/>
					</g>
				</g>
				<path class="s0" d="m160.6 135c4.3-5 10.1-8.1 16-8.9 0.4-0.1 0.8 0.2 0.8 0.6 0.1 0.4 0 0.4-0.4 0.5-5.6 1.4-8.4 2.6-11.6 5.3-2.8 2.3-4.8 5.5-5.9 9q-0.5 1.7-1.2 3.5c-9.6 27.6-7.6 41-4.7 61.3 1.8 12.4 4.1 27.8 4.1 50.6h-2c0-22.7-2.2-38-4-50.3-3-20.6-5-34.2 4.8-62.3q1.3-3.9 2.5-8c0.5-1.7 0-3.5-1.2-4.8-1.7-1.6-3.6-3-5.8-4.2-0.3-0.1-0.4-0.6-0.3-0.9 0.2-0.4 0.6-0.5 1-0.3 2.1 1.1 4.4 2.7 6.3 4.5 1.2 1.1 1.8 2.7 1.6 4.4z"/>
				<g>
					<path class="s1" d="m127.4 114.7c7.4 6 6.2 13 14.3 19.8 4.9 4 11 2.9 14.7-2.2q0.8-1.1 1.4-2.3 0.3-0.6 0.5-1.3c1.7-4.6 1-9.8-3-12.7-10.5-7.7-27.9-1.3-27.9-1.3z"/>
					<path class="s2" d="m155.7 128.8c0 0 1-6.1-1.1-8.9 0 0 1.1 5.1-0.7 7.4z"/>
					<path class="s2" d="m152.5 126c0 0 0.5-6.2-1.9-8.8 0 0 1.6 5 0 7.5z"/>
					<path class="s2" d="m148.8 124c0 0-0.7-6.1-3.5-8.2 0 0 2.6 4.6 1.4 7.3z"/>
					<path class="s2" d="m155.6 128.8c0 0-4.9 3.8-8.3 3.2 0 0 5.1-1.4 6.2-4.1z"/>
					<path class="s2" d="m152.4 126.6c0 0-5.2 3.3-8.6 2.5 0 0 5.2-1 6.5-3.6z"/>
					<path class="s2" d="m148.5 124.4c0 0-5.7 2.3-8.9 0.8 0 0 5.3 0.1 7.1-2.2z"/>
					<path class="s2" d="m144.1 120.9c0 0-0.6-4.8-2.7-6.4 0 0 1.9 3.6 1 5.7z"/>
					<path class="s2" d="m143.8 121.2c0 0-4.4 1.8-6.9 0.6 0 0 4.1 0 5.5-1.7z"/>
					<path class="s2" d="m139.2 119c0 0-0.4-3.5-2-4.6 0 0 1.4 2.5 0.8 4.1z"/>
					<path class="s2" d="m139 119.2c0 0-3.2 1.3-5 0.4 0 0 2.9 0.1 4-1.2z"/>
					<path class="s0" d="m134.8 117.5c7.1 2.9 18.4 10 22.4 13.5q0.3-0.5 0.6-1 0-0.1 0.1-0.3c-1.7-1.7-13.8-9.8-22.8-12.8-0.4-0.1-0.6 0.4-0.3 0.6z"/>
				</g>
				<g>
					<path class="s3" d="m121.9 277c-2.4 0-4.4-2-4.4-4.4 0-2.4 2-4.4 4.4-4.4q0 0 0.1 0c0.7-2.2 2.8-3.8 5.2-3.8q0.1 0 0.1 0c0.6-1.7 2.2-2.8 4.1-2.8 0.8 0 1.5 0.1 2.1 0.5 0.8-0.5 1.7-0.7 2.7-0.7q0.3 0 0.6 0c1-1.4 2.6-2.3 4.5-2.3 0.4-0.8 1.3-1.4 2.3-1.4 0.5 0 1 0.2 1.5 0.5 1.1-1.2 2.7-2 4.6-2q0.5 0 1.1 0.1c1.3-1.8 3.5-2.9 5.9-2.9 2.4 0 4.6 1.1 5.9 2.9q0.6-0.1 1.1-0.1c1.8 0 3.5 0.8 4.6 2 0.4-0.3 1-0.5 1.5-0.5 1 0 1.9 0.6 2.3 1.4 1.9 0 3.5 0.9 4.5 2.3q0.3 0 0.6 0c1 0 1.9 0.2 2.7 0.7 0.6-0.4 1.3-0.5 2.1-0.5 1.9 0 3.5 1.1 4.1 2.8q0 0 0.1 0c2.4 0 4.5 1.6 5.2 3.8q0.1 0 0.1 0c2.4 0 4.4 2 4.4 4.4 0 2.4-2 4.4-4.4 4.4z"/>
					<path class="s4" d="m130.1 267.3c0 0 3 0.2 3.7-3.1 0 0 0.2 1.4-0.2 2.5-0.5 1-1.7 1.7-3.5 0.6z"/>
					<path class="s4" d="m183.6 268.1c0 0-3.9 0.3-4.8-3.9 0 0-0.3 1.8 0.3 3.1 0.6 1.4 2.1 2.3 4.5 0.8z"/>
					<path class="s4" d="m155.1 273.1c0 0-3.9 0.2-4.7-3.9 0 0-0.3 1.8 0.3 3.1 0.6 1.4 2.1 2.3 4.4 0.8z"/>
					<path class="s4" d="m149.7 263.1c0 0 3.9 0.2 4.7-3.9 0 0 0.4 1.8-0.2 3.1-0.6 1.4-2.2 2.3-4.5 0.8z"/>
					<path class="s4" d="m174.5 266c-1.1 0.7-2.1 0.8-2.8 0.6-0.4 0.4-0.9 0.6-1.5 0.7-1.3 0.3-2.9-0.5-2.9-0.5 1.5 0.1 2.5-0.4 3.3-1q-0.3-0.3-0.4-0.6c-0.6-1.3-0.3-3-0.3-3 0.3 1.3 0.9 2.2 1.5 2.7q0.4 0.4 0.9 0.6c1.1 0.5 2.2 0.5 2.2 0.5z"/>
					<path class="s4" d="m138.9 264.7c1.2 0.7 2.1 0.8 2.8 0.6 0.4 0.4 0.9 0.6 1.5 0.7 1.4 0.2 3-0.5 3-0.5-1.6 0.1-2.6-0.4-3.3-1q0.2-0.3 0.4-0.6c0.5-1.3 0.2-3 0.2-3-0.2 1.3-0.8 2.1-1.5 2.7q-0.4 0.3-0.8 0.6c-1.2 0.5-2.3 0.5-2.3 0.5z"/>
					<path class="s4" d="m125.8 277c6.2 0 8.1-3.4 8.1-3.4 0 0 1.3 3.4 9 3.4z"/>
					<path class="s4" d="m174.6 277c6.2 0 8-3.4 8-3.4 0 0 0.8 3.4 8.5 3.4z"/>
				</g>
			</g>
			<g>
				<g>
					<g>
						<path class="s0" d="m49 256.9c-0.4 0-0.7-0.3-0.7-0.7v-17.4c0-9.1 5-17.3 13-21.4 0.4-0.2 0.8-0.1 1 0.3 0.2 0.3 0 0.7-0.3 0.9-7.6 3.9-12.3 11.7-12.3 20.2v17.4c0 0.4-0.3 0.7-0.7 0.7z"/>
						<g>
							<path class="s1" d="m86.6 206c-7.4 6-6.2 13-14.3 19.7-4.9 4.1-10.9 3-14.7-2.1q-0.8-1.1-1.3-2.3-0.4-0.7-0.6-1.3c-1.7-4.6-0.9-9.8 3.1-12.8 10.5-7.7 27.8-1.2 27.8-1.2z"/>
							<path class="s2" d="m58.4 220.1c0 0-1.1-6.1 1-8.9 0 0-1.1 5.1 0.7 7.4z"/>
							<path class="s2" d="m61.5 217.2c0 0-0.5-6.1 1.9-8.7 0 0-1.6 5 0 7.4z"/>
							<path class="s2" d="m65.2 215.3c0 0 0.7-6.1 3.5-8.2 0 0-2.5 4.6-1.4 7.3z"/>
							<path class="s2" d="m58.4 220.1c0 0 4.9 3.7 8.3 3.2 0 0-5-1.4-6.2-4.1z"/>
							<path class="s2" d="m61.7 217.8c0 0 5.2 3.4 8.6 2.6 0 0-5.2-1-6.6-3.6z"/>
							<path class="s2" d="m65.5 215.7c0 0 5.8 2.3 8.9 0.8 0 0-5.2 0-7.1-2.2z"/>
							<path class="s2" d="m70 212.2c0 0 0.5-4.8 2.7-6.4 0 0-2 3.6-1.1 5.7z"/>
							<path class="s2" d="m70.2 212.5c0 0 4.5 1.7 6.9 0.6 0 0-4.1 0-5.5-1.7z"/>
							<path class="s2" d="m74.9 210.3c0 0 0.4-3.5 1.9-4.7 0 0-1.4 2.6-0.8 4.1z"/>
							<path class="s2" d="m75 210.5c0 0 3.3 1.2 5 0.4 0 0-2.9 0-3.9-1.2z"/>
							<path class="s0" d="m79.2 208.8c-7 2.9-18.4 10-22.4 13.5q-0.3-0.5-0.5-1-0.1-0.2-0.2-0.3c1.8-1.7 13.9-9.8 22.9-12.8 0.3-0.1 0.6 0.4 0.2 0.6z"/>
						</g>
						<path class="s0" d="m49 248.2c-0.4 0-0.7-0.3-0.7-0.7 0-8.6-4.7-16.3-12.3-20.2-0.4-0.2-0.5-0.6-0.3-1 0.2-0.3 0.6-0.5 0.9-0.3 8.1 4.2 13.1 12.4 13.1 21.5 0 0.4-0.3 0.7-0.7 0.7z"/>
						<g>
							<path class="s1" d="m11.3 214.6c7.5 6 6.3 13 14.4 19.8 4.8 4.1 10.9 2.9 14.7-2.2q0.8-1.1 1.3-2.3 0.3-0.6 0.6-1.3c1.7-4.5 0.9-9.8-3.1-12.7-10.5-7.7-27.9-1.3-27.9-1.3z"/>
							<path class="s2" d="m39.6 228.7c0 0 1.1-6.1-1.1-8.8 0 0 1.2 5.1-0.6 7.4z"/>
							<path class="s2" d="m36.5 225.9c0 0 0.4-6.2-1.9-8.8 0 0 1.6 5.1 0 7.5z"/>
							<path class="s2" d="m32.8 224c0 0-0.7-6.2-3.5-8.3 0 0 2.5 4.7 1.4 7.4z"/>
							<path class="s2" d="m39.6 228.7c0 0-4.9 3.8-8.4 3.3 0 0 5.1-1.5 6.3-4.1z"/>
							<path class="s2" d="m36.3 226.5c0 0-5.2 3.4-8.6 2.5 0 0 5.2-1 6.6-3.5z"/>
							<path class="s2" d="m32.5 224.3c0 0-5.8 2.3-8.9 0.9 0 0 5.2 0 7.1-2.3z"/>
							<path class="s2" d="m28 220.8c0 0-0.5-4.7-2.7-6.4 0 0 2 3.6 1.1 5.7z"/>
							<path class="s2" d="m27.8 221.1c0 0-4.5 1.8-6.9 0.7 0 0 4 0 5.5-1.8z"/>
							<path class="s2" d="m23.1 218.9c0 0-0.4-3.4-1.9-4.6 0 0 1.4 2.6 0.7 4.1z"/>
							<path class="s2" d="m22.9 219.1c0 0-3.2 1.3-5 0.5 0 0 3 0 4-1.3z"/>
							<path class="s0" d="m18.8 217.4c7 2.9 18.4 10 22.4 13.6q0.3-0.5 0.5-1.1 0.1-0.1 0.2-0.2c-1.8-1.8-13.9-9.8-22.9-12.8-0.3-0.1-0.6 0.4-0.2 0.5z"/>
						</g>
					</g>
				</g>
				<g>
					<path class="s3" d="m14.2 277c-2.4 0-4.4-2-4.4-4.4 0-2.4 2-4.4 4.4-4.4q0 0 0.1 0c0.7-2.2 2.8-3.8 5.2-3.8q0.1 0 0.1 0c0.6-1.7 2.2-2.8 4.1-2.8 0.8 0 1.5 0.1 2.1 0.5 0.8-0.5 1.7-0.7 2.7-0.7q0.3 0 0.6 0c1-1.4 2.6-2.3 4.5-2.3 0.4-0.8 1.3-1.4 2.3-1.4 0.5 0 1 0.2 1.5 0.5 1.1-1.2 2.7-2 4.6-2q0.5 0 1.1 0.1c1.3-1.8 3.5-2.9 5.9-2.9 2.4 0 4.6 1.1 5.9 2.9q0.6-0.1 1.1-0.1c1.8 0 3.5 0.8 4.6 2 0.4-0.3 1-0.5 1.5-0.5 1 0 1.9 0.6 2.3 1.4 1.9 0 3.5 0.9 4.5 2.3q0.3 0 0.6 0c1 0 1.9 0.2 2.7 0.7 0.6-0.4 1.3-0.5 2.1-0.5 1.9 0 3.5 1.1 4.1 2.8q0 0 0.1 0c2.4 0 4.5 1.6 5.2 3.8q0.1 0 0.1 0c2.4 0 4.4 2 4.4 4.4 0 2.4-2 4.4-4.4 4.4z"/>
					<path class="s4" d="m22.4 267.3c0 0 3 0.2 3.7-3.1 0 0 0.2 1.4-0.2 2.5-0.5 1-1.7 1.7-3.5 0.6z"/>
					<path class="s4" d="m75.9 268.1c0 0-3.9 0.3-4.8-3.9 0 0-0.3 1.8 0.3 3.1 0.6 1.4 2.1 2.3 4.5 0.8z"/>
					<path class="s4" d="m47.4 273.1c0 0-3.9 0.2-4.7-3.9 0 0-0.3 1.8 0.3 3.1 0.6 1.4 2.1 2.3 4.4 0.8z"/>
					<path class="s4" d="m42 263.1c0 0 3.9 0.2 4.7-3.9 0 0 0.4 1.8-0.2 3.1-0.6 1.4-2.2 2.3-4.5 0.8z"/>
					<path class="s4" d="m66.8 266c-1.1 0.7-2.1 0.8-2.8 0.6-0.4 0.4-0.9 0.6-1.5 0.7-1.3 0.3-2.9-0.5-2.9-0.5 1.5 0.1 2.5-0.4 3.3-1q-0.3-0.3-0.4-0.6c-0.6-1.3-0.3-3-0.3-3 0.3 1.3 0.9 2.2 1.5 2.7q0.4 0.4 0.9 0.6c1.1 0.5 2.2 0.5 2.2 0.5z"/>
					<path class="s4" d="m31.2 264.7c1.2 0.7 2.1 0.8 2.8 0.6 0.4 0.4 1 0.6 1.5 0.7 1.4 0.2 3-0.5 3-0.5-1.5 0.1-2.6-0.4-3.3-1q0.2-0.3 0.4-0.6c0.5-1.3 0.2-3 0.2-3-0.2 1.3-0.8 2.1-1.5 2.7q-0.4 0.3-0.8 0.6c-1.2 0.5-2.3 0.5-2.3 0.5z"/>
					<path class="s4" d="m18.1 277c6.3 0 8.1-3.4 8.1-3.4 0 0 1.3 3.4 9 3.4z"/>
					<path class="s4" d="m66.9 277c6.2 0 8.1-3.4 8.1-3.4 0 0 0.7 3.4 8.4 3.4z"/>
				</g>
			</g>
			<g>
				<path class="s3" d="m-93.5 277c-2.4 0-4.4-2-4.4-4.4 0-2.4 2-4.4 4.4-4.4q0 0 0.1 0c0.7-2.2 2.8-3.8 5.2-3.8q0.1 0 0.1 0c0.6-1.7 2.2-2.8 4.1-2.8 0.8 0 1.5 0.1 2.1 0.5 0.8-0.5 1.7-0.7 2.7-0.7q0.3 0 0.6 0c1-1.4 2.6-2.3 4.5-2.3 0.4-0.8 1.3-1.4 2.3-1.4 0.5 0 1 0.2 1.5 0.5 1.1-1.2 2.7-2 4.6-2q0.5 0 1.1 0.1c1.3-1.8 3.5-2.9 5.9-2.9 2.4 0 4.6 1.1 5.9 2.9q0.6-0.1 1.1-0.1c1.8 0 3.5 0.8 4.6 2 0.4-0.3 1-0.5 1.5-0.5 1 0 1.9 0.6 2.3 1.4 1.9 0 3.5 0.9 4.5 2.3q0.3 0 0.6 0c1 0 1.9 0.2 2.7 0.7 0.6-0.4 1.3-0.5 2.1-0.5 1.9 0 3.5 1.1 4.1 2.8q0 0 0.1 0c2.4 0 4.5 1.6 5.2 3.8q0.1 0 0.1 0c2.4 0 4.4 2 4.4 4.4 0 2.4-2 4.4-4.4 4.4z"/>
				<path class="s4" d="m-85.3 267.3c0 0 3 0.2 3.7-3.1 0 0 0.2 1.4-0.2 2.5-0.5 1-1.7 1.7-3.5 0.6z"/>
				<path class="s4" d="m-31.8 268.1c0 0-3.9 0.3-4.8-3.9 0 0-0.3 1.8 0.3 3.1 0.6 1.4 2.1 2.3 4.5 0.8z"/>
				<path class="s4" d="m-60.3 273.1c0 0-3.9 0.2-4.7-3.9 0 0-0.3 1.8 0.3 3.1 0.6 1.4 2.1 2.3 4.4 0.8z"/>
				<path class="s4" d="m-65.7 263.1c0 0 3.9 0.2 4.7-3.9 0 0 0.4 1.8-0.2 3.1-0.6 1.4-2.2 2.3-4.5 0.8z"/>
				<path class="s4" d="m-40.9 266c-1.1 0.7-2.1 0.8-2.8 0.6-0.4 0.4-0.9 0.6-1.5 0.7-1.3 0.3-2.9-0.5-2.9-0.5 1.5 0.1 2.5-0.4 3.3-1q-0.3-0.3-0.4-0.6c-0.6-1.3-0.3-3-0.3-3 0.3 1.3 0.9 2.2 1.5 2.7q0.4 0.4 0.9 0.6c1.1 0.5 2.2 0.5 2.2 0.5z"/>
				<path class="s4" d="m-76.5 264.7c1.2 0.7 2.1 0.8 2.8 0.6 0.4 0.4 1 0.6 1.5 0.7 1.4 0.2 3-0.5 3-0.5-1.5 0.1-2.6-0.4-3.3-1q0.2-0.3 0.4-0.6c0.5-1.3 0.2-3 0.2-3-0.2 1.3-0.8 2.1-1.5 2.7q-0.4 0.3-0.8 0.6c-1.2 0.5-2.3 0.5-2.3 0.5z"/>
				<path class="s4" d="m-89.6 277c6.3 0 8.1-3.4 8.1-3.4 0 0 1.3 3.4 9 3.4z"/>
				<path class="s4" d="m-40.8 277c6.2 0 8.1-3.4 8.1-3.4 0 0 0.7 3.4 8.4 3.4z"/>
			</g>
			<g>
				<g>
					<path class="s0" d="m265.4 256.9h-2c0-22.7-2.2-38-4-50.3-3-20.6-5-34.2 4.8-62.3 5.3-15.4 8.5-33.1 9.3-52.4h2c-0.9 19.6-4 37.5-9.5 53.1-9.6 27.6-7.6 41-4.7 61.3 1.8 12.4 4.1 27.8 4.1 50.6z"/>
					<g>
						<path class="s0" d="m264.4 256.9c-0.4 0-0.7-0.3-0.7-0.7v-17.4c0-9.1 5-17.3 13-21.4 0.4-0.2 0.8-0.1 1 0.3 0.2 0.3 0 0.7-0.3 0.9-7.6 3.9-12.3 11.7-12.3 20.2v17.4c0 0.4-0.3 0.7-0.7 0.7z"/>
						<g>
							<path class="s1" d="m302 206c-7.4 6-6.2 13-14.3 19.7-4.9 4.1-10.9 3-14.7-2.1q-0.8-1.1-1.3-2.3-0.4-0.7-0.6-1.3c-1.7-4.6-0.9-9.8 3-12.8 10.6-7.7 27.9-1.2 27.9-1.2z"/>
							<path class="s2" d="m273.8 220.1c0 0-1.1-6.1 1-8.9 0 0-1.1 5.1 0.7 7.4z"/>
							<path class="s2" d="m276.9 217.2c0 0-0.5-6.1 1.9-8.7 0 0-1.6 5 0 7.4z"/>
							<path class="s2" d="m280.6 215.3c0 0 0.7-6.1 3.5-8.2 0 0-2.5 4.6-1.4 7.3z"/>
							<path class="s2" d="m273.8 220.1c0 0 4.9 3.7 8.3 3.2 0 0-5-1.4-6.2-4.1z"/>
							<path class="s2" d="m277.1 217.8c0 0 5.2 3.4 8.5 2.6 0 0-5.1-1-6.5-3.6z"/>
							<path class="s2" d="m280.9 215.7c0 0 5.8 2.3 8.9 0.8 0 0-5.2 0-7.1-2.2z"/>
							<path class="s2" d="m285.4 212.2c0 0 0.5-4.8 2.7-6.4 0 0-2 3.6-1.1 5.7z"/>
							<path class="s2" d="m285.6 212.5c0 0 4.5 1.7 6.9 0.6 0 0-4.1 0-5.5-1.7z"/>
							<path class="s2" d="m290.3 210.3c0 0 0.4-3.5 1.9-4.7 0 0-1.4 2.6-0.8 4.1z"/>
							<path class="s2" d="m290.4 210.5c0 0 3.3 1.2 5 0.4 0 0-2.9 0-4-1.2z"/>
							<path class="s0" d="m294.6 208.8c-7 2.9-18.4 10-22.4 13.5q-0.3-0.5-0.6-1 0-0.2-0.1-0.3c1.8-1.7 13.9-9.8 22.9-12.8 0.3-0.1 0.5 0.4 0.2 0.6z"/>
						</g>
						<path class="s0" d="m264.4 248.2c-0.4 0-0.7-0.3-0.7-0.7 0-8.6-4.7-16.3-12.3-20.2-0.4-0.2-0.5-0.6-0.3-1 0.2-0.3 0.6-0.5 0.9-0.3 8.1 4.2 13.1 12.4 13.1 21.5 0 0.4-0.3 0.7-0.7 0.7z"/>
						<g>
							<path class="s1" d="m226.7 214.6c7.5 6 6.3 13 14.4 19.8 4.8 4.1 10.9 2.9 14.7-2.2q0.8-1.1 1.3-2.3 0.3-0.6 0.6-1.3c1.7-4.5 0.9-9.8-3.1-12.7-10.5-7.7-27.9-1.3-27.9-1.3z"/>
							<path class="s2" d="m255 228.7c0 0 1.1-6.1-1.1-8.8 0 0 1.2 5.1-0.6 7.4z"/>
							<path class="s2" d="m251.8 225.9c0 0 0.5-6.2-1.8-8.8 0 0 1.6 5.1 0 7.5z"/>
							<path class="s2" d="m248.2 224c0 0-0.7-6.2-3.5-8.3 0 0 2.5 4.7 1.4 7.4z"/>
							<path class="s2" d="m255 228.7c0 0-4.9 3.8-8.4 3.3 0 0 5.1-1.5 6.3-4.1z"/>
							<path class="s2" d="m251.7 226.5c0 0-5.2 3.4-8.6 2.5 0 0 5.2-1 6.6-3.5z"/>
							<path class="s2" d="m247.9 224.3c0 0-5.8 2.3-8.9 0.9 0 0 5.2 0 7.1-2.3z"/>
							<path class="s2" d="m243.4 220.8c0 0-0.5-4.7-2.7-6.4 0 0 2 3.6 1.1 5.7z"/>
							<path class="s2" d="m243.2 221.1c0 0-4.5 1.8-6.9 0.7 0 0 4 0 5.5-1.8z"/>
							<path class="s2" d="m238.5 218.9c0 0-0.4-3.4-1.9-4.6 0 0 1.4 2.6 0.7 4.1z"/>
							<path class="s2" d="m238.3 219.1c0 0-3.2 1.3-5 0.5 0 0 3 0 4-1.3z"/>
							<path class="s0" d="m234.2 217.4c7 2.9 18.4 10 22.4 13.6q0.3-0.5 0.5-1.1 0.1-0.1 0.2-0.2c-1.8-1.8-13.9-9.8-22.9-12.8-0.3-0.1-0.6 0.4-0.2 0.5z"/>
						</g>
					</g>
					<g>
						<path class="s0" d="m260.1 205.4c1-7.8 5.7-14.6 12.8-18.3 0.4-0.2 0.8-0.1 1 0.3 0.2 0.3 0 0.8-0.3 1-7.6 3.9-12.3 11.6-12.3 20.1v2.9z"/>
						<g>
							<path class="s1" d="m298.2 175.7c-7.4 6-6.2 13-14.3 19.8-4.9 4-10.9 2.9-14.7-2.2q-0.8-1.1-1.3-2.3-0.4-0.6-0.6-1.3c-1.7-4.6-0.9-9.8 3.1-12.7 10.5-7.7 27.8-1.3 27.8-1.3z"/>
							<path class="s2" d="m270 189.8c0 0-1.1-6.1 1-8.9 0 0-1.1 5.2 0.7 7.5z"/>
							<path class="s2" d="m273.1 187c0 0-0.5-6.2 1.9-8.8 0 0-1.6 5 0 7.5z"/>
							<path class="s2" d="m276.8 185c0 0 0.7-6.1 3.5-8.2 0 0-2.5 4.6-1.4 7.3z"/>
							<path class="s2" d="m270 189.8c0 0 4.9 3.8 8.3 3.2 0 0-5-1.4-6.2-4.1z"/>
							<path class="s2" d="m273.3 187.6c0 0 5.2 3.3 8.6 2.5 0 0-5.2-1-6.6-3.6z"/>
							<path class="s2" d="m277.1 185.4c0 0 5.8 2.3 8.9 0.8 0 0-5.2 0.1-7.1-2.2z"/>
							<path class="s2" d="m281.6 181.9c0 0 0.5-4.8 2.7-6.4 0 0-2 3.6-1.1 5.7z"/>
							<path class="s2" d="m281.8 182.2c0 0 4.5 1.8 6.9 0.6 0 0-4.1 0-5.5-1.7z"/>
							<path class="s2" d="m286.5 180c0 0 0.4-3.5 1.9-4.6 0 0-1.4 2.6-0.8 4.1z"/>
							<path class="s2" d="m286.7 180.2c0 0 3.2 1.3 4.9 0.5 0 0-2.9 0-3.9-1.3z"/>
							<path class="s0" d="m290.8 178.5c-7 2.9-18.4 10-22.4 13.5q-0.3-0.5-0.5-1-0.1-0.1-0.2-0.3c1.8-1.7 13.9-9.8 22.9-12.7 0.3-0.2 0.6 0.4 0.2 0.5z"/>
						</g>
					</g>
					<g>
						<path class="s0" d="m259.8 161.4c3.7-4.4 9-7.3 14.9-8.1 0.4 0 0.8 0.2 0.8 0.6 0.1 0.4-0.2 0.8-0.6 0.8-6.1 0.9-11.4 4.1-15 8.8z"/>
						<g>
							<path class="s1" d="m302.4 151c-9 3.2-10.2 10.2-20.1 13.9-6 2.2-11.3-0.9-13.1-7q-0.4-1.3-0.6-2.6 0-0.7-0.1-1.4c0-4.9 2.4-9.5 7.2-11 12.5-3.7 26.7 8.1 26.7 8.1z"/>
							<path class="s2" d="m271 154.9c0 0 1.1-6.1 4-8 0 0-2.8 4.4-1.9 7.2z"/>
							<path class="s2" d="m275 153.3c0 0 1.6-6 4.6-7.6 0 0-3.1 4.1-2.4 7z"/>
							<path class="s2" d="m279.1 152.7c0 0 2.7-5.6 6-6.6 0 0-3.9 3.5-3.8 6.4z"/>
							<path class="s2" d="m271.1 154.9c0 0 3.3 5.2 6.7 5.8 0 0-4.3-3-4.5-5.9z"/>
							<path class="s2" d="m274.9 153.9c0 0 3.8 4.9 7.2 5.2 0 0-4.5-2.6-5-5.5z"/>
							<path class="s2" d="m279.2 153.1c0 0 4.7 4.1 8.1 3.8 0 0-4.9-1.7-5.9-4.5z"/>
							<path class="s2" d="m284.6 151.3c0 0 2.1-4.3 4.7-5.1 0 0-3 2.7-2.9 5z"/>
							<path class="s2" d="m284.7 151.7c0 0 3.6 3.1 6.3 2.9 0 0-3.8-1.4-4.6-3.5z"/>
							<path class="s2" d="m289.9 151.2c0 0 1.5-3.2 3.3-3.7 0 0-2.1 1.9-2.1 3.6z"/>
							<path class="s2" d="m290 151.4c0 0 2.6 2.3 4.5 2.1 0 0-2.8-1-3.3-2.5z"/>
							<path class="s0" d="m294.5 151.2c-7.7 0.4-20.8 3.3-25.7 5.3q-0.1-0.6-0.2-1.2 0-0.1 0-0.3c2.2-1 16.3-4.6 25.8-4.4 0.4 0 0.4 0.6 0.1 0.6z"/>
						</g>
					</g>
					<g>
						<path class="s0" d="m266.7 137.9c3.7-6.4 10.1-10.8 17.6-11.8 0.4-0.1 0.8 0.2 0.8 0.6 0.1 0.4-0.2 0.8-0.6 0.8-7.6 1-14 5.7-17.3 12.5z"/>
						<g>
							<path class="s1" d="m312 123.8c-9 3.2-10.3 10.2-20.2 13.9-5.9 2.2-11.3-0.9-13.1-7q-0.4-1.3-0.5-2.6-0.1-0.7-0.1-1.4c0-4.9 2.4-9.6 7.2-11 12.5-3.7 26.7 8.1 26.7 8.1z"/>
							<path class="s2" d="m280.6 127.7c0 0 1.1-6.1 4-8 0 0-2.8 4.4-1.9 7.2z"/>
							<path class="s2" d="m284.5 126.1c0 0 1.6-6 4.7-7.7 0 0-3.2 4.2-2.5 7.1z"/>
							<path class="s2" d="m288.6 125.5c0 0 2.7-5.6 6.1-6.6 0 0-3.9 3.5-3.8 6.4z"/>
							<path class="s2" d="m280.6 127.7c0 0 3.4 5.2 6.8 5.8 0 0-4.3-3-4.5-5.9z"/>
							<path class="s2" d="m284.5 126.7c0 0 3.7 4.9 7.2 5.2 0 0-4.5-2.6-5-5.5z"/>
							<path class="s2" d="m288.8 125.9c0 0 4.6 4.1 8.1 3.8 0 0-4.9-1.8-5.9-4.5z"/>
							<path class="s2" d="m294.2 124.1c0 0 2.1-4.3 4.7-5.1 0 0-3.1 2.7-3 5z"/>
							<path class="s2" d="m294.3 124.4c0 0 3.6 3.2 6.3 3 0 0-3.8-1.4-4.6-3.5z"/>
							<path class="s2" d="m299.4 123.9c0 0 1.6-3.1 3.4-3.7 0 0-2.2 2-2.1 3.6z"/>
							<path class="s2" d="m299.5 124.2c0 0 2.6 2.3 4.6 2.1 0 0-2.8-1-3.4-2.5z"/>
							<path class="s0" d="m304 124c-7.6 0.4-20.7 3.3-25.6 5.3q-0.1-0.6-0.2-1.2 0-0.2 0-0.3c2.2-1.1 16.3-4.6 25.8-4.4 0.3 0 0.4 0.6 0 0.6z"/>
						</g>
					</g>
					<g>
						<path class="s0" d="m259.6 202.3c-1.8-5.6-5.7-10.3-11.1-13.1-0.4-0.2-0.5-0.6-0.4-1 0.2-0.3 0.7-0.5 1-0.3 4.5 2.4 8.1 6 10.4 10.3z"/>
						<g>
							<path class="s1" d="m223.8 176.5c7.4 6 6.2 13 14.3 19.8 4.9 4.1 11 2.9 14.7-2.2q0.8-1.1 1.4-2.3 0.3-0.6 0.6-1.3c1.6-4.5 0.9-9.8-3.1-12.7-10.5-7.7-27.9-1.3-27.9-1.3z"/>
							<path class="s2" d="m252.1 190.6c0 0 1-6.1-1.1-8.8 0 0 1.2 5.1-0.7 7.4z"/>
							<path class="s2" d="m248.9 187.8c0 0 0.5-6.2-1.8-8.7 0 0 1.6 5-0.1 7.4z"/>
							<path class="s2" d="m245.2 185.9c0 0-0.6-6.2-3.4-8.3 0 0 2.5 4.7 1.4 7.4z"/>
							<path class="s2" d="m252 190.6c0 0-4.8 3.8-8.3 3.3 0 0 5.1-1.5 6.2-4.1z"/>
							<path class="s2" d="m248.8 188.4c0 0-5.2 3.4-8.6 2.5 0 0 5.2-1 6.6-3.5z"/>
							<path class="s2" d="m244.9 186.2c0 0-5.7 2.3-8.9 0.9 0 0 5.3 0 7.1-2.3z"/>
							<path class="s2" d="m240.5 182.7c0 0-0.6-4.7-2.7-6.4 0 0 1.9 3.6 1.1 5.7z"/>
							<path class="s2" d="m240.2 183c0 0-4.4 1.8-6.9 0.7 0 0 4.1 0 5.6-1.8z"/>
							<path class="s2" d="m235.6 180.8c0 0-0.4-3.4-2-4.6 0 0 1.4 2.6 0.8 4.1z"/>
							<path class="s2" d="m235.4 181c0 0-3.2 1.3-5 0.5 0 0 3 0 4-1.3z"/>
							<path class="s0" d="m231.2 179.3c7.1 2.9 18.5 10 22.5 13.6q0.2-0.5 0.5-1.1 0.1-0.1 0.1-0.2c-1.7-1.8-13.8-9.8-22.8-12.8-0.4-0.1-0.6 0.4-0.3 0.5z"/>
						</g>
					</g>
					<g>
						<path class="s0" d="m258.6 171.7c-1.7-5.9-5.7-10.9-11.4-13.8-0.3-0.2-0.5-0.6-0.3-1 0.2-0.3 0.6-0.5 1-0.3 5.1 2.7 9 7 11.2 12.1z"/>
						<g>
							<path class="s1" d="m222.6 145.2c7.4 6 6.2 13 14.3 19.8 4.9 4.1 11 2.9 14.7-2.2q0.8-1.1 1.4-2.3 0.3-0.6 0.5-1.3c1.7-4.5 1-9.8-3-12.7-10.6-7.7-27.9-1.3-27.9-1.3z"/>
							<path class="s2" d="m250.9 159.3c0 0 1-6.1-1.1-8.8 0 0 1.1 5.1-0.7 7.4z"/>
							<path class="s2" d="m247.7 156.5c0 0 0.5-6.2-1.9-8.8 0 0 1.6 5.1 0 7.5z"/>
							<path class="s2" d="m244 154.6c0 0-0.7-6.2-3.5-8.3 0 0 2.5 4.7 1.4 7.4z"/>
							<path class="s2" d="m250.8 159.3c0 0-4.9 3.8-8.3 3.3 0 0 5-1.5 6.2-4.1z"/>
							<path class="s2" d="m247.6 157.1c0 0-5.2 3.4-8.6 2.5 0 0 5.1-1 6.5-3.5z"/>
							<path class="s2" d="m243.7 154.9c0 0-5.7 2.3-8.9 0.9 0 0 5.3 0 7.1-2.3z"/>
							<path class="s2" d="m239.3 151.4c0 0-0.6-4.7-2.7-6.4 0 0 1.9 3.6 1 5.7z"/>
							<path class="s2" d="m239 151.7c0 0-4.4 1.8-6.9 0.7 0 0 4.1 0 5.5-1.8z"/>
							<path class="s2" d="m234.4 149.5c0 0-0.4-3.4-2-4.6 0 0 1.4 2.6 0.8 4.1z"/>
							<path class="s2" d="m234.2 149.7c0 0-3.2 1.3-5 0.5 0 0 2.9 0 4-1.3z"/>
							<path class="s0" d="m230 148c7.1 2.9 18.4 10 22.4 13.6q0.3-0.5 0.6-1.1 0-0.1 0.1-0.2c-1.7-1.8-13.8-9.8-22.9-12.8-0.3-0.1-0.5 0.4-0.2 0.5z"/>
						</g>
					</g>
					<g>
						<path class="s0" d="m268.1 134.7c-2.1-3-4.9-5.6-8.4-7.4-0.3-0.1-0.5-0.6-0.3-0.9 0.2-0.4 0.6-0.5 1-0.3 3.3 1.7 6.1 4.1 8.3 7z"/>
						<g>
							<path class="s1" d="m235.1 114.7c7.4 6 6.2 13 14.3 19.8 4.9 4 11 2.9 14.7-2.2q0.8-1.1 1.4-2.3 0.3-0.6 0.5-1.3c1.7-4.6 1-9.8-3-12.7-10.5-7.7-27.9-1.3-27.9-1.3z"/>
							<path class="s2" d="m263.4 128.8c0 0 1-6.1-1.1-8.9 0 0 1.1 5.1-0.7 7.4z"/>
							<path class="s2" d="m260.2 126c0 0 0.5-6.2-1.9-8.8 0 0 1.6 5 0 7.5z"/>
							<path class="s2" d="m256.5 124c0 0-0.7-6.1-3.5-8.2 0 0 2.6 4.6 1.4 7.3z"/>
							<path class="s2" d="m263.3 128.8c0 0-4.9 3.8-8.3 3.2 0 0 5.1-1.4 6.2-4.1z"/>
							<path class="s2" d="m260.1 126.6c0 0-5.2 3.3-8.6 2.5 0 0 5.1-1 6.5-3.6z"/>
							<path class="s2" d="m256.2 124.4c0 0-5.7 2.3-8.9 0.8 0 0 5.3 0.1 7.1-2.2z"/>
							<path class="s2" d="m251.8 120.9c0 0-0.6-4.8-2.7-6.4 0 0 1.9 3.6 1 5.7z"/>
							<path class="s2" d="m251.5 121.2c0 0-4.4 1.8-6.9 0.6 0 0 4.1 0 5.5-1.7z"/>
							<path class="s2" d="m246.9 119c0 0-0.4-3.5-2-4.6 0 0 1.4 2.5 0.8 4.1z"/>
							<path class="s2" d="m246.7 119.2c0 0-3.2 1.3-5 0.4 0 0 2.9 0.1 4-1.2z"/>
							<path class="s0" d="m242.5 117.5c7.1 2.9 18.4 10 22.4 13.5q0.3-0.5 0.6-1 0-0.1 0.1-0.3c-1.7-1.7-13.8-9.8-22.8-12.8-0.4-0.1-0.6 0.4-0.3 0.6z"/>
						</g>
					</g>
				</g>
				<g>
					<path class="s3" d="m229.6 277c-2.4 0-4.4-2-4.4-4.4 0-2.4 2-4.4 4.4-4.4q0 0 0.1 0c0.7-2.2 2.8-3.8 5.2-3.8q0.1 0 0.1 0c0.6-1.7 2.2-2.8 4.1-2.8 0.8 0 1.5 0.1 2.1 0.5 0.8-0.5 1.7-0.7 2.7-0.7q0.3 0 0.6 0c1-1.4 2.6-2.3 4.5-2.3 0.4-0.8 1.3-1.4 2.3-1.4 0.5 0 1 0.2 1.5 0.5 1.1-1.2 2.7-2 4.6-2q0.5 0 1.1 0.1c1.3-1.8 3.5-2.9 5.9-2.9 2.4 0 4.6 1.1 5.9 2.9q0.6-0.1 1.1-0.1c1.8 0 3.5 0.8 4.6 2 0.4-0.3 1-0.5 1.5-0.5 1 0 1.9 0.6 2.3 1.4 1.9 0 3.5 0.9 4.5 2.3q0.3 0 0.6 0c1 0 1.9 0.2 2.7 0.7 0.6-0.4 1.3-0.5 2.1-0.5 1.9 0 3.5 1.1 4.1 2.8q0 0 0.1 0c2.4 0 4.5 1.6 5.2 3.8q0.1 0 0.1 0c2.4 0 4.4 2 4.4 4.4 0 2.4-2 4.4-4.4 4.4z"/>
					<path class="s4" d="m237.8 267.3c0 0 3 0.2 3.7-3.1 0 0 0.2 1.4-0.2 2.5-0.5 1-1.7 1.7-3.5 0.6z"/>
					<path class="s4" d="m291.3 268.1c0 0-3.9 0.3-4.8-3.9 0 0-0.3 1.8 0.3 3.1 0.6 1.4 2.1 2.3 4.5 0.8z"/>
					<path class="s4" d="m262.8 273.1c0 0-3.9 0.2-4.7-3.9 0 0-0.3 1.8 0.3 3.1 0.6 1.4 2.1 2.3 4.4 0.8z"/>
					<path class="s4" d="m257.4 263.1c0 0 3.9 0.2 4.7-3.9 0 0 0.4 1.8-0.2 3.1-0.6 1.4-2.2 2.3-4.5 0.8z"/>
					<path class="s4" d="m282.2 266c-1.1 0.7-2.1 0.8-2.8 0.6-0.4 0.4-0.9 0.6-1.5 0.7-1.3 0.3-2.9-0.5-2.9-0.5 1.5 0.1 2.5-0.4 3.3-1q-0.3-0.3-0.4-0.6c-0.6-1.3-0.3-3-0.3-3 0.3 1.3 0.9 2.2 1.5 2.7q0.4 0.4 0.9 0.6c1.1 0.5 2.2 0.5 2.2 0.5z"/>
					<path class="s4" d="m246.6 264.7c1.2 0.7 2.1 0.8 2.8 0.6 0.4 0.4 0.9 0.6 1.5 0.7 1.4 0.2 2.9-0.5 2.9-0.5-1.5 0.1-2.5-0.4-3.2-1q0.2-0.3 0.4-0.6c0.5-1.3 0.2-3 0.2-3-0.2 1.3-0.8 2.1-1.5 2.7q-0.4 0.3-0.8 0.6c-1.2 0.5-2.3 0.5-2.3 0.5z"/>
					<path class="s4" d="m233.5 277c6.2 0 8.1-3.4 8.1-3.4 0 0 1.3 3.4 9 3.4z"/>
					<path class="s4" d="m282.3 277c6.2 0 8-3.4 8-3.4 0 0 0.8 3.4 8.5 3.4z"/>
				</g>
				<g>
					<path class="s8" d="m263.5 81.4c3.3-8.6 12.9-12.9 21.5-9.6 8.5 3.3 12.8 12.9 9.5 21.5z"/>
					<path class="s1" d="m304 85.6c0 0-4.1 1.7-7.2 9.7-3.7 9.8-14.7 14.7-24.5 10.9-9.7-3.7-14.6-14.7-10.8-24.5 2.8-7.3-2.9-12.6-2.9-12.6 0 0 9.2 2.2 12.7 10 1.4-1.3 3.2-2.3 5.5-2.5 0 0 0.6 2.5 3.2 5.6 1.4-2 2.2-4.2 2.2-4.2 0 0 1.1 2 1.4 4.3 1.2-0.5 2.6-1.3 3.6-2.3 0 0 2 3.4 1.3 9.3 3.3-2.7 9.1-6 15.5-3.7z"/>
				</g>
			</g>
		</g>
	</g>
</svg>